<svg version="1.1" id="Layer_1" xmlns="http://www.w3.org/2000/svg" x="0" y="0" viewBox="0 0 530.32 674.6" style="enable-background:new 0 0 530.32 674.6" xml:space="preserve"><style>.st1{fill:#e6ca85}.st2{fill:none}</style><path d="M530.32 4.38c0-3.66-.72-4.38-4.38-4.38C352.08.12 178.23.12 4.38 0 .72 0 0 .72 0 4.38c.11 221.95.11 443.9 0 665.85 0 3.66.72 4.38 4.38 4.38 173.85-.12 347.71-.12 521.56 0 3.66 0 4.38-.72 4.38-4.38-.13-110.8-.1-221.59-.1-332.39-.01-111.16-.03-222.31.1-333.46z"/><path d="M513.22 25.84c0-3.42-.67-4.1-4.1-4.09-162.65.11-325.29.11-487.94 0-3.42 0-4.1.67-4.09 4.09.11 207.64.11 415.28 0 622.92 0 3.42.67 4.1 4.09 4.09 162.65-.11 325.29-.11 487.94 0 3.42 0 4.1-.67 4.1-4.09-.12-103.65-.1-207.31-.1-310.96.01-103.99-.02-207.97.1-311.96z" style="stroke:#e6ca85;stroke-width:5;stroke-miterlimit:10"/><path class="st1" d="M230.21 395.57c13.68 50.94 45.73 88.4 87.28 118.78-35.4-35.01-68.78-71.4-87.28-118.78zM129.55 633.3c-5.24-3.47-8.86-8.56-12.85-13.16-13.94-16.07-27.65-32.34-40.65-49.21-13.6-17.64-27.01-35.39-39.53-53.8-.86-1.26-1.79-3.67-3.55-2.49-1.52 1.02-.24 3.17.77 4.43 3.47 4.34 6.05 9.32 8.07 14.28 4.68 11.54 10.04 22.67 16.38 33.38 11.1 18.75 22.62 37.2 37.02 53.67 3.17 3.63 6.39 7.15 9.16 11.14 2.17 3.12 4.73 7.19 9.31 6.64 4.7-.56 9.26-.42 13.5.32 1.96-.17 4.05.6 4.82-1.33.77-1.95-1.16-3.01-2.45-3.87z"/><path class="st2" d="M38.84 100.19c1.12 4.75 2.56 6.92 7.18 4.41 3.78-2.06 7.66-2.74 11.75-3.56 18.78-3.79 37.73-5.85 56.84-6.47 12.14-.4 24.26-.33 36.36 1.26 11.53 1.52 23.35 1.46 34.53 4.77 13.54 4.01 27.56 6.38 40.71 11.78 2.58 1.06 5.44 1.62 8.23 1.96 2.9.35 5.54 1.17 7.89 2.83 3.78 2.68 7.99 4.02 12.58 4.3 11.63.71 22.69 3.56 33.24 8.56 5.11 2.42 10.23 4.97 15.58 6.75 12.49 4.14 24.07 9.97 34.83 17.48 15.14 10.56 31.04 20.06 44.71 32.64 6.22 5.73 13.33 10.67 18.73 17.07 3.83 4.54 7.71 6.08 12.92 5.21 7-1.17 13.92.19 20.88.13 16.31-.13 32.62-.04 48.93-.04 0 .12 0 .23.01.35 2.83 0 5.69.24 8.48-.06 3.73-.4 6.88-2.07 7.27-6.27.34-3.63.19-7.3.14-10.96-.24-19.08-1.05-38.18-.66-57.24.49-23.65.82-47.29.69-70.95-.05-7.8-.51-15.59-.86-23.39-.09-1.97-.12-4.39-3.13-4.01-6.64.84-13.21 2.97-19.84-.44-1.45-.74-3.92-.72-5.38.02-6.56 3.32-12.98 3.56-19.55.24-.37-.19-1.06-.08-1.44.15-2.98 1.88-6 1.07-9.17.58-4.26-.65-8.64-1.28-12.91-1-9.09.59-18.11 2.06-27.29.88-3.2-.41-6.56-.51-9.35 2.21-1.39 1.36-3.5.5-5.21-.28-5.89-2.67-12.5-2.35-18.45-2.38-17.26-.11-34.52 1.05-51.83.76-10.55-.18-21.11.93-31.67 1.15-9.21.2-18.46-.49-27.64.1-5.91.38-11.01-3.65-17.13-1.79-9.62 2.92-19.87-1.54-29.59 2-1.25.46-2.95-.16-4.41-.44-1.32-.26-2.82-.86-3.89-.06-3.47 2.62-5.96-.23-9.01-.89-3.01-.65-5.88 3.62-9.72 2.31-.63-.21-1.26-.53-1.91-.56-8.2-.42-16.28-3.12-24.63-.98-5.55 1.42-11.26.75-16.92.56-6.61-.23-13.41-1.65-19.77-.53-16.07 2.83-32.11-2.23-48.35 1.14-6.67 1.38-14.66 1.49-22.16.08-6.93-1.3-12.24 3.41-11.2 9.17 1.45 8.06 1.42 15.98-.57 23.92-.28 1.1-.43 2.46-.03 3.46 3.16 7.85-.71 16 1.19 24.07z"/><path class="st1" d="M235.8 636.39c-4.26-2.05-6.52-6.11-10.19-8.67-16.28-11.39-30.24-25.52-45.08-38.6-7.5-6.61-13.29-14.91-20.34-21.91-18.31-18.17-33.73-38.63-47.67-60.12-12.85-19.81-23.9-40.74-32.7-62.74-6.56-16.39-11.29-33.31-14.59-50.67-2.75-14.48-2.97-29.15-2.94-43.74.02-9.26-.69-18.75 1.29-27.89 3.83-17.67 6.8-35.53 13.95-52.39 6.71-15.85 14.71-30.91 24.34-45.13.89-1.31 2.47-2.27 2.02-4.36-.53.2-1.07.26-1.39.56-.73.67-1.48 1.37-2 2.19-14.3 22.63-28.95 44.95-34.6 71.93-3.09 14.73-8.23 28.88-9.49 44.18-1.27 15.54-3.16 31.01-.8 46.47 1.75 11.47 1.51 23.22 4.94 34.44 2.82 9.22 5.32 18.54 8.49 27.63 2.89 8.3 5.63 16.86 10.05 24.35 3.49 5.92 6.26 11.56 6.41 18.4.02.98-.2 2.24.92 2.65 5.29 1.95 6.51 7.18 9.09 11.25 8.54 13.49 16.56 27.31 25.64 40.47 5.49 7.96 12.08 15.02 17.85 22.72 16.93 22.62 36.64 42.55 57.7 61.24 3.1 2.76 6.72 5.01 9.45 8.08 2.83 3.18 5.97 4.06 9.81 3.29 4.32-.87 8.58-.73 12.91-.03 1.94.31 4.03.39 5.95.05 2.4-.43 3.39-2.5.98-3.65z"/><path class="st2" d="M490.73 432.4c-2.98-16.91-3.6-34.16-9.38-50.68-3.77-10.76-6.08-22-10.01-32.83-6.03-16.57-12.02-33.07-19.77-48.96-13.07-26.79-29.23-51.54-48.71-74-18.76-21.63-39.32-41.45-63.35-57.34-10.4-6.88-21.09-13.27-32.29-18.8-12.26-6.05-25.04-10.84-37.64-16.08-1.07-.44-2.46-1.14-3.16.1-.84 1.51.86 1.85 1.78 2.41 3.94 2.44 8.19 4.49 11.98 6.99 10.5 6.95 20.68 14.44 30.54 22.28 7.9 6.29 14.65 14.12 22.48 20.32 9.15 7.24 16.56 15.93 23.91 24.57 11.18 13.14 22.73 26.15 31.8 40.89 4.39 7.14 10.63 13.16 13.36 21.31 1.45 4.33 3.78 8.14 6.45 11.77 1.79 2.45 3.18 5.08 3.95 8.01 2.11 8.07 6.17 15.37 9.05 23.13 1.74 4.69 6.18 8.77 6.29 13.14.24 9.35 5.18 16.98 7.44 25.5 2.51 9.45 4.16 19.1 6.99 28.45 3 9.91 2.31 20.82 8.09 29.99.5.8.74 1.89.78 2.85.21 6.13.9 12.23 1.14 18.37.4 10.48 1.57 20.94 2.62 31.4.57 5.63.27 11.05 3.73 16.06 1.32 1.91 3.05 4.34 1.81 7.37-.65 1.6.25 2.94 2.29 2.9 3.24-.07 4.02 1.68 3.48 4.54-.25 1.31-1.69 3.27.63 3.7 2.03.37 2.38-1.7 2.85-3.38 1.58-5.6 2.59-11.53 5.2-16.63 3.13-6.11 5.95-13.36 14.87-13.55 2.58-.06 3.49-1.93 3.98-4.33.68-3.37-.81-6.54-.48-9.84-.42-6.6-1.55-13.11-2.7-19.63z"/><path class="st2" d="M34.9 126.49c2.71 1.41 2.35 4.03 2.72 6.49.36 2.41.96 5.6 4.56 3.95 2.71-1.24 5.42-1.25 8.19-1.69 7.13-1.13 14.36-2.36 20.49-6.46 4.85-3.25 10.43-4.64 15.78-5.19 16.36-1.68 32.82-2.39 49.64-1.12 6.82-.73 13.32 2.19 20.13 3.5 13.21 2.53 26.24 5.46 38.95 9.91 16.29 5.71 30.95 14.48 45.56 23.41 9.98 6.1 18.7 13.87 27.97 20.89 12.64 9.57 23.47 21.16 33.59 33.3 3.91 4.69 7.21 10.01 11.35 14.51 11.32 12.33 19.49 26.76 28 40.96 2.8 4.67 4.62 9.89 8.57 13.88 1.54 1.55 2.42 3.66 2.78 5.8 1.07 6.36 4.71 9.93 11.04 11.04 2.55.45 4.25 2.16 5.75 4.39 7.21 10.75 11.34 22.76 14.75 35.09.64 2.33 1.65 4.18 4.53 3.08 4.23-1.61 6.07 1.19 6.94 4.29 1.04 3.72 2.65 7.16 3.96 10.74 3.32 9.07 2.82 18.83 4.87 28.17 1.74 7.95 4.34 10.5 12.78 10.05 1.57-.09 3.85-.66 4.06 1.63.23 2.44-2.12 2.68-3.92 2.8-2.32.16-4.66-.05-6.99.03-1.58.06-3.24.57-3.09 2.49.17 2.1 2.09 2.24 3.43 1.56 3.46-1.75 6.21-.14 9.43.92 4.64 1.53 3.07 5.24 3.98 8.15 4.24 13.65 7.65 27.52 11.21 41.35 2.72 10.57 4.25 20.95 1.91 31.71-.21.95-.25 1.99-.13 2.95.1.85.65 1.58 1.66 1.51.73-.05 1.28-.55 1.3-1.27.23-7.11 4.12-13.52 3.37-20.95-.54-5.28-1.69-10.5-1.9-15.77-.53-13.07 1.48-26.4-4.67-38.8-.48-.98-.54-2.26-.51-3.39.4-15.71-5.9-30.18-8.5-45.34-1.11-6.46-4.15-12.57-6.03-18.93-6.68-22.6-16.4-43.97-27.15-64.79-14.23-27.56-32.01-52.77-53.18-75.61-13.35-14.4-27.32-28.19-42.6-40.34-25.23-20.05-52.74-36.27-83.76-46.34-14.87-4.82-29.45-10.14-45.12-11.7-13.03-1.3-26.1-4.39-39.03-3.82-11.82.52-23.54-1.23-35.43.12-10.33 1.18-20.6 3.05-31.08 3.57-9.97.49-18.42 7.1-27.64 10.76-1.16.46-2.12 1.6-2.99 2.59-1.84 2.08-2.87 4.19.47 5.92zM500.21 358.57c1.11-18.83-.18-37.63-.12-56.44.02-4.73-2.14-7.51-5.95-10.1-17.29-11.75-35.97-21.54-51.23-36.19-2.23-2.14-4.94-3.77-7.43-5.64-.09.89.28 1.37.56 1.9 4.66 9.05 12.02 16.34 16.53 25.52 5.05 10.28 9.54 20.98 15.78 30.5 5.75 8.78 7.35 18.98 11.97 28.15 5.01 9.92 6.8 21.48 9.92 32.35.47 1.63.88 3.25 2.1 4.45 2.6 2.54 3.13 5.68 3.12 9.15-.01 9.15 2.7 18.1 2.14 27.32-.05.76.2 1.66 1.48 2.17 1.67-6.69 1.98-13.43 1.5-20.17-.78-11-1.02-22-.37-32.97z"/><path class="st1" d="M464.11 638.14c-6.19-.47-12.12-2.23-18.02-3.86-16.85-4.66-33.15-10.85-49.17-17.93-18.56-8.2-37.1-16.38-55.13-25.71-19.85-10.27-38.34-22.68-57.06-34.76-17.54-11.32-33.36-24.78-48.77-38.74-9.86-8.93-19.26-18.35-27.8-28.58-17.69-21.19-34.69-42.77-47.38-67.57-6.02-11.78-9.65-24.41-15.21-36.29-.41-.89-.56-1.91-.74-2.89-2.02-10.54-5.47-20.74-7.14-31.37 1.41 7.57.31 15.32 2.15 22.84 4.03 16.57 7.95 33.15 13.56 49.29 3.76 10.84 8.86 21.07 13.87 31.32 5.55 11.34 13.34 21.31 21.12 31.18 9.32 11.83 18.79 23.46 29.77 33.95 20.61 19.68 42.16 38.19 65.78 54.06 19.99 13.44 41.18 24.9 63.14 34.96 16.5 7.56 33.05 14.94 50.04 21.3 14.85 5.55 29.33 12.75 45.96 11.09 1.79-.18 3.64.46 5.46.48 6.37.07 12.75.03 19.38.03-.77-2.58-2.41-2.7-3.81-2.8z"/><path class="st2" d="M489.29 481.08c-3.65-1-5.61 1.02-7.21 4.4-2.71 5.74-4.82 11.8-6.57 17.73-1.68 5.69-4.99 11.25-4.16 17.66.24 1.86.47 4.49-2.32 4.72-2.34.19-3.63-2.06-3.91-3.92-1.45-9.59-6.91-17.52-10.44-26.23-.75-1.86-1.92-1.96-3.58-1.55-2.19.53-3.29 2.06-4.14 3.97-1.52 3.38-2.28 6.93-2.93 10.55-.33 1.85-1.3 3.45-3.61 3.51-1.49.04-2.86-.46-3.14-1.91-1.23-6.42-5.32-11.36-8.37-16.85-1.01-1.82-.69-3.78-.62-5.81.16-5.1 2.04-10.3.2-15.29-2.93-7.96-3.64-16.42-6.11-24.52-2.54-8.31-3.87-17.01-7.18-25.13-.55-1.36-.91-3.11-2.87-2.93-1.79.16-2.3 1.77-2.74 3.2-.87 2.86-1.55 5.79-2.5 8.63-.6 1.8-1.76 3.45-3.92 3.24-2.48-.24-2.51-2.37-2.45-4.21.15-4.03-.92-7.93-1.25-11.87-.62-7.61-3.36-14.95-2.48-25.68 1.81-7.85-6.33-17.02-5.34-27.7.11-1.22-.77-2.31-2.17-2.25-1.42.06-1.76 1.28-2.07 2.45-.95 3.59-.94 7.25-1.01 10.92-.03 1.36-.26 2.79-1.75 3.29-1.42.48-2.56-.46-3.6-1.29-2.95-2.35-2.13-5.76-2.32-8.83-1.17-18.34-3.42-36.44-11.33-53.34-.82-1.74-1.15-4.3-3.86-3.75-2.78.56-2.77 3-2.49 5.22 1.39 11.03 2.83 22.05 4.26 33.08.32 2.44 1.3 5.24-2.13 6.25-3.02.89-5.09-.43-6.28-3.38-.58-1.44-.71-3.77-2.89-3.46-1.95.27-1.87 2.54-2.32 4.06-.38 1.26-.45 2.63-.49 3.96-.38 10.63 2.22 21.06 1.89 31.74-.3 9.81 4.24 19.35 1.07 29.58-1.03 3.34-.54 8.26 3.18 11.77 3.16 2.99 5.73 6.69 5.43 11.76-.14 2.3 1.76 4.43 4.23 5.03 2.42.59 4.17-1.08 5.44-2.84 2.13-2.94 4.42-5.8 5.37-9.49.55-2.12 1.04-5.11 4.24-4.44 2.74.58 2.56 3.28 2.28 5.4-.34 2.59.45 4.85 1.12 7.26 1.43 5.11 3.2 10.26 3.58 15.48.33 4.53 2.59 8.77 2.1 13.18-1.03 9.22 2.89 17.42 4.58 26.07.09.45.57.81.81 1.24 3.87 6.91 7.51 13.96 8.72 21.87 1.49 9.67 5.98 14.55 15.53 15.68 2.86.34 3.75 1.66 3.32 4.31-.55 3.39.62 5.54 4.33 5.76 1.21.07 2.19.6 3.1 1.42 3.97 3.59 7.43 7.76 13.54 8.21 2.71.2 5.28 2.4 6.68 4.9 2.39 4.25 6.11 7.31 9.1 11 5.21 6.44 11.77 9.61 20.09 7.52 5-1.26 8.93-.75 12.24 3.79 2.17 2.98 4.65 2.22 5.57-1.43.6-2.4.88-4.94.89-7.41.07-18.82.02-37.63.04-56.45 0-2.66-.13-5.37.31-7.97 1.34-7.81.18-15.59-.3-23.33-.38-6.17-6.32-5.43-10.39-6.55z"/><linearGradient id="SVGID_1_" gradientUnits="userSpaceOnUse" x1="269.026" y1="209.676" x2="269.026" y2="35.732"><stop offset="0" style="stop-color:#e6ca85"/><stop offset=".17" style="stop-color:#e3c785"/><stop offset=".309" style="stop-color:#d9bf86"/><stop offset=".436" style="stop-color:#c8b287"/><stop offset=".557" style="stop-color:#af9f89"/><stop offset=".674" style="stop-color:#90868c"/><stop offset=".787" style="stop-color:#6a688f"/><stop offset=".895" style="stop-color:#3e4492"/><stop offset="1" style="stop-color:#0b1c96"/></linearGradient><path d="M37.65 72.64c1.99-7.94 2.02-15.86.57-23.92-1.04-5.76 4.27-10.47 11.2-9.17 7.5 1.4 15.49 1.3 22.16-.08 16.24-3.37 32.28 1.69 48.35-1.14 6.36-1.12 13.17.3 19.77.53 5.65.19 11.37.86 16.92-.56 8.35-2.14 16.43.56 24.63.98.64.03 1.28.35 1.91.56 3.84 1.31 6.7-2.96 9.72-2.31 3.05.66 5.53 3.51 9.01.89 1.07-.81 2.57-.2 3.89.06 1.46.29 3.16.9 4.41.44 9.72-3.54 19.97.92 29.59-2 6.12-1.86 11.22 2.17 17.13 1.79 9.18-.58 18.43.1 27.64-.1 10.56-.23 21.12-1.33 31.67-1.15 17.3.3 34.57-.86 51.83-.76 5.95.04 12.56-.29 18.45 2.38 1.71.77 3.81 1.64 5.21.28 2.79-2.72 6.14-2.62 9.35-2.21 9.18 1.18 18.2-.29 27.29-.88 4.27-.28 8.65.34 12.91 1 3.17.49 6.2 1.29 9.17-.58.37-.24 1.07-.34 1.44-.15 6.57 3.31 12.99 3.07 19.55-.24 1.46-.74 3.94-.76 5.38-.02 6.63 3.41 13.21 1.28 19.84.44 3-.38 3.04 2.03 3.13 4.01.35 7.79.82 15.59.86 23.39.14 23.65-.2 47.3-.69 70.95-.4 19.07.41 38.16.66 57.24.05 3.65.19 7.33-.14 10.96-.39 4.19-3.54 5.87-7.27 6.27-2.8.3-5.65.06-8.48.06 0-.12 0-.23-.01-.35-16.31 0-32.62-.09-48.93.04-6.96.06-13.88-1.3-20.88-.13-5.21.87-9.09-.66-12.92-5.21-5.4-6.4-12.5-11.34-18.73-17.07-13.67-12.58-29.57-22.08-44.71-32.64-10.77-7.51-22.34-13.33-34.83-17.48-5.35-1.78-10.46-4.32-15.58-6.75-10.54-5-21.61-7.85-33.24-8.56-4.59-.28-8.8-1.62-12.58-4.3-2.35-1.66-4.99-2.48-7.89-2.83-2.79-.34-5.65-.9-8.23-1.96-13.15-5.4-27.16-7.77-40.71-11.78-11.18-3.31-23-3.25-34.53-4.77-12.1-1.59-24.22-1.66-36.36-1.26-19.11.63-38.07 2.68-56.84 6.47-4.08.82-7.96 1.5-11.75 3.56-4.61 2.51-6.06.35-7.18-4.41-1.9-8.07 1.97-16.22-1.21-24.09-.38-.98-.22-2.34.05-3.44z" style="fill:url(#SVGID_1_)"/><linearGradient id="SVGID_00000127018652409064265420000005764229511962283402_" gradientUnits="userSpaceOnUse" x1="380.134" y1="133.122" x2="380.134" y2="499.826"><stop offset="0" style="stop-color:#e6ca85"/><stop offset=".143" style="stop-color:#e2c785"/><stop offset=".279" style="stop-color:#d7be86"/><stop offset=".412" style="stop-color:#c4af88"/><stop offset=".544" style="stop-color:#a9998a"/><stop offset=".674" style="stop-color:#867e8c"/><stop offset=".804" style="stop-color:#5b5c90"/><stop offset=".93" style="stop-color:#2a3494"/><stop offset="1" style="stop-color:#0b1c96"/></linearGradient><path style="fill:url(#SVGID_00000127018652409064265420000005764229511962283402_)" d="M493.9 461.88c-.48 2.41-1.39 4.28-3.98 4.33-8.93.19-11.75 7.45-14.87 13.55-2.61 5.1-3.61 11.03-5.2 16.63-.47 1.68-.82 3.75-2.85 3.38-2.31-.43-.87-2.39-.63-3.7.54-2.86-.24-4.61-3.48-4.54-2.04.05-2.94-1.3-2.29-2.9 1.23-3.03-.5-5.47-1.81-7.37-3.46-5-3.16-10.43-3.73-16.06-1.06-10.45-2.22-20.92-2.62-31.4-.24-6.14-.93-12.24-1.14-18.37-.03-.96-.27-2.05-.78-2.85-5.78-9.18-5.08-20.09-8.09-29.99-2.84-9.35-4.48-19.01-6.99-28.45-2.26-8.52-7.2-16.15-7.44-25.5-.11-4.36-4.55-8.45-6.29-13.14-2.88-7.76-6.94-15.06-9.05-23.13-.77-2.94-2.15-5.57-3.95-8.01-2.67-3.64-5-7.44-6.45-11.77-2.73-8.15-8.96-14.17-13.36-21.31-9.07-14.74-20.62-27.75-31.8-40.89-7.35-8.64-14.76-17.32-23.91-24.57-7.84-6.2-14.58-14.03-22.48-20.32-9.85-7.85-20.04-15.33-30.54-22.28-3.79-2.51-8.04-4.55-11.98-6.99-.91-.56-2.62-.9-1.78-2.41.7-1.25 2.09-.55 3.16-.1 12.6 5.24 25.38 10.03 37.64 16.08 11.2 5.53 21.89 11.92 32.29 18.8 24.03 15.89 44.59 35.71 63.35 57.34 19.48 22.45 35.64 47.21 48.71 74 7.75 15.89 13.74 32.39 19.77 48.96 3.94 10.82 6.25 22.07 10.01 32.83 5.78 16.51 6.4 33.77 9.38 50.68 1.15 6.53 2.28 13.03 2.69 19.64-.31 3.3 1.17 6.46.49 9.83z"/><linearGradient id="SVGID_00000013909278763272320670000004950550951613122191_" gradientUnits="userSpaceOnUse" x1="238.415" y1="103.132" x2="238.415" y2="490.603"><stop offset="0" style="stop-color:#e6ca85"/><stop offset=".143" style="stop-color:#e2c785"/><stop offset=".279" style="stop-color:#d7be86"/><stop offset=".412" style="stop-color:#c4af88"/><stop offset=".544" style="stop-color:#a9998a"/><stop offset=".674" style="stop-color:#867e8c"/><stop offset=".804" style="stop-color:#5b5c90"/><stop offset=".93" style="stop-color:#2a3494"/><stop offset="1" style="stop-color:#0b1c96"/></linearGradient><path style="fill:url(#SVGID_00000013909278763272320670000004950550951613122191_)" d="M34.43 120.57c.87-.99 1.83-2.13 2.99-2.59 9.22-3.66 17.67-10.27 27.64-10.76 10.48-.51 20.75-2.39 31.08-3.57 11.89-1.35 23.6.4 35.43-.12 12.93-.56 26 2.52 39.03 3.82 15.67 1.57 30.25 6.88 45.12 11.7 31.02 10.06 58.53 26.29 83.76 46.34 15.28 12.15 29.25 25.94 42.6 40.34 21.17 22.84 38.95 48.05 53.18 75.61 10.75 20.82 20.47 42.19 27.15 64.79 1.88 6.36 4.92 12.47 6.03 18.93 2.59 15.16 8.9 29.63 8.5 45.34-.03 1.13.02 2.41.51 3.39 6.15 12.4 4.14 25.73 4.67 38.8.21 5.27 1.37 10.49 1.9 15.77.75 7.43-3.13 13.84-3.37 20.95-.02.72-.57 1.22-1.3 1.27-1.02.07-1.56-.66-1.66-1.51-.11-.97-.08-2 .13-2.95 2.34-10.76.82-21.14-1.91-31.71-3.57-13.84-6.98-27.7-11.21-41.35-.91-2.92.66-6.62-3.98-8.15-3.22-1.06-5.96-2.67-9.43-.92-1.34.68-3.26.53-3.43-1.56-.15-1.92 1.51-2.43 3.09-2.49 2.33-.08 4.67.12 6.99-.03 1.8-.12 4.15-.36 3.92-2.8-.21-2.29-2.49-1.72-4.06-1.63-8.43.46-11.03-2.09-12.78-10.05-2.05-9.34-1.55-19.09-4.87-28.17-1.31-3.58-2.92-7.02-3.96-10.74-.87-3.11-2.71-5.9-6.94-4.29-2.88 1.1-3.89-.75-4.53-3.08-3.41-12.33-7.54-24.34-14.75-35.09-1.5-2.23-3.19-3.94-5.75-4.39-6.33-1.11-9.97-4.68-11.04-11.04-.36-2.14-1.24-4.25-2.78-5.8-3.96-3.99-5.78-9.22-8.57-13.88-8.5-14.2-16.68-28.63-28-40.96-4.14-4.51-7.44-9.82-11.35-14.51-10.12-12.14-20.95-23.73-33.59-33.3-9.27-7.02-17.99-14.79-27.97-20.89-14.61-8.94-29.27-17.71-45.56-23.41-12.71-4.46-25.74-7.38-38.95-9.91-6.81-1.31-13.32-4.23-20.13-3.5-16.82-1.27-33.28-.56-49.64 1.12-5.35.55-10.93 1.94-15.78 5.19-6.13 4.1-13.36 5.33-20.49 6.46-2.77.44-5.49.45-8.19 1.69-3.6 1.65-4.2-1.54-4.56-3.95-.37-2.46-.01-5.08-2.72-6.49-3.34-1.73-2.31-3.84-.47-5.92z"/><path class="st1" d="M317.49 514.35c-41.55-30.38-73.6-67.84-87.28-118.78 18.5 47.38 51.88 83.77 87.28 118.78zM131.99 637.18c-.77 1.93-2.86 1.16-4.82 1.33-4.25-.74-8.8-.88-13.5-.32-4.58.55-7.14-3.52-9.31-6.64-2.78-4-6-7.52-9.16-11.14-14.39-16.47-25.92-34.92-37.02-53.67-6.34-10.71-11.7-21.83-16.38-33.38-2.01-4.96-4.6-9.95-8.07-14.28-1-1.26-2.29-3.41-.77-4.43 1.76-1.18 2.69 1.22 3.55 2.49 12.52 18.42 25.93 36.17 39.53 53.8 13.01 16.87 26.71 33.14 40.65 49.21 3.99 4.6 7.61 9.69 12.85 13.16 1.3.85 3.23 1.91 2.45 3.87zM234.79 640.04c-1.93.34-4.01.26-5.95-.05-4.32-.7-8.59-.84-12.91.03-3.84.78-6.98-.11-9.81-3.29-2.73-3.07-6.35-5.33-9.45-8.08-21.06-18.69-40.77-38.62-57.7-61.24-5.76-7.7-12.36-14.76-17.85-22.72-9.08-13.16-17.1-26.98-25.64-40.47-2.57-4.07-3.8-9.3-9.09-11.25-1.12-.41-.9-1.68-.92-2.65-.15-6.84-2.92-12.48-6.41-18.4-4.42-7.49-7.15-16.05-10.05-24.35-3.17-9.09-5.67-18.42-8.49-27.63-3.43-11.22-3.19-22.97-4.94-34.44-2.36-15.46-.47-30.93.8-46.47 1.25-15.3 6.4-29.46 9.49-44.18 5.65-26.98 20.3-49.3 34.6-71.93.52-.83 1.27-1.53 2-2.19.32-.29.86-.36 1.39-.56.46 2.1-1.13 3.06-2.02 4.36-9.63 14.22-17.63 29.28-24.34 45.13-7.14 16.86-10.12 34.73-13.95 52.39-1.98 9.14-1.27 18.63-1.29 27.89-.03 14.59.19 29.25 2.94 43.74 3.3 17.36 8.03 34.28 14.59 50.67 8.8 22 19.85 42.92 32.7 62.74 13.94 21.5 29.36 41.95 47.67 60.12 7.05 7 12.85 15.3 20.34 21.91 14.84 13.08 28.8 27.21 45.08 38.6 3.67 2.56 5.93 6.63 10.19 8.67 2.44 1.15 1.45 3.22-.98 3.65z"/><path class="st1" d="M448.53 640.9c-1.82-.02-3.67-.65-5.46-.48-16.62 1.65-31.11-5.54-45.96-11.09-16.99-6.36-33.54-13.74-50.04-21.3-21.96-10.06-43.15-21.52-63.14-34.96-23.61-15.88-45.17-34.38-65.78-54.06-10.98-10.48-20.45-22.12-29.77-33.95-7.78-9.88-15.57-19.84-21.12-31.18-5.01-10.25-10.11-20.48-13.87-31.32-5.6-16.14-9.52-32.72-13.56-49.29-1.83-7.53-.73-15.28-2.15-22.84 1.67 10.64 5.12 20.84 7.14 31.37.19.98.33 2 .74 2.89 5.56 11.88 9.19 24.51 15.21 36.29 12.68 24.8 29.69 46.38 47.38 67.57 8.54 10.23 17.94 19.65 27.8 28.58 15.41 13.96 31.23 27.43 48.77 38.74 18.72 12.08 37.21 24.49 57.06 34.76 18.04 9.33 36.58 17.51 55.13 25.71 16.01 7.08 32.32 13.27 49.17 17.93 5.89 1.63 11.83 3.39 18.02 3.86 1.4.11 3.04.23 3.8 2.79-6.62.01-12.99.05-19.37-.02z"/><linearGradient id="SVGID_00000066494331767155638990000012788377975787194512_" gradientUnits="userSpaceOnUse" x1="425.881" y1="306.712" x2="425.881" y2="580.546"><stop offset="0" style="stop-color:#e6ca85"/><stop offset=".275" style="stop-color:#e5c783"/><stop offset=".445" style="stop-color:#e2bf7b"/><stop offset=".587" style="stop-color:#ddb06f"/><stop offset=".712" style="stop-color:#d79c5d"/><stop offset=".828" style="stop-color:#ce8146"/><stop offset=".934" style="stop-color:#c3612b"/><stop offset="1" style="stop-color:#bb4916"/></linearGradient><path style="fill:url(#SVGID_00000066494331767155638990000012788377975787194512_)" d="M499.98 510.95c-.45 2.6-.31 5.31-.31 7.97-.02 18.82.03 37.63-.04 56.45-.01 2.48-.28 5.02-.89 7.41-.92 3.65-3.4 4.4-5.57 1.43-3.3-4.54-7.24-5.05-12.24-3.79-8.32 2.1-14.88-1.07-20.09-7.52-2.99-3.7-6.71-6.75-9.1-11-1.4-2.49-3.97-4.7-6.68-4.9-6.1-.45-9.57-4.62-13.54-8.21-.91-.82-1.89-1.35-3.1-1.42-3.71-.22-4.88-2.36-4.33-5.76.43-2.65-.45-3.97-3.32-4.31-9.55-1.14-14.04-6.01-15.53-15.68-1.22-7.91-4.85-14.96-8.72-21.87-.24-.43-.72-.79-.81-1.24-1.69-8.65-5.61-16.85-4.58-26.07.49-4.41-1.77-8.65-2.1-13.18-.38-5.22-2.14-10.37-3.58-15.48-.68-2.41-1.46-4.67-1.12-7.26.28-2.12.46-4.82-2.28-5.4-3.2-.68-3.69 2.32-4.24 4.44-.95 3.69-3.24 6.54-5.37 9.49-1.27 1.76-3.02 3.43-5.44 2.84-2.47-.6-4.37-2.73-4.23-5.03.31-5.07-2.27-8.77-5.43-11.76-3.72-3.51-4.21-8.43-3.18-11.77 3.16-10.23-1.37-19.77-1.07-29.58.32-10.67-2.27-21.11-1.89-31.74.05-1.33.12-2.7.49-3.96.45-1.52.37-3.78 2.32-4.06 2.18-.31 2.31 2.03 2.89 3.46 1.18 2.94 3.25 4.27 6.28 3.38 3.42-1.01 2.44-3.81 2.13-6.25-1.43-11.03-2.87-22.05-4.26-33.08-.28-2.22-.29-4.66 2.49-5.22 2.7-.54 3.04 2.01 3.86 3.75 7.91 16.9 10.16 35 11.33 53.34.2 3.07-.63 6.48 2.32 8.83 1.04.83 2.17 1.76 3.6 1.29 1.49-.5 1.73-1.93 1.75-3.29.07-3.67.06-7.33 1.01-10.92.31-1.17.65-2.4 2.07-2.45 1.4-.06 2.28 1.03 2.17 2.25-.99 10.68 7.15 19.85 5.34 27.7-.88 10.74 1.86 18.07 2.48 25.68.32 3.95 1.4 7.84 1.25 11.87-.07 1.84-.03 3.97 2.45 4.21 2.16.21 3.32-1.45 3.92-3.24.95-2.84 1.62-5.76 2.5-8.63.44-1.43.95-3.04 2.74-3.2 1.96-.18 2.32 1.57 2.87 2.93 3.32 8.12 4.64 16.83 7.18 25.13 2.48 8.1 3.19 16.56 6.11 24.52 1.84 4.99-.04 10.19-.2 15.29-.06 2.03-.39 4 .62 5.81 3.05 5.49 7.15 10.43 8.37 16.85.28 1.46 1.65 1.95 3.14 1.91 2.3-.06 3.27-1.67 3.61-3.51.65-3.62 1.42-7.18 2.93-10.55.86-1.91 1.95-3.43 4.14-3.97 1.66-.4 2.82-.31 3.58 1.55 3.53 8.72 8.99 16.65 10.44 26.23.28 1.86 1.57 4.11 3.91 3.92 2.79-.23 2.56-2.86 2.32-4.72-.83-6.41 2.48-11.97 4.16-17.66 1.75-5.93 3.86-11.99 6.57-17.73 1.6-3.38 3.56-5.4 7.21-4.4 4.07 1.12 10.01.38 10.39 6.53.48 7.76 1.64 15.54.3 23.35z"/><linearGradient id="SVGID_00000155127762729040500680000006009543218592913833_" gradientUnits="userSpaceOnUse" x1="468.113" y1="250.207" x2="468.113" y2="411.695"><stop offset="0" style="stop-color:#e6ca85"/><stop offset=".143" style="stop-color:#e2c785"/><stop offset=".279" style="stop-color:#d7be86"/><stop offset=".412" style="stop-color:#c4af88"/><stop offset=".544" style="stop-color:#a9998a"/><stop offset=".674" style="stop-color:#867e8c"/><stop offset=".804" style="stop-color:#5b5c90"/><stop offset=".93" style="stop-color:#2a3494"/><stop offset="1" style="stop-color:#0b1c96"/></linearGradient><path style="fill:url(#SVGID_00000155127762729040500680000006009543218592913833_)" d="M499.07 411.7c-1.28-.51-1.52-1.41-1.48-2.17.56-9.21-2.15-18.16-2.14-27.32 0-3.46-.52-6.6-3.12-9.15-1.22-1.2-1.64-2.81-2.1-4.45-3.11-10.87-4.91-22.42-9.92-32.35-4.63-9.17-6.22-19.36-11.97-28.15-6.24-9.53-10.73-20.22-15.78-30.5-4.51-9.17-11.86-16.47-16.53-25.52-.27-.53-.65-1.01-.56-1.9 2.49 1.87 5.21 3.5 7.43 5.64 15.26 14.64 33.94 24.43 51.23 36.19 3.81 2.59 5.96 5.37 5.95 10.1-.06 18.81 1.23 37.61.12 56.44-.65 10.97-.4 21.97.37 32.96.47 6.74.17 13.48-1.5 20.18z"/></svg>