<svg xmlns="http://www.w3.org/2000/svg" viewBox="0 0 320.89 143.13" style="enable-background:new 0 0 320.89 143.13" xml:space="preserve"><path d="m9.01 107.57-.04.05c.01-.02.04-.05.04-.05zM76.26 114.11c.23-.09.5-.25.82-.48-.33-.01-.59.22-.82.48zM47.09 13.83c-.01.01-.01.02-.02.03h.01c0-.01 0-.02.01-.03zM8.1 41.01c-3.15-1.23-4.69-4.64-8.1-5.15v3.99c2.68 1.66 2.01 3.32 0 4.98v1c.32.41.64.82.95 1.23 2.06-.47 4.15-.83 6.17-1.42 3.19-.93 2.74-3.94.98-4.63zM4.57 13.04c2.51 3.5 4.06 2.17 5.25-1.02-2.04.09-3.91-.14-5.3-1.95C3.36 8.54 1.7 8.57 0 8.97v1.99c1.99-.32 3.45.52 4.57 2.08zM53.89 4.27c2.6 1.58 4.41 1.44 4.03-2.31C56.45.79 54.26 1.47 52.91 0h-2c.32 1.89 1.42 3.32 2.98 4.27zM15.99 101.63v-.01h-.01l.01.01zM122.89 59.74c.82.15 1.2-.1.91-.98-.64-2.17-2.63-4.35.84-6.18 1.86-.98 1.07-2.29-.49-3.31-1.19-.78-3.18-.01-3.47-1.1.82-3.88 6.86-.53 6.03-5.38-.67-3.88-4.85-3.79-7.97-5.22 3.16 2.69 3.11 4.65.55 7.96-2.79 3.61-.04 11.95 3.6 14.21zM212.75 110.35c-2.13.74-3.08-1.55-4.27-2.77-.6-.62-.51-1.86-.9-2.74-.46-1.07-1.43-.36-2.18-.44-1.77 1.3-3.54 2.61-1.61 5.08 1.13.66 3.27-.58 3.53 1.7.5 4.4 6.09 2.76 7.44 6.27.13.34 1.47-.64 1.58-1.45.41-3.14 2.99-5.49 3.1-8.8-2.11-.57-4.22-1.13-6.21-1.67-1.03 1.79 2.62 3.75-.48 4.82zM301.14 34.65c2.46.49 3.9-1.17 5.54-2.61 1.22-1.07 3.48-3.09 3.75.43.34 4.53 2.44 3.04 4.78 2.07 2.31-.95 3.98-2.66 5.69-4.32-.92-1.65-2.41-1.91-3.41-.91-1.93 1.94-3.07.7-4.54-.48-1.26-1.01-6.1-.58-7.7-.31-3 .51-3.4 3.13-4.74 4.98-.12.18.34 1.1.63 1.15zM242.55 106.58c-1.09.94-.6 1.85-.3 3.06 1.62 6.52 8.73 9.53 9.59 17.18 3.25-5.99-2.56-17.26-9.29-20.24v-.04h-.07l.07.04zM125.61 123.77c.47-2.32-1.3-2.35-2.52-2.9-1.89-.85-2.21.32-2.32 1.91-.28 3.9.21 7.01 2.3 10.96 2.51 4.73 4.69 3.35 9.07 3.24-8.01-5.49-8.08-5.5-6.53-13.21zM268.48 81.6c-1.15 1.17-4.28.02-3.84 2.87.35 2.23.89 4.74 2.23 6.43 1.13 1.43 2.96-.66 4.53-.92.65-.11 1.33-.08 1.98-.17 1.47-.2 2.95-.1 2.5-2.54-.44-2.43-1.77-1.8-3.18-1.43-2.65.68-4.74.86-2.79-2.88-.21-.74-.67-1.21-1.43-1.36z"/><path d="m15.99 101.63-.01-.02-.02.02h.03zM10.02 99.07c-.55-.97-1.92-2.06-2.81-.94-1.2 1.51-4.8 1.96-3.78 3.74 1.11 1.95-.53 4.37 1.63 5.71-.68.93-1.38 1.83-2.02 2.79-1.29 1.94-.23 3.87.53 5.49.47 1.02 2.14 1.06 3.92-.41-6.67-2.75-2.63-5.23-.41-7.8.63-.01 1.25-.01 1.88-.02.73 1.61 1.46 3.23 2.2 4.84.64 1.4 1.85 1.21 2.94.87.66-.2 1.04-.99.46-1.56-1.67-1.63-1.78-5.35-5.55-4.21 0 0-.03.03-.04.05l.04-.05c-1.67-2.91-.75-4.47 2.5-4.85 1.53-.18 3.24.39 4.44-1.1-2.3-.06-4.55-.12-5.93-2.55zM313.44 119.04c-4.19-.63-7.07-1.07-9.95-1.5-2.86-5.54-4.25-5.99-8.75-2.9 2.12 3.28 5.74 2.16 8.71 2.94.07 2.21.85 4.41-1.44 6.31-1.17.97-.7 2.49 1.37 2.42 2.58-5.21 3.84.72 6.69.67-2.09-3.44-1.75-6.35 3.37-7.94zM249.21 53.29c2.38.81 4.29.25 4.91-2.3.43-1.76-.25-3.2-2.52-3.04-.84 1.03-1.67.69-2.51-.01-3.78-3.13-5.4-2.68-6.38 2.12-.25 1.22-1.36 2.63-.33 4.07 5.19-4.05 5.19-4.05 6.83-.84zM94.7 88.73c.04-1.26-1.27-1.89-2.58-1.08-.85.53-2.59.66-1.66 2.34 2.12 3.85 4.3 7.67 6.55 11.45.49.83 1.39 1.51 2.5.95.39-.2.61-.72.9-1.07-.19-.35-.28-.7-.51-.91-3.51-3.11-5.35-6.88-5.2-11.68zM212.27 88.5c.07-.73-.86-1.36-1.86-.97-.96.37-2.16.97-1.72 2.04 1.8 4.39 3.07 9.13 7.24 12.13 1.08.78 1.77.66 2.2-.68-.19-.41-.31-.91-.6-1.28-2.62-3.34-5.76-6.4-5.26-11.24zM96.75 105.83c-.18-.42-.92-.61-1.74-1.11-.43 2.24 1.28 3.83.57 5.6-1.38 2.14-.58 4.2.23 6.26.23.21.65.63.68.61 2.88-2.45 4.31-5.98 4.9-9.33.54-3.04-3.66.27-4.64-2.03zM70.37 66.38c-.83.69-.56 1.78.62 2.35 2.09 1 5.11 1.4 5.7-.58.87-2.95-2.17-5.23-3.71-8.43-1.72 2.55-.69 5.06-2.61 6.66zM7.26 125c.74-1.07 1.87-2.23.15-3.26-1.14-.67-3.13-.92-3.69 0-1.58 2.6-.57 5.69-.78 8.56-.16 2.21 1.55 2.1 3.01 2.23l.08-.08c-2.48-2.95-.34-5.16 1.23-7.45zM190.91 61.3c-2.37-.16-.63 3.76-2.34 5.6-.9.97 1.81 1.98 3.06 2.83 1.44-.84 4.42-1.89 3.79-2.36-2.32-1.72-2.18-5.92-4.51-6.07zM179.32 137.07c3.07.62 5.64 1.01 5.98-3.31.1-1.34.78-4.24 3.71-3.94-8.13-3.78-4.89 6.85-9.69 7.25zM204.65 126.53c-.41-.7-.72-1.88-1.25-2-1.26-.27-.69 1.11-1.03 1.72-.55 1.01-1.14 2.05-.65 3.27-2.86-.51-6.11-1.87-6.47 3.12 1.8.65 3.62 1.31 6.03 2.18-.94-3.07-.05-4.35 2.91-4.76 2.34-.32 2.05-2.09.46-3.53zM282.44 21.88c1.46.01 2.16-.78 2.01-2.13-.33-2.96.37-5.66 2.39-8.54-5.93.97-5.78 4.57-5.47 8.35.09.99-1.03 2.3 1.07 2.32zM144.96 6.42c.9 1.31 2.04 2.45 3.15 3.75 2.44-2.44 1.14-4.9.05-6.03-1.32-1.36-4.13-3.41-5.85-1.4-1.81 2.14 1.76 2.37 2.65 3.68zM209.74 26.39c3.33-.01 4.6 3.58 7.52 4.43.13-4.42-2.98-7.46-6.8-6.72-.54.1-1.06.73-1.4 1.24-.1.14.44 1.05.68 1.05zM203.64 45.83c-.51 1.17.26 1.51 1.15 1.76 1.75.33 3.57.07 5.25 1.1.86.53 2.43-.54 1.66-1.24-1.29-1.17-1.66-3.54-3.79-3.55-1.6-.01-3.86-.9-4.27 1.93zM60.28 136.79c6.12 3.13 6.39-1.8 8.12-4.99-6.13-2.63-4.01 5.1-8.12 4.99zM123.67 14.29c1.02 1.1 2.44.63 3.65.21.76-.27.68-1.54.41-1.62-3.31-.88-5.45-5.28-9.82-2.95 2.42.94 4.11 2.58 5.76 4.36zM121.87 22.76c-.85.18-1.6.4-1.84 1.36-.34 1.39.94.91 1.48 1.32 2.67 2.06 5.4 1.82 8.21.44-2.59-1.09-4.53-3.8-7.85-3.12zM208.52 79.11c-2-1.2-3.55-3.13-5.81-5.19 1 4.21 4.62 6.38 5.02 10.61 3.01-1.92 4.28-3.32.79-5.42zM6.02 132.46l-.08.08c.5 5.75 1.88 6.4 7.9 3.23-3.35.43-4.49-3.68-7.82-3.31zM94.14 49.77c-1.7-4.39-3.37-5.78-5.86-5.89-2.83-.12-2.09 2.14-2.84 3.69 3.25-1.34 5.79.17 8.7 2.2zM268.6 130.89c-.73-.65-2.42-.4-1.85.96 1.71 4.14-.75 4.25-3.8 3.75.77 2.14 2.26 1.72 3.49 1.89 1.09.15 2.71 1.81 3.02-.6.26-2 1-4.34-.86-6zM97.36 29.98c.17.41 1.14.81 1.63.7 1.05-.23.92-1.28.71-2-1.3-4.48-4.59-4.1-8.21-2.78 2.56.7 4.8 1.49 5.87 4.08zM90 84.48c.62 0 1.3-.86 1.86-1.42.98-.99.99-1.92-.16-2.91-1.58-1.36-2.92-3.08-6.51-3.28 1.63 2.25 3.91 3.03 3.65 5.36-.09.9-.23 2.24 1.16 2.25zM2.97 83.1c0 2.12-.03 4.07.01 6.01.02.87.38 1.64 1.4 1.63.42 0 1.21-.42 1.19-.52-.43-2.4 2.64-5.99-2.6-7.12zM201.64 56.81c-2.01.41-2.27 2.09-2.09 3.81.1.87.16 2.38 1.51 1.75 1.35-.62 2.93-1.38 3.31-3.14-.75-1.09-1.03-2.77-2.73-2.42zM84.77 56.58c-1.69.09-3.43.34-3.62 2.4-.07.81.56 2.2 1.2 2.44 1.45.53 2.62-.7 3.77-1.49.37-.26.58-.76.86-1.15-.3-1.18-.5-2.45-2.21-2.2zM131.68 113.28c2.09-.86.64-2.4.15-3.69-.96-2.53-2.75-2.82-4.99-1.98.9 1.1 1.87 2.17 2.68 3.33.63.92.09 3.19 2.16 2.34zM126.84 107.62c-.01-.02-.03-.03-.04-.05-.03.01-.06.01-.08.02.01.02.02.04.03.05.02 0 .05-.01.09-.02zM293.06 12.08c1.85-.26 3.91-.13 5.26-1.78-.06-1.72-1.45-1.9-2.43-1.99-1.71-.15-3.16.69-3.95 2.27-.51.99.2 1.62 1.12 1.5zM122.1 83.69c-1.99.29-.77 1.83-.48 2.88.4 1.41-.98 4.29 1.32 3.96 2.31-.32.26-3.61 1.54-5.4.56-.78-.86-1.51-2.38-1.44zM80.32 128.69c-2.11-.54-3.18 1.71-4.24 3.55 2.15.95 4.59-.03 6.73 2.5-.48-3-.49-5.53-2.49-6.05zM261.3 27.07c1.33.79 2.57 1.59 3.09 3.48 0-1.67.01-3.35 0-5.02-.01-.91-.37-1.53-1.4-1.59-1.08-.06-1.96.45-2.52 1.23-.64.87.13 1.48.83 1.9zM83.61 129.27c.19.84 2.61.74 4.19-.22-.89-1.72-1.76-3.42-3.3-6.39-.48 2.91-1.28 4.9-.89 6.61zM258.42 114.67c-1.54-.64-2.02.78-2.39 1.75-.82 2.14-1.08 4.19 2.25 4.55.14-1.28.22-2.56.45-3.8.17-.91.99-1.96-.31-2.5zM207.27 116.91c-1.41.53-3.58.28-3.75 2.54-.13 1.72 1.38.81 2.08 1.12 1.54-.03 3.23.21 3.06-2.13-.06-.85-.39-1.9-1.39-1.53zM265.58 120.11c-1.04-.08-1.07 1.14-.97 1.89.47 3.38 3.51 1.02 5.44 3.21-.42-3.93-2.22-4.93-4.47-5.1zM241.6 78.66c-3.53-1.41-1.84 2.2-2.98 3.09.53 4.49 3.22.59 4.74 1.22.14-.18.3-.34.47-.49-.74-1.28-1.48-2.55-2.23-3.82zM88.9 117.11c-1.13.38-2.9.15-3.03 1.92-.12 1.74 1.45 1.33 2.47 1.57 1.24-.03 2.36-.26 2.27-1.84-.06-.97-.38-2.1-1.71-1.65zM193.48 14.54c1.51.39 1.8 2.67 3.8 2.67.41-2.34-2.07-2.67-2.77-4.19-.57-1.25-2.2-1.66-2.8-.79-1.07 1.59.43 1.97 1.77 2.31zM79.47 17.1c-.89-2.51-2.7-3.93-6.26-5.03 1.59 3.38 4.11 4 6.26 5.03zM83.35 21.97c.9.02 2.18.13 2-1.29-.16-1.31-1.24-1.75-2.52-1.64-1.04.02-2.04.29-2.01 1.52.05 1.66 1.48 1.39 2.53 1.41zM65.3 6.5c1.85-.88 1.87-2.36 1.01-4.7-1.47 1.41-2.65 2.42-2.57 4.08.02.55.86.96 1.56.62zM207.65 55.56c.42-.29.81-1.38.61-1.67-1.04-1.47-2.53-.82-4.13-.08 1.38.3 1.4 3.2 3.52 1.75zM251.07 109.19c-.17 1.9-.57 3.85 2.03 4.16.83.1 1.99-.28 1.99-1.04 0-2.67-3.46-.94-4.02-3.12zM314.99 127.56c1.64-2.41 3.36-3.97.89-6.93-.43 2.44-1.41 4.13-.89 6.93zM241.65 74.69c-1.02-.46-1.65-2.62-3.04-1.16-.94.98-3.16 2.14-1.08 4.12.5-2.2 3.31-1.18 4.12-2.96zM201.28 21.91c.82-.09 1.86.05 1.85-1.12 0-1.18-.83-1.72-1.98-1.71-1.26.01-1.8.83-1.75 1.92.07 1.26 1.2.73 1.88.91zM20.02 134.43c-.18-1.93-1.22-2.9-3.19-2.73-.6.05-1.21.08-1.2 1.03.03 2.15 2.2 1.47 3.11 2.43.11.11.25.2.38.29 1.37 6.42 3.31.8 5.01.24l-.3-.35c-1.36.05-2.67-.07-3.81-.91zM272.85 140.9c1.66 1.79 3.3 2.26 6.26 2.23-1.91-2.68-3.5-3.28-6.26-2.23zM146.97 48.29c.37-.14.74-.28 1.11-.39-.43.05-.8.17-1.11.39zM4.51 22.8c-.95-.1-1.99-.07-2.48 1.05 1.61.99 3.23 1.99 4.84 2.98.57-1.07 1.84-2.4 1.55-3.15-.63-1.66-2.54-.73-3.91-.88zM25.81 5.32c1.77 1.22 3.63 2.3 4.16 4.6 2.92-3.76 2.89-3.83-3.05-7.92-2.28.47-4.41 1.04-1.11 3.32zM14.44 5.12c1.04.19 2.59.2 2.53-1.45-.05-1.48-1.36-1.85-2.53-1.36-2.25.93-4.44.25-7.28-.12 1.89 3.47 4.86 2.5 7.28 2.93zM159.82 80.23c-.47-1.1-1.46-1.1-1.89-.41-2.51 4.09-6.84.79-10.12 2.85 4.47 2.14.72 6.64 2.97 9.8 1.25-.73 3.89-1.14 2.62-2.99-2.44-3.54.47-3.73 2.28-4.73 1.28-.71 2.71-1.15 3.96-1.91 1.13-.68.58-1.68.18-2.61zM156.85 113.96c-2.65.94-5.4 2.15-7.09-1.52-.35-.76-1.18-.89-1.63-.48-.39.35-.54 1.23-.43 1.82.33 1.87 1.59 2.76 3.46 2.91 3.26.26 6.38-.22 9.44-1.57-.9-2.2-2.29-1.68-3.75-1.16zM167.12 112.93c-.8-.94-1.67-1.74-2.8-.47-1 1.14-.18 2.1.41 3.08.72 1.2 1.63 1.45 2.88.8 1.71-.89 3.16-2.06 4.41-3.64-1.79-1.17-3.21 2.21-4.9.23zM176.59 86.24c1.32 2.99 3.23 4.26 6.27 4.14-2.14-.87-2.58-4.46-6.27-4.14zM171.08 80.1c-1.84-.28-2.62 1.05-3.12 2.46-.25.7.35 1.27 1.09 1.16 1.4-.2 2.93-.31 3.44-1.7.13-1.35-.6-1.79-1.41-1.92zM155.52 95.99c-.81.25-2.35.2-2.11 1.45.13.69 1.38 1.42 2.25 1.64 1.34.35.86-.93 1.03-1.56-.09-.78.12-1.93-1.17-1.53zM154.58 74.94c.19-.19-.06-1.24-.24-1.28-1.57-.33-3.19-.59-4.2 1.6 1.67.51 3.13 1.05 4.44-.32zM155.29 31.58c-3.4-.85-6.79-5.59-9.98-.09-.65 1.12-3.98 0-2.73 2.81.82 1.85 2.47 2.54 4.71 2.88 4.69.73 4.91-4.21 8-5.6zM161.78 60.41c1.85-1.94 4.68-3.58 4.66-5.18-.04-3.87-3.96.16-5.65-1.86-.47-.57-2.49.45-2 1.86.6 1.72 1.82 3.22 2.99 5.18zM42.05 80.68c-.82-1.46-1.67-.64-2.32.03-1.55 1.6-3.24 2.26-5.36 1.2-1.34-.17-3.5.75-3 1.27 2.21 2.29-.37 4.55.38 6.23.49 1.1-.71 3.13.92 3.11 1.99-.02 2.84-1.58 1.87-3.54-1.4-2.83.75-3.47 2.58-4.22 1.36-.56 2.83-.85 4.22-1.34 1.52-.53 1.37-1.56.71-2.74zM39.26 114.08c-3.51.97-6.9 1.37-8.6-4.39-1.66 5.85.24 7.46 4.58 7.04 1.47-.14 3.03.2 4.44-.12 1.11-.25 3.13-.48 2.83-1.99-.37-1.84-1.99-.89-3.25-.54zM63.7 89.15c-1.49-1.36-2.63-3.43-6.42-2.34 1.91 1.7 3.28 2.99 4.72 4.19.76.64 1.6.34 2.2-.3.64-.69-.03-1.13-.5-1.55zM46.87 111.6c-.08 2.23-1.07 4.3 1.14 4.81 2.23.52 4.01-.87 5.03-3.35-2.34 1.28-4.26.63-6.17-1.46zM34.57 75.75c.9-.03 2.21.21 2.1-1.25-.08-1.03-.93-1.66-2.14-1.74-.94.18-1.94.67-2.03 1.7-.14 1.42 1.13 1.32 2.07 1.29zM34.55 97.37c1.59 1.13 2.75 1.95 4.16 2.95.4-3.31.83-6.15-4.16-2.95zM27.13 76.71c-.56.16-1.72-.3-1.76.88-.03 1.21 1.1 1.46 2.06 1.62.98.16 1.62-.35 1.59-1.32-.02-1.05-.88-1.19-1.89-1.18zM49.96 83.39c1.94-.87 3.66.03 5.3-1.79-2.43-1.64-3.94-1.63-5.3 1.79zM34.85 30.43c-2.11-1.83-4.26-2.54-6.48-.29-1.39 1.4-4.04 2.14-3.12 4.93 1.05 3.19 4.35 1.42 6.37 2.64.9.54 2.59.31 2.32-1.41-.36-2.3 1.91-2.88 2.72-4.96-.67-.33-1.34-.5-1.81-.91zM60.25 46.02c3.99 2.8 6.64-.43 9.64-2.1l-.99-4.07c1.8-.89 3.66-1.42 5.7-1.18.11-1.14.28-2.28.32-3.42.11-3.33-1.28-.82-2.11-.52-1.71 1.4-4.51 1.96-3.97 5.08-3.7-.56-6.22 2.32-9.39 3.32-.63.2-1.29 1.67-1.2 2.47.13 1.14 1.38-.02 2 .42zM43.1 59.91c2.05-1.14 5.68-1.18 5.95-4.11.24-2.58-2.41-1.97-4.52-2-1.09.31-3.88-1.4-3.47 1.83.19 1.46.92 4.91 2.04 4.28zM65.93 33.89c-.68-1.06-1.37-2.12-2.05-3.18-.9.16-2.45.3-1.67 1.44.67.99 1.27 3.9 3.72 1.74z"/><path d="M295.64 124.35c-4.07.35-4.81-.69-3.15-4.52.53-1.24 1.35-3.18.3-3.61-3.03-1.23-2.61-4.81-4.97-6.31-.78-.31-1.59-.48-2.42-.45-1.93.07-4.35-.5-5.24 1.77-.99 2.52 1.17 2.84 2.99 3.38 1.29.38.97 1.53.49 2.46-.63 1.22-1.61 1.68-2.85.87-1.4-.91-2.67-2.07-3.43-3.52-1.61-3.1-2.38-6.6-7.14-6.84-1.78-.09-3.39-2.75-3.73-4.88-.32-1.97 2.02-.97 2.91-1.76v.04c-1.18 3.36 1.26 3.49 3.05 2.72 4.6-1.97 8.21-.56 11.68 2.37.61.52 1.43.81 2.22.16.09-.87.19-1.74.28-2.61-3.61-3.6-8.04-6.59-8.41-13.82-1.82 3.16-3.46 4.72-3.44 6.24.08 4.29-2.54 3.87-5.27 3.67-1.54-3-4.51-4.14-7.23-5.63-3.16-1.73-5.84-10.08-3.29-11.44 2.72-1.46 1.88-3.35 2.53-5.09 1.72-1.17 2.71.04 3.73 1.15.47.51 1.1.88 1.72.44.31-.22.6-1.02.44-1.25-1.08-1.63-1.97-3.89-3.53-4.55-1.73-.74-1.41 2.07-2.41 3.01-2.5.62-4.26.32-4.13-2.91.13-3.43 2.15-2.45 4.11-1.95 1.51.38 3.08.2 4.16-.94 1.58-1.67-1.38-2.31-1.05-3.77.65-1.35 2.72-2.83.6-4.17-2.59-1.64-3.5 1.4-5.45 2.29 2.36-8.49 9.48-13.94 13.92-21.09.92-.69 1.84-1.39 3.51-2.77-1.29 1.57-2.11 2.16-2.65 2.99-.79 1.65-3.28 3.24-1.42 5.09 1.73 1.73 4.05.62 5.88-.71 1.21-.88 2.72-1.16 3.98-1.93-1.78 2.96-4.45 4.99-7.84 5.32-9.54.91-12.06 5.4-7.35 13.9 3.16 2.53 4.14 6.27 5.55 10 .07-2.32 2.89-3.75 1.33-6.47-1.27-2.23-3-5.06 2.12-4.92 1.26.03 1.05-1.68.7-2.31-1.56-2.75-2.47-4.81 2.26-3.73.34.08.87-.77 1.33-1.16 2.55-2.14 4.92-6.32 6-9.82.34-1.09 1.29-3.17 2.92-.72.81 1.22 1.97.87 2.3-.09.71-2.08 2.05-4.66-.57-6.17-1.8-1.04-4.3-2.38-5.83.88-.82 1.75-2.07 3.02-4.29 2.53-1.67-2-.74-3.24 1.18-4.29.87-.48 2.66-.16 2.12-2.03-.5-1.73-.8-3.57 1.35-4.05 1.74-.39 2.94.71 3.56 2.64.89 2.79 3.17 1.27 4.55.72 2.23-.89.49-2.11-.32-2.95-1.83-1.88-1.54-2.82.94-3.88 2-.85 4.85-2.52 3.75-4.93-1.97-4.31.87-2.99 2.81-3.03 1.07-3-.89-4.54-2.92-6.04-3.24-.59-3.36 2.23-3.95 4-1.18 3.52-3.7 4.99-7.05 5.18-3.14.18-6.3-.02-9.44-.11-1.07-.03-2.21-1.19-3.16.12-.96 1.33.24 2.08.93 2.95 1.1 1.38 1.29 3.07-.32 3.82-1.97.93-1.51-1.41-2.22-2.24-1.47-1.73-2.89-1.09-3.99.51-.76 1.1-3.4 2.19-.52 3.64 2.41 1.22 2.27 2.65.74 4.25-1.62 1.7-3.79 1.41-4.56-.49-1.62-4-4.23-3.95-7.5-2.7-1.01-.58-2.01-.62-3.01.03-.52.83-1.04 1.65-1.67 2.65 2.25 0 4.3-.13 6.33.03 2.74.23 5.48 1.6 5.92 4.13.39 2.26-2.52 3.6-4.28 4.99-.77.61-1.93.27-1.88-1.23.03-.93 2.52-2.38-.48-2.69-2.27-.24-3.91.57-4.12 3.13 1.78 3.16 2.38 6.06-1.35 8.41-1.16.73-.6 2.49-1.43 3.54-1.32 1.84-3.14 1.39-4.96 1.13-2.16-.3-3.88.68-5.24 2.21-.63.71-1.4 1.73-.61 2.66.94 1.11 1.77.19 2.41-.56 2.56-2.99 5.67 2.5 8.21-.55.27.76.79 1.52.78 2.27-.04 2.46-.95 4.53-3.4 5.54-1.05.43-2.63.55-1.82 2.17.53 1.06 1.38 2.2 3.05.61 1.01-.97 1.6.32 1.57 1.45-.1 4.26-3.28 7.44-7.73 7.75-.16.16-.31.33-.47.49.77 2.95 1.95 5.71-1.03 8.51-1.64 1.54-1.17 4.45-.38 6.51 1.11 2.88.87 5.68.59 8.56 3.08.18 6.22.98 9.09-.93.33-1.62 4.2-1.29 4.22-3.14.54 1.04 1.19 1.93 2.59 2.19 2.54 2.38 5.22 4.76-1.14 7.14 5.59.19 5.64.17 8.47 5.33.61 1.12 1.74.17 1.97.56 1.69 2.93 7.36 1.99 6.83 7-3.08.29-3.36 2.95-2.58 4.59 1.18 2.45 3.28 1.07 5.12-.25l-2.59-3.53c2.68.88 7.5-.17 5.66 5.12-.97 2.8-1.15 5.25.48 7.43 1.44 1.93 5.01 1.24 5.97 4.16.43-.18 1.18-.28 1.25-.56.9-3.45 4.92-3.55 6.58-6.15 3.23-.12 5.11-2.81 7.75-4.06.14-4.97-2.18-7.48-6.57-7.1zm-13.46-80.12c-.29-.12-.53-.27-.62-.54.2.18.41.36.62.54zm10.06 89.29c-.8-.72-1.22-1.59-.71-2.65.31-.65.92-1.09 1.62-.82 1.16.45 1.01 1.56.99 2.54-.01.9-.21 1.82.18 2.68-.63-.66-1.41-1.14-2.08-1.75zM195.42 115.56c-1.06-1.09.73-2.76 2.01-3.49 1.26-.72 2.76-1.04 4.15-1.53 1.45-2.46 1.14-5.4 2.23-7.96-2.6-7.59-8.56-13.86-9.15-22.26-3.94 2.27-5.54-.63-6.74-3.78-.51-1.34-.16-2.81-2.35-3.08-6.29-.76-3.37-6.31-4.28-9.55-.76-2.73 1.9-4.9 5.24-5.33 3.5-.45 6.02-1.91 6.13-6.15.08-3.03 2.33-4.49 5.32-4.7.64 2.4.92 5.33 4.64 3.05.63-1.86-.79-2.31-2-2.92-.6-.05-1.21-.09-1.81-.14-1.11-1.01-1.88-2.46-.36-3.3 3.22-1.78 4.41-5.27 7.02-7.54 3.32-2.88 2.94-6.19-1.23-6.4-7.1-.36-8.43-7.64-14.04-9.93-3.06-1.24-2.44-8.39-8.28-8.81-.44-.03-.95-1.65-1.09-2.59-.22-1.41-.75-2.52-2-3.24-.62-.43-1.3-.56-2.03-.45-2.94 1.54-3.38 3.73-1.05 7.08-4.31-3.97-8.18-7.19-9.03-12.54h-2c-2.85.86-4.58 2.5-4.05 5.73.15.8.52 1.48 1.15 2.01l-.09.22c1.83 1 3.82 1.78 4.82 3.77-1.35-.23-1.93-2.28-3.71-1.62-.92 3.85-4.02 2.77-5.87 1.82-5.14-2.63-9.42 2-14.49 1.23-2.03-.31-3.93 1.4-5.74-1.46-2.03-3.22-4.26-1.67-5.62.9-1.07 2.04-.51 3.81 1.13 5.74 2.9 3.41 1.94 5.79-2.46 7.55 0 0 .01-.02.02-.03l.02-.04c-.03.02-.06.03-.09.04l.06.03c-2.63 4.44 4.8 7 2.19 11.44 3.32 1.8-.5 5.46 1.01 6.44 4.11 2.66 1.21 3.38-1.36 4.49 8.9 2.39.92 4.71.42 6.93.61.38 1 .74 1.45.87 2.14.65 3.09 2.05 2.15 4.1-1.12 2.45-2.32 1.06-3.73.01-.83-.61-2.24-.52-3.17.49-.59 1 .03 1.73.58 2.47.85.94 2.12 1.98 1.13 3.27-1.21 1.56-2.58-.54-3.94-.24-1.82 1.12-4.95-1.87-5.93 1.88 6.6 1.82 6.64 1.83 4.58 8.55-.31 1.02-.02 1.58.57 2.14 1.03.98 1.68.26 2.43-.53.85-.9 1.74-2.77 3.06-1.82 1.64 1.19 4.25 2.44 4.02 4.59-.22 2.04.24 5.41-3.51 5.57-1.96.08-2.19 1.24-1.62 2.7.61 1.56 1.79 1.74 3.23.98.92-.48 1.47-1.97 3.11-1.06-.97 2.01 1.55 5.29-1.78 6.26-3.55 1.04-.6 4.84-3.16 5.98-1.08-.03-1.88-.6-2.54-1.38-1.55-1.79-2.86-2.56-5.47-1.07-3.36 1.92-1.4 4.54-1.29 6.56.11 1.89 2.28 2.86 4.5 2.06-1.67-3.03-1.07-4.79 2.73-4.84 1.1-.02 2.2-.21 3.3-.33 3.66.6 5.55 8.28 2.97 12.07-.56 1.54-.39 3.23-.91 4.77-.3 1.49-.39 3.01-.33 4.53.02 1.37.31 2.64 1.29 3.68 2.2 2.6 4.32 4.95 7.34.72.93-1.32 2.77-1.44 3.95-.13 1.39 1.55.11 2.53-1.1 3.62-2.87 2.59-5.61 4.9-9.19 1.04-.65-.7-1.64-1.5-2.54-.57-.88.9-.23 1.7.64 2.42 2.22 1.84 3.95 5.48 7.42 1.4.52-.61 2.22-.22 3.37-.3.86.95 1.67 2 3.19 1.71 4.24 1.91 6.58-3.01 10.35-2.87.89.03 2.24.4 2.32-1.04.04-.67-.65-1.45-1.16-2.05-.72-.85-1.87-1.25-2.58-.29-2.7 3.65-4.66 1-6.87-.56-.68-.48-1.68-.74-1.52-1.69.19-1.14 1.29-1.43 2.3-1.46 5.53-.14 11.15-.87 16.55-.11 3.27.46 5.41.05 7.87-1.83 3.35-2.55 7.04-2.37 10.81.06.6.39.79-.08 1.14-.33 2.64-1.87 4.43.08 6.19 1.78 1.83-3.9 5.32-7.13 1.16-11.41zm-55.51-56.7c-1.49-.92-.12-2.68 1.6-3.03 1.34-.28 3.18.6 3.35-1.79.47-3.18 1.02-4.99 2.11-5.75-1.4.53-2.8 1.09-4.19.51-1.94-5.22-3.41-10.46-3.01-16.18.15-2.1.26-3.5 2.5-4.05 3.8-.93 5.3-7.1 10.42-4.09.97-2.1-.72-2.32-1.22-3.15-.45-.75-.97-1.42-.31-2.21.56-.67 1.36-.82 2.25-.7 2.75.35 6.85 4.34 7.14 7 1.54-.49 3.07-1.03 4.63-1.45.93-.25 1.49-.45.9-1.59-.66-1.27-2.7-3.02.58-3.53 2.22-.34 5.13-1.91 5.9 2.1.34 1.74 1.29 3.02 2.92 3.77 1.56-.42 3.05-.63 4.63.17 1.69.86 3.39.96 4.61-.92 4.53.44 7 3.6 9.3 7-.8 3.08-2.97 5.07-5.44 6.83-1.18 2.54-3.49 2.65-5.82 2.7-.53.4-1.19.7-1.55 1.22-1.08 1.56-5.27.37-4 2.95.8 1.62 4.42 3.03 7.28 1.24.69-.43 1.47-.75 2.25-.99 1.06-.33 1.96.01 2.54.97.66 1.09 0 1.85-.7 2.58-2.66 2.8-5.33 5.44-8.78.9-.22-.29-.86-.27-1.34-.4.37 9.4.02 9.89-5.6 7.93-.42.46-.83.45-1.22-.05-3.76-.8-3.69 2.38-4.61 4.48-1.12 2.53-11.02 5.8-13.28 4.26-1.83-1.24-.87-2.36.25-3.61 3.01-3.39-.71-4.13-2.44-5.02-1.37-.71-1.95.51-1.28 2 1.23 2.73-.3 4.14-2.65 3.54-2.95-.75-3.4 4.48-6.07 2.3-1.51-1.23 1.24-4.17-1.65-5.94zm52.03 50.99c-2.13 3.16-4.77.47-7.17.53-1.73-2.92.98-8.24-5.1-8.99.56 3.81 2.61 6.89 4.24 10.14-.12 1.15-.21 2.31-.35 3.45-.13 1.02-.44 2.05-1.66 2.11-1.23.06-.86-1.08-1.14-1.78-.88-2.17-2.99-4.85-4.61-4.01-2.08 1.08-4.28 4.04-.86 6.86.82.68.57 1.86-.29 2.63-.83.75-1.49.11-2.16-.36-2.27-1.61-4.01-1.21-6.89-.31-5.92 1.85-12.59 2.02-18.76.71-3.36-.71-6.54-4.65-5.07-8 1.46-3.33 4.29-6.53 7.04-9.22 1.15-1.12 4.33.24 4.2 2.53-.1 1.72-.43 2.86 1.41 3.4.82.24 1.84-.01 1.82-1.07-.03-1.69 1.14-3.89-1.05-4.89-3.2-1.46-6.42-3.75-10.06-.49-.99.89-2.87 2.63-4.22.47-1.1-1.78.5-2.32 2.01-3.05 3.08-1.49.96-3.51-.28-4.59-2.3-2.02-3.14-3.71-.69-6.15 1.1-1.09.92-2.53-.22-3.53-1.64-1.44-1.45-3.29-1.3-5.07.2-2.44-.03-6.47 1.15-6.98 3.71-1.6 6.88-5.5 11.73-3.79 3.25 1.15 8.11-1.17 9.32 5.37.75-5.21 3.37-5.06 5.75-2.8 2.44 2.32 5.91-.65 8.33 2.49 1.09 1.41 3.26 2.56 4.73 4.1.56 1.16-.24 1.72-1.03 2.28.2 1.51-1.13 4.07 2.37 3.28 1.3-.29 2.23.36 2.45 1.76.41 2.74 1.33 3.07 3.94 1.67 1.86-.99 3.75.61 3.86 2.98.11 2.46.97 4.38 2.83 6 1.61 1.4 1.56 3.16.46 4.9-1.55 2.49-3.09 4.98-4.73 7.42zM87.98 104.52c-1.38-3.04-4.91-4.32-5.4-8.47-.62-5.25-6.21-8.94-5.98-14.85 0-.12-.83-.41-1.26-.37-3.7.28-5.07-1.83-5.27-5.09-.09-1.43-.84-1.83-2.13-2.22-2.39-.72-6.51-7.81-5.56-10.3 1.08-2.82 3.56-4.87 6.76-5.19 3.62-.36 6.07-1.55 5.81-5.68-.12-1.95 1.06-3 2.55-3.91 2.04-1.25 2.49.47 3.36 1.63.94 1.25 2.21 1.11 3.75.43-1.61-1.88-5.87-3-3.79-5.82 2.17-2.96 4.27-6.45 7.34-8.45 3.26-2.12 2.67-2.52-.02-4.53-2.53-1.89-6.87-.58-7.94-4.35-.7-2.47-2.61-3.58-4.38-4.19-3.37-1.16-4.88-3.37-5.05-6.57-.15-2.72-1.07-3.94-3.95-3.58-2.97.37-4.92-.97-4.83-4.13.06-2.34-1.13-2.84-3.05-2.77-1.52 2.24-2.17 4.47.43 6.48-3.61 1.72-5.92-.33-8.38-1.79.28-3.47-3.97-5.99-2.06-9.8-2.4-.58-3.81 1.7-5.9 2.05.36.8 1.2 2.13 1 2.32-1.14 1-2.63.69-4.03.46-1.15-2.08-3.74-3.17-4.06-5.83h-5.99l.06.99c1.62 4.1 5.4 5.17 9.04 6.46.32-.11.6-.25.79-.44 3.71.69 7.3 1.64 10.16 4.25l-.15.09c-.97.69-2.22 1.09-2.7 2.32-.09-.5-.31-1.12-.7-1.15-5.6-.41-11.31-5.51-16.82.36-.63.67-1.77.92-2.7.09-2.47.53-5.99 2.74-7.24.38C17.3 8.86 14.8 11.26 12.1 12c-.39 2.73.01 4.96 2.43 6.94 2.56 2.11 2.13 4.69-.77 6.37-1.64.95-2.58 2.4-3.67 3.79 4.58 1.72 4.27 6.62 5.26 9.94.7 2.35 2.57 6.93-1.51 9.45 1.3.83 3.58-.1 4.02 2.18.58 3.06-3.11 2.33-4.07 4.42 1.37.65 2.86.99 3.83 1.9 1.46 1.37 1.78 3.36.27 4.85-1.51 1.49-2.21-.2-2.91-1.27-1.48-.19-3.93-1.14-2.53 1.86.96 2.05.51 4.13 1.13 6.11-1.26-.61-2.44-1.18-2.14-3.09.43-2.65-1.06-4.68-2.65-6.6-1.89.43-2.83-.83-3.75-2.12-1.28-.07-2.55-.1-3.46 1.06.28.79 1.06.58 1.61.85 2.29 1.11 3.95 3.36 4.09 5.45.16 2.37-2.6 1.75-4.34 1.82-.66.04-1.3.09-1.19 1.07.17 1.58 1.27 1.49 2.47 1.72 4.85.94 6.11 3.91 3.26 7.76-.95 1.28-.53 2.2.26 3.03 1.14 1.2 1.62-.15 2.24-.79 1.12-1.15 1.9-2.79 3.88-2.73.86.98 1.71 1.96 2.57 2.93 1.71 1.91.02 7.02-2.54 7.51-.94.18-2.3-1.28-2.77.7-.3 1.26.28 2.26 1.19 3.06 1.34 1.17 2.35.5 3.37-.58.6-.63 1.17-1.81 2.36-.95 1.1.79.2 1.76.17 2.67-.05 1.29.5 2.86-.87 3.58-3.33 1.76-1.87 4.3-1.36 6.72 3.64 1.29.66 4.29 1.62 6.45 2.23 5.03 1.17 8.02-4.18 9.01-5.09.94-.92 3.99-2.23 5.73-1.16 1.54.63 2.43 2.15 2.97 1.51.53 3.24.94 4.37 1.97 2.92 2.66 5.49 4.87 8.32-.08.24-.43 1.85-.08 2.82-.1 1.28 1.61 1.76 3.08-.56 4.25-1.72.86-3.39 1.82-4.46 3.51l.3.35c1.27-.07 2.54-.13 3.81-.2 2.29-1.28 3.13.45 4.08 1.95 3.53 1.38 5.12-2.33 7.88-2.97 1.26-.29 3.68.69 3-1.79-.67-2.44-2.47-1.59-4.31-.61-3.12 1.66-6.54-.54-7.3-4.4 5.42-.51 11.02-.82 16.26-.32 4.57.44 7.71-.42 11.66-2.28 2.9-1.36 6.9-4.05 10.9-.58 1.16 1.01 3.83.1 5.74.47 1.82.35 1.78.58 2.29-2.28-.37-1.12-1-2.01-2.19-2.41-.44-.14-.91-.18-1.25-.51.54-.5.97.14 1.46.14 1.23-.32 2.25-.79 1.74-2.39-.58-1.23-1.13-2.46-.82-3.87-.32.24-.59.39-.82.48.24-.26.49-.49.82-.48 2.55-2.01 6.53-2.51 6.09-7.43-.19-2.11 2.14-1.87 3.64-.53.02 1.3.05 2.6.07 3.91 1.43-.07 3.02.47 4.07-1.06-.46-1.14-1.21-2.11-1.17-3.52.07-1.91-1.06-.8-1.8-.47zM15.93 72.44c-.74.59-1.58 1.06-2.11 1.86-.26-1.02-.42-1.98.91-2.76.55-.32 1.1-.77 1.32-1.36.91.53 1.19 1.22-.12 2.26zm31.16-58.61c0 .01-.01.01-.01.02h-.01l.02-.02zm-23 49.88c.42-2.92-.87-5.28-.13-7.7 2.23.04 3.79-.96 3.64-3.58-.13-2.26 1.11-2.92 2.74-3.34 1.84-.47 2.69.65 3.13 2.29.22.83.82 1.67 1.74 1.29 1.29-.53.64-1.57.29-2.47-1.83-4.7-5.33-2.36-8.34-2.08.03-.14.06-.28.07-.43-4.87-3.93-3.87-9.76-4.82-14.95-.18-.97.28-2.18 1.18-2.57 2.88-1.27 4.82-4.2 7.93-4.83 3.03-.62 4.33-1.86 2.86-5.04 2.47.25 4.22 2.16 6.42 1.12-.48 2.13-.34 4.36 2.09 4.81 2.34.43 5.02-.41 6.08-3.11.43-1.09-.59-2.92 1.36-3.19 1.79-.25 2.4 1.43 3.29 2.6 2.93 3.85 3.51 3.85 7.57-.32-1.03 3.33.17 5.65 2.99 4.43 4.84-2.09 6.96 1.11 9.66 3.65 1.12 1.12 1.68 2.53 2.07 4.03 1.62 5.32-3.08 7.21-5.62 10.27-2.05 5.24-2.86 5.67-8.2 4.17-2.97-.83-2.84 1.03-2.81 3.03.03 1.92 1.08 4.51-2.46 4.55-2.66.77-2.73 5-6.22 4.69-2.39.07-4.28 2.56-6.92 1.43-1.44 1.81-2.99 1.31-4.57.22-.99.86-1.08 1.78-.47 2.74-1.59-.85-2.13-1.9-1.24-4.02 1.07-2.57-1.15-3.85-3.12-4.86-1.08-.55-3.15-.55-3.08.31.48 5.36-4.27 4.64-7.11 6.86zm50.03 44.15c-.56.63-.83 1.6-.37 2.52-1.43-.52-2.87-.47-4.31.07-.11.08-.21.17-.31.25-2.43-.52-2.85-2.87-3.21-4.76-.5-2.63-1.71-3.85-3.89-4.16-.61 4.38 3.41 6.86 3.87 10.76-2.28-.25-1.93 3.1-3.81 3.39.13-2.45-1.81-3.61-3.53-4.82-.92-.65-1.37.26-1.81.98-1.25 2.05-1.44 3.89.6 5.66.88.76.58 1.57.1 2.33-.3-.16-.59-.32-.9-.43-2.19-.79-4.4-1.98-6.75-1.23-4.36 1.4-8.9 1.07-13.34 1.67-3.81.52-7.66.72-10.05-3.5-2.38-4.21 1.67-5.89 3.1-8.58 1.56-2.93 3.23-3.38 4.58.22.71 1.91 2.12 2.58 3.95 1.95 1.94-.67 2.02-2.44 1.94-4.15-.09-1.86-1.2-2.93-2.81-3.76-3.42-1.78-6.9-1.61-10.21-.39-1.01-7.98-.94-15.7-1.85-23.34-.29-2.41.75-3.48 2.71-4.62 3.14-1.83 6.82-1.37 9.99-2.82-.02-.08-.02-.15-.03-.23l.09.06c1.63 2.94 4.57 1.78 6.98 2.18 6.02 1 12 2.08 16.73 6.39.65.59 2.3 1.1 1.52 2.1-3.28 4.2 1.01 3.96 2.8 4.5 3.66 1.11 6.72 2.61 8.42 6.28 2.44 5.21 4.43 10.34-.2 15.48z"/></svg>