<svg version="1.1" id="Layer_1" xmlns="http://www.w3.org/2000/svg" x="0" y="0" viewBox="0 0 510.95 457.64" style="enable-background:new 0 0 510.95 457.64" xml:space="preserve"><style>.st1{fill:#141414}.st2{fill:#454545}.st3{fill:#161616}.st4{fill:#1e1e1e}.st5{fill:#262626}.st6{fill:#252424}.st7{fill:#fff}.st11{fill:#888787}.st14{fill:none}</style><path d="M19.27 323.71c-.78-19.52-6.86-37.89-12.35-56.37-4.72-15.87-7.82-32-6.69-48.57.81-11.94 3.78-23.5 8.55-34.62 3.45-8.03 9.85-11.89 17.53-14.34 22.67-7.21 46.06-11.35 69.28-16.27 18.23-3.87 36.53-6.87 55.04-8.74 1.9-.19 2.69-.99 3.48-2.79 2.72-6.18 4.85-12.67 8.8-18.26.98-.33 1.41.26 1.75 1.02.16 4.82-3.7 8.01-5.02 12.28-1.58 5.12-1.32 5.73 4.15 5.35 1.66-.12 3.28-.53 4.94-.72 9.53-1.08 9.63-1.05 12.23-10.4 1.56-5.63 3.4-11.13 5.84-16.43.76-1.66 1.32-3.45 3.19-4.28.91-.02 1.4.5 1.69 1.29.45 2.5-1.05 4.44-1.91 6.55-2.49 6.14-4.67 12.38-6.26 18.83-.76 3.11.27 4.3 3.39 4.24 3.14-.05 6.29-.23 9.41.42 3.23.88 6.51.45 9.78.44 17.55.92 34.97 3 52.24 6.15 4.98.91 8.78.67 10.85-4.55.41-.35.89-.51 1.42-.48.61.3.93.82 1.21 1.44.78 1.72-.71 4.32 1.62 5.3 2.86 1.2 5.99 1.6 9.08 1.91 1.55.15 2.31-.95 2.76-2.31.46-1.38.46-2.93 1.52-4.1.47-.21.93-.19 1.38.04 1.16 1.39.99 3.11 1.13 4.74.26 2.99 2.16 4.07 4.78 3.75 2.86-.35 1.78-2.63 1.67-4.32-.3-4.78-2.47-9.29-2.11-14.18.46-.72 1.05-1.2 1.96-1.12 2.26 1.43 2.34 3.89 2.86 6.12 3.57 15.36 4.24 30.95 3.89 46.64-.05 2.16-.06 4.33.08 6.49.14 2.18 1.24 3.33 3.45 3.44 2 .09 4-.01 5.99.19 2.89.3 4.25-1.05 4.77-3.82 1.58-8.38 2.5-16.83 1.66-25.33-2.03-20.61-7.66-40.17-17.48-58.46-.78-1.46-1.74-2.86-1.67-4.63.07-.57.29-1.08.65-1.52 3.06-.17 3.68 2.43 4.73 4.35 7.39 13.49 12.63 27.79 15.46 42.89.84 4.47 2.62 6.51 7.37 6.76 10.91.59 21.76 2.08 32.68 2.69 1.65.09 3.34.01 4.76 1.11.7 1.35-.1 2.13-1.07 2.84-8.59.3-16.95-1.79-25.19-2.2 7.58 1.23 15.73.65 23.39 3.34.57.79.58 1.6.1 2.44-6.02.49-11.81-1.4-17.75-1.72-7.14-1.14-14.36-1.74-18.43-2.51 3.67.39 10.34 1.62 17.1 2.22 4.89 1.46 10.22.45 14.98 2.63.28.57.21 1.09-.21 1.56-2.63 1.59-5.47 1.11-8.25.69-7.06-1.06-14.16-1.92-21.24-2.8-1.86-.23-4.75-1.69-4.9 2-.12 2.91-.46 6.38 3.76 6.99 3.45.5 6.93 1.18 10.39 1.16 7.99-.04 15.87 1.58 23.87 1.2 1.97-.09 4.02-.14 5.71 1.26.45.89.41 1.73-.26 2.5-6.34 2.21-12.85 1.3-19.25.69-6.46-.62-12.98-.31-19.41-1.38-3.61-.6-5.77.95-5.77 4.88 0 .66.06-.16-.04.5-2.37 15.97-1.1 14.66-18.91 14.33-3.81-.07-5.77-2.18-5.92-5.98-.11-2.83-.2-5.66.25-8.47.68-3.55 2.05-7.14-.6-10.5-11.76-4.3-24.01-6.82-35.97-10.35-22.92-6.77-46.42-8.47-70.18-7.6-4.32.16-8.63.76-12.87 1.57-8.43 1.59-13.67 7.2-17.3 14.53-7.1 14.35-10.92 29.63-12.39 45.52-3.04 32.74.88 65.1 5.3 97.44 4.92 35.95 10.1 71.86 15.28 107.77 1.17 8.1 0 15.9-3.7 23.62 16.42-.61 32.16-2.79 47.74-6.3 24.22-5.45 47.88-12.95 71.91-19.08 28.38-7.24 56.86-14.11 85.43-20.55 5.14-1.44 10.35-2.62 15.51-4.04 5.98-1.28 11.83-3.07 17.82-4.33 5.8-1.21 11.6-2.45 17.32-3.99 9.88-2.39 19.85-4.34 29.9-5.77 2.67-.38 5.98-1.75 7.86 1.88-26.72 4.07-52.92 10.57-79.14 17.01-28.44 6.99-56.97 13.62-85.35 20.88-26.11 6.68-51.95 14.44-78.2 20.59-16.36 3.83-32.88 6.6-49.74 6.76-7.82.07-14.71 4.19-22.37 4.88h-5c-4.39-2.02-9.25-1.52-13.85-2.54-17.82-3.94-34.68-10.96-52.18-15.94-12.29-3.5-24.78-4.39-37.32-5.48-10.95-.96-24.27-14.72-24.66-25.84-.74-3.53-.54-7.07-.07-10.61.23-10.36 3.98-20.08 5.53-30.22 1.09-7.1 1.89-14.22 2.78-21.34.6-7.32.6-14.64.03-21.96z" style="fill:#121212"/><path class="st1" d="M506.94 189.58c-1.11-1.88-2.69-3.02-4.68-4.08-7.12-3.76-14.22-7.52-21.96-9.89-3.63-.12.03 1.95-.56 2.47-1.77-.6-3.4-1.12-5.08-1.47-6.64-.44-13.25-.35-19.91.28-11.08 1.05-22.21 1.61-33.32 2.36-2.08.14-4.57.7-6.29-1.6 1.25-1.37 2.6-1.35 3.91-1.38 4.82-.11 9.62-.25 14.44-.66 13.27-1.14 26.59-5.33 39.83.18 1.15-.2 2.46-.19 2.53-1.86-4.14-1.33-8.26-2.69-12.41-3.98-10.81-3.35-21.58-6.86-33.03-7.3-4.68-.55-9.35-.61-14.03.03-4.83.81-7.17-1.05-8.29-6.04-3.23-14.32-10.64-26.65-19.56-38.11-10.75-13.82-22.97-26.31-35.67-38.3-13.05-12.31-26.02-24.68-37.58-38.44-3.77-4.49-6.45-8.97-5.27-15.59 1.28-7.17-.39-8.59-7.62-10.77-18.22-5.49-36.64-10.2-55.17-14.47-9.32-2.15-10.51-1.22-12 8.43-.13.82-.24 1.66-.2 2.48.38 7.12.1 14.05-5.13 19.7-.53.93.09 1.27.8 1.56 3.58-.67 4.04-4.92 7.25-6.59.01 2.15-.9 3.56-1.62 5.02-3.17 6.4-7.14 12.32-10.79 18.44-1.92 3.22-4.74 6.03-5.06 10.07.15.48.45.82.91 1.02 2.32-.33 3.13-2.33 4.22-3.94 4.31-6.34 8.21-12.93 12-19.6.92-1.62 1.52-3.63 3.84-4.5 3.99 9.31 9.16 17.66 14.19 26.1 7.58 12.73 16.01 24.95 22.44 38.37 1.71 3.56 2.14 6.72.77 10.47-3.61 9.86-6.76 19.87-8.95 30.16-.4 1.85-1.58 3.83.21 5.64h.9c2.72-.35 2.47-2.78 2.9-4.49 2.21-8.68 4.77-17.26 7.73-25.71.39-1.11.34-2.62 2.06-3.14 4.04 7.89 7.3 15.62 3.98 24.72-1.2 3.28-2.13 6.98-.68 10.62.37.01.73.02 1.1.04 2.39-.25 1.83-2.31 2.21-3.72.75-2.76.84-5.66 1.58-8.53 1.15.66 1.24 1.88 2.26 2.22l.87-1.08c1.51-1.63.71-3.4.36-5.18-1-5.09-2.96-9.86-4.91-14.62-5.8-14.17-12.56-27.83-20.65-40.88-10.52-16.95-21.6-33.62-26.95-48.31-.21-.53-.4-1.05-.56-1.55.17.51.37 1.03.56 1.55 2.7 6.88 9.18 16.09 15.68 25.37 12.42 17.7 27.54 33.37 38.75 51.96.58.95 1.17 2.1 2.65 1.83l.12-1.29c3.89-16.07 8.72-31.95 9.45-48.97 1.47.59 2.07 1.98 3.29 2.42.9.13 1.4-.34 1.67-1.14-.7-6.31-6.1-10.94-6.2-17.57 9.59 12.92 21.39 23.69 32.79 34.8 13.46 13.12 26.86 26.23 39.39 40.29 20.77 23.3 29.77 50.7 30.17 81.4.07 5.37-1.57 6.48-8.53 6.58-5.04.08-3.93-3.67-3.83-6.38.43-11.11-.96-21.92-4.6-32.43-.64-1.85-.95-3.94-2.93-5.03-1.22.13-1.57 1.12-1.98 2.04-1.11 2.39-3.3 1.67-5.19 1.79-6.2.39-12.45-.74-18.63.56-.33.61-.67 1.22-1 1.83 1.74 1.76 4.02 1.21 6.12 1.44 5.95.66 11.93 1.09 17.9 1.53-1.82.71-3.58.11-5.36.05-6.89-.26-13.68-2.59-20.65-1.01v1.73c.38.64.89.92 1.45 1.06.6.05 1.2.12 1.79.2l.29.03c3.57.49 7.14.97 10.72 1.38 3.3.33 6.59.69 9.89.95.35.02.69.05 1.04.07l.92.06c1.02.06 2.04.12 3.06.16-1.02-.04-2.04-.09-3.06-.16l-.92-.06c-.35-.02-.69-.05-1.04-.07-3.31-.24-6.6-.56-9.89-.95-1.41-.14-2.81-.28-4.22-.4-2.27-.2-4.53-.69-6.8-1.01-.6-.06-1.22-.06-1.79-.2-1.8-.15-3.61-.11-5.45.36v.85c.3 2.64 2.58 2.23 4.18 2.47 8.17 1.2 16.39 2.09 24.6 2.98 2 .22 5.07-.45 5.06 2.55-.01 3.5-3.33 2.43-5.36 2.48-4.95.11-9.92.34-14.85-.48-1.63-.27-3.32-.38-4.63 1v1.92c3 2.51 6.56 1.3 9.91 1.51 3.04.08 6.07.1 9.11.03 7.55-.14 7.55-.14 7.58 7.2.01 2.99-.1 5.97.05 8.96.23 4.59 1.57 5.88 6.19 5.69 3.31-.14 6.57-.83 9.88-1.07 4.39-.97 5.56-4.04 5.23-8.08-.96-3.39-.58-6.84-.57-10.29.43-3.43 3.44-2.37 5.4-3.12 3.74-.57 7.6-.44 11.24-1.72 4.65.32 9.23-.97 13.8-.92 12.03.14 24.04-1.72 36.07-.13 9.22 1.21 18.25 2.85 25.1 9.98.89.09 1.43-.12 1.02-1.18zM300 42.92c-1.25 13.67-5.59 26.46-10.69 39.06-.24.6-.44 1.23-.65 1.84-7.11-5.73-36.9-46.21-39.52-53.83 15.7 3.1 31.3 6.14 47.07 8.08 3.06.38 4.07 1.8 3.79 4.85z"/><path class="st2" d="M458.83 387.52c-6.69-2.47-12.98.69-19.4 1.54-6.2.82-12.3 2.41-18.44 3.66-1.85-1.91-1.72-4.29-1.35-6.59.83-5.13.63-10.29.69-15.44.33-25.77 1.61-51.51 2.22-77.27.46-19.6.99-39.22 1.94-58.8.77-15.94.23-31.93 1.9-47.83.12-1.16.22-2.32.7-3.4.8-1.58 2.38-1.96 3.84-2.53 6.93-.45 13.8-1.54 20.8-1.52 9.58.03 19.12-1.07 28.74 0 9.84 1.09 18.73 3.96 26.01 10.91 2.57 3.09 3.32 6.69 3.42 10.65.55 21.75-4 42.8-8.37 63.92-2.82 13.63-5.32 27.4-2.63 41.4 2 10.41 5.48 20.48 7.37 30.92 2.01 11.08 4.43 22.21.61 33.38-2.28 6.68-6.36 11.67-13.87 12.59-9.69 1.19-19.33 2.73-29.08 3.4-1.69.33-3.39.67-5.1 1.01z"/><path class="st3" d="M505.92 190.75c.34-.39.69-.78 1.03-1.16 3.23 3.33 3.93 7.5 3.99 11.89.27 19.91-3.13 39.36-7.52 58.67-2.33 10.23-3.64 20.57-4.5 31-1.08 13.1 3.66 25.15 6.51 37.54 2.79 12.16 5.43 24.32 3.57 36.94-1.66 11.27-6.76 17.13-17.79 18.62-9.02 1.22-18.03 3.29-27.25 2.26 7.61-2.36 15.66-3.51 23.36-3.49 14.88.05 20.06-11.04 20.51-22.82.44-11.53-2.13-22.68-4.91-33.77-3.06-12.19-7.11-24.25-5.96-37.07 1.12-12.52 3.38-24.89 6.23-37.13 4.04-17.33 6.09-34.87 5.72-52.69-.09-3.3-1.2-6.14-2.99-8.79z"/><path class="st4" d="M229.88 31.57c.37.42.74.85 1.12 1.27.54 2.72-1.5 4.25-2.88 6.02-11.82 15.26-24.11 30.15-35.89 45.45-8.63 11.22-16.43 23.02-23.48 35.32-1.12 1.96-1.58 4.9-4.72 5.17-.37-.35-.74-.7-1.12-1.05 9.19-17.82 20.8-34 33.18-49.74 10.38-13.19 21.36-25.91 31.02-39.66.75-1.05 1.85-1.85 2.77-2.78z"/><path class="st5" d="M19.27 323.71c1.39 7.32 1.4 14.64 0 21.97v-21.97z"/><path class="st3" d="M480.31 175.61c-1.79 1.49 1.3 1.4.57 2.94-1.56.21-3.35.82-5-.78-.09-1.39-2.6-1.15-2-3 .66-.28 1.32-.57 1.98-.85 1.6.25 3.13.69 4.45 1.69z"/><path class="st6" d="m430.41 162.65-14.03.03c4.67-1.04 9.35-1.14 14.03-.03z"/><path class="st5" d="M10.97 397.23c.02 3.54.05 7.08.07 10.61-1.38-3.53-1.26-7.07-.07-10.61z"/><path class="st2" d="M366.93 182.7c3.39.05 6.77.11 10.16.16 1.08 1.24 1.02 2.73.97 4.25-.49 17.78-1.07 35.55-1.67 53.33-1.06 31.56-2.01 63.12-3.11 94.68-.81 23.25-1.49 46.51-2.31 69.76-18.76 4.56-37.47 9.33-56.29 13.62-19.54 4.45-38.85 9.72-58.14 15.12-22.46 6.29-44.95 12.5-68.08 15.84-8.43 1.22-17.02 1.39-26.23 2.1 7.46-10.46 6.09-21.48 4.44-32.55-2.26-15.19-4.44-30.4-6.65-45.6-2.26-15.53-4.9-31.01-6.68-46.59-1.39-12.15-3.14-24.26-4.51-36.42-2.22-19.68-3.41-39.39-2.67-59.13.74-19.65 4.5-38.78 13.42-56.61 4.93-9.85 12.42-14.95 23.74-16.05 30.88-2.98 60.79 1.06 90.24 10.17 8.37 2.59 16.89 4.69 25.34 7.02.88 3.65.73 7.3.11 10.97-.03 3.15.08 6.31-.12 9.46-.23 3.53 1.34 4.76 4.72 4.6 3.31-.17 6.68-.39 9.94.06 4.1.56 5.73-1.33 6.19-4.92.47-3.59 1.07-7.2 1.15-10.81.08-3.18 1.23-4.52 4.45-4.38 6.43.28 12.91.65 19.26 1.31 7.5.74 14.9.41 22.33.61z"/><path class="st2" d="M28.15 296.76c5.58.57 11.16 1.19 16.75 1.7 2.11.19 2.73 1.01 2.28 3.15-.57 2.74-.79 5.56-1.08 8.35-.3 2.92.51 4.92 4.01 4.77 3.21-.13 6.14-.66 6.93-4.41.5-2.35-.62-4.57-.9-6.87s.2-3.93 3.1-3.76c9.76.59 19.52 1.11 29.29 1.65 8.8.48 17.61.7 26.4-.11 10.37-.95 20.86-.69 31.06-3.26 1.58-.4 1.86.83 2.03 2.11 1.99 15.57 3.7 31.18 6.11 46.68 2.95 18.94 5.06 37.99 8.21 56.91 1.96 11.81 4.73 23.68 2.77 35.9-1.24 7.72-4.93 12.27-12.41 14.33-12.59 3.47-24.58.03-36.55-3.14-16.99-4.5-33.2-11.56-50.42-15.33-8.1-1.77-16.24-3.27-24.6-2.81-5.32-1.01-8.66-4.55-11.35-8.91-6.53-10.6-8.47-22.39-7.77-34.47.96-16.58 4.55-32.9 6.02-49.44 1.09-12.24 1.18-24.53-.19-36.79-.23-2.07-1.19-4.24.31-6.25z"/><path class="st2" d="M168.79 159.59c-15.26 15.37-19.43 34.26-22.85 53.61-2.58 14.54-2.01 29.15-1.77 43.73.19 11.4 1.16 22.81 2.77 34.12.44 3.06-.2 5.1-3.76 5.67-13.79 2.21-27.77 2.97-41.61 2.65-14.23-.33-28.54-.09-42.76-1.61-3.19-.34-3.75-1.91-3.75-4.6.01-12.95 1.18-25.77 2.74-38.63 2.5-20.59 7.17-40.67 12.3-60.69 1.19-4.65 1.62-10.11 4.42-13.57 3.08-3.81 8.6-.27 13.03-.29 16.16-.07 30.85-5.5 45.52-11.22 11.29-4.4 23.07-6.75 35.72-9.17zM21.11 176.8c8.82-4.51 18.06-3.32 27.23-1.74 5.03.87 10.15 1.1 15.12 2.53 2.47.71 2.82 1.68 2.25 3.85-4.23 15.99-7.26 32.25-10.12 48.53-2.49 14.16-4.27 28.42-5.64 42.74-.6 6.31-.6 12.59-.98 18.88-.21 3.45-1.02 5.86-5.89 4.49-5.13-1.44-10.76-.71-15.98-2.36-2.36-3.39-2.45-7.54-3.67-11.31-3.23-9.97-7.3-19.66-9.95-29.81-6.35-24.27-5.18-48.08 4.72-71.3.69-1.66 1.15-3.51 2.91-4.5z"/><path class="st7" d="M370.97 404.87c-2.73-.3-1.74-2.41-1.7-3.83 1.94-59.46 3.79-118.93 6-178.38.49-13.26-.07-26.59 1.81-39.8l8.55.06c8.27.96 8.13.97 8.3 9.64.5 24.3-1.16 48.54-1.65 72.81-.4 19.78-1.25 39.57-1.92 59.35-.7 20.61-1.49 41.22-2.03 61.85-.12 4.71.06 9.68-2.29 14.13-4.77 2.29-10.06 2.7-15.07 4.17z"/><path class="st2" d="M386.05 400.7c.88-25.28 1.81-50.56 2.63-75.85 1.13-35.11 2.16-70.22 3.26-105.32.31-9.98.48-19.98 1.22-29.94.34-4.62-.58-6.94-5.61-6.22-.6.09-1.27-.28-1.9-.44 1.64-.1 3.28-.19 4.92-.29 3.19-.19 4.46 1.35 4.38 4.48-.12 4.46.19 8.94-.1 13.38-.24 3.7 1.41 4.6 4.66 4.29 3.58-.34 7.09-1.67 10.77-.82 1.5 2.05 1.21 4.45 1.2 6.76-.05 19.81-.82 39.59-1.85 59.37-.58 11.13-.56 22.3-.83 33.43-.4 16.47-1.34 32.93-1.45 49.41-.08 11.63-.94 23.27-.96 34.93-.01 2.97-.27 6.02-2.14 8.59-6.06 1.51-11.97 3.58-18.2 4.24z"/><path class="st7" d="m404.24 396.47 4.95-157.58c.36-11.63.73-23.27 1.09-34.9 3.43-1.32 3.92-4.05 3.47-7.22-.91-3.78.31-7.69-.71-11.46.34-4.44 4.01-1.59 5.88-2.69 2.98-.4 5.97-.75 8.93.18-1.39 44.21-2.76 88.42-4.19 132.63-.83 25.76-1.77 51.52-2.67 77.28-5.5 1.63-11.04 3.07-16.75 3.76z"/><path class="st2" d="M295 134.72c-.81-8.01-3.99-15.31-6.96-22.64-7.88-19.47-18.99-37.17-30.1-54.89-6.96-11.11-13.28-22.6-17.35-35.16-.25-.78-.49-1.59-.58-2.4-.07-.61.1-1.24.25-2.71 10.06 24.22 26.41 43.23 42.03 62.74 6.43 8.03 11.99 16.65 17.64 25.22 6.01 11.08 10.92 22.61 14.42 34.73 5.33 18.49 7.53 37.18 3.56 56.26-.55 2.62-1.75 4.3-4.85 3.12-.74-.28-1.64-.19-2.46-.22-9.66-.37-9.79-.37-9.6-10.25.31-16.25-.3-32.41-4.01-48.32-.45-1.93-.66-3.9-1.99-5.48z"/><path class="st5" d="M164.04 124.8c9.42-15.34 18.75-30.74 29.94-44.89 10.96-13.84 21.96-27.65 32.92-41.48 1.43-1.81 2.73-3.72 4.1-5.58 1.56-2.13 3.11-4.28 4.68-6.4.72-.97 1.07-2.94 2.79-1.9 1.35.81 1.6 2.36.71 3.95-2.75 4.91-5.33 9.92-8.16 14.78-3.24 5.58-6.67 11.04-10.02 16.56-4.19 8.44-10.17 15.75-15.02 23.78-4.61 7.64-9.17 15.28-13.07 23.3-.71 1.46-1.23 3.12-2.89 3.9-3.98 8.03-7.08 16.41-8.95 25.16-1.04 4.88-2.89 7.79-8.57 6.9-4.26-.67-8.44 1.24-12.81 1.03-3.17-.15-3.81-1.14-2.61-3.82 2.32-5.11 4.64-10.2 6.96-15.29zM28.15 296.76c3.05 14.44 2.24 28.98 1.25 43.53-1.01 14.83-3.99 29.41-5.53 44.19-1 9.63-.08 18.79 2.36 27.89 2.3 8.56 6.81 15.79 14.89 20.24-16.62-.39-32.7-17.41-28.69-36.48 2.55-12.13 5.72-24.19 7.31-36.45 1.85-14.29 2.19-28.74.61-43.2-.7-6.43-1.5-12.8-2.89-19.1-.27-1.23-.41-2.75 1.44-2.13 3.04 1.01 6.42-.43 9.25 1.51zM204.01 147.79c-3.83 0-7.66.09-11.49-.02-23.01-.67-45.52 2.54-67.81 8.16-16.58 4.18-32.64 10-49.01 14.81-.32.09-.73.08-.95.28-6.34 5.73-13.58 4.14-20.9 2.78-7.55-1.39-15.19-2.15-22.96-3 57.82-14.88 115.74-28.64 176.11-26 1.06 3.05-1.03 2.96-2.99 2.99zM21.11 176.8c-3.03 9.08-6.88 17.82-8.43 27.44-3.24 20.08-1.49 39.48 5.38 58.6 3.62 10.09 8.24 19.94 9.03 30.87-1.16 0-2.33-.03-3.49 0-4.85.09-7.61-1.78-9.09-6.9-4.87-16.85-10.31-33.58-12.12-51.09-1.52-14.66.35-29.08 5.21-43.1 2.1-6.05 4.49-11.75 9.31-16.19 1.68-1.55 3.01-2.12 4.2.37z"/><path class="st6" d="M357.94 169.79c6.41 2.25 13.2 1.92 19.8 2.92 4.21.64 8.44 1.39 12.78 1.14 3.35-.19 3.35 2.32 3.44 4.79.1 2.87-1.55 3.17-3.8 3.15-7.75-.07-15.52.27-23.21-1.01-13.24.38-26.39-1.18-39.56-2.05-1.95-.13-4.63-.29-5.06-2.29-.68-3.14-.8-6.59-.23-9.74.28-1.53 2.85-.81 4.49-.59 10.42 1.34 20.75 3.65 31.35 3.68zM211.46 154.66c-3.47 1.7-5.98 1.04-8.4 1.1-22.88.57-45.62 2.1-67.4 10.01-10.41 3.78-20.42 8.8-31.52 10.45-6.38.95-12.76 1.95-19.26 1.55-1.34-.08-3.03 0-3.25-1.59-.27-1.9 1.82-1.65 2.88-2.02 22.83-8.02 46.1-14.48 70.03-18.22 17.93-2.8 36.04-2.28 54.12-2.1.57 0 1.14.32 2.8.82z"/><path class="st4" d="M270.98 143.79c3.29-10.68 6.58-21.36 9.89-32.04.47-1.53 1.09-3.01 2.2-6.07 3.46 8.9 8.98 15.53 6.93 24.63-1.16 5.13-2.02 10.32-3.02 15.48-.18 8.18-.4 8.36-8.4 7-7.63-1.29-7.63-1.29-7.6-9zM219.9 155.44c6.08-1.22 12.1.37 18.17.66 8.89.43 17.74 1.76 26.61 2.67 10.19 1.04 20.4 1.98 30.58 3.1 3.54.39 4.98 3.88 3.62 8.77-.98 3.54-3.49 1.9-5.6 1.34-20.63-5.49-41.08-11.67-62.22-15.06-3.69-.57-7.56.76-11.16-1.48z"/><path d="M233.97 154.63c-16.25-2.4-32.59-4.13-49.01-3.39-26.51 1.21-52.53 5.87-77.87 13.7-11.25 3.48-22.81 6.19-33.5 11.38-.82.4-1.91.26-3.15.41 1.28-3.23 4.18-4.04 6.56-4.76 18.43-5.53 36.64-11.81 55.47-15.96 22.91-5.05 46.07-7.48 69.48-5.95 10.68.7 21.5.35 32.03 2.88.6.56.6 1.13-.01 1.69z" style="fill:#afaeaf"/><path d="M51.34 288.91c-1.03-7.64.2-14.87.99-22.01 2.94-26.87 7.74-53.44 13.77-79.78.52-2.26 1.29-4.45 1.79-6.72.37-1.67.96-2.99 2.92-2.4 2.23.66 1.28 2.35.84 3.67-4.24 12.74-6.93 25.87-9.89 38.94-4.85 21.41-7.7 43.08-8.62 65.01-.05 1.03.46 2.35-1.8 3.29z" style="fill:#d2d2d1"/><path class="st4" d="M204.01 147.79c1.27-.73 2.97-1.02 2.99-2.99 16.55 1.77 33.12 3.35 49.55 6.02 2.33.38 4.62.99 7.82 1.7-3.31 2.23-5.65.35-7.85.15-16.76-1.53-33.47-3.76-50.34-3.94-.72 0-1.44-.61-2.17-.94zM363.93 163.77c8.12-.47 16.13 1.68 24.27 1.04 1.76-.14 3.68.34 3.42 2.54-.25 2.07-2.37 1.51-3.7 1.38-8.67-.9-17.33-1.95-25.99-2.94L337 162.67c9.1-1.36 17.99.35 26.93 1.1zM190.02 110.81c8.52-18.09 19.42-34.74 30.97-50.98l.12 1.27c-3.55 8.06-9.57 14.59-13.87 22.18-5.4 9.55-10.78 19.12-16.17 28.68-.34-.38-.69-.77-1.05-1.15z"/><path d="m361.93 167.52 30.3 3.6c-11.57 1.48-22.88-1.26-34.3-2.19-4.99-.76-9.98-1.51-14.97-2.27-.13-.88 0-1.47 1.09-.94 6.07-.46 11.86 1.89 17.88 1.8z" style="fill:#898989"/><path class="st11" d="m298.1 160.9-30.27-3.42c.05-.44.09-.88.14-1.32 10.15.52 20.22 1.86 30.27 3.38-.05.45-.1.9-.14 1.36z"/><path d="M233.97 154.63v-1.68c9.24.76 18.48 1.52 27.72 2.29l-.12 1.38c-9.23-.12-18.35-2.32-27.6-1.99z" style="fill:#989898"/><path class="st11" d="m344.06 165.73-1.09.94c-7.14-.94-14.42-1.02-21.32-3.52 7.6-.25 15.02 1.03 22.41 2.58z"/><path d="M52.37 295.84c0 2.9-.08 5.81.03 8.71.06 1.79-.71 2.2-2.35 2.18-1.99-.03-1.42-1.09-1.21-2.23.55-2.97.64-6.06 2.1-8.77.48.04.95.07 1.43.11z" style="fill:#cfcece"/><path class="st4" d="M299.03 186.75c-.04-3.66-.07-7.31-.11-10.97 1.76 3.64 1.56 7.3.11 10.97zM196.03 142.95c3.47-.1 6.96-.44 10.35.72-3.46-.13-7.01 1-10.35-.72z"/><path class="st6" d="m427.84 182.8-8.93-.18c3.92-1.74 8.02-.57 12.04-.8-.79 1.1-1.99.9-3.11.98z"/><path class="st2" d="M313.98 55.8c-2.45-5.26-5.55-10.2-7.45-15.74-.63-1.85-.56-3.73.92-4.43 2.01-.95 1.96 1.61 2.72 2.64 10.02 13.59 22.33 25.08 34.5 36.6 15.57 14.74 30.66 29.83 43.84 46.8 11.68 15.03 18.44 32.02 21.39 50.68 1.32 8.34 2.03 16.73 2.06 25.19.01 2.71-.4 4.1-3.72 4.33-11.33.79-11.57.96-11.23-10.55.35-11.66-2.55-22.61-6.15-33.49-3.77-3.33-4.43-8.39-6.87-12.5-8.64-14.53-19.71-27.06-30.98-39.48-12.94-14.25-25.91-28.49-36.37-44.77-1.07-1.68-2.23-3.29-2.66-5.28z"/><path class="st2" d="M308 25.33c-.03 10.02-3.09 12.32-13.21 10.71-14-2.23-28.05-4.23-41.91-7.23-6.28-1.36-8.91-4.4-8.83-10.68.06-4.52-.7-8.91-1.3-13.32-.3-2.17-.61-3.17 2.16-2.51 20.1 4.73 40.15 9.66 59.83 15.99 3.32 1.06 3.27 1.19 3.26 7.04z"/><path class="st14" d="M386.09 171.14zM376.19 170.2c-3.58-.42-7.15-.89-10.72-1.38l-.29-.03c2.27.32 4.53.81 6.8 1.01 1.4.12 2.81.26 4.21.4zM388.05 171.28c1.02.06 2.04.12 3.06.16-1.02-.04-2.04-.1-3.06-.16z"/><path class="st1" d="M363.38 168.58c.57.14 1.19.15 1.79.2-.59-.08-1.19-.15-1.79-.2zM242.84 25.72c-.19-.52-.39-1.04-.56-1.55.16.5.36 1.02.56 1.55zM376.19 170.2c3.29.38 6.59.71 9.89.95-3.3-.26-6.59-.62-9.89-.95zM387.12 171.22l.92.06-.92-.06z"/><path class="st4" d="M307.05 51.27c-.72 15.62-3.78 29.34-7.41 42.94-.8 3-2.24 2.51-4.15.57-5.58-5.64-5.3-11.7-2.23-18.44 4.83-10.62 7.42-21.88 8.7-33.45.12-1.12-.19-2.6 1.38-2.78 1.61-.19 1.54 1.43 1.98 2.43 1.44 3.26 2.03 6.66 1.73 8.73z"/><path class="st6" d="M473.88 174.78c.6 1 1.8.7 2.57 1.16 1.85 1.1.79 1.58-.57 1.84-16.73-.32-33.33 1.47-49.95 2.92-3.3.29-6.64.02-9.96.09-2.04.04-3.02-.72-3.07-2.89-.05-2.45 1.09-3.19 3.34-3.12 14.27.45 28.26-2.07 42.35-3.76 5.21-.64 10.04 2.99 15.29 3.76z"/><path class="st4" d="M313.98 55.8c14.23 21.94 32.16 40.82 49.48 60.24 11.15 12.5 21.4 25.8 27.4 41.78-.81.45-.9 1.24-.98 2.04-9.93-24.97-28.83-43.35-46.16-62.9-11.19-12.63-22.44-25.25-30.7-40.14.33-.34.65-.68.96-1.02z"/><path class="st6" d="M443.26 166.94c-9.31 1.72-18.59 2.91-27.99 2.84-2.11-.02-4.19-.13-4.25-2.93-.05-2.78 1.94-3.07 4.1-3.07 9.48.03 19.01-.54 28.14 3.16z"/><path d="M425.26 170.9c9.67.61 19.1-2.73 28.8-1.8-8.89 2.56-18.04 3.2-27.18 3.87-5 .38-9.99.68-14.97-.19v-.01c.12-2.2 1.83-1.37 2.94-1.46 3.46-.26 6.96.41 10.41-.41z" style="fill:#a8a7a8"/><path class="st6" d="M411.91 172.78c4.99.06 9.98.12 14.97.19-5.01 1.18-10 1.65-14.97-.19zM425.26 170.9c-2.94 1.23-6.05.5-9.07.84-1.45.16-3.26-.91-4.29 1.04-1.53-2.37.64-1.94 1.65-1.96 3.9-.06 7.81.04 11.71.08zM413.03 185.3c1.34 3.75.79 7.62.71 11.46-1.66-3.73-.62-7.63-.71-11.46z"/></svg>