<svg version="1.1" id="Layer_1" xmlns="http://www.w3.org/2000/svg" x="0" y="0" viewBox="0 0 200.66 281.34" style="enable-background:new 0 0 200.66 281.34" xml:space="preserve"><style>.st0{fill:none}</style><path class="st0" d="M72.81 123.77c1.07-2.25.16-4.2-.04-6.3-.66-6.78-1.4-13.56-1.75-20.35-.21-4.04-1.3-7.18-5.36-8.62-4.48-1.59-7.87.89-10.77 3.56-1.99 1.83-3.12 4.61-4.63 6.96-2.4 3.75-4.21 6.93-.24 11.46 2.33 2.65 2.8 7.44 3.02 11.33.43 7.77 1.22 15.66-1.13 23.3-.14.44-.19.99-.26 1.53l2.67 5.25c2.05-3.01 4.18-5.99 6.4-8.92 4.5-5.98 8.81-12.32 12.09-19.2zM183.88 271.98c-6.18 1.2-10.99 3.23-10.73 4.53s5.47 1.38 11.65.18c6.18-1.2 10.99-3.23 10.73-4.53-.26-1.3-5.47-1.38-11.65-.18z"/><path d="M198.79 269.44c-1.78-3.02-2.38-5.84.04-8.73 1.77-2.11 1.03-4.3-.34-5.96-8.14-9.87-7.79-23.23-14.36-34.04-3.64-5.98-6.06-13.55-8.22-20.69-1.44-4.76-3.93-7.97-8.91-8.99-1.8-.37-2.45-1.17-2.69-3.34-.93-8.41-2.69-16.73-3.56-25.14-.77-7.51-7.67-12.73-7.09-20.72.21-2.91-.36-6.04-1.31-8.83-3.33-9.83-3.98-20.09-5.22-30.25-.13-1.03-.76-2.32 1.03-3.39 3.04 6.03 4.19 13.03 9.27 17.89.22.21-.02.95-.09 1.44-.82 5.31.5 10.54.71 15.81.11 2.77 2.41 3.59 4.87 4.06 2.48.47 5.54-2.98 7.2.25 1.09 2.11.39 5.17.39 7.81 0 1.14-.34 2.28-.43 3.42-.43 6.04 4.79 5.87 8.33 7.37 3.86 1.64 4.12-1.96 4.73-4.02 3.74-12.55 1.56-24.77-2.21-36.95-2.41-7.78-7.43-15.09-4.82-23.94.36-1.23-.03-2.59-.84-3.79-8.36-12.37-16.62-24.8-25.05-37.11-2.35-3.43-4.79-7.33-8.59-8.9-7.46-3.08-9.48-8.57-8.84-15.84.13-1.47.35-2.94.57-4.41.52-3.39.4-6.91-1.98-9.4-3.66-3.84-7.65-7.42-11.84-10.67-5.17-4.02-20.6-2.7-25.43 1.82-.36.34-.77.67-1.03 1.09-3.41 5.43-7.35 10.33-5.41 17.83 1.79 6.93-2.52 11.48-9.63 11.37-5.44-.09-9.93 1.58-14.34 4.75-8.58 6.18-15.88 13.77-23.17 21.24-9.09 9.31-15.01 20.06-16.15 32.49-2.83-5.58-5.66-11.17-8.5-16.75-3.58-7.09-7.2-14.2-10.84-21.3-.38-.74-.61-1.73-1.77-1.69-2.66.09-4.02 2.33-2.85 4.63 6.88 13.5 13.78 26.99 20.63 40.5 1.29 2.54 2.58 5.09 3.87 7.64 1.02 6.71 2.54 13.45 2.39 20.14-.2 9.02 4.68 14.89 9.94 20.91 1.51 1.73 3.35 2.68 5.78 1.67 1.18-.5 1.99-1.17 2.51-2.02 1.77 3.5 3.54 6.99 5.32 10.49-3.9 6.18-7.4 12.59-10.34 19.36-.35.81-.8 1.67-.2 2.32 2.42 2.57.48 4.65-.72 6.72-3.99 6.9-4.85 14.2-1.94 21.53 1.52 3.84 1.72 7.43.52 11.1-.83 2.53-.82 4.72-.03 7.24 1.35 4.27.3 8.03-3.94 10.09-4.4 2.14-7.81 5.63-11.94 8.13-2.63 1.6-3.91 4.59-2.98 7.35.96 2.88.65 5.12-.75 7.54-1.28 2.22-.26 3.87 1.9 4 7.21.44 14.66 2.27 21.17-2.84 5.65-4.43 10.17-9.85 13.03-16.37 3.53-8.05 6.26-16.46 10.97-23.97 1.45-2.31 2.32-4.84 2.37-7.55.1-5.16 1.5-9.71 3.56-13.93 6.65 13.03 13.31 26.06 19.97 39.09 4.57 8.93 9.16 17.84 13.76 26.76 1.09 2.12 2.57 3.9 4.72 5.06 9.6 5.19 19.85 8.59 30.38 11.25 3.33.62 6.66 1.09 10.05.7 2.49-.28 3.99-1.64 4.6-4.03 1.22-4.83-.92-8.31-5.76-9.33-.86-.18-1.72-.36-2.6-.45-6.65-.66-13.18-1.99-19.66-3.53-6.44-1.53-12.56-3.79-17.7-8.3-4.28-3.74-6.78-8.61-9.28-13.47-8.45-16.47-16.85-32.97-25.24-49.47 2.71-4.24 5.85-8.26 8.68-12.41 4.28-6.29 12.06-7.3 18.57-10.09 6.87-2.95 11.27-1.34 15.22 5.04 2.73 4.4 5.35 8.74 6.86 13.79.72 2.41 2.51 4.42 4.58 6.31 5.49 5.01 10.79 10.32 15.6 15.98 8.71 10.24 16.79 21.02 25.59 31.18 4.37 5.05 4.85 12.15-.21 16.75-1.7 1.55-3.85 2.59-5.74 3.95-3.91 2.8-4.17 5.11-.91 8.57 1.83 1.94 4.14 3.73 4.52 6.43.54 3.83 2.79 4.01 5.7 3.46 7.36-1.39 14.74-2.73 22.09-4.2 6.07-1.25 6.56-2.25 3.46-7.51zM51.65 146.63c.07-.55.12-1.09.26-1.53 2.36-7.64 1.56-15.53 1.13-23.3-.21-3.89-.69-8.68-3.02-11.33-3.97-4.53-2.16-7.71.24-11.46 1.51-2.36 2.63-5.13 4.63-6.96 2.9-2.67 6.29-5.15 10.77-3.56 4.06 1.44 5.15 4.58 5.36 8.62.35 6.8 1.09 13.58 1.75 20.35.2 2.11 1.11 4.06.04 6.3-3.28 6.88-7.58 13.22-12.1 19.2-2.22 2.93-4.35 5.91-6.4 8.92-.88-1.75-1.77-3.5-2.66-5.25zm133.14 130.06c-6.18 1.2-11.4 1.12-11.65-.18s4.55-3.33 10.73-4.53 11.4-1.12 11.65.18c.26 1.3-4.55 3.33-10.73 4.53z"/></svg>