<svg xmlns="http://www.w3.org/2000/svg" viewBox="0 0 534.12 501.72" style="enable-background:new 0 0 534.12 501.72" xml:space="preserve"><style>.st0{display:none}.st1{display:inline;fill:#141526}.st3,.st5,.st6{display:inline;fill:#fff}.st5,.st6{fill:#5c5c5c}.st6{fill:#131313}</style><path d="M1.64 416.54c.41 9.82 1.82 19.41 3.15 29.07.11.83.56 1.65.5 2.45-1.14 14.37 6.91 24.37 15.5 34.26 8.84 10.17 20.34 15.38 32.8 18.98 1.26.36 2.64.45 3.95.42 13.64-.3 27.27.14 40.94-.64 12.35-.7 22.93-6.15 33.96-10.38 6.29-2.41 12.14-6.29 17.71-10.21 1.76-1.24 3.42-1.98 5.06-2.25l12.94-12.09c.4.74 1.2.96 2.6.94 10.16-.11 20.31-.05 28.6-.05 13.54-.42 25.22-.21 36.89-.51 23.85-.61 47.72-.03 71.58-.66 20.6-.54 41.22-.06 61.83-.58 24.36-.61 48.74.1 73.1-.65 8.73-.27 17.47-.11 26.2-.14 1.32-.01 2.66.2 3.03-1.68 1.2-6.21 1.66-12.46 1.15-18.77-.56-6.86-3.67-12.3-9.2-16.45-7.14-5.35-14.22-10.77-21.25-16.27-3.01-2.36-6.08-4.7-6.72-8.99-.26-1.76-1.57-3.24-2.82-4.62-2.84-3.11-6.14-5.62-9.72-7.77-12.67-7.62-25.96-13.77-40.5-16.95-4.94-1.08-5.53-1.92-5.31-6.83.42-9.57-.96-19.01-1.66-28.51-.78-10.65-.64-21.19 6.84-30.01 1.8-2.13 1.21-4.05-.57-5.87-2.79-2.86-6.2-4.88-9.51-7.06-3.65-2.4-3.97-3.88-1.36-7.41 3.13-4.24 6.52-8.3 9.58-12.59 2.8-3.92 5.88-7.49 9.88-10.21 2.86-1.95 4.92-4.53 5.99-7.83 2.43-7.53 2.99-15.26 2.39-23.11-.52-6.87-2.13-13.63-2.07-20.55.04-4.65 1.38-8.63 6.3-10.41.46-.17.91-.47 1.28-.79 9.13-7.89 18.44-15.58 27.32-23.74 10.11-9.29 18.52-20.18 26.97-30.93 10.34-13.14 22.23-24.07 37.74-30.83 12.19-5.31 23.89-11.64 35.5-18.12.81-.45 2.89-.45 1.28-2.38-2.43-2.92-7.47-4.02-10.81-2.14-2.97 1.67-6.13 2.61-9.48 3.05-3.09.41-4.18-.61-3.6-3.65.38-1.99.11-3.97-1.66-4.83-3.02-1.45-6.19-3.29-9.67-.82-.9.64-1.95 1.12-2.99 1.5-4.19 1.54-8.68 3.76-12.93 2.18-3.78-1.41-7.77-2.95-11.08-5.56-3.66-2.88-7.1-6.08-11.27-8.25-3.27-1.7-4.2-1.37-5.45 2.04-1.39 3.77-3.12 7.28-6.33 9.85-4.77 3.8-10.24 6.2-16.11 7.6-5.4 1.28-6.28.89-9.26-3.82-1.84-2.9-3.97-5.33-7.1-6.87-1.15-.57-2.28-1.44-3.07-2.44-4.1-5.17-9.99-7.12-15.9-9.01-3.44-1.1-4.62-.37-5.98 3.1-.41 1.03-.73 2.13-1.29 3.07-1.68 2.82-3.83 3.14-6.22.89-2.56-2.42-4.36-5.2-4.71-8.91-.44-4.64-.75-4.84-5.41-4.97-2.13-.06-3.39-.71-3-3.03.52-3.08-1.22-4.68-3.63-5.97-3.58-1.92-7.47-2.8-11.44-2.57-7.51.43-14.98.73-22.42-.68-.87-.17-1.93-.26-2.26.94-1.43 5.28-5.79 7.59-10.09 9.91-5.32 2.87-7.73 2.39-11.32-2.6-1.73-2.41-3.91-3.9-6.67-4.37-6.08-1.04-12-2.5-17.92-4.33-6.44-1.99-13.28-2.66-19.94-3.91-5.14-.96-6.58-2.56-6.38-7.81.31-8.52-.63-16.77-4.16-24.66-1.19-2.65-2.05-5.57-2.44-8.45-1.24-9.19-1.13-9.2-10.23-10.21-5.38-.6-6.94.66-7.45 6.08-.1 1.11-.06 2.23-.03 3.35.15 6.08.22 12.17.51 18.25.11 2.32-.57 3.03-2.91 2.78-8.9-.98-17.85-.83-26.77-.51-16.91.62-33.81 1.55-50.68 2.91-7.37.6-14.74 1.24-22.11 1.83-1.21.1-2.17.29-2.34 1.79-.01.05-.01.1-.02.15l-.54-.77c-3.54 4.23-6.46 9.12-12.25 10.8-1.16.34-1.57 1.73-1.68 2.93-.46 5.03-4.02 8.24-6.49 12.19-5.46 8.74-11.04 17.45-15.36 26.87-.35.76-.55 1.72-1.12 2.23-7.24 6.49-6.09 15.21-5.55 23.41.36 5.39 1.07 10.74.31 16.1-1.41 9.89 2.06 19.81-.25 29.68-.15.62-.07 1.4.18 1.99 5.27 12.95 5.41 26.87 7.53 40.42 1.77 11.32 6.83 21.19 12.74 30.9 8.48 13.94 18.11 27.43 20.63 44.31 1.66 11.13 4.87 22.17 5.31 33.33 1.49 37.81-9.17 70.23-41.68 92.8-20.62 14.32-48.89 10.34-62.63-13.34-5.44-9.38-13.44-16.65-18.56-26.12-.48-.88-1.23-1.64-2.38-1.56-1.4.1-1.97 1.11-2.28 2.31-1.44 5.52-3.14 10.94-4.97 16.34-1.32 3.9.73 7.99 1.36 11.87 1.23 7.82-.5 15.42-.17 23.13z" id="Layer_2_copy"/></svg>