<svg version="1.1" id="Layer_1" xmlns="http://www.w3.org/2000/svg" x="0" y="0" viewBox="0 0 1330.83 1081.69" style="enable-background:new 0 0 1330.83 1081.69" xml:space="preserve"><style>.st0{fill:#395542}.st1{fill:#f6f0cf}</style><path class="st0" d="M1330.83 516.96v50c-.72.97-2.01 1.91-2.06 2.92-.49 9.26-.63 18.55-1.13 27.81-.49 9.05-1.01 18.12-2 27.13-1.79 16.31-3.78 32.61-5.98 48.87-3.14 23.23-8.77 45.93-15.61 68.31-12.49 40.87-30.56 79.12-54.64 114.49-13.94 20.48-29.34 39.86-47.15 57.02-15.19 14.63-31.19 28.51-47.66 41.7-20.62 16.52-43.04 30.57-66.51 42.72-16.32 8.44-33.02 16.18-49.82 23.61-25.47 11.27-51.92 19.98-78.8 27.09-39.74 10.51-79.97 18.74-120.9 23.2-17.31 1.89-34.56 4.28-51.9 5.85-16.11 1.45-32.28 2.5-48.44 3.02-22.26.71-44.53 1.01-66.8 1.02-20.27.01-40.54-.33-60.8-1-19.49-.65-38.97-1.87-58.45-2.95-9.88-.55-19.78-1.06-29.62-2.09-13.05-1.37-26.07-3.12-39.07-4.91-13.96-1.93-28.04-3.4-41.8-6.32-25.41-5.39-50.71-11.34-75.89-17.69-32.77-8.27-64.24-20.36-94.83-34.62-26.65-12.42-52.23-26.8-76.48-43.53-22.3-15.38-43.03-32.64-62.44-51.46-7.23-7.01-13.97-14.59-20.37-22.36-9.81-11.91-19.53-23.92-28.57-36.41-14.84-20.54-26.74-42.78-37.2-65.88-10.3-22.74-18.28-46.23-24.69-70.28-8-30.02-12.76-60.62-15.87-91.42-1.94-19.22-2.2-38.61-3.17-57.93-.13-2.49.16-5.02-.13-7.49-.1-.88-1.33-1.62-2.05-2.43v-42c.72-1.14 2.01-2.25 2.06-3.42.49-10.1.62-20.21 1.13-30.3.47-9.39.99-18.79 2.01-28.12 1.77-16.31 3.11-32.74 6.14-48.83 4.17-22.13 8.88-44.24 14.91-65.92 9.62-34.55 24.11-67.15 42.74-97.9 15.05-24.83 32.24-48.03 52.35-68.92a485.854 485.854 0 0 1 34.75-32.71c12.35-10.52 25.31-20.38 38.53-29.79 28.71-20.44 59.76-36.75 92.03-50.79 28.1-12.22 57.08-21.99 86.63-29.96 34.29-9.25 69.11-16.18 104.29-21.02 20.49-2.82 41.09-5 61.68-7.03a770.04 770.04 0 0 1 42.94-3.01c16.25-.69 32.53-.75 48.8-1.09 1.17-.02 2.41.19 3.47-.16.63-.21.98-1.3 1.45-2h58.99c1.31.72 2.59 2.03 3.92 2.06 16.43.47 32.87.7 49.3 1.12 6.11.16 12.22.53 18.31 1.06 14.26 1.22 28.51 2.6 42.77 3.91 7.54.7 15.11 1.15 22.61 2.15 13.15 1.77 26.28 3.67 39.36 5.89 15.64 2.65 31.34 5.14 46.78 8.7 19.73 4.54 39.29 9.84 58.81 15.23 28.29 7.82 55.78 18.03 82.15 30.84 19.76 9.6 39.09 20.18 58 31.37 26.52 15.69 50.83 34.52 73.18 55.75 9.14 8.68 18.02 17.73 26.22 27.29 10.57 12.33 20.81 25.01 30.37 38.14 16.56 22.75 29.92 47.37 40.99 73.26 8.96 20.95 16.34 42.42 21.98 64.47 7.32 28.6 12.83 57.55 15.04 87.04 1.43 19.08 2.7 38.17 3.97 57.26.2 2.99-.12 6.01.14 8.99.06.89 1.32 1.65 2.03 2.45zm-665.66 523.53c24.47-.76 48.94-1.34 73.4-2.31 58.32-2.32 116.16-8.74 173.25-21.17 60.86-13.25 119.15-33.39 173.01-65.17 54-31.86 99.77-72.65 134.44-125.27 40.34-61.24 58.68-129.71 64.41-201.85 2.63-33.14 3.03-66.51 3.28-99.78.32-43.21-3.57-86.13-11.97-128.6-19.46-98.37-68.91-177.85-149.48-237.78-59.5-44.26-126.66-71.42-198.23-88.64-70.24-16.9-141.75-23.93-213.78-25.76-62.13-1.57-124.23-.72-186.17 5.56-43.11 4.37-85.84 10.86-127.92 21.25-64.16 15.84-124.85 39.78-179.65 77.35-56.31 38.6-101.12 87.35-131.12 149.1-26.75 55.08-38.33 113.9-42.73 174.43-2.86 39.41-2.92 78.87-1.22 118.35 1.62 37.34 5.85 74.33 14.25 110.79 17.7 76.79 54.56 142.57 112.79 196.04 41.84 38.42 89.79 66.99 142.32 88.14 63.48 25.56 129.81 39.18 197.53 46.88 51.03 5.8 102.26 7.84 153.59 8.44z"/><path class="st1" d="M665.17 1040.49c-51.33-.6-102.56-2.64-153.59-8.44-67.72-7.7-134.05-21.32-197.53-46.88-52.53-21.15-100.48-49.72-142.32-88.14-58.23-53.47-95.08-119.25-112.79-196.04-8.4-36.46-12.64-73.45-14.25-110.79-1.71-39.47-1.65-78.93 1.22-118.35 4.4-60.54 15.97-119.36 42.73-174.43 30-61.75 74.81-110.5 131.12-149.1 54.8-37.57 115.49-61.52 179.65-77.35 42.09-10.39 84.82-16.88 127.92-21.25 61.94-6.28 124.04-7.14 186.17-5.56 72.02 1.83 143.53 8.86 213.78 25.76 71.57 17.22 138.73 44.38 198.23 88.64 80.57 59.93 130.02 139.41 149.48 237.78 8.4 42.47 12.3 85.38 11.97 128.6-.25 33.27-.64 66.64-3.28 99.78-5.73 72.14-24.07 140.61-64.41 201.85-34.67 52.63-80.44 93.41-134.44 125.27-53.86 31.78-112.16 51.93-173.01 65.17-57.09 12.43-114.93 18.85-173.25 21.17-24.46.97-48.93 1.55-73.4 2.31zm6.71-960.23c-36.04 1.4-65.83 2.24-95.59 3.78-49.11 2.55-97.79 8.7-145.89 19.08-53.76 11.59-105.62 28.57-154.09 55-54.01 29.45-99.47 68.42-133.26 120.27-35.41 54.34-51.52 114.98-57.87 178.72-3.64 36.5-4.52 73.11-3.55 109.79.99 37.85 3.93 75.47 11.52 112.63 9.66 47.3 26.57 91.66 53.97 131.68 39.09 57.08 91.95 97.5 153.99 126.69 55.27 26 113.75 41.16 173.79 50.79 63.63 10.21 127.78 13.79 192.12 13.42 31.95-.18 63.93-1.51 95.84-3.27 48.94-2.69 97.41-9.3 145.24-20.15 56.79-12.88 111.29-31.87 161.51-61.91 54.98-32.89 99.67-76 130.71-132.51 30.88-56.21 43.66-117.34 47.13-180.59 1.82-33.21 1.72-66.58 1.23-99.85-.59-39.87-5.42-79.35-15.02-118.15-17.56-70.94-53.03-131.02-108.49-178.98-45.42-39.28-97.85-65.78-154.47-84.6-59.56-19.79-120.96-30.59-183.31-35.61-40.47-3.28-81.11-4.45-115.51-6.23z"/><path class="st0" d="M671.88 80.26c34.4 1.78 75.04 2.95 115.51 6.21 62.36 5.02 123.76 15.82 183.31 35.61 56.62 18.81 109.05 45.32 154.47 84.6 55.46 47.96 90.93 108.05 108.49 178.98 9.6 38.8 14.43 78.28 15.02 118.15.49 33.28.59 66.64-1.23 99.85-3.48 63.24-16.25 124.37-47.13 180.59-31.04 56.5-75.73 99.61-130.71 132.51-50.22 30.04-104.72 49.03-161.51 61.91-47.83 10.85-96.3 17.46-145.24 20.15-31.91 1.76-63.89 3.09-95.84 3.27-64.35.37-128.5-3.21-192.12-13.42-60.05-9.63-118.52-24.79-173.79-50.79-62.05-29.19-114.9-69.61-153.99-126.69-27.4-40.01-44.31-84.37-53.97-131.68-7.59-37.16-10.53-74.79-11.52-112.63-.96-36.67-.08-73.28 3.55-109.79 6.35-63.74 22.46-124.38 57.87-178.72 33.79-51.85 79.25-90.82 133.26-120.27 48.47-26.43 100.33-43.4 154.09-55 48.1-10.37 96.78-16.53 145.89-19.08 29.75-1.53 59.55-2.37 95.59-3.76zm-6.74 914.14c22.96-.73 45.93-1.33 68.89-2.21 52.65-2.04 104.9-7.73 156.54-18.28 55.68-11.38 109.43-28.44 159.57-55.73 51.44-27.99 95.1-64.76 127.96-113.67 37.41-55.68 54.26-118.21 59.6-184.12 2.55-31.48 3.1-63.19 3.24-94.8.18-42.87-3.73-85.44-12.99-127.42-19.94-90.44-68.12-161.65-145.14-213.19-51.44-34.42-108.37-55.76-168.19-70.11-67.8-16.26-136.82-22.95-206.34-24.74-54.96-1.42-109.9-.5-164.72 4.58-44.48 4.12-88.55 10.59-131.94 21.28-51.97 12.81-101.8 31.11-147.77 58.96-54.55 33.05-98.5 76.38-128.42 133.18-27.6 52.38-39.17 108.96-43.52 167.36-2.78 37.25-2.9 74.54-1.2 111.84 1.7 37.17 6.02 73.96 15.19 110.09 15.33 60.39 43.97 113.26 88.47 157.28 36.88 36.47 80.09 63.2 127.61 83.29 65.45 27.68 134.25 41.48 204.53 49.05 46.06 4.97 92.3 6.76 138.63 7.36z"/><path class="st1" d="M665.14 994.4c-46.33-.6-92.57-2.39-138.64-7.36-70.28-7.57-139.09-21.38-204.53-49.05-47.52-20.09-90.73-46.82-127.61-83.29-44.49-44.01-73.14-96.89-88.47-157.28-9.16-36.12-13.49-72.92-15.18-110.08-1.7-37.31-1.58-74.6 1.2-111.84 4.35-58.41 15.92-114.99 43.52-167.36 29.93-56.8 73.88-100.14 128.42-133.18 45.97-27.85 95.8-46.15 147.77-58.96 43.39-10.69 87.47-17.16 131.94-21.28 54.82-5.08 109.76-5.99 164.72-4.58 69.52 1.79 138.54 8.48 206.35 24.75 59.81 14.35 116.75 35.68 168.19 70.11 77.02 51.54 125.2 122.75 145.14 213.19 9.25 41.98 13.17 84.55 12.99 127.42-.14 31.61-.68 63.31-3.24 94.8-5.35 65.91-22.19 128.44-59.6 184.12-32.86 48.9-76.52 85.67-127.96 113.67-50.15 27.29-103.9 44.34-159.57 55.73-51.64 10.56-103.89 16.25-156.54 18.28-22.97.87-45.93 1.46-68.9 2.19zM499.21 351.25c-.08.31-.16.62-.25.93 2.29 1.17 4.9 1.97 6.82 3.59 5.32 4.49 11.14 4.65 17.39 2.87 1.76-.5 3.52-1.14 5.32-1.31 11.05-1.05 12.04 2.33 9.85 11.08-.11.45-.45.85-.67 1.26-3.04.2-6.24-.24-8.93.72-8.61 3.06-17.18 4.96-26.24 1.88 9.94 8.85 21.56 1.54 33.62 3.13-8.33 10-15.84 19.02-23.16 27.8-2.25-1.36-4.98-3.02-8.71-5.28.83 2.65 1.23 3.9 1.97 6.25-3.26-1.77-5.57-3.03-8.25-4.49 1.26 8.29 6.97 10.89 14.32 12.32l-1.78 10.04c2.11 6.19 11.57 3.57 12.9 11.29 2.73-.44 5.46-.89 8.39-1.36v3.77c8.28-.37 9.29-13.06 18.94-10.81.7 4.04 1.21 7.84 2.05 11.56.64 2.81-.22 4.26-2.93 5.27a394.82 394.82 0 0 0-18.52 7.42c-5.19 2.24-6.72 7.46-4.31 12.47 1.26 2.62 1.86 5.55 2.79 8.33.09.28.37.49.64.83 1.17-.21 2.38-.43 3.81-.7.46 2.24.84 4.12 1.25 6.08l4.15-.53c.34 2.18.65 4.1.99 6.26 1.78-.39 3.3-.73 5.38-1.19.27 4.21-4.02 8.6 1.46 12.29 1.05-1.83 2.15-3.58 3.08-5.42 1.42-2.82 2.84-3.09 4.52-.24 1.04 1.77 2.14 3.51 3.73 6.12 1.48-3.51 2.54-6.04 3.51-8.35 3.05.71 5.92 1.39 8.8 2.06.38-.59.76-1.17 1.14-1.76-2.29-2.68-4.58-5.37-6.4-7.51 1.67-3.65 3.33-7.26 5.26-11.5-5.8.3-8.97 1.61-10.65 6.24-1.29 3.55-5.53 3.58-7.46.25-2.72-4.69-5.03-9.62-7.66-14.74 11.65-3.58 22.76-6.99 33.49-10.3 1.93 5.05 4.17 10.92 6.55 17.15 1.95-1.18 3.09-1.87 4.29-2.6 1.16 2.09 2.1 3.79 3.17 5.72 1.24-.62 2.35-1.18 3.66-1.83 1.09 1.94 2.1 3.74 3.11 5.55.18-.52.37-1.03.55-1.55 2.17.17 4.43 0 6.48.59 2.97.85 2.53 2.97 1.96 5.6-.41 1.89.95 4.16 1.94 7.79 1.84-3.02 2.75-4.69 3.83-6.24.69-1 1.63-1.84 2.46-2.75.85.9 1.79 1.74 2.51 2.73 1.04 1.42 1.93 2.96 3.52 5.42 1.41-3.65 2.44-6.31 3.34-8.63 3.13.83 6.05 1.6 8.97 2.37.37-.5.73-1.01 1.1-1.51-1.63-2.03-3.49-3.93-4.79-6.15-.66-1.12-.73-2.98-.31-4.26.96-2.89 2.38-5.63 3.93-9.13-7.56 1.24-7.51 1.27-10.36 7.01-1.73 3.49-4.77 4.47-7.92 2.46-6.57-4.17-12.87-8.77-19.66-13.45 1.94-2.93 3.63-5.55 5.38-8.14 4.69-6.96 4.07-12.81-1.64-18.88-1.03-1.09-1.09-3.1-1.59-4.69.47-.29.95-.59 1.42-.88 9.6 4.11 18.91 9.38 30.18 7.13.41 3.62.75 6.53 1.09 9.56h19.44v-40.03h-19.94c0 3.43.17 6.56-.11 9.66-.09.94-1.41 2.47-2.19 2.49-1.4.02-2.95-.69-4.15-1.52-.56-.39-.44-1.76-1-4.56-3.06 3.62-5.22 6.19-7.75 9.19-2.65-1.32-6.03-3-9.82-4.89 2.64-5.47 5.11-10.62 7.63-15.86 1.65 1.19 2.94 2.11 4.26 3.07 1.49-2.44 2.81-4.6 4.09-6.69 1.24 1.56 2.14 2.68 3.04 3.81 2.8-3.21 4.44-6.45 7.03-7.66 2.51-1.17 5.99-.25 9.43-.25v-7.68c1.95.4 3.5.72 5.41 1.11.16-3.07.31-5.8.45-8.55 2.07.32 3.74.58 5.97.93-1.8-6.28.37-10.49 4-14.66 2.24-2.57 3.14-6.28 4.86-9.36.86-1.53 2.22-2.78 3.36-4.16 1.04 1.48 2.24 2.88 3.08 4.47 1.42 2.69 2.06 6.03 4.03 8.16 4.06 4.38 6.68 8.93 4.94 15.54 2.27-.36 3.93-.62 5.79-.91.19 2.95.37 5.65.56 8.61 2.09-.49 3.63-.84 5.57-1.29v9.27c8.26-5.69 11.72.13 15.25 5.91 1.52-1.27 2.68-2.23 4.1-3.41 1.4 2.42 2.61 4.52 3.96 6.84 1.51-1.12 2.79-2.06 4.31-3.18 2.58 5.38 5.06 10.54 7.66 15.95-3.97 1.92-7.34 3.55-9.75 4.71-2.72-3.04-4.92-5.5-7.12-7.97l-.42 2.15c-1.73 1-3.46 2.01-5.2 3.01-.86-1.63-2.13-3.17-2.49-4.91-.5-2.34-.31-4.84-.42-7.3h-19.72v39.96h19.81c.11-2.3-.14-4.38.41-6.21.36-1.21 1.99-3.07 2.83-2.96 9.14 1.17 16.91-2.79 24.79-6.3 2.92-1.3 4.39-.73 4.84 2.72-13.13 9.92-4.57 19.29 1.85 28.56-6.91 4.76-13.12 9.22-19.53 13.38-3.5 2.28-7.24 1.02-8.28-3.07-1.35-5.3-4.92-5.81-10.57-5.96 1.94 3.67 3.6 6.41 4.82 9.34.4.97.01 2.64-.62 3.6-1.46 2.23-3.28 4.23-4.96 6.32l1.24 1.51 8.75-2.43c.96 2.46 2 5.09 3.42 8.71 1.64-2.68 2.49-4.3 3.57-5.74.72-.96 1.78-1.66 2.68-2.47.71.84 1.5 1.63 2.11 2.54 1.12 1.67 2.12 3.42 3.96 6.42 1.01-3.6 2.29-5.74 1.95-7.58-.46-2.49-1.37-4.76 1.71-5.69 2.16-.66 4.56-.54 6.86-.76.14.5.27 1.01.41 1.51 1.05-1.79 2.1-3.59 3.12-5.33l3.72 1.63c1.08-2 2.03-3.74 3.07-5.65 1.29.8 2.46 1.53 4.31 2.67 2.42-6.38 4.64-12.26 6.48-17.13 10.85 3.31 21.98 6.7 33.53 10.22-2.61 5.08-4.86 9.88-7.49 14.47-2.19 3.82-6.43 3.67-7.95-.53-1.74-4.81-5.16-5.28-10.62-5.58 2.19 4.39 3.96 7.91 5.56 11.12-1.98 2.6-4.13 5.41-6.27 8.22.45.48.89.96 1.34 1.44 2.79-.75 5.57-1.5 8.43-2.27 1.07 2.54 2.13 5.05 3.58 8.5 1.61-2.72 2.66-4.53 3.75-6.32 1.47-2.42 2.9-2.5 4.31.08 1.06 1.93 2.18 3.83 3.28 5.74.44-.07.89-.15 1.33-.22.55-1.97 1.55-3.94 1.52-5.9-.03-1.86-1.15-3.71-2.07-6.36 2.81.61 4.34.94 6.01 1.3.36-2.2.68-4.12 1-6.09l4.19.31c.5-2.3.9-4.18 1.31-6.07 1.61.37 2.72.62 3.65.84.93-2.84 1.43-5.66 2.72-8.06 3.52-6.57 1.95-11.39-5.08-14.26-5.7-2.33-11.48-4.45-17.09-6.98-1.29-.58-2.93-2.51-2.83-3.7.34-4.39 1.34-8.73 2.11-13.15 9.64-1.37 10.7 10.64 18.82 11.02.13-1.29.26-2.57.36-3.67 3.14.46 5.87.85 8.78 1.28-.17-1.49-.6-2.97-.32-3.12 2.8-1.5 6-2.4 8.52-4.25 1.75-1.28 3.38-3.69 3.65-5.77.32-2.54-.84-5.28-1.34-7.8 11.34-4.04 13.66-6.26 13.56-12.37-2.19 1.19-4.44 2.4-7.71 4.17.86-2.43 1.29-3.66 1.73-4.89-.25-.26-.51-.51-.76-.77-2.8 1.74-5.59 3.48-7.53 4.69-7.56-9.06-14.99-17.97-23.32-27.95 12.23-1.33 23.75 5.75 33.66-3.16-12.31 6.15-23.33-3.56-35.39-2.27-.39-1.65-.86-3.07-1.05-4.53-.8-6.17.95-8.32 7.24-8.22 2.94.05 5.87.99 8.79 1.6 4.92 1.03 9.77 2.1 14.45-1.07 3.03-2.05 6.3-3.75 9.47-5.61-3.3.05-6.39 1.08-9.57 1.6-3.87.64-7.89 1.56-11.7 1.12-5.79-.67-11.46-2.4-17.63-3.78.4-1.55 1.07-3.91 1.61-6.3 1.3-5.82 4.44-7.9 10.23-6.41 3.38.87 6.62 2.29 10.02 3.07 6.71 1.53 13.11 1.06 17.76-2.83-4.62 0-11.01 1.88-15.15-.38-9.6-5.23-21.55-2.1-30.16-9.57-.12-.11-.56.14-1.2.32 4.88 6.96 4.16 14.2 1.7 21.83-4.24 13.16-2.64 25.31 7.51 35.56 2.34 2.37 4.79 4.7 6.73 7.38 3.39 4.68 7.12 9.32 9.39 14.55 1.94 4.46 2.65 9.99-1.48 14.07-3.74 3.69-8.62 3.29-13.18 1.75-6.21-2.1-12.29-4.61-18.41-6.98-.43-.17-.71-.69-1.1-.98-3.52-2.61-7.04-5.21-11.54-8.53.91-6.1 2.02-13.53 2.96-19.84 3.94-1.16 6.68-1.96 9.03-2.65-2.48-4.76-4.43-8.51-6.35-12.21 3.23-.88 5.87-1.6 8.34-2.27-2.4-4.52-4.33-8.17-6.22-11.75 3.49-.9 5.96-1.55 8.1-2.1-2.33-4.62-4.22-8.34-5.93-11.72 2.9-1.49 5.05-2.6 6.65-3.43-3.35-6.85-6.24-12.77-8.77-17.94 1.02-3.36 1.84-6.06 2.47-8.11-5.49 1.31-10.31 2.9-15.26 3.52-4.59.58-9.32.07-13.98.16-1.27.02-3.25.02-3.68.75-2.87 4.89-7.39 6.79-13.2 7.24 1.1 4.69-.73 10.63 4.65 12.03 4.69 1.22 10.06-.21 15.94-.51.15 1.28.46 3.83.84 6.99-8.4-2.9-15.37-1.01-22.38 1.56-8.46 3.1-11.37 1.8-15.21-6.07-.16-.34-.79-.45-1.25-.7-.35 8.74 2.48 12.03 10.96 11.42 4.88-.35 9.7-2 14.49-3.3 4.37-1.19 8.32-.83 11.92 2.67-3.71.9-7.43.6-11.07 1.04-1.48.18-3.88 1.87-3.94 2.97-.13 2.46.95 4.99 1.55 7.55 3.16-1.12 5.9-2.09 9.8-3.48-3.1 6.29-7.24 8.71-12.75 8.78-8.66.12-17.34.21-25.99-.09-2.2-.08-4.87-1.14-6.44-2.67-7.29-7.07-14.3-14.43-21.32-21.77-1.69-1.77-3.93-3.72-4.29-5.85-.41-2.42 1.02-5.15 1.45-6.95-1.83-2.1-3.66-3.95-5.19-6.01-3.14-4.24-9.09-4.62-12.57-.67-2.01 2.29-4.02 4.58-6.16 7.01 3.28 4.78 3.22 6.68-1.08 11.13-7.52 7.79-15.05 15.57-22.72 23.21-1.29 1.28-3.29 2.53-5 2.58-9.49.24-19 .31-28.49.01-5.04-.16-8.88-2.75-11.58-8.75 3.95 1.43 6.77 2.45 9.97 3.61.26-1.79.43-3.07.63-4.35.99-6.37.99-6.38-5.35-6.39-3-.01-6 0-9 0-.01-.6-.01-1.2-.02-1.8 4.31-3.31 8.97-2.59 13.94-1.27 4.92 1.31 10 2.6 15.04 2.77 6.45.21 9.61-4.86 7.8-11.23-4.87 8.25-7.46 9.66-15.03 6.9-7.43-2.72-14.79-4.75-23.63-1.87.73-3.43 1.26-5.93 1.8-8.42.27.51.55 1.03.82 1.54 4.78.32 9.9 1.87 14.25.65 5.4-1.51 4.24-7.36 4.63-12.19-2.17-.44-4.23-.52-5.97-1.31-1.71-.77-3.53-1.98-4.54-3.5-1.81-2.74-4.06-3.27-7.13-3.36-9.42-.27-19.35 2.28-27.69-4.97-.29.29-.58.57-.87.86.94 2.69 1.89 5.39 2.97 8.5-2.71 5.52-5.67 11.56-8.96 18.25 1.98.91 4.22 1.95 6.98 3.22-2.05 3.86-4.03 7.58-6.41 12.06l8.53 1.7c-2.11 3.89-4.05 7.46-6.46 11.91 2.55.67 5.2 1.37 8.46 2.24-2.06 3.9-4.1 7.76-6.58 12.46 2.83.65 5.71 1.31 9.23 2.12.98 6.83 2.03 14.16 3.08 21.47-2.55 1-4.71 1.52-6.49 2.65-1.93 1.22-3.46 3.06-5.26 4.52-.72.58-1.65.94-2.53 1.27-3.83 1.44-7.68 2.86-11.53 4.24-3.26 1.17-6.47 2.86-9.83 3.29-7.51.95-11.55-3.33-11.34-10.85.17-6.19 2.88-11.24 6.63-15.8 3.59-4.37 7.34-8.63 11.27-12.7 9.67-10 10.86-21.79 6.98-34.33-2.41-7.79-3.43-15.15 1.19-22.73-2.38.96-4.24 2.39-6.25 3.57-1.26.74-2.72 1.3-4.15 1.56-4.32.77-9.05.49-12.92 2.21-6.72 2.99-13.24 4.16-20.31 2.06-1.04-.31-2.15-.41-4.31-.8 6.47 5.37 12.88 5.85 19.59 4.31 3.39-.78 6.62-2.28 10.02-3.04 3.65-.82 7.74-1.06 9.5 3.06 1.39 3.25 1.6 7.01 2.15 9.67-5.91 1.31-11.42 3.01-17.05 3.63-3.98.44-8.15-.4-12.18-1.03-3.16-.49-6.25-1.53-9.37-2.33zm220.74 263.51h1.2c0-10.99-.28-21.98.09-32.96.31-9.01-2.28-16.19-9.89-21.53-5.17-3.63-9.94-7.82-14.8-11.87-9.57-7.98-15.24-8.13-25.45-.96-17.44 12.24-34.76 24.66-52.53 36.4-9.73 6.43-13.99 14.67-14.12 26.22-.19 16.62-1.31 33.23-2.21 49.84-.84 15.49 3.76 28.6 16.41 38.16 4.9 3.71 10.13 7 15.27 10.38 5.06 3.33 10.12 3.07 14.77-.75 6.17-5.07 12.33-10.17 18.22-15.55 4.87-4.45 7.32-4.85 12.58-.9 7.05 5.29 14.16 10.52 21.12 15.94 2.08 1.62 4.02 3.57 5.53 5.71 5.33 7.54 2.55 15.45-6.53 16.94-8.81 1.45-17.83 2.18-26.76 2.18-16.3.01-32.61-1.37-48.89-.99-15.56.36-24.55 8.84-25.74 24.36-.86 11.18.17 22.54.82 33.79.14 2.45 2.24 4.78 3.44 7.16 2.31-1.3 5.28-2.06 6.8-3.98 6.09-7.65 13.94-12.02 23.5-12.55 17.27-.97 34.58-1.64 51.87-1.89 10.8-.16 18.4-4.47 23.23-14.14 8.25-16.52 16.66-32.96 25.05-49.41 3.85-7.56 7.99-14.97 11.68-22.61 2.83-5.86 2.04-7.66-3.47-10.95-3.14-1.87-6.3-3.73-9.36-5.73-8.42-5.51-11.88-13.53-11.83-23.38.05-12.3 0-24.62 0-36.93zm-506.22-34.07c.63-17.76 1.08-34.06 1.86-50.34.25-5.11.78-10.37 2.3-15.21 2.87-9.1 10.09-11.33 18.03-6.15 1.52.99 2.95 2.18 4.28 3.43 7.18 6.7 14.25 13.53 21.49 20.16 8.29 7.58 12.96 7.58 21.05-.09 5.07-4.81 9.89-9.9 14.79-14.89 6.47-6.6 6.46-11.62-.39-17.82-9.63-8.72-19.33-17.36-29.17-25.84-9.46-8.15-16.81-8.19-26.86-.46-20.06 15.44-39.97 31.08-60.18 46.32-10.13 7.64-14.7 17.51-15.03 29.99-.71 26.62-1.77 53.24-2.62 79.86-.32 10.14 1.17 20.13 9.33 26.93 20.6 17.15 41.48 33.98 62.65 50.42 6.51 5.05 14.78 5.23 21.49.09 12.28-9.4 24.11-19.41 35.83-29.5 4.95-4.26 4.77-9.61.39-14.55-4.09-4.61-8.23-9.17-12.44-13.67-10.16-10.87-14.7-10.87-25.69-.57-6.8 6.37-13.53 12.88-20.87 18.6-11.33 8.84-18.62 5.47-20.25-8.88-.3-2.64-.5-5.32-.42-7.97.42-14.48.83-28.95 1.49-43.42.22-4.82.82-10.4 5.81-12.37 4.92-1.93 9.79.77 13.75 4 2.43 1.98 4.4 4.53 6.52 6.87 1.9 2.1 3.59 4.4 5.6 6.37 5.5 5.39 11.13 6.22 17.48 1.96 6.34-4.26 12.45-8.91 18.34-13.77 7.09-5.84 6.86-12.01-.35-17.8-7.14-5.74-14.44-11.28-21.55-17.05-9.04-7.34-13.75-7.6-23.21-.99-7.41 5.2-14.88 10.38-23.45 16.34zm856.16 47.74h1.75c0-11.31-.39-22.63.13-33.92.37-7.89 6.98-13.57 15.35-14.6 6.9-.85 11.48 2.21 14.77 9.98.84 1.98 1.47 4.06 2.15 6.11 4.52 13.74 1.8 27.72 1.39 41.63-.48 16.46-1.06 32.92-1.31 49.38-.04 2.41.89 5.6 2.56 7.11 5.28 4.8 10.98 9.18 16.81 13.32 5 3.55 10.86 4.38 15.88.55 8.69-6.65 17.22-13.6 25.17-21.11 4.88-4.6 3.95-8.49-1.44-12.41-1.21-.88-2.43-1.81-3.79-2.4-10.79-4.65-13.09-13.15-12.32-24.09 1.42-20.41 2.2-40.88 2.7-61.34.11-4.61-1.29-9.59-3.23-13.84-4.22-9.25-10.95-16.65-19.4-22.37-10.73-7.26-17.81-7.16-28.35.45-4.18 3.02-8.2 6.27-12.36 9.33-9.49 6.98-12.24 6.88-21.46-.63-4.13-3.37-8.16-6.87-12.37-10.12-9.17-7.08-15.85-6.9-24.63.51-3.56 3.01-7.05 6.11-10.62 9.1-11.11 9.29-10.96 18.52.91 26.67 6.02 4.14 9.28 9.35 9.26 16.61-.01 3.49-.01 6.99-.12 10.48-.76 23.62-1.59 47.23-2.28 70.85-.17 5.75 1.83 10.97 6.09 14.8 4.18 3.76 8.84 7.03 13.44 10.3 8.14 5.78 11.56 5.58 19.57-.67 7.74-6.05 15.38-12.23 23.31-18.03 3.05-2.23 3.4-4.61 1.36-7.1-3.02-3.68-6.17-7.44-9.95-10.25-5.17-3.84-8.65-8.48-8.87-14.84-.34-9.81-.1-19.64-.1-29.46zm-628.46-9.9c.51-11.31 1.09-22.61 1.5-33.92.35-9.58-2.97-17.74-10.56-23.7-5.75-4.52-11.82-8.65-17.91-12.71-6.55-4.37-13.2-4.08-19.54.55-5.51 4.03-10.86 8.27-16.31 12.37-8.36 6.28-13.53 5.92-21.2-1.08-4.42-4.03-8.85-8.12-13.66-11.65-8.64-6.34-14.98-5.96-22.73 1.45-5.16 4.94-9.9 10.34-14.63 15.71-8.67 9.85-8.38 12.03 2.75 18.95 7.63 4.74 11.58 11.52 11.32 20.34-.75 25.45-1.7 50.9-2.77 76.34-.35 8.3 2.27 15.07 8.86 20.1 4.1 3.13 8.42 5.97 12.68 8.88 5.4 3.69 9.47 3.93 14.7.07 8.43-6.23 16.7-12.7 24.86-19.29 4.04-3.26 3.89-8.11-.12-11.57-3.4-2.94-6.94-5.72-10.55-8.4-4.42-3.28-6.15-7.7-5.99-13.01.6-19.8 1.2-39.6 1.88-59.39.08-2.31.31-4.7.99-6.89 2.19-6.96 7.54-10.36 14.33-11.62 5.38-1 10.54.49 12.86 5.47 2.96 6.38 6.3 13.29 6.54 20.08.54 14.76-.91 29.59-1.31 44.39-.32 11.78-.65 23.58-.2 35.35.14 3.65 2.02 7.94 4.51 10.64 3.9 4.22 8.9 7.47 13.6 10.9 6.25 4.56 12.77 4.64 18.93-.06 6.21-4.74 12.32-9.66 18.15-14.86 11.23-10.02 10.77-13.82-2.57-21.09-7.26-3.96-10.56-9.8-10.15-17.94.6-11.46 1.16-22.94 1.74-34.41zm429.74 19.2c0 5.21-.04 11.7.01 18.19.04 5.44 1.9 9.89 6.35 13.43 14.47 11.5 28.71 23.28 43.16 34.81 9.69 7.73 17.02 7.41 26.16-1.03 5.38-4.97 10.6-10.12 15.77-15.31 3.4-3.42 6.9-6.81 9.8-10.64 5.03-6.61 4.69-11.9-1.06-17.83-3.23-3.33-6.86-6.32-10.54-9.15-7.18-5.51-11.84-5.08-18.53 1.1-5.62 5.2-11.15 10.53-17.09 15.34-6.5 5.26-11.66 3.16-13.04-5.13-1.8-10.78 1.59-19.52 10.43-26.32 21.26-16.34 42.37-32.86 63.51-49.35 7.54-5.88 7.81-11.79.72-18.55-8.56-8.15-17.21-16.22-25.95-24.17-7.53-6.85-13.81-7.34-22.02-1.42-18.1 13.05-36.07 26.27-54.03 39.49-6.35 4.67-10.22 11.11-10.97 18.89-1.18 12.09-1.76 24.23-2.68 37.65zm-395.94-7.51h-.29c0 8.82-.45 17.67.21 26.44.29 3.84 1.81 8.73 4.54 11.07 15.58 13.28 31.58 26.08 47.69 38.73 5.64 4.43 12.69 5.04 18.06.23 10.88-9.74 21.31-20.04 31.25-30.74 4.62-4.98 3.87-10.18-.82-15.28-3.58-3.9-7.65-7.42-11.83-10.69-6.24-4.88-11.56-4.56-17.48.69-6.1 5.41-11.93 11.15-18.21 16.34-5.64 4.66-10.27 3.02-12.46-3.87-3.32-10.42-.01-19.71 9.94-27.57 19.35-15.27 38.74-30.48 58.08-45.76 11.43-9.03 11.88-17.85 1.27-27.93-7-6.65-14.21-13.09-21.46-19.46-6.21-5.46-13.09-6.45-19.72-1.75-20.09 14.26-39.94 28.87-59.78 43.48-4.65 3.42-7.04 8.29-7.32 14.17-.5 10.63-1.11 21.26-1.67 31.9zm328.39-2.08c.11 0 .22-.01.33-.01.78-13.12 1.47-26.25 2.4-39.36.3-4.27.5-9.23 5.62-10.72 5.06-1.47 7.8 2.73 10.71 5.86 3.96 4.27 7.49 8.97 11.71 12.94 5.86 5.51 11.54 5.96 18.03 1.38 5.83-4.11 11.42-8.63 16.75-13.39 6.53-5.84 6.25-11.41-.45-17.26-6.9-6.02-13.98-11.83-20.82-17.92-8.16-7.27-13.94-7.79-22.7-1.35-17.57 12.92-35.1 25.9-52.59 38.94-6.81 5.08-10.34 12.02-10.72 20.52-.26 5.82-.46 11.64-.72 17.46-.68 14.61-1.27 29.22-2.11 43.82-.49 8.52 1.11 16.58 6.93 22.78 6.11 6.51 12.98 12.38 20 17.92 4.93 3.89 10.82 3.64 15.75-.31 4.91-3.94 9.49-8.35 13.88-12.88 10.4-10.76 9.98-15.75-1.83-24.84-6.8-5.23-10.35-11.92-10.2-20.6.14-7.67.03-15.33.03-22.98z"/><path class="st0" d="M499.21 351.25c3.13.8 6.22 1.83 9.39 2.33 4.03.63 8.2 1.47 12.18 1.03 5.63-.62 11.14-2.32 17.05-3.63-.55-2.66-.76-6.42-2.15-9.67-1.76-4.12-5.85-3.88-9.5-3.06-3.4.76-6.63 2.26-10.02 3.04-6.71 1.54-13.11 1.06-19.59-4.31 2.16.39 3.27.49 4.31.8 7.07 2.1 13.58.94 20.31-2.06 3.86-1.72 8.6-1.44 12.92-2.21 1.44-.26 2.89-.82 4.15-1.56 2.01-1.17 3.87-2.61 6.25-3.57-4.62 7.58-3.6 14.94-1.19 22.73 3.87 12.54 2.69 24.33-6.98 34.33-3.93 4.06-7.69 8.32-11.27 12.7-3.74 4.56-6.45 9.61-6.63 15.8-.21 7.52 3.83 11.8 11.34 10.85 3.36-.42 6.57-2.12 9.83-3.29 3.86-1.38 7.7-2.8 11.53-4.24.88-.33 1.81-.69 2.53-1.27 1.8-1.46 3.32-3.3 5.26-4.52 1.78-1.13 3.94-1.64 6.49-2.65-1.05-7.31-2.1-14.64-3.08-21.47-3.52-.81-6.4-1.47-9.23-2.12 2.48-4.7 4.52-8.57 6.58-12.46-3.26-.86-5.91-1.56-8.46-2.24 2.41-4.44 4.35-8.02 6.46-11.91l-8.53-1.7c2.38-4.47 4.36-8.19 6.41-12.06-2.75-1.27-4.99-2.3-6.98-3.22 3.29-6.69 6.25-12.73 8.96-18.25-1.09-3.11-2.03-5.8-2.97-8.5.29-.29.58-.57.87-.86 8.33 7.26 18.26 4.71 27.69 4.97 3.08.09 5.33.62 7.13 3.36 1 1.52 2.82 2.73 4.54 3.5 1.74.79 3.81.87 5.97 1.31-.39 4.83.77 10.68-4.63 12.19-4.35 1.22-9.47-.33-14.25-.65-.27-.51-.55-1.03-.82-1.54-.53 2.49-1.06 4.99-1.8 8.42 8.83-2.88 16.2-.85 23.63 1.87 7.56 2.77 10.16 1.36 15.03-6.9 1.81 6.37-1.35 11.43-7.8 11.23-5.04-.16-10.12-1.45-15.04-2.77-4.97-1.33-9.63-2.05-13.94 1.27.01.6.01 1.2.02 1.8 3 0 6-.01 9 0 6.34.01 6.34.02 5.35 6.39-.2 1.28-.37 2.56-.63 4.35-3.2-1.16-6.02-2.18-9.97-3.61 2.7 6 6.54 8.6 11.58 8.75 9.49.29 19 .23 28.49-.01 1.7-.04 3.71-1.3 5-2.58 7.67-7.64 15.2-15.42 22.72-23.21 4.3-4.45 4.36-6.35 1.08-11.13 2.14-2.44 4.15-4.73 6.16-7.01 3.48-3.95 9.42-3.57 12.57.67 1.53 2.06 3.35 3.9 5.19 6.01-.44 1.8-1.86 4.53-1.45 6.95.36 2.14 2.6 4.09 4.29 5.85 7.02 7.34 14.03 14.7 21.32 21.77 1.57 1.52 4.24 2.59 6.44 2.67 8.65.3 17.33.21 25.99.09 5.51-.07 9.65-2.5 12.75-8.78-3.9 1.38-6.63 2.36-9.8 3.48-.6-2.56-1.68-5.08-1.55-7.55.06-1.1 2.45-2.79 3.94-2.97 3.64-.43 7.36-.14 11.07-1.04-3.6-3.5-7.55-3.86-11.92-2.67-4.78 1.3-9.6 2.95-14.49 3.3-8.48.61-11.31-2.67-10.96-11.42.46.25 1.08.36 1.25.7 3.85 7.87 6.75 9.17 15.21 6.07 7.01-2.57 13.98-4.46 22.38-1.56-.38-3.15-.69-5.71-.84-6.99-5.88.3-11.26 1.72-15.94.51-5.38-1.4-3.56-7.34-4.65-12.03 5.82-.45 10.33-2.35 13.2-7.24.43-.73 2.41-.73 3.68-.75 4.66-.08 9.39.42 13.98-.16 4.95-.62 9.77-2.21 15.26-3.52-.62 2.05-1.44 4.75-2.47 8.11 2.52 5.16 5.42 11.08 8.77 17.94-1.6.83-3.76 1.93-6.65 3.43 1.71 3.38 3.59 7.11 5.93 11.72-2.14.56-4.61 1.2-8.1 2.1 1.9 3.59 3.83 7.23 6.22 11.75-2.46.67-5.1 1.39-8.34 2.27 1.93 3.7 3.88 7.45 6.35 12.21-2.35.69-5.09 1.49-9.03 2.65-.94 6.31-2.05 13.74-2.96 19.84 4.5 3.32 8.02 5.92 11.54 8.53.39.29.67.81 1.1.98 6.12 2.37 12.19 4.88 18.41 6.98 4.55 1.54 9.43 1.94 13.18-1.75 4.13-4.07 3.42-9.61 1.48-14.07-2.27-5.23-6-9.87-9.39-14.55-1.94-2.68-4.38-5.01-6.73-7.38-10.15-10.25-11.75-22.4-7.51-35.56 2.46-7.62 3.18-14.86-1.7-21.83.65-.18 1.08-.43 1.2-.32 8.61 7.47 20.57 4.34 30.16 9.57 4.14 2.26 10.53.38 15.15.38-4.65 3.89-11.06 4.35-17.76 2.83-3.4-.77-6.64-2.2-10.02-3.07-5.78-1.49-8.92.59-10.23 6.41-.53 2.39-1.21 4.75-1.61 6.3 6.16 1.38 11.83 3.11 17.63 3.78 3.81.44 7.83-.47 11.7-1.12 3.18-.53 6.28-1.56 9.57-1.6-3.16 1.86-6.44 3.56-9.47 5.61-4.68 3.17-9.53 2.1-14.45 1.07-2.92-.61-5.85-1.54-8.79-1.6-6.29-.11-8.04 2.05-7.24 8.22.19 1.46.66 2.88 1.05 4.53 12.06-1.29 23.08 8.42 35.39 2.27-9.91 8.91-21.43 1.84-33.66 3.16 8.32 9.98 15.76 18.89 23.32 27.95 1.94-1.21 4.73-2.95 7.53-4.69.25.26.51.51.76.77-.43 1.23-.87 2.46-1.73 4.89 3.27-1.77 5.51-2.98 7.71-4.17.1 6.11-2.22 8.33-13.56 12.37.5 2.52 1.66 5.25 1.34 7.8-.26 2.08-1.9 4.49-3.65 5.77-2.52 1.85-5.72 2.75-8.52 4.25-.28.15.15 1.63.32 3.12-2.91-.42-5.64-.82-8.78-1.28-.11 1.1-.24 2.38-.36 3.67-8.12-.38-9.18-12.39-18.82-11.02-.76 4.42-1.76 8.76-2.11 13.15-.09 1.19 1.54 3.11 2.83 3.7 5.61 2.53 11.39 4.65 17.09 6.98 7.02 2.87 8.6 7.69 5.08 14.26-1.29 2.4-1.79 5.22-2.72 8.06-.93-.21-2.04-.47-3.65-.84-.41 1.89-.81 3.77-1.31 6.07l-4.19-.31c-.32 1.97-.64 3.89-1 6.09-1.67-.36-3.2-.69-6.01-1.3.92 2.66 2.03 4.5 2.07 6.36.03 1.96-.97 3.93-1.52 5.9-.44.07-.89.15-1.33.22-1.09-1.91-2.22-3.81-3.28-5.74-1.41-2.58-2.84-2.5-4.31-.08-1.09 1.79-2.14 3.6-3.75 6.32-1.45-3.45-2.51-5.97-3.58-8.5-2.86.77-5.65 1.52-8.43 2.27-.45-.48-.89-.96-1.34-1.44 2.14-2.81 4.29-5.62 6.27-8.22-1.6-3.21-3.37-6.73-5.56-11.12 5.46.3 8.88.77 10.62 5.58 1.52 4.2 5.76 4.35 7.95.53 2.63-4.59 4.88-9.39 7.49-14.47-11.55-3.52-22.68-6.91-33.53-10.22-1.84 4.86-4.07 10.74-6.48 17.13-1.85-1.15-3.01-1.87-4.31-2.67-1.04 1.91-1.98 3.65-3.07 5.65l-3.72-1.63c-1.02 1.75-2.07 3.54-3.12 5.33-.14-.5-.27-1.01-.41-1.51-2.29.23-4.69.1-6.86.76-3.08.94-2.17 3.21-1.71 5.69.34 1.84-.95 3.98-1.95 7.58-1.84-3-2.84-4.75-3.96-6.42-.61-.91-1.4-1.7-2.11-2.54-.91.82-1.96 1.52-2.68 2.47-1.08 1.44-1.93 3.06-3.57 5.74-1.42-3.62-2.45-6.26-3.42-8.71-2.92.81-5.84 1.62-8.75 2.43l-1.24-1.51c1.68-2.09 3.5-4.08 4.96-6.32.63-.96 1.02-2.63.62-3.6-1.22-2.93-2.88-5.67-4.82-9.34 5.65.14 9.22.65 10.57 5.96 1.04 4.09 4.78 5.34 8.28 3.07 6.41-4.16 12.62-8.62 19.53-13.38-6.42-9.27-14.98-18.64-1.85-28.56-.45-3.45-1.92-4.02-4.84-2.72-7.87 3.5-15.64 7.47-24.79 6.3-.85-.11-2.47 1.75-2.83 2.96-.55 1.84-.3 3.91-.41 6.21h-19.81V396.3h19.72c.11 2.47-.08 4.96.42 7.3.37 1.73 1.63 3.28 2.49 4.91 1.73-1 3.46-2.01 5.2-3.01l.42-2.15c2.2 2.46 4.4 4.92 7.12 7.97 2.41-1.16 5.78-2.79 9.75-4.71-2.6-5.41-5.08-10.58-7.66-15.95-1.52 1.12-2.79 2.06-4.31 3.18l-3.96-6.84c-1.41 1.18-2.57 2.14-4.1 3.41-3.53-5.77-6.99-11.6-15.25-5.91v-9.27c-1.94.45-3.47.81-5.57 1.29-.19-2.96-.37-5.66-.56-8.61-1.87.29-3.53.55-5.79.91 1.74-6.61-.88-11.16-4.94-15.54-1.97-2.13-2.61-5.47-4.03-8.16-.84-1.59-2.04-2.99-3.08-4.47-1.14 1.38-2.5 2.63-3.36 4.16-1.72 3.07-2.62 6.78-4.86 9.36-3.63 4.16-5.8 8.38-4 14.66-2.24-.35-3.91-.61-5.97-.93-.15 2.76-.29 5.48-.45 8.55-1.91-.39-3.46-.71-5.41-1.11v7.68c-3.44 0-6.92-.92-9.43.25-2.59 1.21-4.22 4.45-7.03 7.66-.9-1.12-1.79-2.25-3.04-3.81-1.28 2.09-2.6 4.25-4.09 6.69-1.33-.95-2.61-1.88-4.26-3.07-2.52 5.24-5 10.38-7.63 15.86 3.79 1.89 7.17 3.57 9.82 4.89l7.75-9.19c.56 2.79.44 4.17 1 4.56 1.2.83 2.75 1.54 4.15 1.52.78-.01 2.11-1.55 2.19-2.49.28-3.09.11-6.22.11-9.66h19.94v40.03h-19.44c-.35-3.03-.68-5.94-1.09-9.56-11.27 2.25-20.58-3.02-30.18-7.13-.47.29-.95.59-1.42.88.51 1.59.56 3.59 1.59 4.69 5.71 6.07 6.32 11.92 1.64 18.88-1.74 2.59-3.44 5.2-5.38 8.14 6.79 4.68 13.09 9.27 19.66 13.45 3.15 2 6.18 1.02 7.92-2.46 2.86-5.75 2.8-5.77 10.36-7.01-1.55 3.51-2.97 6.24-3.93 9.13-.42 1.27-.35 3.13.31 4.26 1.3 2.22 3.16 4.12 4.79 6.15-.37.5-.73 1.01-1.1 1.51-2.92-.77-5.84-1.54-8.97-2.37-.9 2.32-1.93 4.98-3.34 8.63-1.59-2.47-2.47-4-3.52-5.42-.73-.99-1.67-1.82-2.51-2.73-.83.91-1.76 1.74-2.46 2.75-1.08 1.55-1.99 3.22-3.83 6.24-.99-3.62-2.35-5.89-1.94-7.79.57-2.63 1.01-4.75-1.96-5.6-2.05-.59-4.31-.42-6.48-.59-.18.52-.37 1.03-.55 1.55-1.01-1.8-2.02-3.6-3.11-5.55l-3.66 1.83c-1.07-1.92-2.01-3.63-3.17-5.72-1.2.73-2.34 1.42-4.29 2.6-2.38-6.23-4.62-12.09-6.55-17.15-10.74 3.3-21.85 6.72-33.49 10.3 2.63 5.12 4.94 10.05 7.66 14.74 1.93 3.33 6.18 3.3 7.46-.25 1.68-4.64 4.85-5.94 10.65-6.24-1.94 4.23-3.59 7.85-5.26 11.5 1.82 2.14 4.11 4.82 6.4 7.51-.38.59-.76 1.17-1.14 1.76-2.88-.67-5.75-1.35-8.8-2.06-.97 2.32-2.03 4.84-3.51 8.35-1.6-2.62-2.69-4.35-3.73-6.12-1.68-2.85-3.1-2.58-4.52.24-.93 1.84-2.03 3.59-3.08 5.42-5.48-3.69-1.19-8.08-1.46-12.29-2.08.46-3.6.8-5.38 1.19-.34-2.16-.64-4.08-.99-6.26l-4.15.53c-.4-1.96-.79-3.84-1.25-6.08-1.43.26-2.64.48-3.81.7-.27-.34-.54-.56-.64-.83-.93-2.78-1.53-5.71-2.79-8.33-2.41-5.02-.88-10.24 4.31-12.47 6.11-2.63 12.29-5.1 18.52-7.42 2.71-1.01 3.56-2.45 2.93-5.27-.84-3.72-1.35-7.52-2.05-11.56-9.65-2.25-10.66 10.45-18.94 10.81v-3.77c-2.94.48-5.67.92-8.39 1.36-1.33-7.72-10.79-5.11-12.9-11.29.54-3.05 1.13-6.36 1.78-10.04-7.35-1.43-13.06-4.03-14.32-12.32 2.68 1.46 4.99 2.71 8.25 4.49-.74-2.35-1.13-3.6-1.97-6.25 3.73 2.26 6.46 3.92 8.71 5.28 7.32-8.78 14.83-17.8 23.16-27.8-12.06-1.59-23.68 5.71-33.62-3.13 9.07 3.07 17.63 1.18 26.24-1.88 2.7-.96 5.9-.52 8.93-.72.22-.41.56-.81.67-1.26 2.19-8.75 1.2-12.13-9.85-11.08-1.8.17-3.56.81-5.32 1.31-6.25 1.78-12.07 1.62-17.39-2.87-1.92-1.62-4.52-2.41-6.82-3.59.06-.31.14-.62.23-.93zM719.95 614.76c0 12.31.05 24.63-.01 36.94-.05 9.85 3.41 17.88 11.83 23.38 3.06 2 6.22 3.86 9.36 5.73 5.51 3.29 6.3 5.09 3.47 10.95-3.69 7.64-7.83 15.05-11.68 22.61-8.39 16.45-16.8 32.89-25.05 49.41-4.83 9.67-12.43 13.98-23.23 14.14-17.3.25-34.6.92-51.87 1.89-9.56.54-17.4 4.9-23.5 12.55-1.53 1.92-4.5 2.68-6.8 3.98-1.2-2.39-3.3-4.72-3.44-7.16-.65-11.25-1.68-22.61-.82-33.79 1.2-15.53 10.18-24 25.74-24.36 16.28-.38 32.59 1.01 48.89.99 8.93-.01 17.95-.74 26.76-2.18 9.08-1.49 11.86-9.4 6.53-16.94-1.52-2.14-3.46-4.09-5.53-5.71-6.96-5.42-14.06-10.64-21.12-15.94-5.25-3.94-7.7-3.55-12.58.9-5.89 5.38-12.05 10.48-18.22 15.55-4.65 3.82-9.71 4.08-14.77.75-5.14-3.38-10.36-6.67-15.27-10.38-12.65-9.57-17.25-22.68-16.41-38.16.9-16.61 2.01-33.22 2.21-49.84.13-11.56 4.39-19.8 14.12-26.22 17.77-11.74 35.1-24.16 52.53-36.4 10.21-7.17 15.87-7.02 25.45.96 4.86 4.05 9.64 8.24 14.8 11.87 7.61 5.34 10.19 12.52 9.89 21.53-.37 10.97-.09 21.97-.09 32.96-.38-.01-.79-.01-1.19-.01zm-39.58-10.34c.61-11.54-4.67-20-14.05-26.28-9.77-6.54-18.04-2.86-18.59 8.95-1.02 22.1-1.58 44.22-1.99 66.33-.14 7.71 3.68 14.1 9.24 19.25 6.95 6.43 14.72 5.64 18.87-2.9 2.89-5.93 4.53-12.88 4.99-19.49 1.07-15.24 1.08-30.57 1.53-45.86zM213.73 580.69c8.56-5.96 16.04-11.14 23.5-16.35 9.46-6.61 14.17-6.35 23.21.99 7.11 5.77 14.41 11.31 21.55 17.05 7.21 5.8 7.43 11.96.35 17.8-5.89 4.86-12 9.52-18.34 13.77-6.35 4.26-11.98 3.43-17.48-1.96-2.01-1.97-3.7-4.28-5.6-6.37-2.12-2.34-4.1-4.89-6.52-6.87-3.96-3.23-8.83-5.94-13.75-4-4.99 1.96-5.59 7.55-5.81 12.37-.66 14.47-1.07 28.94-1.49 43.42-.08 2.65.12 5.33.42 7.97 1.62 14.35 8.91 17.72 20.25 8.88 7.33-5.72 14.07-12.23 20.87-18.6 10.99-10.3 15.53-10.3 25.69.57 4.21 4.5 8.35 9.06 12.44 13.67 4.38 4.93 4.56 10.29-.39 14.55-11.73 10.09-23.56 20.09-35.83 29.5-6.7 5.14-14.98 4.96-21.49-.09-21.17-16.44-42.05-33.27-62.65-50.42-8.16-6.79-9.65-16.79-9.33-26.93.84-26.62 1.91-53.23 2.62-79.86.33-12.48 4.9-22.35 15.03-29.99 20.21-15.24 40.12-30.88 60.18-46.32 10.04-7.73 17.39-7.69 26.86.46 9.84 8.48 19.54 17.12 29.17 25.84 6.85 6.2 6.87 11.22.39 17.82-4.9 4.99-9.71 10.08-14.79 14.89-8.09 7.67-12.76 7.68-21.05.09-7.25-6.63-14.31-13.46-21.49-20.16-1.33-1.24-2.76-2.43-4.28-3.43-7.94-5.18-15.16-2.95-18.03 6.15-1.52 4.84-2.06 10.1-2.3 15.21-.83 16.29-1.28 32.59-1.91 50.35zM1069.89 628.43c0 9.82-.25 19.65.09 29.46.22 6.35 3.69 10.99 8.87 14.84 3.78 2.81 6.93 6.57 9.95 10.25 2.04 2.49 1.69 4.86-1.36 7.1-7.92 5.8-15.56 11.98-23.31 18.03-8.01 6.25-11.43 6.45-19.57.67-4.6-3.27-9.25-6.53-13.44-10.3-4.26-3.83-6.26-9.05-6.09-14.8.69-23.62 1.53-47.24 2.28-70.85.11-3.49.11-6.99.12-10.48.02-7.26-3.24-12.47-9.26-16.61-11.87-8.15-12.02-17.38-.91-26.67 3.58-2.99 7.06-6.09 10.62-9.1 8.78-7.41 15.47-7.59 24.63-.51 4.21 3.26 8.24 6.76 12.37 10.12 9.22 7.52 11.97 7.61 21.46.63 4.16-3.06 8.17-6.31 12.36-9.33 10.54-7.61 17.62-7.71 28.35-.45 8.45 5.72 15.18 13.12 19.4 22.37 1.94 4.25 3.34 9.24 3.23 13.84-.5 20.46-1.28 40.93-2.7 61.34-.76 10.94 1.54 19.44 12.32 24.09 1.36.58 2.58 1.52 3.79 2.4 5.38 3.92 6.31 7.81 1.44 12.41-7.95 7.5-16.48 14.46-25.17 21.11-5.02 3.84-10.88 3-15.88-.55-5.83-4.13-11.52-8.52-16.81-13.32-1.67-1.52-2.59-4.71-2.56-7.11.24-16.46.83-32.92 1.31-49.38.4-13.91 3.13-27.89-1.39-41.63-.68-2.05-1.31-4.13-2.15-6.11-3.29-7.77-7.88-10.83-14.77-9.98-8.37 1.03-14.98 6.71-15.35 14.6-.52 11.28-.13 22.61-.13 33.92h-1.74z"/><path class="st0" d="M441.42 618.53c-.58 11.47-1.14 22.94-1.72 34.42-.41 8.14 2.89 13.98 10.15 17.94 13.34 7.27 13.8 11.07 2.57 21.09-5.83 5.2-11.94 10.11-18.15 14.86-6.16 4.7-12.68 4.62-18.93.06-4.7-3.43-9.71-6.68-13.6-10.9-2.49-2.7-4.37-6.99-4.51-10.64-.45-11.76-.12-23.57.2-35.35.4-14.8 1.84-29.63 1.31-44.39-.25-6.79-3.58-13.7-6.54-20.08-2.31-4.98-7.48-6.47-12.86-5.47-6.79 1.26-12.14 4.66-14.33 11.62-.69 2.19-.91 4.58-.99 6.89-.68 19.8-1.28 39.6-1.88 59.39-.16 5.31 1.57 9.73 5.99 13.01 3.61 2.67 7.15 5.46 10.55 8.4 4.01 3.46 4.15 8.31.12 11.57-8.16 6.59-16.42 13.06-24.86 19.29-5.23 3.86-9.3 3.62-14.7-.07-4.26-2.91-8.58-5.75-12.68-8.88-6.59-5.03-9.21-11.8-8.86-20.1 1.07-25.44 2.01-50.89 2.77-76.34.26-8.82-3.69-15.6-11.32-20.34-11.13-6.92-11.42-9.1-2.75-18.95 4.73-5.37 9.46-10.77 14.63-15.71 7.75-7.41 14.09-7.79 22.73-1.45 4.81 3.53 9.24 7.62 13.66 11.65 7.67 7 12.84 7.36 21.2 1.08 5.46-4.1 10.81-8.34 16.31-12.37 6.33-4.63 12.99-4.92 19.54-.55 6.09 4.06 12.16 8.19 17.91 12.71 7.59 5.96 10.91 14.12 10.56 23.7-.42 11.3-1 22.61-1.52 33.91zM871.17 637.73c.92-13.42 1.5-25.56 2.67-37.64.75-7.78 4.62-14.22 10.97-18.89 17.97-13.23 35.94-26.45 54.03-39.49 8.21-5.92 14.49-5.43 22.02 1.42 8.75 7.95 17.39 16.02 25.95 24.17 7.09 6.76 6.82 12.67-.72 18.55-21.14 16.49-42.25 33.01-63.51 49.35-8.84 6.79-12.23 15.54-10.43 26.32 1.39 8.29 6.54 10.39 13.04 5.13 5.94-4.81 11.47-10.14 17.09-15.34 6.69-6.18 11.34-6.61 18.53-1.1 3.69 2.83 7.32 5.82 10.54 9.15 5.75 5.93 6.09 11.22 1.06 17.83-2.91 3.82-6.4 7.22-9.8 10.64-5.17 5.19-10.39 10.35-15.77 15.31-9.14 8.44-16.47 8.76-26.16 1.03-14.45-11.53-28.69-23.31-43.16-34.81-4.45-3.54-6.31-7.99-6.35-13.43-.03-6.49 0-12.99 0-18.2zm41.38-42.25c.42 5.55.51 11.06 1.31 16.48 1.11 7.53 6.3 10.73 13.33 8.01 4.26-1.65 8.44-4.03 11.98-6.91 5.86-4.78 7.89-11.52 4.77-18.41-2.98-6.58-7.14-12.67-11.22-18.69-2.4-3.55-6.21-5.02-10.57-3.72-4.48 1.33-7.73 4.13-8.4 8.91-.66 4.74-.82 9.56-1.2 14.33zM475.23 630.22c.57-10.64 1.17-21.27 1.68-31.91.28-5.88 2.67-10.75 7.32-14.17 19.84-14.61 39.68-29.22 59.78-43.48 6.62-4.7 13.5-3.72 19.72 1.75 7.25 6.38 14.46 12.82 21.46 19.46 10.61 10.07 10.16 18.9-1.27 27.93-19.34 15.28-38.74 30.49-58.08 45.76-9.95 7.86-13.26 17.15-9.94 27.57 2.2 6.89 6.83 8.53 12.46 3.87 6.28-5.19 12.11-10.93 18.21-16.34 5.92-5.25 11.24-5.57 17.48-.69 4.18 3.27 8.24 6.79 11.83 10.69 4.69 5.1 5.43 10.31.82 15.28-9.93 10.7-20.37 21-31.25 30.74-5.37 4.81-12.42 4.19-18.06-.23-16.11-12.65-32.11-25.45-47.69-38.73-2.74-2.33-4.25-7.22-4.54-11.07-.66-8.77-.21-17.62-.21-26.44.08.01.18.01.28.01zm41.57-33.87c-.23.01-.47.01-.7.02.5 5.79.69 11.63 1.58 17.36.73 4.71 4.13 7.09 8.88 7.18 13.83.25 24.89-13.5 20.53-26.58-2.1-6.3-6.3-11.99-10.05-17.62-2.65-3.98-6.64-6-11.71-4.39-5.18 1.65-8.1 5.24-8.46 10.57-.31 4.46-.07 8.97-.07 13.46zM803.62 628.14c0 7.66.11 15.32-.03 22.97-.15 8.68 3.4 15.37 10.2 20.6 11.82 9.09 12.23 14.09 1.83 24.84-4.38 4.53-8.97 8.94-13.88 12.88-4.93 3.96-10.82 4.2-15.75.31-7.02-5.54-13.89-11.42-20-17.92-5.82-6.2-7.43-14.25-6.93-22.78.84-14.6 1.43-29.22 2.11-43.82.27-5.82.47-11.64.72-17.46.38-8.5 3.9-15.44 10.72-20.52 17.48-13.04 35.01-26.02 52.59-38.94 8.76-6.44 14.54-5.92 22.7 1.35 6.84 6.09 13.92 11.9 20.82 17.92 6.71 5.86 6.99 11.42.45 17.26-5.32 4.76-10.91 9.28-16.75 13.39-6.49 4.58-12.18 4.13-18.03-1.38-4.22-3.98-7.76-8.67-11.71-12.94-2.9-3.13-5.64-7.33-10.71-5.86-5.12 1.48-5.32 6.44-5.62 10.72-.93 13.11-1.62 26.24-2.4 39.36-.11.01-.22.01-.33.02z"/><path class="st1" d="M680.37 604.42c-.45 15.29-.46 30.62-1.53 45.87-.47 6.62-2.11 13.56-4.99 19.49-4.15 8.53-11.91 9.33-18.87 2.9-5.56-5.15-9.38-11.53-9.24-19.25.41-22.12.97-44.24 1.99-66.33.55-11.82 8.82-15.49 18.59-8.95 9.38 6.27 14.66 14.73 14.05 26.27zM912.55 595.48c.38-4.76.53-9.59 1.21-14.35.67-4.78 3.93-7.58 8.4-8.91 4.36-1.3 8.17.18 10.57 3.72 4.07 6.02 8.24 12.11 11.22 18.69 3.12 6.89 1.08 13.63-4.77 18.41-3.53 2.89-7.72 5.26-11.98 6.91-7.04 2.72-12.22-.48-13.33-8.01-.81-5.4-.9-10.92-1.32-16.46zM516.8 596.35c0-4.49-.24-9 .06-13.47.36-5.33 3.28-8.92 8.46-10.57 5.07-1.61 9.06.41 11.71 4.39 3.75 5.63 7.96 11.32 10.05 17.62 4.35 13.08-6.71 26.83-20.53 26.58-4.75-.09-8.15-2.47-8.88-7.18-.89-5.73-1.09-11.57-1.58-17.36.25 0 .48 0 .71-.01z"/></svg>