<svg version="1.1" id="Layer_1" xmlns="http://www.w3.org/2000/svg" x="0" y="0" viewBox="0 0 397.88 392" style="enable-background:new 0 0 397.88 392" xml:space="preserve"><style>.st0{fill:#197d9c}.st1{fill:#232d35}</style><path class="st0" d="M310.72 279.43c-.86 1.42-1.71 2.86-2.83 4.76l.16.9h10.16c-1.06-1.86-2.15-3.7-3.18-5.58-1.41-2.58-2.84-2.5-4.31-.08zM337.97 254.99c-1.29 2.4-1.79 5.22-2.72 8.06-.93-.21-2.04-.47-3.65-.84-.41 1.89-.81 3.77-1.31 6.07l-4.19-.31c-.32 1.97-.64 3.89-1 6.09-1.67-.36-3.2-.69-6.01-1.3.92 2.66 2.03 4.5 2.07 6.36.03 1.96-.97 3.93-1.52 5.9l-.36.06h35.47l-6.28-35.64h-8.71c-.12 1.69-.71 3.54-1.79 5.55zM304.06 262.45c.33.54.63 1.14.89 1.86 1.52 4.2 5.76 4.35 7.95.53 2.63-4.59 4.88-9.39 7.49-14.47-1.02-.31-2.02-.61-3.03-.92h-15.6l2.3 13zM306.97 285.75c-.1-.23-.18-.44-.28-.66h-45.35l6.28 35.64h46.7l-6.28-35.64h-.69c-.12.22-.24.43-.38.66zM71.56 268.14c-.68.09-1.37.17-2.11.27-.4-1.96-.79-3.84-1.25-6.08-1.43.26-2.64.48-3.81.7-.27-.34-.54-.56-.64-.83-.93-2.78-1.53-5.71-2.79-8.33-.71-1.48-1.07-2.97-1.1-4.4h-38.3l6.28 35.64h46.7l-2.98-16.97z"/><path class="st1" d="M316.34 148.87c-2.14.56-4.61 1.2-8.1 2.1 1.9 3.59 3.83 7.23 6.22 11.75-2.46.67-5.1 1.39-8.34 2.27 1.93 3.7 3.88 7.45 6.35 12.21-1.01.3-2.1.62-3.32.97h20.68c-9.93-10.2-11.48-22.26-7.28-35.31.04-.11.07-.22.1-.33h-9.53c1 1.94 2.05 4.03 3.22 6.34zM283.12 143.71c.5-.08.99-.18 1.49-.3-.33-.32-.66-.6-.99-.87h-.7l.2 1.17zM326.73 157.51c.19 1.46.66 2.88 1.05 4.53 1.78-.19 3.54-.14 5.28.07l-2.22-12.61c-3.73.66-4.75 3.03-4.11 8.01zM329.52 167.47c1.94 2.33 3.84 4.6 5.7 6.83l-1.23-6.98c-1.48-.04-2.97-.01-4.47.15zM327.78 143.14c.68.15 1.36.31 2.03.47l-.19-1.07h-1.68c-.06.22-.12.42-.16.6z"/><path class="st0" d="M303.46 179.86c-.94 6.31-2.05 13.74-2.96 19.84 4.5 3.32 8.02 5.92 11.54 8.53.39.29.67.81 1.1.98 3.95 1.53 7.89 3.11 11.85 4.61h17.2l-4.8-27.23-.57-.78c-1.94-2.68-4.38-5.01-6.73-7.38-.08-.08-.15-.17-.23-.25h-20.68c-1.63.48-3.47 1.02-5.72 1.68z"/><path class="st1" d="M324.99 213.82c2.17.82 4.36 1.63 6.56 2.37 3.73 1.26 7.67 1.75 11.03-.13l-.39-2.24h-17.2zM317.36 249.45c-5.58-1.7-11.08-3.37-16.48-5.02l.89 5.02h15.59zM342.72 222.41c-.28.15.15 1.63.32 3.12-2.91-.42-5.64-.82-8.78-1.28-.11 1.1-.24 2.38-.36 3.67-8.12-.38-9.18-12.39-18.82-11.02-.76 4.42-1.76 8.76-2.11 13.15-.09 1.19 1.54 3.11 2.83 3.7 5.61 2.53 11.39 4.65 17.09 6.98 4.87 1.99 7.11 4.92 6.86 8.72h8.71l-4.85-27.49c-.29.15-.6.29-.89.45zM121.25 285.09l6.28 35.64h46.7l-6.28-35.64zM114.97 249.45h-32.6c-1.03.32-2.03.62-3.07.94 2.63 5.12 4.94 10.05 7.66 14.74 1.93 3.33 6.18 3.3 7.46-.25 1.68-4.64 4.85-5.94 10.65-6.24-1.94 4.23-3.59 7.85-5.26 11.5 1.82 2.14 4.11 4.82 6.4 7.51-.38.59-.76 1.17-1.14 1.76-2.88-.67-5.75-1.35-8.8-2.06-.92 2.18-1.91 4.55-3.26 7.74h28.24l-6.28-35.64zM89.02 279.58c-1.68-2.85-3.1-2.58-4.52.24-.9 1.79-1.97 3.5-2.99 5.27h10.87c-1.39-2.28-2.4-3.89-3.36-5.51zM79.96 272.95c-2.08.46-3.6.8-5.38 1.19-.34-2.16-.64-4.08-.99-6.26-.7.09-1.36.17-2.04.26l2.99 16.95h6.68c-5.16-3.66-.99-7.99-1.26-12.14z"/><path class="st0" d="M113.76 242.64c-.33-.86-.65-1.71-.97-2.54-9.79 3.01-19.9 6.12-30.43 9.35h32.6l-1.2-6.81zM86.73 228.7c-.84-3.72-1.35-7.52-2.05-11.56-9.65-2.25-10.66 10.45-18.94 10.81v-3.77c-.63.1-1.25.2-1.87.3l2.87 16.29c5.63-2.4 11.33-4.67 17.07-6.8 2.7-1.01 3.55-2.46 2.92-5.27zM62.56 217.09c.37-.02.75-.05 1.13-.1 3.27-.41 6.39-2.02 9.55-3.18H61.98l.58 3.28z"/><path class="st1" d="m55.7 178.18.97 5.48c1.5-1.8 3.02-3.63 4.56-5.48H55.7zM58.98 190.35c-.32.39-.63.78-.93 1.18l3.93 22.29h11.26c.09-.03.19-.07.28-.11 3.86-1.38 7.7-2.8 11.53-4.24.88-.33 1.81-.69 2.53-1.27 1.8-1.46 3.32-3.3 5.26-4.52 1.78-1.13 3.94-1.64 6.49-2.65-1.05-7.31-2.1-14.64-3.08-21.47-2.2-.51-4.16-.95-6-1.38h-20.5c-3.75 3.91-7.33 7.98-10.77 12.17z"/><path class="st0" d="M93.01 285.09c-.09.2-.17.4-.26.61-.13-.21-.25-.41-.37-.61H81.51c-.03.05-.06.1-.08.14-.07-.05-.13-.1-.2-.14h-6.68l6.28 35.64h46.7l-6.28-35.64H93.01z"/><path class="st1" d="m214.65 285.09 6.28 35.64h46.7l-6.28-35.64z"/><path class="st0" d="M286.08 137.84c-.38-3.15-.69-5.71-.84-6.99-1.47.08-2.92.22-4.32.38l.97 5.53c1.36.24 2.76.58 4.19 1.08zM277.61 112.48c.08-.13.16-.25.24-.38.43-.73 2.41-.73 3.68-.75 4.66-.08 9.39.42 13.98-.16 4.95-.62 9.77-2.21 15.26-3.52-.62 2.05-1.44 4.75-2.47 8.11 2.52 5.16 5.42 11.08 8.77 17.94-1.6.83-3.76 1.93-6.65 3.43.86 1.69 1.75 3.47 2.73 5.4h9.53c2.37-7.5 3.01-14.63-1.8-21.5.65-.18 1.08-.43 1.2-.32 1.32 1.15 2.72 2.04 4.18 2.76l-2.92-16.57h-46.7l.97 5.56zM329.61 142.55l-.68-3.83c-.36 1.43-.72 2.77-1.01 3.83h1.69zM283.62 142.55c-.27-.22-.54-.42-.81-.6l.11.6h.7zM30.56 35.64H0v35.63h36.85z"/><path class="st1" d="M54.01 168.59c-6.23.72-12.16.71-17.59-4.12 5.82 1.97 11.44 1.89 17 .77l-2.36-13.37c-4 .16-7.79-.89-11.36-3.9-1.92-1.62-4.52-2.41-6.82-3.59.08-.31.16-.62.25-.93 3.13.8 6.22 1.83 9.39 2.33 2.52.39 5.1.87 7.65 1.06l-.76-4.3H2.71L9 178.18h46.7l-1.69-9.59zM36.85 71.27H0v35.64h43.13z"/><path class="st0" d="m49.41 142.55-1.52-8.63c-5.92.95-11.63.05-17.4-4.73 2.16.39 3.27.49 4.31.8 4.31 1.28 8.41 1.34 12.48.52l-4.16-23.59H0v20.24l2.71 15.39h46.7zM58.05 191.53c-3.25 4.25-5.54 8.96-5.7 14.62-.09 3.2.6 5.8 1.98 7.67h7.64l-3.92-22.29zM46.21 204.21c-7.35-1.43-13.06-4.03-14.32-12.32 2.68 1.46 4.99 2.71 8.25 4.49-.74-2.35-1.13-3.6-1.97-6.25 3.73 2.26 6.46 3.91 8.71 5.28 3.2-3.85 6.45-7.74 9.78-11.74l-.97-5.48H9l6.28 35.64h29.23c.52-2.94 1.08-6.12 1.7-9.62z"/><path class="st1" d="M54.34 213.82c1.71 2.3 4.48 3.49 8.22 3.28l-.58-3.28h-7.64zM65.28 241.38c.48-.21.97-.41 1.46-.62l-2.87-16.29c-2.24.36-4.39.71-6.52 1.06-1.33-7.72-10.79-5.11-12.9-11.29.02-.14.05-.29.08-.43H15.28l6.28 35.64h38.3c-.07-3.42 1.76-6.49 5.42-8.07zM276.63 106.91h46.7l-6.28-35.64h-46.7z"/><path class="st0" d="m223.65 71.27-6.29-35.63h-46.7l6.29 35.63z"/><path class="st1" d="m270.35 71.27-6.29-35.63h-46.7l6.29 35.63zM77.26 35.64h-46.7l6.29 35.63h46.7z"/><path class="st0" d="m317.05 71.27-6.29-35.63h-46.7l6.29 35.63zM130.25 71.27l-6.29-35.63h-46.7l6.29 35.63z"/><path class="st1" d="m176.95 71.27-6.29-35.63h-46.7l6.29 35.63zM318.31 285.26c-.03-.05-.06-.11-.09-.16h-10.16l6.28 35.64h46.7l-6.28-35.64h-35.47c-.33.05-.66.1-.98.16z"/><path class="st0" d="M129 141.25c-4.97-1.33-9.63-2.05-13.94 1.27v.03h19.07a213.7 213.7 0 0 1-5.13-1.3zM90.15 106.91c8.17 6.44 17.77 4.06 26.9 4.32 3.08.09 5.33.62 7.13 3.36 1 1.52 2.82 2.73 4.54 3.5 1.74.79 3.81.87 5.97 1.31-.39 4.83.77 10.68-4.63 12.19-4.35 1.22-9.47-.33-14.25-.65-.27-.51-.55-1.03-.82-1.54-.53 2.49-1.06 4.99-1.8 8.42 8.83-2.88 16.2-.85 23.63 1.87 2.3.84 4.13 1.29 5.72 1.28l-6-34.06H90.15zM91.46 115.61c-.07-.19-.13-.37-.2-.56l.12.7c.03-.04.06-.09.08-.14z"/><path class="st1" d="m136.53 106.91 6 34.06c3.63-.01 5.92-2.44 9.31-8.18 1.19 4.21.21 7.84-2.45 9.76h29.32c2.63-2.71 5.27-5.43 7.9-8.15.46-.48.86-.92 1.23-1.35l-4.61-26.15h-46.7z"/><path class="st0" d="M203.08 137.38c-.84-1.59-2.04-2.99-3.08-4.47-1.14 1.38-2.5 2.63-3.36 4.16-.97 1.73-1.68 3.66-2.52 5.48h11.14c-.75-1.69-1.32-3.55-2.18-5.17z"/><path class="st0" d="M229.93 106.91h-46.7l4.61 26.15c3.04-3.54 2.78-5.51-.15-9.78 2.14-2.44 4.15-4.73 6.16-7.01 3.48-3.95 9.42-3.57 12.57.67 1.53 2.06 3.35 3.9 5.19 6.01-.44 1.8-1.86 4.53-1.45 6.95.36 2.14 2.6 4.09 4.29 5.85 2.17 2.27 4.34 4.54 6.52 6.8h15.25l-6.29-35.64z"/><path class="st1" d="M134.13 142.55h-19.07c.01.59.01 1.18.02 1.76 3 0 6-.01 9 0 6.34.01 6.34.02 5.35 6.39-.2 1.28-.37 2.56-.63 4.35-3.2-1.16-6.02-2.18-9.97-3.61 2.7 6 6.54 8.6 11.58 8.75 5.18.16 10.37.21 15.55.18l-2.9-16.43c-2.98-.17-5.97-.71-8.93-1.39zM116.37 249.45c-.91-2.38-1.78-4.66-2.61-6.82l1.2 6.82h1.41zM156.35 219.31c-6.02-.64-11.58-3.03-17.11-5.49h-5.68c.29 1.32.51 2.72 1.3 3.56 5.71 6.07 6.32 11.92 1.64 18.88-1.74 2.59-3.44 5.2-5.38 8.14 2.47 1.7 4.87 3.39 7.25 5.05h23.29l-5.31-30.14z"/><path class="st0" d="M134.7 211.82c-.47.29-.95.59-1.42.88.11.36.2.74.29 1.12h5.68c-1.52-.68-3.03-1.35-4.55-2zM148.09 182.99c-2.52 5.24-5 10.38-7.63 15.86 3.79 1.89 7.17 3.57 9.82 4.89.95-1.12 1.84-2.18 2.75-3.26l-2.81-15.96c-.66-.48-1.35-.98-2.13-1.53z"/><path class="st1" d="M220.97 142.55c4.87 5.06 9.77 10.08 14.8 14.97.89.86 2.14 1.57 3.45 2.05l-3-17.02h-15.25zM236.25 178.18c-2.8-3.6-6.27-5.56-12.28-1.42v-9.27c-1.94.45-3.47.81-5.57 1.29-.19-2.96-.37-5.66-.56-8.61-1.87.29-3.53.55-5.79.91 1.74-6.61-.88-11.16-4.94-15.54-.78-.85-1.35-1.89-1.85-3h-11.14c-.65 1.41-1.36 2.75-2.34 3.88-.46.53-.89 1.05-1.3 1.59l5.32 30.17h40.45z"/><path class="st0" d="M138.38 249.45c4.15 2.91 8.23 5.74 12.41 8.39 3.15 2 6.18 1.02 7.92-2.46 1.32-2.65 2.02-4.08 3.13-4.97l-.17-.95h-23.29zM121.25 285.09h46.7l-2.96-16.77c-1.58-.42-3.18-.84-4.84-1.28-.9 2.32-1.93 4.98-3.34 8.63-1.59-2.47-2.47-4-3.52-5.42-.73-.99-1.67-1.82-2.51-2.73-.83.91-1.76 1.74-2.46 2.75-1.08 1.55-1.99 3.22-3.83 6.24-.99-3.62-2.35-5.89-1.94-7.79.57-2.63 1.01-4.75-1.96-5.6-2.05-.59-4.31-.42-6.48-.59-.18.52-.37 1.03-.55 1.55-1.01-1.8-2.02-3.6-3.11-5.55l-3.66 1.83c-1.07-1.92-2.01-3.63-3.17-5.72-1.2.73-2.34 1.42-4.29 2.6-1.02-2.68-2.02-5.28-2.98-7.79h-1.4l6.3 35.64zM190.48 148.01c-2.81 3.68-4.27 7.58-2.7 13.07-2.24-.35-3.91-.61-5.97-.93-.15 2.76-.29 5.48-.45 8.55-1.91-.39-3.46-.71-5.41-1.11v7.68c-3.44 0-6.92-.92-9.43.25-1.16.54-2.12 1.5-3.09 2.67h32.38l-5.33-30.18zM144.04 144.01c-.33-.01-.65-.04-.98-.06l2.9 16.43c4.31-.02 8.62-.09 12.93-.2 1.7-.04 3.71-1.3 5-2.58 4.99-4.97 9.92-10.01 14.82-15.06h-29.32c-1.36.99-3.16 1.54-5.35 1.47zM202.08 213.82h-16.66v14.69h-19.44c-.35-3.03-.68-5.94-1.09-9.56-2.97.59-5.8.65-8.53.36l5.32 30.14h2.02c1.22-.4 2.87-.68 5.38-1.09-.16.37-.33.73-.49 1.09h39.79l-6.3-35.63z"/><path class="st1" d="M195.8 178.18h-32.38c-1.19 1.44-2.39 3.21-3.94 4.99-.9-1.12-1.79-2.25-3.04-3.81-1.28 2.09-2.6 4.25-4.09 6.69-.71-.51-1.4-1.01-2.14-1.54l2.81 15.96c1.52-1.81 3.09-3.66 5-5.93.56 2.79.44 4.17 1 4.56 1.2.83 2.75 1.54 4.15 1.52.78-.01 2.11-1.55 2.19-2.49.28-3.09.11-6.22.11-9.66h19.94v25.34h16.66l-6.27-35.63zM208.37 249.45h22.3c-.13-.25-.27-.49-.4-.75 2.45.06 4.5.19 6.16.75h18.65l-5.53-31.34c-3.92 1.18-7.98 1.81-12.37 1.25-.85-.11-2.47 1.75-2.83 2.96-.55 1.84-.3 3.91-.41 6.21h-19.81v-14.72H202.1l6.27 35.64z"/><path class="st0" d="M202.08 213.82h12.03v-25.24h19.72c.11 2.47-.08 4.96.42 7.31.37 1.73 1.63 3.28 2.49 4.91 1.73-1 3.46-2.01 5.2-3.01l.42-2.15c1.29 1.45 2.6 2.91 3.99 4.47l-3.59-20.38c-1.18.98-2.23 1.85-3.55 2.95-.96-1.57-1.92-3.15-2.97-4.49H195.8l6.28 35.63zM239.21 159.56c1 .36 2.04.59 2.99.62 8.65.3 17.33.21 25.99.09 5.51-.07 9.65-2.5 12.75-8.78-3.9 1.38-6.63 2.36-9.8 3.48-.6-2.56-1.68-5.08-1.55-7.55.06-1.1 2.45-2.79 3.94-2.97 3.15-.38 6.36-.21 9.58-.74l-.21-1.17h-16.65c-2.67.71-5.35 1.31-8.06 1.5-3.65.26-6.25-.2-8-1.5H236.2l3.01 17.02z"/><path class="st1" d="M130.25 71.27h-46.7l6.23 35.33.37.31h46.38l-6.28-35.64z"/><path class="st0" d="m276.63 106.91-6.28-35.64h-46.7l6.28 35.64z"/><path class="st1" d="m229.93 106.91-6.28-35.64h-46.7l6.28 35.64z"/><path class="st0" d="m183.23 106.91-6.28-35.64h-46.7l6.28 35.64zM89.36 106.25c.14.12.28.23.42.35l-6.23-35.33h-46.7l6.28 35.64H88.7l.66-.66z"/><path class="st1" d="M69.6 133.51c-1.76-4.12-5.85-3.88-9.5-3.06-3.4.76-6.63 2.26-10.02 3.04-.73.17-1.46.31-2.19.42l1.52 8.63h22.22c-.46-2.6-.74-6.03-2.03-9.03z"/><path class="st1" d="M68.03 125.71c1.44-.26 2.89-.82 4.15-1.56 2.01-1.17 3.87-2.61 6.25-3.57-4.47 7.33-3.66 14.45-1.42 21.96h9.57c.99-1.85 1.94-3.65 2.91-5.47-2.75-1.27-4.99-2.3-6.98-3.22 3.26-6.64 6.2-12.62 8.89-18.1l-.12-.7c-1.01-2.87-1.89-5.41-2.78-7.94l.21-.21H43.13l4.16 23.59c2.61-.53 5.2-1.41 7.82-2.58 3.87-1.71 8.6-1.42 12.92-2.2zM249.49 203.6c2.41-1.16 5.78-2.79 9.75-4.71-2.6-5.41-5.08-10.58-7.66-15.95-1.52 1.12-2.79 2.06-4.31 3.18l-3.96-6.84c-.19.16-.36.3-.55.45l3.59 20.38c1 1.09 2.02 2.23 3.14 3.49zM261.96 213.07l-1.68.75h6.02c-.73-1.64-2.11-1.75-4.34-.75zM255.74 253.29c1.83-1.25 3.68-2.53 5.55-3.84h-6.22l.67 3.84zM307.36 285.09h.69l-.16-.9c-.17.29-.35.59-.53.9zM306.69 285.09c-1.31-3.11-2.31-5.48-3.3-7.85-2.86.77-5.65 1.52-8.43 2.27-.45-.48-.89-.96-1.34-1.44 2.14-2.81 4.29-5.62 6.27-8.22-1.6-3.21-3.37-6.73-5.56-11.12 4.65.25 7.82.65 9.73 3.73l-2.29-13h-18.43c-.94 2.5-1.94 5.11-2.97 7.83-1.85-1.15-3.01-1.87-4.31-2.67-1.04 1.91-1.98 3.65-3.07 5.65l-3.72-1.63c-1.02 1.75-2.07 3.54-3.12 5.33-.14-.5-.27-1.01-.41-1.51-2.29.23-4.69.1-6.86.76-.55.17-.97.38-1.29.63l3.75 21.24h45.35z"/><path class="st0" d="M300.88 244.43c-4.73-1.44-9.41-2.87-14.02-4.27-1.06 2.79-2.24 5.93-3.52 9.29h18.43l-.89-5.02zM261.29 249.45c2.39-1.66 4.83-3.37 7.36-5.11-6.42-9.27-14.98-18.64-1.85-28.56-.11-.81-.27-1.46-.5-1.97h-6.02c-3.53 1.59-7.07 3.19-10.74 4.3l5.53 31.34h6.22zM236.42 249.45c2.17.73 3.65 2.2 4.41 5.2 1.04 4.09 4.78 5.34 8.28 3.07 2.22-1.44 4.42-2.92 6.62-4.43l-.68-3.84h-18.63z"/><path class="st0" d="M214.65 285.09h46.7l-3.75-21.24c-1.47 1.13-.79 3.03-.41 5.07.34 1.84-.95 3.98-1.95 7.58-1.84-3-2.84-4.75-3.96-6.42-.61-.91-1.4-1.7-2.11-2.54-.91.82-1.96 1.52-2.68 2.47-1.08 1.44-1.93 3.06-3.57 5.74-1.42-3.62-2.45-6.26-3.42-8.71-2.92.81-5.84 1.62-8.75 2.43l-1.24-1.51c1.68-2.09 3.5-4.08 4.96-6.32.63-.96 1.02-2.63.62-3.6-1.13-2.72-2.65-5.29-4.42-8.59h-22.3l6.28 35.64z"/><path class="st1" d="M282.81 141.95c-3.1-2.1-6.46-2.19-10.12-1.2-2.14.58-4.28 1.23-6.43 1.8h16.65l-.1-.6zM229.93 106.91l6.28 35.64h13.99c-2.32-1.73-3.16-4.93-2.96-9.91.46.25 1.08.36 1.25.7 3.85 7.87 6.75 9.17 15.21 6.07 5.81-2.13 11.6-3.78 18.19-2.64l-.97-5.53c-4.21.47-8.11 1.04-11.62.13-5.38-1.4-3.56-7.34-4.65-12.03 5.66-.44 10.09-2.25 12.96-6.86l-.98-5.57h-46.7z"/><path class="st0" d="M54.7 146.81c5.63-.62 11.14-2.32 17.05-3.63-.04-.2-.08-.42-.12-.64H49.41l.76 4.3c1.53.12 3.04.14 4.53-.03zM77.24 143.32c3.87 12.54 2.69 24.33-6.98 34.33-.17.18-.33.36-.5.53h20.49c-1.1-.25-2.17-.5-3.23-.74 2.48-4.7 4.52-8.57 6.58-12.46-3.26-.86-5.91-1.56-8.46-2.24 2.41-4.44 4.35-8.02 6.46-11.91l-8.53-1.7c1.26-2.36 2.4-4.51 3.5-6.59H77l.24.78zM70.04 167.6c-5.47-.72-10.86.39-16.04.99l1.69 9.59h5.53c2.86-3.42 5.78-6.93 8.82-10.58zM71.6 161.86c.22-.41.56-.81.67-1.26 2.19-8.75 1.2-12.13-9.85-11.08-1.8.17-3.56.81-5.32 1.31-2.06.59-4.07.95-6.04 1.03l2.36 13.37c3.09-.62 6.17-1.56 9.24-2.66 2.7-.95 5.9-.5 8.94-.71z"/><path class="st1" d="M161.83 250.41c.5-.4 1.09-.7 1.85-.95h-2.02l.17.95zM214.65 285.09l-6.28-35.64h-39.79c-1.36 3-2.59 5.46-3.44 8.04-.42 1.27-.35 3.13.31 4.26 1.3 2.22 3.16 4.12 4.79 6.15-.37.5-.73 1.01-1.1 1.51-1.37-.36-2.74-.72-4.13-1.09l2.96 16.77h46.68z"/><path class="st0" d="m167.95 285.09 6.28 35.64h46.7l-6.28-35.64zM87.12 356.36 93.4 392h46.7l-6.28-35.64z"/><path class="st1" d="M40.42 356.36 46.7 392h46.7l-6.28-35.64zM133.82 356.36 140.1 392h46.7l-6.28-35.64zM227.22 356.36 233.5 392h46.7l-6.28-35.64z"/><path class="st0" d="M180.52 356.36 186.8 392h46.7l-6.28-35.64zM0 356.36V392h46.7l-6.28-35.64z"/><path class="st1" d="M9 178.18H0v35.64h15.28z"/><path class="st0" d="M273.92 356.36 280.2 392h46.7l-6.28-35.64zM2.71 142.55H0v35.63h9zM15.28 213.82H0v35.63h21.57zM27.85 285.09H0v35.64h34.13z"/><path class="st1" d="M21.57 249.45H0v35.64h27.85zM34.13 320.73H0v35.63h40.42zM0 127.15v15.4h2.71z"/><path class="st0" d="M376.31 142.55h21.57v-35.64h-27.85z"/><path class="st1" d="M382.6 178.18h15.28v-35.63h-21.57z"/><path class="st0" d="M388.88 213.82h9v-35.64H382.6z"/><path class="st1" d="M370.03 106.91h27.85V71.27h-34.13zM351.18 0l6.28 35.64h40.42V0z"/><path class="st0" d="M363.75 71.27h34.13V35.64h-40.42z"/><path class="st1" d="M395.17 249.45h2.71v-35.63h-9z"/><path class="st0" d="M373.6 392h24.28v-35.64h-30.56z"/><path class="st1" d="M320.62 356.36 326.9 392h46.7l-6.28-35.64z"/><path class="st0" d="M397.88 264.85v-15.4h-2.71z"/><path class="st1" d="M310.76 35.64 304.48 0h-46.7l6.28 35.64z"/><path class="st0" d="M320.62 356.36h46.7l-6.29-35.63h-46.7z"/><path class="st1" d="M367.32 356.36h30.56v-35.63h-36.85zM348.47 249.45l6.28 35.64h43.13v-20.24l-2.71-15.4z"/><path class="st0" d="M361.03 320.73h36.85v-35.64h-43.13z"/><path class="st1" d="M352.83 195.42c1.94-1.21 4.73-2.95 7.53-4.69.25.26.51.51.76.77-.43 1.23-.87 2.46-1.73 4.89 3.27-1.77 5.51-2.98 7.71-4.17.1 6.11-2.22 8.33-13.56 12.37.5 2.52 1.66 5.25 1.34 7.8-.06.47-.2.95-.38 1.43h34.37l-6.28-35.64h-44.15c4.92 5.89 9.63 11.54 14.39 17.24zM345.29 213.82c3.48-4 2.76-9.21.92-13.45-2.14-4.94-5.59-9.35-8.82-13.77l4.8 27.23h3.1z"/><path class="st0" d="M351.24 218.16c-2.25 1.65-5.05 2.55-7.62 3.8l4.85 27.49h46.7l-6.28-35.64h-34.37c-.64 1.68-1.92 3.36-3.28 4.35zM342.58 216.05a10.03 10.03 0 0 0 2.72-2.23h-3.11l.39 2.23zM220.93 320.73l6.29 35.63h46.7l-6.29-35.63z"/><path class="st1" d="m80.83 320.73 6.29 35.63h46.7l-6.29-35.63z"/><path class="st0" d="m34.13 320.73 6.29 35.63h46.7l-6.29-35.63z"/><path class="st1" d="m267.63 320.73 6.29 35.63h46.7l-6.29-35.63zM174.23 320.73l6.29 35.63h46.7l-6.29-35.63z"/><path class="st0" d="M329.8 143.62c5.39 1.28 10.45 2.72 15.6 3.31 3.81.44 7.83-.47 11.7-1.12 3.18-.53 6.28-1.56 9.57-1.6-3.16 1.86-6.44 3.56-9.47 5.61-4.68 3.17-9.53 2.1-14.45 1.07-2.92-.61-5.85-1.54-8.79-1.6-1.21-.02-2.25.04-3.13.2l2.22 12.61c10.06 1.17 19.62 7.45 30.11 2.21-8.69 7.82-18.62 3.33-29.19 3.01l1.23 6.98c1.09 1.3 2.17 2.6 3.23 3.88h44.15l-6.28-35.64h-46.7l.2 1.08zM127.53 320.73l6.29 35.63h46.7l-6.29-35.63z"/><path class="st1" d="M24.28 0H0v35.64h30.56z"/><path class="st0" d="M77.26 35.64 70.98 0h-46.7l6.28 35.64zM170.66 35.64 164.38 0h-46.7l6.28 35.64z"/><path class="st1" d="M123.96 35.64 117.68 0h-46.7l6.28 35.64zM317.05 71.27h46.7l-6.29-35.63h-46.7zM326.25 123.48c8.05 3.95 17.86 2.38 25.99 6.81 4.14 2.26 10.53.38 15.15.38-4.65 3.89-11.06 4.35-17.76 2.83-3.4-.77-6.64-2.2-10.02-3.07-5.78-1.49-8.92.59-10.23 6.41-.14.63-.29 1.26-.44 1.87l.68 3.83h46.7l-6.28-35.64h-46.7l2.91 16.58z"/><path class="st0" d="M323.33 106.91h46.7l-6.28-35.64h-46.7zM357.46 35.64 351.18 0h-46.7l6.28 35.64zM264.06 35.64 257.78 0h-46.7l6.28 35.64z"/><path class="st1" d="M74.55 285.09h-46.7l6.28 35.64h46.7zM217.36 35.64 211.08 0h-46.7l6.28 35.64z"/><path d="M60.1 130.45c3.65-.82 7.74-1.06 9.5 3.06 1.29 3 1.56 6.43 2.03 9.03.04.21.08.44.12.64-5.91 1.31-11.42 3.01-17.05 3.63-1.49.16-3.01.15-4.53.03-2.55-.19-5.13-.67-7.65-1.06-3.17-.49-6.26-1.53-9.39-2.33-.08.31-.16.62-.25.93 2.29 1.17 4.9 1.97 6.82 3.59 3.57 3.01 7.36 4.07 11.36 3.9 1.96-.08 3.98-.45 6.04-1.03 1.76-.5 3.52-1.14 5.32-1.31 11.05-1.05 12.04 2.33 9.85 11.08-.11.45-.45.85-.67 1.26-3.04.2-6.24-.24-8.93.72-3.08 1.1-6.15 2.04-9.24 2.66-5.56 1.12-11.17 1.2-17-.77 5.43 4.83 11.36 4.84 17.59 4.12 5.18-.6 10.56-1.71 16.04-.99-3.04 3.65-5.96 7.16-8.81 10.58-1.54 1.85-3.06 3.68-4.56 5.48-3.33 4-6.58 7.9-9.78 11.74-2.25-1.36-4.98-3.02-8.71-5.28.83 2.65 1.23 3.9 1.97 6.25-3.26-1.77-5.57-3.03-8.25-4.49 1.26 8.29 6.97 10.89 14.32 12.32-.62 3.51-1.18 6.68-1.7 9.61-.02.14-.05.29-.08.43 2.11 6.19 11.57 3.57 12.9 11.29 2.14-.35 4.28-.69 6.52-1.06.62-.1 1.24-.2 1.87-.3v3.77c8.28-.37 9.29-13.06 18.94-10.81.7 4.04 1.21 7.84 2.05 11.56.64 2.81-.22 4.26-2.93 5.27-5.74 2.13-11.43 4.4-17.07 6.8-.49.21-.97.41-1.46.62-3.66 1.58-5.49 4.64-5.41 8.07.03 1.43.39 2.93 1.1 4.4 1.26 2.62 1.86 5.55 2.79 8.33.09.28.37.49.64.83 1.17-.21 2.38-.43 3.81-.7.46 2.24.84 4.12 1.25 6.08.74-.09 1.43-.18 2.11-.27.67-.09 1.34-.17 2.04-.26.34 2.18.65 4.1.99 6.26 1.78-.39 3.3-.73 5.38-1.19.27 4.16-3.9 8.48 1.26 12.14.07.05.13.1.2.14.03-.05.06-.1.08-.14 1.02-1.77 2.09-3.48 2.99-5.27 1.42-2.82 2.84-3.09 4.52-.24.96 1.63 1.96 3.24 3.36 5.51.12.2.24.4.37.61.09-.21.17-.41.26-.61 1.34-3.19 2.34-5.57 3.26-7.74 3.05.71 5.92 1.39 8.8 2.06.38-.59.76-1.17 1.14-1.76-2.29-2.68-4.58-5.37-6.4-7.51 1.67-3.65 3.33-7.26 5.26-11.5-5.8.3-8.97 1.61-10.65 6.24-1.29 3.55-5.53 3.58-7.46.25-2.72-4.69-5.03-9.62-7.66-14.74 1.03-.32 2.04-.63 3.07-.94 10.53-3.24 20.64-6.35 30.43-9.35.31.82.64 1.67.97 2.54.83 2.16 1.7 4.44 2.61 6.82.96 2.51 1.95 5.11 2.98 7.79 1.95-1.18 3.09-1.87 4.29-2.6 1.16 2.09 2.1 3.79 3.17 5.72 1.24-.62 2.35-1.18 3.66-1.83 1.09 1.94 2.1 3.74 3.11 5.55.18-.52.37-1.03.55-1.55 2.17.17 4.43 0 6.48.59 2.97.85 2.53 2.97 1.96 5.6-.41 1.89.95 4.16 1.94 7.79 1.84-3.02 2.75-4.69 3.83-6.24.69-1 1.63-1.84 2.46-2.75.85.9 1.79 1.74 2.51 2.73 1.04 1.42 1.93 2.96 3.52 5.42 1.41-3.65 2.44-6.31 3.34-8.63 1.66.44 3.26.86 4.84 1.28 1.39.37 2.76.73 4.13 1.09.37-.5.73-1.01 1.1-1.51-1.63-2.03-3.49-3.93-4.79-6.15-.66-1.12-.73-2.98-.31-4.26.86-2.58 2.09-5.05 3.44-8.04.16-.36.32-.72.49-1.09-2.5.41-4.16.69-5.38 1.09-.76.25-1.35.55-1.85.95-1.11.9-1.82 2.32-3.13 4.97-1.73 3.49-4.77 4.47-7.92 2.46-4.18-2.65-8.25-5.49-12.41-8.39-2.38-1.67-4.78-3.35-7.25-5.05 1.94-2.93 3.63-5.55 5.38-8.14 4.69-6.96 4.07-12.81-1.64-18.88-.8-.85-1.01-2.24-1.3-3.56-.08-.39-.17-.77-.29-1.12.47-.29.95-.59 1.42-.88 1.52.65 3.03 1.33 4.54 2 5.53 2.46 11.09 4.85 17.11 5.49 2.74.29 5.57.23 8.53-.36.41 3.62.75 6.53 1.09 9.56h19.44v-40.03h-19.94c0 3.43.17 6.56-.11 9.66-.09.94-1.41 2.47-2.19 2.49-1.4.02-2.95-.69-4.15-1.52-.56-.39-.44-1.76-1-4.56-1.91 2.27-3.48 4.12-5 5.93-.91 1.08-1.8 2.14-2.75 3.26-2.65-1.32-6.03-3-9.82-4.89 2.64-5.47 5.11-10.62 7.63-15.86.78.56 1.47 1.05 2.12 1.53.74.53 1.44 1.04 2.14 1.54 1.49-2.44 2.81-4.6 4.09-6.69 1.24 1.56 2.14 2.68 3.04 3.81 1.55-1.77 2.74-3.54 3.94-4.99.97-1.17 1.93-2.13 3.09-2.67 2.51-1.17 5.99-.25 9.43-.25v-7.68c1.95.4 3.5.72 5.41 1.11.16-3.07.31-5.8.45-8.55 2.07.32 3.74.58 5.97.93-1.57-5.49-.11-9.39 2.7-13.07.41-.53.84-1.06 1.3-1.59.98-1.12 1.7-2.47 2.34-3.88.83-1.82 1.55-3.75 2.52-5.48.86-1.53 2.22-2.78 3.36-4.16 1.04 1.48 2.24 2.88 3.08 4.47.86 1.62 1.43 3.48 2.18 5.17.49 1.11 1.06 2.15 1.85 3 4.06 4.38 6.68 8.93 4.94 15.54 2.27-.36 3.93-.62 5.79-.91.19 2.95.37 5.65.56 8.61 2.09-.49 3.63-.84 5.57-1.29v9.27c6.01-4.14 9.48-2.18 12.28 1.42 1.05 1.35 2 2.92 2.97 4.49 1.32-1.1 2.38-1.97 3.55-2.95.18-.15.36-.3.55-.45 1.4 2.42 2.61 4.52 3.96 6.84 1.51-1.12 2.79-2.06 4.31-3.18 2.58 5.38 5.06 10.54 7.66 15.95-3.97 1.92-7.34 3.55-9.75 4.71-1.12-1.26-2.14-2.4-3.13-3.5-1.4-1.56-2.7-3.02-3.99-4.47l-.42 2.15c-1.73 1-3.46 2.01-5.2 3.01-.86-1.63-2.13-3.17-2.49-4.91-.5-2.34-.31-4.84-.42-7.31h-19.72v39.96h19.81c.11-2.3-.14-4.38.41-6.21.36-1.21 1.99-3.07 2.83-2.96 4.38.56 8.45-.07 12.37-1.25 3.67-1.11 7.21-2.71 10.74-4.3l1.68-.75c2.23-.99 3.61-.89 4.34.75.22.51.39 1.15.5 1.97-13.13 9.92-4.57 19.29 1.85 28.56-2.53 1.74-4.97 3.45-7.36 5.11-1.87 1.3-3.71 2.58-5.55 3.84-2.21 1.51-4.41 2.99-6.62 4.43-3.5 2.28-7.24 1.02-8.28-3.07-.77-3.01-2.25-4.47-4.41-5.2-1.65-.56-3.71-.69-6.16-.75.14.26.27.5.4.75 1.77 3.3 3.29 5.87 4.42 8.59.4.97.01 2.64-.62 3.6-1.46 2.23-3.28 4.23-4.96 6.32l1.24 1.51 8.75-2.43c.96 2.46 2 5.09 3.42 8.71 1.64-2.68 2.49-4.3 3.57-5.74.72-.96 1.78-1.66 2.68-2.47.71.84 1.5 1.63 2.11 2.54 1.12 1.67 2.12 3.42 3.96 6.42 1.01-3.6 2.29-5.74 1.95-7.58-.38-2.04-1.05-3.93.41-5.07.32-.25.74-.46 1.29-.63 2.16-.66 4.56-.54 6.86-.76.14.5.27 1.01.41 1.51 1.05-1.79 2.1-3.59 3.12-5.33l3.72 1.63c1.08-2 2.03-3.74 3.07-5.65 1.29.8 2.46 1.53 4.31 2.67 1.03-2.72 2.02-5.34 2.97-7.83 1.27-3.36 2.46-6.5 3.52-9.29 4.62 1.41 9.3 2.83 14.02 4.27 5.41 1.65 10.9 3.32 16.48 5.02 1.01.31 2.01.61 3.03.92-2.61 5.08-4.86 9.88-7.49 14.47-2.19 3.82-6.43 3.67-7.95-.53-.26-.71-.56-1.32-.89-1.86-1.91-3.08-5.08-3.47-9.73-3.73 2.19 4.39 3.96 7.91 5.56 11.12-1.98 2.6-4.13 5.41-6.27 8.22.45.48.89.96 1.34 1.44 2.79-.75 5.57-1.5 8.43-2.27 1 2.37 1.99 4.73 3.3 7.85.09.22.18.43.28.66.13-.23.26-.44.39-.66.18-.31.36-.61.53-.9 1.12-1.9 1.96-3.34 2.83-4.76 1.47-2.42 2.9-2.5 4.31.08 1.03 1.88 2.12 3.72 3.18 5.58.03.05.06.11.09.16.33-.05.65-.11.97-.16l.36-.06c.55-1.97 1.55-3.94 1.52-5.9-.03-1.86-1.15-3.71-2.07-6.36 2.81.61 4.34.94 6.01 1.3.36-2.2.68-4.12 1-6.09l4.19.31c.5-2.3.9-4.18 1.31-6.07 1.61.37 2.72.62 3.65.84.93-2.84 1.43-5.66 2.72-8.06 1.08-2.01 1.67-3.86 1.78-5.54.25-3.8-1.99-6.73-6.86-8.72-5.7-2.33-11.48-4.45-17.09-6.98-1.29-.58-2.93-2.51-2.83-3.7.34-4.39 1.34-8.73 2.11-13.15 9.64-1.37 10.7 10.64 18.82 11.02.13-1.29.26-2.57.36-3.67 3.14.46 5.87.85 8.78 1.28-.17-1.49-.6-2.97-.32-3.12.29-.16.6-.31.9-.45 2.57-1.24 5.37-2.14 7.62-3.8 1.36-1 2.64-2.67 3.27-4.34.18-.48.32-.96.38-1.43.32-2.54-.84-5.28-1.34-7.8 11.34-4.04 13.66-6.26 13.56-12.37-2.19 1.19-4.44 2.4-7.71 4.17.86-2.43 1.29-3.66 1.73-4.89-.25-.26-.51-.51-.76-.77-2.8 1.74-5.59 3.48-7.53 4.69-4.76-5.7-9.47-11.35-14.38-17.24-1.07-1.28-2.15-2.57-3.23-3.88-1.86-2.23-3.75-4.5-5.7-6.83 1.5-.16 2.99-.2 4.47-.15 10.57.32 20.5 4.81 29.19-3.01-10.49 5.24-20.05-1.03-30.11-2.21-1.74-.2-3.5-.26-5.28-.07-.39-1.65-.86-3.07-1.05-4.53-.65-4.98.37-7.35 4.11-8.01.89-.16 1.92-.22 3.13-.2 2.94.05 5.87.99 8.79 1.6 4.92 1.03 9.77 2.1 14.45-1.07 3.03-2.05 6.3-3.75 9.47-5.61-3.3.05-6.39 1.07-9.57 1.6-3.87.64-7.89 1.56-11.7 1.12-5.15-.59-10.21-2.03-15.6-3.31-.67-.16-1.34-.32-2.03-.47.05-.19.1-.39.16-.6.28-1.07.65-2.4 1.01-3.83.15-.61.3-1.24.44-1.87 1.3-5.82 4.44-7.9 10.23-6.41 3.38.87 6.62 2.29 10.02 3.07 6.71 1.53 13.11 1.06 17.76-2.83-4.62 0-11.01 1.88-15.15-.38-8.12-4.43-17.94-2.86-25.99-6.81-1.46-.72-2.86-1.61-4.18-2.76-.12-.11-.56.14-1.2.32 4.81 6.86 4.17 13.99 1.8 21.5-.03.11-.07.22-.1.33-4.21 13.05-2.65 25.11 7.28 35.31.08.08.15.17.23.25 2.34 2.37 4.79 4.7 6.73 7.38l.57.78c3.23 4.42 6.68 8.83 8.82 13.77 1.84 4.24 2.57 9.45-.92 13.45-.18.21-.36.41-.57.61-.68.67-1.4 1.2-2.15 1.62-3.36 1.88-7.3 1.39-11.03.13-2.2-.74-4.38-1.55-6.56-2.37-3.96-1.5-7.9-3.08-11.85-4.61-.43-.17-.71-.69-1.1-.98-3.52-2.61-7.04-5.21-11.54-8.53.91-6.1 2.02-13.53 2.96-19.84 2.25-.66 4.1-1.2 5.71-1.68 1.22-.36 2.31-.68 3.32-.97-2.48-4.76-4.43-8.51-6.35-12.21 3.23-.88 5.87-1.6 8.34-2.27-2.4-4.52-4.33-8.17-6.22-11.75 3.49-.9 5.96-1.55 8.1-2.1-1.17-2.31-2.22-4.39-3.2-6.32-.98-1.93-1.88-3.71-2.73-5.4 2.9-1.49 5.05-2.6 6.65-3.43-3.35-6.85-6.24-12.77-8.77-17.94 1.02-3.36 1.84-6.06 2.47-8.11-5.49 1.31-10.31 2.9-15.26 3.52-4.59.58-9.32.07-13.98.16-1.27.02-3.25.02-3.68.75-.08.13-.16.25-.24.38-2.88 4.6-7.3 6.42-12.96 6.86 1.1 4.69-.73 10.63 4.65 12.03 3.51.91 7.41.34 11.62-.13 1.41-.16 2.85-.3 4.32-.38.15 1.28.46 3.83.84 6.99-1.44-.5-2.83-.84-4.19-1.08-6.59-1.15-12.38.51-18.19 2.64-8.46 3.1-11.37 1.8-15.21-6.07-.16-.34-.79-.45-1.25-.7-.2 4.98.64 8.19 2.96 9.91 1.75 1.3 4.35 1.77 8 1.5 2.7-.19 5.39-.79 8.06-1.5 2.15-.57 4.29-1.22 6.43-1.8 3.66-.99 7.01-.9 10.12 1.2.27.18.54.38.81.6.33.27.66.55.99.87-.5.12-.99.22-1.49.3-3.22.53-6.43.36-9.58.74-1.48.18-3.88 1.87-3.94 2.97-.13 2.46.95 4.99 1.55 7.55 3.16-1.12 5.9-2.09 9.8-3.48-3.1 6.29-7.24 8.71-12.75 8.78-8.66.12-17.34.21-25.99-.09-.95-.03-1.99-.26-2.99-.62-1.31-.47-2.56-1.18-3.45-2.05-5.03-4.89-9.94-9.91-14.8-14.97-2.18-2.26-4.35-4.53-6.52-6.8-1.69-1.77-3.93-3.72-4.29-5.85-.41-2.42 1.02-5.15 1.45-6.95-1.83-2.1-3.66-3.95-5.19-6.01-3.14-4.24-9.09-4.62-12.57-.67-2.01 2.29-4.02 4.58-6.16 7.01 2.93 4.27 3.18 6.24.15 9.78-.36.43-.77.87-1.23 1.35a5980.8 5980.8 0 0 1-7.9 8.15c-4.91 5.05-9.83 10.09-14.82 15.06-1.29 1.28-3.29 2.53-5 2.58-4.31.11-8.62.18-12.93.2-5.19.02-10.37-.02-15.55-.18-5.04-.16-8.88-2.75-11.58-8.75 3.95 1.43 6.77 2.45 9.97 3.61.26-1.79.43-3.07.63-4.35.99-6.37.99-6.38-5.35-6.39-3-.01-6 0-9 0-.01-.59-.01-1.18-.02-1.76v-.03c4.31-3.31 8.97-2.59 13.94-1.27 1.7.45 3.41.9 5.13 1.3 2.96.69 5.95 1.23 8.93 1.41.33.02.65.05.98.06 2.19.07 3.99-.48 5.35-1.47 2.66-1.93 3.64-5.55 2.45-9.76-3.39 5.75-5.68 8.17-9.31 8.18-1.58.01-3.42-.44-5.72-1.28-7.43-2.72-14.79-4.75-23.63-1.87.73-3.43 1.26-5.93 1.8-8.42.27.51.55 1.03.82 1.54 4.78.32 9.9 1.87 14.25.65 5.4-1.51 4.24-7.36 4.63-12.19-2.17-.44-4.23-.52-5.97-1.31-1.71-.77-3.53-1.98-4.54-3.5-1.81-2.74-4.06-3.27-7.13-3.36-9.13-.26-18.73 2.13-26.9-4.32-.12-.1-.25-.2-.37-.31-.14-.12-.28-.23-.42-.35l-.66.66-.21.21c.88 2.53 1.77 5.07 2.78 7.94.07.19.13.37.2.56-.02.05-.05.1-.07.15-2.69 5.48-5.63 11.47-8.89 18.1 1.98.91 4.22 1.95 6.98 3.22-.97 1.82-1.92 3.61-2.91 5.47-1.1 2.07-2.25 4.23-3.5 6.59l8.53 1.7c-2.11 3.89-4.05 7.46-6.46 11.91 2.55.67 5.2 1.37 8.46 2.24-2.06 3.9-4.1 7.76-6.58 12.46 1.06.24 2.12.49 3.23.74 1.85.42 3.8.87 6 1.38.98 6.83 2.03 14.16 3.08 21.47-2.55 1-4.71 1.52-6.49 2.65-1.93 1.22-3.46 3.06-5.26 4.52-.72.58-1.65.94-2.53 1.27-3.83 1.44-7.68 2.86-11.53 4.24-.09.03-.19.07-.28.11-3.16 1.16-6.28 2.77-9.55 3.18-.39.05-.76.08-1.13.1-3.74.21-6.51-.97-8.22-3.28-1.39-1.87-2.07-4.48-1.98-7.67.16-5.66 2.44-10.36 5.7-14.62.3-.4.61-.79.93-1.18 3.43-4.18 7.02-8.26 10.77-12.16.17-.18.33-.36.5-.53 9.67-10 10.86-21.79 6.98-34.33-.08-.26-.15-.52-.23-.77-2.23-7.51-3.04-14.63 1.42-21.96-2.38.96-4.24 2.39-6.25 3.57-1.26.74-2.72 1.3-4.15 1.56-4.32.77-9.05.49-12.92 2.21-2.62 1.17-5.22 2.05-7.82 2.58-4.07.82-8.18.76-12.48-.52-1.04-.31-2.15-.41-4.31-.8 5.77 4.78 11.48 5.69 17.4 4.73a42.2 42.2 0 0 0 2.19-.42c3.35-.84 6.59-2.33 9.98-3.1z" style="fill:#f6f0cf"/></svg>