<svg version="1.1" id="Layer_1" xmlns="http://www.w3.org/2000/svg" x="0" y="0" viewBox="0 0 660.72 829.76" style="enable-background:new 0 0 660.72 829.76" xml:space="preserve"><style>.st0{opacity:.5}.st1{fill:#fff}</style><g id="Tombstone" class="st0"><path class="st1" d="M582.48 829.76c-.19-.87-.57-1.76-.52-2.62.05-.83.36-2.19.86-2.34 1.94-.61 4.96 2.72 4.7 4.96h-5.04zM120.88 693.53l-4.12-1.26c1.06-4.26 1.78-7.94-1.47-11.01a.633.633 0 0 1-.15-.32c-.89-4.96-1.74-9.93-2.67-14.89-.15-.81-.51-1.61-.93-2.32-1.26-2.18-2.7-4.27-3.84-6.51-.25-.49.46-1.47.91-2.72 1.98 1.38 3.65 2.55 5.32 3.72 4.49-3.94 3.42-8.35 2.24-13.24-1.39-5.75-1.94-11.72-2.5-17.63-.09-.91 1.75-1.99 2.73-3.04-3.48-3.64-4.24-8.44-4.08-12.96.16-4.43-2.67-9.88 3.57-13.4-5.64-2.72-5.89-7.13-4.85-12.11.23-1.09-.5-2.38-.88-3.96 1.64.59 2.8 1.01 3.95 1.42-4.34-3.51-5.77-7.5-3.9-12.66.2-.56.11-1.74-.23-1.92-3.79-2.02-2.13-5.25-1.92-8.15.02-.22.34-.51.27-.64-2.12-4.4 1.4-6.28 4.24-8.71-1-.94-1.82-1.72-2.06-1.94.54-2.32 1.79-4.53 1.2-6.02-.72-1.85-2.96-3.1-4.44-4.51.22-.54.24-.84.4-.96 5.4-4.29 5.4-4.29.42-9.02-2.27-2.15-1.48-8.17.66-10.23-.69-2.6-1.22-4.62-1.76-6.65-.5-1.89-1.22-3.75-1.47-5.66-.26-1.97-.26-4.02-.04-6 .31-2.73 1.16-5.41 1.36-8.14.27-3.7 1.37-8.04-.1-11.02-2.77-5.64 1.49-10.65.17-15.08 2.13-2.17 4.65-3.72 5.45-5.9.48-1.33-1.69-3.62-2.81-5.75-1.25 1.78-2.13 3.05-3.13 4.48-3.94-5.77-.6-15.97 5.09-16.92.49-2.65-.32-4.39-3.35-4.39.18-1.68.34-3.07.43-3.94 1.41-.94 3.47-1.79 3.4-2.37-.16-1.32-1.08-3.04-2.21-3.67-4.07-2.27-5.79-5.3-4.7-9.97.37-1.59.34-3.4.01-5.01-.69-3.34.9-5.48 3.34-7.21 1.95-1.38 1.96-2.16-.1-3.61-3.68-2.6-4.43-6.38-2.13-10.2.98 1.28 1.83 2.4 2.68 3.52 3.67-4.12 3.67-4.12.32-9.42.97-.73 1.95-1.47 3.11-2.34-.7-.89-1.34-1.69-1.98-2.49.36-.01.72-.01 1.08-.02.32-3.13.67-6.27.92-9.41.04-.52-.25-1.2-.61-1.6-3.01-3.27-2.99-4.29-.05-6.79-.57-1.51-1.59-2.94-1.47-4.25.14-1.5 1.3-2.9 2.24-4.8-1.57-1.1-3.42-2.41-5.86-4.12-.03-.19-.16-1.19-.32-2.35h3.63c-1.69-1.55-3.19-2.6-4.25-3.99-1.66-2.18-.48-5.04 2.08-5.53 3.68-.71 5.38-5.23 3.05-8.08-.3-.37-.48-.83-.77-1.21-.27-.36-.61-.67-1.13-1.25-.82 1.33-1.51 2.46-2.21 3.6-.32.01-.64.03-.97.04-.2-1.06-.9-2.78-.52-3.06 2.71-2.01 1.61-4.77 1.75-7.27.09-1.55.02-3.12.02-4.68v-4.8c1.39.27 2.6.42 3.76.76 1.16.34 2.87 1.57 3.28 1.21 1.37-1.22 2.57-2.84 3.28-4.54 1.15-2.76 1.97-5.67 2.71-8.58.22-.88-.03-2.1-.52-2.87-.68-1.07-1.68-2-2.73-2.74-2.87-2.04-2.36-3.29 1.05-4.02-.4-1.22-.75-2.29-1.12-3.44.91-.65 1.77-1.26 2.59-1.85-1.08-3.72-7.12-3.23-6.74-8.45 1.22 0 2.33-.26 3.26.05 3.78 1.25 6.56-.07 7.19-3.97.58-3.65 3.81-6.74 2.17-10.93-.23-.6 1.25-1.86 1.08-3.1.44-1.51.88-3.03 1.33-4.54.2-.68.46-1.35.62-2.04.82-3.57.76-7.69 2.63-10.58 2.36-3.64 2.88-6.93 1.89-10.84-.07-.3.43-.75.68-1.12 3.02-4.36 3.02-4.36-1.55-8.51-.66 2.58-5.2 3.48-2.88 6.43-1.68 2.48-3.69 4.37-4.3 6.63-.59 2.2.26 4.79.53 7.76-.94 0-2.9.55-4.09-.18-.91-.55-1.48-2.92-1.09-4.12 1.66-5.08 3.88-9.98 5.61-15.04.95-2.79 1.04-5.88 2.07-8.63 1.34-3.54 3.31-6.84 4.86-10.32.95-2.12 1.34-4.53 2.47-6.52 2.44-4.32 5.16-8.48 7.84-12.66a190 190 0 0 1 5.45-8.07c.75-1.05 1.86-1.85 2.69-2.86 3.16-3.85 6.06-7.86 7.35-12.81.32-1.23.91-2.4 1.34-3.5 5.92 4.11 6.28-3.28 10.21-4.02-1.74-1.55-2.92-2.61-4.91-4.4.17 1.88.26 2.87.34 3.84-3.65-.85-3.74-1.34-2.12-4.39 3.22-6.05 8.92-10.11 12.57-15.56 3.36-5.02 7.52-9.18 11.26-13.73 3.72-4.53 8.06-8.61 12.47-12.52 2.84-2.52 6.38-4.24 9.43-6.54 5.15-3.89 10.16-7.97 15.24-11.95.36-.28.84-.57 1.28-.59 3.97-.13 7.34-1.68 10.72-3.7 2.44-1.46 5.42-2.08 8.22-2.84 2.32-.63 4.74-1.28 7.1-1.25 5.35.08 10.88 1.55 15.96.56 3.43-.67 6.4-.17 9.61-.1 3.29.07 6.6-.34 9.56-.52 1.31 1.25 2.5 2.37 3.69 3.5.91-1.14 1.82-2.28 2.74-3.43 1.83-.1 3.84-.22 5.85-.32.47-.02 1.22-.15 1.38.09 2.56 3.79 5.04 2.3 7.69.09.51-.43 1.97-.55 2.36-.17 3.39 3.29 7.48 1.52 11.27 1.68 2.27.09 4.56-.11 6.82-.37 1.96-.23 3.38 0 4.5 1.97.47.83 2.15 1.38 3.26 1.36 7.65-.17 15.3-.51 22.94-.87.94-.05 1.86-.6 3.94-1.3-2.72 2.48-3.35 4.81-.59 5.77 4.17 1.45 4.02-2.82 5.5-5.1 2.39 0 5.04-.54 7.3.16 1.95.61 3.91 2.34 5.04 4.1 2.02 3.14 3.91 5.96 7.37 8.01 5.54 3.27 10.49 7.54 15.84 11.16 2.19 1.48 4.81 2.3 7.17 3.54 1.25.66 2.36 1.57 3.82 2.03 1.99 1.31 4.3 2.31 5.91 3.98 4.19 4.35 8.97 7.56 14.57 9.92 2.7 1.14 4.73 3.82 7.13 5.71 4.36 3.44 8.8 6.77 13.14 10.22 3.32 2.64 6.52 5.42 9.81 8.08.94.76 2.04 1.35 3.05 2.03.65.44 1.48.76 1.89 1.37 1.19 1.76 1.92 3.92 3.35 5.41 4.47 4.66 9.5 8.81 13.7 13.69 4.47 5.19 8.24 10.99 12.33 16.52 1.86 2.52 3.87 4.93 5.56 7.56.87 1.35.96 3.18 1.78 4.57 1.08 1.82 2.69 3.33 3.79 5.15 1.24 2.06 2.08 4.35 3.24 6.47 2.08 3.8 4.15 7.6 6.43 11.28 2.17 3.5 5.64 6.49 3.47 11.33-.22.48.23 1.32.48 1.95 1.84 4.73 5.18 9.05 4.03 14.63-.07.35.28 1.05.6 1.17 4.85 1.83 2.71 6.52 4.04 9.77 1.08 2.63 1.98 5.4 3.47 7.79 3.28 5.28 5.67 10.53 4.45 17.09-.48 2.57-1.5 5.87 1.74 8.13.71.5.43 2.43.6 3.7.47 3.56-1.59 7.71 2.4 10.46-.84 3.18 1.81 4.92 2.92 7.31 1.3 2.8.74 5.37-1.88 6.28.3 2.06.45 3.79.84 5.46.16.69.84 1.25 1.26 1.89 1.49 2.2 3.4 4.24 4.35 6.65 1.24 3.14-.85 5.35-3.98 7.32 1.58 1.15 2.79 2.17 4.13 2.98 2.33 1.4 2.86 3.35.78 5.04-2.35 1.91-2.37 4.24-2.22 6.79.21 3.75.41 7.5.61 11.25.02.36-.1.91.08 1.04 3.49 2.4 1.41 5.33.9 8.16-.11.62.37 1.33.52 2.01.47 2.12 1.06 4.22 1.33 6.37.46 3.72.99 7.47 1.01 11.2.05 7.62-.26 15.25-.29 22.88-.01 1.5.28 3.18.99 4.46 1.49 2.68 1.86 5.05-.29 7.56-.38.45-.14 1.55 0 2.32.42 2.26 1.24 4.49 1.36 6.76.44 8.19.85 16.4.9 24.6.05 9.7-.4 19.41-.42 29.11-.02 10.77.37 21.54.23 32.3-.04 2.92-1.39 5.82-2.12 8.74-.17.69-.41 1.38-.43 2.08-.2 6.08-.39 12.17-.54 18.25-.18 7.54-.31 15.09-.49 22.63-.02.83.14 1.98-.32 2.43-3.77 3.66-2.73 8.43-3.12 12.85-.44 4.95-.02 10.14-1.4 14.8-1.24 4.2-1.33 8.31-1.69 12.49-.44 5.01-.38 5.02 2.91 9.74 1.99-1.99 3.85-4.08 5.95-5.88 2.13-1.83 4.5-3.39 6.79-5.03 1.68-1.2 3.41-2.32 5.88-4-.37 2.14-.72 4.15-1.06 6.17.2.1.4.21.59.31 1.11-1.54 3.19-3.1 3.15-4.6-.1-3.81 2.98-4.2 5-5.09 3.73-1.64 4.44 2.55 6.15 4.37 1.61 1.71 1.72 4.22-.43 6-2.99 2.47-5.97 4.97-9.16 7.16-2.9 2-5.97 3.78-9.13 5.34-6.54 3.25-11.42 8.54-15.7 14.04-1.87 2.4-1.67 7.11-1.12 10.57.91 5.7.73 10.87-2.83 15.66 1.78 2.66 3.44 5.43 5.45 7.93.59.73 2.87 1.25 3.16.89 1.48-1.82 4.59-2.84 3.31-6.32-.32-.89.65-2.39 1.28-3.45 1.12-1.88 2.4-3.66 3.67-5.46.67-.94 1.52-2.63 2.13-2.57 1.54.17 3.41.8 4.35 1.92.67.8.58 3.11-.11 4.02-2.21 2.89-3.67 6.05-5.22 9.32-1.84 3.88-5.05 7.12-7.67 10.63-.86 1.15-1.73 2.28-2.05 4.01 1.17-.33 2.34-.65 3.5-.98l.89 1.22c-1.59 1.56-2.99 3.41-4.81 4.6-3.4 2.22-5.08 5.93-4.86 9.98.19 3.53-.42 7.11-.69 10.67-.02.21-.13.54-.28.59-4.11 1.43-1.76 2.89-.19 4.67 1.81 2.05 2.75 1.83 4.33-.38 2.62-3.65 5.68-6.99 8.67-10.36.39-.44 1.47-.27 2.24-.38-.05.73.09 1.55-.21 2.15-.26.52-1.02.8-1.65 1.24 5.4 3.05 5.56 5.45 1.08 9.68a18.648 18.648 0 0 0-3.44 4.42c-1.58 2.81-3.63 4.09-6.95 3.51-3.11-.54-6.1 2.69-5.69 5.74.17 1.3.16 2.62.16 3.94.01 5.48.01 5.48 3.09 10.01 6.43-.73 10.93 2.11 14.79 6.96 4.24 5.32 8.7 10.52 13.54 15.28 1.85 1.81 4.96 2.47 7.61 3.3 6.05 1.9 12.2 3.47 18.23 5.42 3.02.97 6.03 2.22 8.75 3.83 1.88 1.11 1.31 2.57-.75 3.24-2.89-3.66-3.08-3.89-6.8-.79-3.01 2.5-5.43.7-7.79-.46-6.56-3.22-13.46-4.87-20.67-5.83-2.01-.27-4.36-2.37-5.46-4.27-3.19-5.51-7.42-9.77-12.89-12.88-2.07-1.18-3.74-3.41-6.59-2.58-1.57.46-3.11.98-4.66 1.51-.33.11-.66.54-.93.48-4.45-.84-6.48 2.45-8.29 4.93-2.38.79-3.51-4.45-5.91-.25-.88 1.54-3.07 2.34-4.33 4.25-1.31 0-2.64-.11-3.94.02-3.48.35-5.67-.03-6.25-4.57-.28-2.25-3.76-4.09-6.23-6.56-.49 1.46-.53 2.27-.95 2.66-.61.57-1.5 1.11-2.28 1.13-.35.01-.92-1.22-1.08-1.96-.39-1.87-.75-3.77-.8-5.66-.02-.66.8-1.69 1.47-1.95 2.25-.88 2.3-2.56 1.24-4.01-1.37-1.89-.88-2.74.78-4.02 1.01-.78 1.43-2.36 2.04-3.63.41-.85.42-2.2 1.05-2.59 2.71-1.66 1.95-3.38.37-5.15 1.71-2.23 4.96-3.57 3.52-7.29-.14-.37.84-1.67 1.36-1.71 1.6-.11 3.67-.38 4.73.46 1.22.97 2.15 3.05 2.16 4.65.02 3.43.73 6.84-1.68 10.24-2.49 3.51-.04 7.49 4.65 9.28 2.27.87 4.41 2.07 6.81 3.22 3.15-2.12 3-5.44 2.89-9.22-.34-11.14-.15-22.3-.17-33.45-.02-13.79-.13-27.58-.02-41.37.04-5.09.79-10.18.92-15.28.23-9.08-.56-18.26.53-27.23 1.8-14.88.7-29.75 1.39-44.6.08-1.79 2.37-3.49 3.69-5.31-3.62-3.41-3.66-7.68-1.51-12.39.5-1.1.23-2.56.29-3.86.47-11.39.81-22.78 1.45-34.15.28-4.87.94-9.75 1.92-14.53.43-2.08 1.78-4.19 3.24-5.81 3.69-4.1 4.08-9.94-.06-13.58-2.77-2.43-3.3-5.25-3.4-8.47-.06-1.92.06-3.84-.06-5.75-.13-2.04.36-3.44 2.15-4.85 6.14-4.82 6.05-4.94.46-11.04l2.83-1.8c-.83-.9-1.59-1.72-2.11-2.28.75-1.62 1.62-2.98 1.97-4.46.16-.69-.49-1.84-1.12-2.38-2.7-2.32-2.9-4.23-.15-6.13 2.44-1.68 2.14-3.14.15-4.8-.73-.61-1.38-1.46-2.22-1.77-2.83-1.03-2.11-2.96-1.57-5.01.52-2 1.12-4.04 1.16-6.07.14-6.83.05-13.67.03-20.51-.03-8.26-.74-16.42-3.17-24.39-.47-1.54.06-3.35-.14-5-.35-2.75-.92-5.47-1.39-8.2-.41-2.36-.54-4.55 2.99-4.2-3.87-7.26-6.1-14.41-5.21-22.37.17-1.5-.79-3.12-1.19-4.69-.52-2.06-1.11-4.11-1.47-6.2-1.01-5.78-2.07-11.55-2.81-17.37-.46-3.64-.01-7.42-.63-11.02-.93-5.45-2.51-10.78-3.65-16.2-1.21-5.76-2.13-11.57-3.37-17.32-.36-1.66-1.67-3.1-2.09-4.76-1.4-5.46-2.38-11.05-3.95-16.46-1.06-3.64-3.05-7.01-4.26-10.62-1.45-4.34-2.12-8.98-3.86-13.18-1.8-4.33-4.49-8.28-6.78-12.4-.51-.92-.94-1.87-1.43-2.8-1.79-3.35-3.66-6.66-5.37-10.05-.74-1.45-.94-3.2-1.81-4.54-1.89-2.91-4.77-5.37-5.94-8.5-1.97-5.27-7.69-7.75-8.9-13.64-.54-2.59-3.9-4.48-5.43-7.02-4.66-7.75-11.67-13.29-17.83-19.62-2.51-2.58-4.8-5.71-7.86-7.35-5.11-2.74-8.67-7.19-13.21-10.42-6.97-4.96-14.4-9.27-21.69-13.76-4.94-3.04-10.03-5.84-14.95-8.92-5.59-3.5-10.85-7.57-16.65-10.66-4.97-2.64-10.5-4.22-15.76-6.31-2.31-.91-4.55-2-6.88-2.87-3.34-1.25-6.68-2.58-10.13-3.44-1.64-.41-3.53.24-5.31.33-3.21.17-6.64 1.54-9.22-1.84-.37-.48-1.54-.5-2.33-.49-4.17.06-8.35.37-12.51.22-2.16-.07-4.3-.9-6.18-1.32-1.91.37-3.83.7-5.73 1.11-.93.2-2.34.24-2.65.83-2.06 3.89-5.47 2.37-8.5 2.35-1.92-.01-3.86-.33-5.75-.1-2.38.28-4.71.95-7.05 1.51-5.66 1.33-11.32 2.62-16.95 4.07-2.13.55-4.11 1.65-6.23 2.25-6.57 1.85-13.47 2.89-19.68 5.55-7.17 3.07-14.04 6.69-20.48 11.64-5.35 4.11-9.69 9.14-14.91 13.27-2.18 1.73-4.17 3.88-4.57 7.67-.39 3.67-3.67 7.05-5.71 10.53-1.42 2.42-2.92 4.8-4.34 7.22-.35.61-.32 1.55-.8 1.96-3.62 3.1-5.16 7.51-7.62 11.36-3.22 5.05-7.34 9.51-10.89 14.36-3.23 4.4-6.18 9.01-9.33 13.47-2.28 3.22-5.63 6.04-6.84 9.6-1.49 4.4-5.96 6.85-6.28 12.01-.26 4.15-2.7 8.13-3.3 12.31-.71 4.95-3.01 9.73-1.7 15 .32 1.28-.98 2.9-1.35 4.41-.64 2.63-1.02 5.32-1.72 7.93-1.42 5.29-2.32 10.66-2.21 16.12.08 4.16-1.87 8.2-.56 12.42.15.47-.51 1.19-.81 1.79-.46.93-1.18 1.81-1.36 2.79-.8 4.45-1.33 8.95-2.19 13.38-.44 2.26-1.45 4.39-2.05 6.63-.39 1.47-.55 3-.75 4.51-.09.7.25 1.64-.09 2.11-3.7 5.03-1.83 10.97-2.82 16.43-.52 2.86-1.15 5.69-1.74 8.54-.07.35-.29.7-.26 1.03.75 7.81.17 15.64-.03 23.44-.13 5.08-1.72 10.1-2.43 15.18-.33 2.35-.12 4.77-.13 7.16-.01 3.72.28 7.46-.05 11.14-.54 5.88-1.62 11.7-2.23 17.57-.32 3.08-.15 6.21-.18 9.32-.04 4.13-.15 8.27-.03 12.4.04 1.5.61 2.99 1 4.47.33 1.27.98 2.5 1.06 3.77.25 3.84.42 7.69.34 11.53-.04 1.87-.68 3.73-1.25 6.58 2.39 3.26 4.58 7.81 3.95 13.19-.3 2.56-.88 5.1-1.15 7.66-.36 3.42.91 7.05-1.62 10.2-.39.48-.02 1.98.47 2.67 1.42 1.96 2.09 3.71.07 5.71-.38.38-.49 1.47-.24 1.98 2.29 4.64 3.45 9.32 1.51 14.42-.23.6.41 1.79.97 2.4 2.82 3.06 3.96 6.17 1.88 10.28-1.14 2.27-1.59 4.99-1.83 7.56-.14 1.56.73 3.21 1.15 4.82.26 1.01.68 2.01.74 3.03.27 4.28.3 8.59.73 12.85.12 1.22 1.3 2.33 2 3.51-2.08 1.7-4.05 3.3-6.35 5.17 1.44 1.08 2.42 1.89 3.48 2.59 1.75 1.15 3.6 2.17 2.06 4.78-.2.35.05 1.2.38 1.59 2.79 3.39 1.94 6.78.75 10.58-.72 2.3-.34 5.27.44 7.65 1.08 3.33.64 5.57-2.2 7.73-.71.54-.75 3.1-.11 4.09 1.64 2.52 2.46 4.58-.17 6.92-.55.49-.66 1.7-.65 2.57.07 4.77.23 9.53.39 14.3.02.7-.01 1.56.36 2.08 3.24 4.52 3.2 9.91 2.86 14.85-.38 5.53 2.06 10.53 1.46 16.05-.6 5.57-.32 11.27.05 16.89.44 6.86.45 11.86-1.28 14.69-1.2 1.96-2.87 3.68-4.56 5.26-2.03 1.9-2.39 3.69-.43 5.78.32.34.9.79.85 1.1-1.01 5.52 2.87 10.31 2.32 15.74-.05.5-.5.97-1.65 1.45-.13-1.25-.27-2.5-.39-3.76-.13-1.4.19-3.03-.43-4.14-1.6-2.86-3.66-5.45-5.41-8.23-.41-.64-.2-1.65-.5-2.39-.95-2.38-1.98-4.73-3.05-7.06-.34-.74-1.25-1.39-1.25-2.08-.01-3.45.2-6.91.34-10.35 1.09.01 2.17.01 3.28.01v4.03l3.54-3.91c-2.75-3.34-2.75-3.34-6.8.01zm403.26 70.17c-1.37-1.49-2.6-2.82-4.2-4.55-.25 1.9-.43 3.23-.61 4.57-4.56-1.18-4.56-1.18-8.69 2.87 1.6 1.34 3.17 2.66 4.35 3.66 3.19-2.27 6.02-4.3 9.15-6.55zM129.53 284.36c1.41-1.79 2.62-3.32 3.75-4.75-1.26-1.46-2.45-2.84-3.76-4.35-1.49 1.66-2.7 3-3.75 4.17 1.38 1.8 2.49 3.25 3.76 4.93zm-8.05 72.43c-.94 1.01-1.92 2.08-2.67 2.89 1.06 1.19 1.96 2.2 2.94 3.31 1.05-.97 2.07-1.9 3.52-3.24-1.32-1.03-2.48-1.94-3.79-2.96zm29.2-173.39c-1.38 1.04-2.56 1.93-3.04 2.29 1.31 1.51 2.24 2.59 3.22 3.72.71-.91 1.57-1.99 2.41-3.05-.93-1.06-1.69-1.94-2.59-2.96zm-39.52 372.36v8.21c1.4-1.97 2.36-3.32 3.32-4.66-1.05-1.13-1.99-2.14-3.32-3.55z"/><path class="st1" d="M181.09 689.14c-.45-.22-1.19-.6-2.41-1.21.25 1.46.42 2.43.65 3.74-1.23-.17-2.21-.3-3.24-.44-.1.35-.38.81-.25 1 1.39 2.03 2.76 4.1 4.38 5.95.3.34 1.84 0 2.48-.47.86-.62 1.83-1.6 1.99-2.56.23-1.35-.24-2.81-.47-4.68 5.37-1.18 2.55-6.74 3.68-10.51 1.05-3.48 1.05-7.27 1.58-10.92.46-3.21 2.49-4.22 5.36-2.82 1.55.76 3.49 1.04 4.65 2.15 1.07 1.03 1.76 2.87 1.85 4.4.11 1.79-.7 3.62-.97 5.46-.74 4.95-.33 10.44-2.44 14.7-1.56 3.13-2.03 4.16-.09 7.26 1.12 1.79 2.59 6.4-1.5 8.78-.36.21-.17 2.38.43 3.04 2.88 3.18 2.75 4.57-.54 7.32-.69.57-.71 2.28-.58 3.41.22 2-2.47 7.67-4.19 7.57-1-.06-1.9-1.83-3.49-3.52-2.93-.5-3.14-.96-3.07-6.69.02-1.81-.45-3.64-1.24-5.39 2.21-4.41 2.03-8.4-2.5-11.84-1.93 2.41-4.7 4.31-3.83 8.14.12.54-.82 1.25-1.06 1.95-.35 1.06-.63 2.17-.73 3.28-.12 1.36.37 2.87-.07 4.08-1.4 3.88-3.12 7.65-4.7 11.46-.09.21.03.59-.1.69-2.98 2.12-4.3 4.46-1.56 7.82.23.29-1.22 1.95-2 3.15 1.8 1.01 3.95 1.67 5.18 3.11.84.99.56 3.09.42 4.67-.05.58-1.15 1.06-.83 1.7.34 4.27.74 8.53.96 12.81.04.7-.52 1.57-1.05 2.14-2.92 3.17-4.88 6.56-3.88 10.79-.41 1.67-.76 3.35-1.25 5-.29.98-.6 2.06-1.24 2.82-2.91 3.44-6 6.72-8.89 10.18-.85 1.02-1.24 2.44-1.55 4.79-3.13-.5-6.25-.99-9.33-1.48-.72-3.45.43-5.59 2.62-8.08 3.23-3.67 5.45-8.22 8.1-12.4 1.19-1.88 3.66-3.44 1.28-6.25 2.29-.58 5.14-.14 2.27-4.01-1.56-2.11-.64-6.08-.71-9.22 0-.11 1.67-.6 2.16-.29.7.46 1.03 1.49 1.65 2.5 1.83-2.41 4.76-4.15 1.62-7.52-.41-.44.75-2.35 1.28-3.87-.61-.95-1.47-2.29-3.06-4.75-.15.79-.09 1.4-.36 1.75-.65.83-1.46 1.54-2.2 2.31-.45-1.03-.9-2.07-1.34-3.1-.34-.8-.5-1.78-1.06-2.39-1.63-1.76-3.32-3.38-2.29-6.14.17-.47.05-1.29-.27-1.66-2.15-2.48-1.2-4.31 1.5-6.05-1.36-1.62-2.6-3.11-3.95-4.71-1.18.7-2.25 1.34-3.65 2.16-.4-1.33-.72-2.4-1.08-3.59-.3.11-.67.15-.88.35-1.05 1.05-2.05 2.15-3.08 3.23-.35-1.39-.98-2.78-.99-4.18-.04-9.33 1.05-18.8-.25-27.94-.78-5.5.87-9.5 2.58-14.01.37-.97.35-2.12.37-3.19.08-3.83-.01-7.67.16-11.5.13-2.82.35-5.53-2.84-6.85 3.01-4.86 3.89-4.8 7.52-1.34 3.84 3.66 3.29 7.38 1.94 11.9-.99 3.33-.59 7.07-.85 10.62-.35 4.93-.8 9.85-1.07 14.78-.1 1.82.14 3.67.34 5.49.26 2.33.85 4.63.91 6.96.11 3.88 1.55 5.34 5.4 6.5 1.85.56 3.41 2.36 4.89 3.81 1.17 1.14 2.01 2.6 3.13 4.1 2.63-2.03 4.09-4.22 3.94-7.59-.26-6.22-.3-12.46-.21-18.69.08-5.7.65-11.39.65-17.09 0-5.58-.35-11.17-.76-16.74-.09-1.19-1.49-2.3-1.53-3.47-.07-1.94.02-4.17.94-5.76.62-1.08 6.18 1.29 6.93 2.56 3.11 5.31 1.96 11.2 2.53 16.86.14 1.4 1.02 2.71 1.42 4.1.47 1.65.9 3.34 1.13 5.04.36 2.04.42 4.11.61 6.53zM390.94 796.57c-.42.18-.82.45-1.26.54-2.05.44-4.1.83-6.16 1.25-.32-2.76-.87-5.52-.88-8.29-.01-2.32.47-4.68 1.02-6.95.48-1.97 1.27-3.88 2.09-5.75.7-1.62 1.59-2.85-.92-3.98-1.06-.48-1.39-2.59-2.18-4.22H387c-1.53-1.39-2.55-2.31-4.15-3.76-.86 2.28-1.65 4.16-2.28 6.1-.58 1.8-3.71 3.08-4.94 1.57-3.15-3.88-7.2-3.05-11.23-2.84-.79.04-2.06.07-2.33-.37-1.9-3.09-4.35-2.2-6.97-.95-.39-.6-.8-1.04-.99-1.55-.87-2.32-1.92-2.51-3.36-.42-3.21 4.66-4.15 4.33-9.36 2.31-3.71-1.44-6.71-5.08-11.62-3.9-1.76.42-4.08-1.6-6.18-2.44-.75-.3-1.92-.84-2.33-.53-4.46 3.37-7.4-.37-10.32-1.87-2.5 2.38-4.64 6.01-7.39 6.55-2.3.46-5.31-2.69-8.84-4.71-1.55 3.31-2.94 7.03-4.95 10.37-1.5 2.47-3.65 4.64-5.87 6.51-.56.47-2.51-.71-3.82-1.13.71-1.82.92-4.41 2.25-5.3 2.69-1.79 4.11-3.19 1.78-6.2-.22-.29.36-1.54.88-2.01 2.4-2.17 3.59-4.54 3.79-8.01.17-2.93 2.08-5.78 3.29-8.63 1.16-2.72 2.45-5.38 3.6-8.11 1.24-2.95 1.99-6.19 3.66-8.86 1.67-2.67 1.61-5.28 1.66-8.17.13-7.54-.43-14.92-3.18-22.05-.23-.6.79-2.4 1.23-2.4 1.98-.01 4.56-.26 5.84.84 3.29 2.79 5.64 6.34 4.8 11.19-.2 1.14.65 2.46 1.02 3.7-4.43 1.65-4.43 2.25.24 6.81 1.35-1.98 2.81-3.84 3.94-5.89 1.03-1.86 2.33-3.51 4.39-2.38 1.55.86 3.28 2.65 3.59 4.28.9 4.77-1.55 8.64-4.02 12.62-1.79 2.89-2.35 6.56-3.43 9.88-.94 2.9-2.32 5.76-2.62 8.73-.32 3.13 2.29 4.86 4.98 5.78 5.45 1.86 10.93 3.64 16.47 5.18 2.37.66 4.93.57 7.4.92 4.2.6 8.37 1.32 12.57 1.89 2.01.27 4.4-.76 5.52 2.07.15.38 1.27.53 1.93.52 5.96-.13 11.91-.29 17.87-.51 2.48-.09 5.12-5.3 4.14-8.56-1.2-3.96-1.84-7.94-4.35-11.72-1.92-2.89-4.05-5.67-5.9-8.59-1.43-2.26-1.59-5.34-2.12-8.1-.03-.16 1.98-1.2 2.68-.92 3.42 1.35 5.93 3.72 7.9 6.97 1.92 3.18 4.7 5.84 6.86 8.89 2.17 3.05 4.27 6.2 5.92 9.54.58 1.18-.26 3.07-.54 5.44 1.51.9 3.7 2.6.88 6.09-.39.49 2.02 3.24 3.1 4.89 5.05-2.57 5.44-4.64 1.85-7.96l-4.08-3.75c.98-2.15 2.7-4.5 3.03-7.02.43-3.29-.17-6.72-.46-10.08-.09-1.01-.7-1.97-.95-2.98-1.12-4.52-2.04-9.11-3.39-13.56-.51-1.69-2.28-2.97-2.95-4.65-2.76-6.99-2.56-7.28 4.71-8.86-.14 2.22.05 4.25 3.18 3.39.44-.12 1.54.44 1.52.57-.44 2.95 1.88 4.6 2.96 6.84 1.86 3.87 2.99 8 2.39 12.48-.13.98 1.18 2.15 2.03 3.57-1.48 1.37-3.04 2.8-4.84 4.47 1.06 2.05 2.01 4.31 3.34 6.33 1.14 1.74.66 2.81-.72 3.95-2.23 1.85-4.42 3.75-6.61 5.61 1.51 1.11 3.21 2.36 5.11 3.75.64-1.03 1.36-2.17 2.07-3.31l1.25.15c-.1 1.62.39 3.69-.43 4.76-1.87 2.46-1.72 4.04.59 6.03.98.84 1.21 2.54 1.76 3.81-1.32.08-2.06.12-2.79.16 1.11 3.34-2.81 3.87-3.6 6.27-.29.9-2.26 1.25-4.39 2.31 1.57-6.41-1.65-9.58-5.97-13.15-.81 2.47-1.52 4.64-2.24 6.81 1.08.15 2.15.29 2.81.38-1.02 6.9-2.15 14.46-3.27 22.02.34.13.64.21.94.3zm-86.96-63.33c-1.31 3.73-2.48 7.3-3.83 10.81-.9 2.34-2.09 4.57-3.05 6.89-.13.3.21 1.1.53 1.24 2.53 1.16 1.23 2.61.38 4.03-1.9 3.15-1.48 4.38 1.43 5.8 1.55-1.39 2.91-2.6 4.46-3.98-.33-.55-.86-1.42-1.48-2.45 2.9-2.43 4.47-5.42 4.01-9.32-.1-.87.13-2.03.67-2.67 1.67-1.99 2.26-3.85 1.3-6.51-.89-2.5-2.32-3.69-4.42-3.84zM236.62 799.32c-6.85-4.47-12.93-8.43-19.08-12.43-3.01 2.1-3.91 1.82-6.21-1.98 1.46-1.67 2.89-3.31 4.23-4.85-2.93-3.1-5.5-5.81-8.2-8.66.73-1.04 1.38-1.96 1.79-2.53-.77-1.64-1.57-2.92-1.96-4.31-.66-2.34-1.92-2.33-3.31-.91-.97 1-2.1 2.37-2.16 3.63-.16 2.92-.72 5.51-2.61 7.83-.29.35.32 1.64.77 2.32.73 1.09 1.68 2.04 2.89 3.47-1.67.34-2.56.53-3.67.75-.19 1.03-.39 2.14-.61 3.38-2.71-.4-3.09-1.95-3.06-4.11.11-8.21.09-16.42.08-24.63 0-.69-.15-1.56-.57-2.04-3.22-3.66-1.87-6.7 1.16-9.61 1.1.15 2.22.31 3.35.47.24-.3.47-.6.71-.91-1.9-1.7-3.56-3.85-5.75-4.99-2.79-1.46-2.15-3.71-2.2-5.86-.01-.44 1.08-1.37 1.32-1.26 1.05.44 2.2.99 2.88 1.85.86 1.09 1.3 2.5 2.01 3.95 4.2-4.39 4.15-9.33 4.5-14.22.09-1.2.98-3.26 1.68-3.33 2-.22 4.5-.24 6.07.78 3.9 2.53 3.96 6.66 3.55 10.93-.36 3.75-.21 7.55-.17 11.32.03 3.26 1.02 6.68-2 9.38 2.03 3.15 4.46 4.52 8.48 4.08 4.35-.48 8.68-.64 12.85 2.69 1.74 1.38 6.06 3 9.5.76.88-.57 2.32-.22 3.47-.43 1.01-.18 2.58-.26 2.89-.89 1.41-2.83 3.77-2.47 6.3-2.91 2.24-.39 4.87-2.08 6.1-3.99 2.44-3.79 5.02-7.97 5.7-12.28.68-4.32 2.87-7.57 4.71-11.08 4.38-8.35 5.77-7.88 12.75-4.66 1.7.79 3.32 1.74 5.28 2.77-2.5 8.12-5.01 16.31-7.57 24.62-3.67-6.28-4.72 2.54-8.08 1.19-.53-.72-1.34-1.84-2.71-3.73-2.29 3.87-4.29 7.24-6.25 10.62-.35.61-.37 1.68-.85 1.91-2.8 1.34-3.14 2.68-.39 4.48.41.27.83 1.2.66 1.57-2.02 4.53-1.61 10.64-7.42 12.72-1.7.61-4.41.36-5.82-.65-1.89-1.36-.99-6.29.7-7.65.91-.73 2.31-2.49 2.22-2.59-1.47-1.54-3.09-4.01-4.78-4.09-7.27-.31-14.58.22-21.87.16-1.94-.02-3.85-1.22-5.83-1.54-.9-.15-2.24.24-2.84.89-1.04 1.14-1.65 2.66-2.53 4.16.1 1.66-.46 4.14.49 5.64 2.37 3.72 2 9.35 8.07 10.71 3.67.82 7.05 3.14 10.41 5.05.78.44 1.22 1.94 1.32 3 .13 1.51-.18 3.06-.39 6.04zM468.69 746.35c1.08-1.13 2.38-2.49 3.81-3.98-.04-.05-.15-.43-.4-.57-4.99-2.96-5.4-5.64-1.56-10.09 1.82-2.12 4.09-4.05 3.66-7.3-.18-1.38-.11-2.89-.67-4.09-1.73-3.68 1.02-8.18 5.11-8.11 1.08.02 2.23.22 3.21-.1 2.18-.71 3.48.5 3.83 2.12.65 3.01 2.05 6.27-1.14 8.95-.61.51-1.04 1.77-.89 2.55.66 3.33-.78 5.67-3.15 7.68-3.66 3.1-5.02 7.53-6.86 11.69-.32.72-.81 1.48-1.44 1.91-2.89 1.97-5.86 3.83-9.06 5.89 2.31 2.95 1.65 4.83-.77 6.72-1.34 1.04-4.97 2.94.02 4.47.48.15.49 1.86.95 3.85 2.64-.91 5.24-1.55 7.6-2.68 2.57-1.23 7.49-.67 9.76 1.42 1.11 1.03 2.4 1.87 3.95 3.05 1.81-3.3 3.56-6.43 5.25-9.58 2.51-4.67 4.99-9.36 7.44-14.06.32-.61.31-1.37.57-2.02 1.22-3.03 2.61-5.91 3.27-9.24.73-3.64 3.12-6.92 4.15-10.54 1.86-6.53 3.27-13.19 4.78-19.82.23-1.01.06-2.11.03-3.17-.09-3.22 1.28-4.34 4.45-3.63 3.93.89 6.07 5.28 4.95 9.59-.97 3.72-1.31 7.62-2.42 11.28-1.13 3.7-2.72 7.28-4.42 10.77-.55 1.13-2.09 1.77-3.46 2.85.67.64 1.54 1.08 1.7 1.7.26 1 .21 2.15-.04 3.16-.14.54-1.48 1.16-1.41 1.32 2.1 4.37-2.42 6.7-3.11 10.19-.17.84-.78 1.75-1.46 2.31-1.61 1.35-1.99 2.43-.22 4.06.44.41.13 2.32-.45 3.05-3.53 4.47-7.28 8.77-10.85 13.2-.56.7-1.16 2.11-.84 2.64 2.25 3.68-1.38 5.83-2.03 8.71-1.07 4.74-5.52 8.51-3.93 14.14.19.67-2.27 2.67-3.77 3.09-1.96.55-4.19.13-6.13.13-2.81-8.29 1.1-15.2 5.17-22.18-1.58-3.18-3.26-6.55-4.94-9.92-.33-.16-.65-.33-.98-.49-2.39 8.51-9.29 6.52-14.96 7.33-.67.1-1.42-.14-2.1-.34-.92-.27-1.82-.66-2.72-.99-.07 1.08-.15 2.16-.25 3.65-1.94.57-4.19 1.47-6.53 1.86-2.37.4-3.31-1.17-2.9-3.33.64-3.29.61-7.23 2.48-9.64 2.93-3.77 4.1-7.8 4.93-12.2.14-.73.85-1.43 1.46-1.96 2.29-1.99 3.99-4.11 4.03-7.46.03-2.53 1.47-2.91 3.58-1.32 1.8 1.36 3.83 2.36 5.72 3.48zM8.45 626.5c-4.78 3.39-5.17 7.4.18 11.8 3.22-.26 7.11-.78 11-.77 1.36 0 2.72 1.29 4.08 1.99-.12.33-.23.66-.35.99-5.41 0-10.81-.01-16.22 0-3.47.01-5.96-2.4-6.47-4.98-.53-2.66-1.82-6.09 1.73-8.74 3.35-2.5 6.25-5.12 10.73-5.76 1.4-.2 2.94-3.33 3.4-5.36.73-3.26-.7-6.84 1.89-9.91 3.82-4.54 8.11-4.69 11.76-.09 1.18 1.49 2.24 3.08 3.92 5.41 2.12-4.48 4.04-8.51 6.19-13.05h8.44c2.11 5.73 4.22 11.29 6.2 16.89.72 2.04 1.76 1.84 3.11.78.73-.58 1.38-1.67 2.11-1.72 1.02-.07 2.1.62 3.15.99-.57.78-1.01 2.05-1.75 2.27-5.57 1.6-8.28 6.83-12.7 9.87-.47.32-.77 1.88-.48 2.15 1.35 1.26 2.92 2.28 4.44 3.35.16.11.47 0 .71.01 3.77.09 14.38-8.94 14.75-12.72.08-.81-.76-1.67-.86-2.54-.12-.99-.19-2.23.31-2.95.34-.49 1.99-.66 2.53-.26.69.5 1.05 1.7 1.2 2.65.21 1.33.31 2.76.05 4.06-.36 1.78-.69 3.84-1.79 5.15-2.2 2.62-4.81 4.92-7.44 7.13-1.96 1.64-1.44 2.44.18 4.07 3 3.03 7.21 4.83 8.6 9.59 1.13 3.89.76 11.4-1.92 14.02-.87.85-2.24 1.18-3.38 1.75-.38-.4-.75-.8-1.13-1.19.82-1.08 1.54-2.26 2.49-3.22 1.43-1.43 1.65-7.64-.05-9.38-3.08-3.15-6.35-6.13-9.57-9.16-.84-.79-1.74-1.52-2.62-2.26-.35-.29-.94-.83-1.07-.75-1.67 1.18-3.51 2.26-4.8 3.79-.6.71-.35 2.42-.03 3.54.63 2.19 1.37 4.39 2.45 6.38 1.84 3.37 3.83 6.68 6.09 9.78.57.79 2.38.63 3.59 1.01 1.33.42 2.63.94 3.95 1.42-.01.36-.01.72-.02 1.08-1.17.65-2.35 1.31-3.74 2.08 1.25 2.29 2.48 4.63 3.8 6.92 1.48 2.55 3.01 5.09 4.6 7.57.75 1.17 2 2.08 2.54 3.32 1.73 3.96 3.33 7.98 4.75 12.06.21.61-.79 1.64-1.22 2.48-.84-.58-2.35-1.14-2.38-1.76-.09-1.69 0-3.11-2.11-3.52-.34-.07-.89-.75-.82-1 1.33-4.94-2.45-7.58-4.78-10.89-.45-.63-.63-1.45-1.18-2.78-.56 1.07-.71 1.74-1.14 2.1-1.06.89-2.18 2.16-3.4 2.33-1.67.23-1.87-1.35-2.56-2.82-2.08-4.46-4.94-8.57-7.73-12.66-.33-.49-2.44-.41-3.17.14-4.78 3.55-4.75 3.63-8.57-.54-.54-.59-.84-1.41-1.68-2.85-1.4 1.14-2.87 2-3.87 3.22-1.81 2.22-1.99 5.55-4.86 7.11-1.03.56-1.93 1.37-3.06 2.18-2.02-4.39 1.77-5.9 3.27-8 2.57-3.6 6.22-6.35 6.95-11.2.37-2.45 2.14-4.77 2.21-7.17.06-2.14-1.35-4.33-2.43-7.4-3.94 5.47-8.7 8.7-9.39 15.48-1.4-.77-3.31-1.22-3.54-2.1-.34-1.29.13-3.18.95-4.32 2.4-3.34 5.15-6.44 7.88-9.79-2.13-1.86-4.2-3.68-6.52-5.71 4.58-2.26 4.78-3.48 1.55-6.51-2.07-1.94-4.1-4.15-6.58-5.34-1.68-.81-4.17-.33-6.19.07-1.45.33-2.77 1.44-4.16 2.19zm11.13-13.09c1.67 3.03 3.05 6.28 5.1 9.02 1.97 2.64 4.59 4.83 7.05 7.07.48.44 1.67.5 2.36.25 2.84-1.05 4.31-4.71 2.67-7.39-2.69-4.42-5.58-8.73-8.69-12.86-.9-1.2-3.18-2.59-4.22-2.21-2.27.83-4.44 2.56-4.27 6.12zm23.86 14.47c10.01-9.07 7.29-20.75.29-26.24-3.83 3.6-5.65 8.7-5.3 13.23.32 4.29 1.32 9.44 5.01 13.01zm-1.42 38.5c2.19-2.52 5.55-4.66 5.43-6.59-.33-5.5 2.38-11.99-3.68-16.49-1.15 1.79-2.89 3.35-3.15 5.12-.69 4.62-.73 9.34-1.02 13.92.36-.11 1.01-.32 1.66-.53.19 1.07.37 2.15.76 4.57zm-2.55-23.85c2.75-.52 7.81-4.16 8.23-6.37.13-.71-.07-1.7-.5-2.27-3.6-4.82-6.6-4.98-10.99-.74-.68.65-1.8 1.02-2.17 1.78-.54 1.12-1.22 3.2-.74 3.62 1.81 1.6 4.07 2.69 6.17 3.98zM113.82 694.31c-.37.15-1.36.56-2.88 1.19 1.67 3.1 3.29 6.01 4.79 8.99.31.61.43 1.92.1 2.16-4.76 3.4-1.71 6.12.88 8.53 1.9 1.76 1.65 3-.15 4.31-1.82 1.33-.88 2.08.18 3.37 1.1 1.34 1.62 3.17 2.34 4.81 1.83 4.18 1.09 9.19 4.2 13 .52.64.68 1.85.53 2.71-.81 4.67 2.29 8.03 3.84 11.89.68 1.69 1.93 2.29 3.28.88 1.1-1.15 3.3-2.53 1.08-4.38-2.99-2.5-2.03-4.98-.93-7.99.74-2.02.23-4.49.34-6.75.04-.9.24-1.79.48-3.42 1.74 1.82 2.99 3.13 4.25 4.44l-1.05.15c.35 2.76.65 5.52 1.07 8.26.72 4.72 1.52 9.42 2.29 14.13.55 3.42 1.09 6.84 1.64 10.26.31-.04.63-.09.94-.13-.07.22-.07.51-.22.65-1.27 1.21-2.56 2.4-3.85 3.6-.52-1.47-.92-2.99-1.58-4.38-1.69-3.55-3.5-7.05-5.38-10.8-4.5 3.91-4.46 4.48-2.44 8.99.93 2.09 1.25 4.52 1.42 6.83.06.79-1.47 2.49-1.77 2.38-1.56-.56-3.1-1.41-4.36-2.5-.54-.47-.37-1.76-.6-3.12-2.73.42-5.28.76-7.8 1.2-3.82.67-7.68 1.21-11.43 2.17-5.77 1.48-11.56 3.14-15.2 8.44-.52.75-.31 2.02-.39 3.06-.16 2.04-.29 4.08-.43 6.12-.36.09-.72.18-1.08.26-1.06-1.3-2.11-2.6-2.62-3.23-3.65 2.18-7.12 4.31-10.66 6.34a69.636 69.636 0 0 1-6.26 3.21c-.67.3-1.61.28-2.36.1-2.75-.68-5.37 1.06-5.78 3.85-.11.76-.37 1.57-.81 2.19-1.04 1.45-2.23 2.79-3.59 4.46-1.1.4-2.82 1.15-4.61 1.64-2.6.71-5.24 1.27-7.87 1.83-2.59.54-5.18 1.08-7.79 1.47-1.66.25-3.43.52-3.58-2.15-.14-2.45-.69-4.96 2.04-6.4.94-.5 2.02-.74 3.06-1.03 2.54-.73 5.16-1.24 7.63-2.16 4.65-1.74 9.75-2.25 13.87-5.5 4.15-3.27 8.93-5.8 12.74-9.39 4.64-4.37 9.75-8.79 9.87-16.09.01-.5.54-.98 1.13-1.96 1 1.59 1.77 2.8 2.66 4.2.87-1 1.73-1.9 2.47-2.88 2.85-3.73 2.83-3.74 4.61-.55 4.3-1.49 8.48-2.84 12.58-4.41 3.53-1.35 6.95-2.96 10.44-4.42 1.43-.6 3-.92 4.34-1.67 2.77-1.55 2.32-4.15 2.52-6.9.6-8.22-2.66-15.56-4.49-23.23-1.2-5.03-2.43-10.04-3.64-15.06-.11-.47-.16-.95-.3-1.41-1.56-5.24-3.13-10.47-4.72-15.7-.16-.54-.52-1.02-.77-1.53-.77-1.56-1.62-3.09-2.29-4.69-1.46-3.47-2.87-6.97-4.2-10.49-.41-1.08-.51-2.29-.75-3.44 1.19.46 2.66.64 3.52 1.45 2.45 2.29 4.66 4.83 6.94 7.29.39.42.74.91 1.05 1.39 1.13 1.76 2.24 3.54 3.51 5.56zM412.43 767.86c-.58-2.48-1.21-4.6-1.51-6.76-.15-1.09.05-2.4.56-3.37 1.38-2.64 1.48-5.09.15-7.82-.46-.94-.18-2.51.28-3.57 1.44-3.34 4.69-6.08 3.22-10.34-.1-.29-.03-.85.18-1.01 3.7-2.91 1.57-7.72 3.41-10.91 2.81-4.85.29-10.14 2.57-15.24 1.46-3.28 1.73-7.24 4.45-10.15.78-.83 1.55-1.66 2.38-2.54-.08-1.04-.27-2.19-.24-3.33.06-2.03.23-3.75-2.09-5.09-1.18-.68-2.39-3.67-1.87-4.45 1.04-1.54 3.24-3.08 5.04-3.18 6.93-.37 8.26 2.2 5.89 8.9-.78 2.21-.56 4.69-2.84 6.24-.29.2-.29 1.45.03 1.8 2.7 2.97.32 4.74-1.47 6.66-.39.42-1.3.83-1.25 1.11.68 3.85-2.77 4.97-4.35 7.72 1.63-.84 3.25-1.67 4.88-2.51.14.18.42.48.38.53-4.1 5.54-1.65 12.69-4.4 18.38-1.78 3.67-.4 8.28-2.5 10.83-2.73 3.3-2.49 7.15-4 10.56-1.58 3.57-1.87 7.85-2.1 11.85-.23 3.9-.73 4.84-4.8 5.69zM439.52 738.85h3.52c-2.71-4.59-.59-8.43 1.09-12.32.65-1.5 1.23-3.04 1.89-4.54.57-1.3 1.22-3.68 1.78-3.66 1.86.06 4.06.52 5.45 1.66 2.43 1.98 2.63 7.93.89 11.03-.34.61-.99 1.23-.98 1.83.22 7.64-5.18 10.99-10.69 14.35-1.49.91-2.71 2.27-3.12 3.61-.62 3.43-1.3 6.84-1.85 10.28-.58 3.62-.84 7.31-1.63 10.89-.87 3.94-1.91 7.9-3.4 11.64-1.04 2.62-7.48 4.7-8.09 3.05-.9-2.42-.92-5.54-.24-8.07.66-2.47 2.96-4.45 3.99-6.87 1.08-2.53 2.27-5.39 2.05-7.99-.33-4 2.06-6.88 2.97-10.33.31-1.19 1.25-2.21 1.94-3.29.31-.49.87-.86 1.05-1.38 1.15-3.2 2.21-6.43 3.38-9.89z"/><path class="st1" d="M97.04 737.13c-.65.76-1.17 1.73-1.98 2.25-2.84 1.84-5.79 3.54-8.72 5.31 3.43 4.67 10.76 6.42 14.49 3.86.77-.53.93-1.97 1.7-2.48.8-.54 2.01-.46 3.05-.66.57 5.4-1.7 7.63-6.76 7.16-2.52-.24-5.3-.7-7.53.11-1.58.58-2.88 2.99-3.49 4.84-.59 1.78-.13 3.91-.13 5.51-1.65-.47-3.13-.89-4.45-1.27l-1.79 5.47c-.59-.12-1.18-.25-1.77-.37.2-3.57.37-7.13.6-10.7.05-.81.71-1.89.38-2.37-3.18-4.72-.49-10.29-2.35-15.19-.89-2.35-1.47-4.83-2.15-7.26-1.15-4.14-2.28-8.3-3.38-12.45-.47-1.78-1.05-3.57-1.25-5.39-.13-1.17.34-2.41.54-3.62l3.1 1.14c.94-.59 2.23-1.41 3.95-2.49 1.87 5.14 3.86 9.54 5.02 14.15.81 3.23.92 6.8.52 10.12-.37 3.06 1.88 4.09 3.29 5.74.19.23 2.43-1 3.49-1.85 2.13-1.7 3.91-1.33 5.65.5l-.03-.06zM616.75 799.52c-1.22.13-2.14.22-3.24.33.31-1.49.57-2.75.93-4.45 7.83.11 14.75 2.26 19.72 8.44 1.79 2.23 2.73 2.44 4.78.7.76-.64 2.43-.97 3.3-.58 6.45 2.88 13.23 5.4 17.21 11.83.69 1.12.81 2.59 1.27 4.18-.88.18-1.57.1-1.89.41-3.94 3.76-5.62.06-8.38-2-3.93-2.93-7.34-7.73-13.45-6.04-2.54-2.92-7.34-.66-9.78-4.6-1.08-1.74-4.04-2.56-6.31-3.27-3.62-1.12-3.68-.94-4.16-4.95zM58.33 706.13l7.9-4.49c-5.26-1.58-5.43-3.98-3.73-7.4.5-1.02-.68-2.88-1.12-4.35-.41-1.35-1.07-2.67-1.16-4.04-.03-.43 1.46-1.3 2.26-1.31.57 0 1.32 1.02 1.68 1.74.69 1.39 1.15 2.9 2.17 4.21.32 3.41 3.11 11.54 5.33 14.57.46.63.45 1.82.25 2.64-.11.42-1.36 1.02-1.7.83-.99-.54-1.78-1.45-3.28-2.76-.51.32-1.57 1.1-2.73 1.69-5.23 2.64-9.79 7-16.5 5.76-4.59-.85-7.31-5.95-4.66-9.88 1.42-2.12 3.11-4.39 5.25-5.58 1.7-.95 4.26-.36 6.43-.45-.03.69.19 1.81-.12 1.98-1.29.71-2.93.88-4.1 1.72-1.7 1.22-3.94 2.63-4.38 4.36-.32 1.26 1.58 4.05 3.05 4.55 1.71.59 4.06-.43 6.06-1.03 1.32-.39 2.51-1.27 3.75-1.93-.22-.26-.44-.55-.65-.83zM153.69 741.27c-.43 1.15-.49 2.36-1.08 2.72-2.76 1.69-2.02 3.82-1.36 6.26.55 2.02.6 4.21.63 6.32.01.67-.63 1.72-1.21 1.92-.56.2-1.53-.33-2.12-.79-.63-.5-1.33-1.24-1.46-1.96-1.38-8.08-2.65-16.18-3.93-24.27-.03-.2.15-.44.54-1.5 1.49 1.12 2.77 2.09 4.43 3.35.24-.17 1.16-.79 3-2.05.12 2.21.84 4.17.16 5.21-2.2 3.41-2.13 4.06 2.4 4.79zM551.77 787.69c0 1.95.29 3.98-.09 5.88-.31 1.52-1.33 4.01-2.23 4.09-2.69.26-5.67.02-8.09-1.05-.81-.36-.36-3.79-.31-5.81.03-1.35.35-2.69.51-3.81 3.17.22 6.45.44 10.21.7zM605.82 810.65c-.5 2.15-.38 3.93-1.14 4.45-1.59 1.09-3.59 1.9-5.5 2.12-2.51.29-4.35-2.49-3.97-5.47.1-.8.46-1.57.62-2.37.3-1.51.52-4.35.81-4.35 2.25-.04 4.86-.1 6.66.99 1.43.86 1.88 3.35 2.52 4.63zM515.48 823.1c-1.16 0-1.76.03-2.34 0-6.33-.39-6.2-.4-6.27-6.97-.03-3.11 1.32-4.3 4.21-4.35 3.17-.05 5.81 1.84 5.7 4.57-.1 2.2-.83 4.38-1.3 6.75zM314.6 781.98c.08-5.25 1.12-6.5 5.3-6.38 2.99.09 5.09 2.47 5.03 5.72-.05 2.61-3.16 5.5-5.85 5.43-4.55-.1-4.55-.1-4.48-4.77zM499.58 788.76c1.07-3.01 2.03-5.65 2.95-8.29.3-.86.35-1.84.78-2.63.51-.94 1.29-1.73 1.96-2.59.42.8.91 1.57 1.26 2.41.39.94.35 2.38 1.02 2.83 1.79 1.19 3.4 2.61 1.79 4.51-1.55 1.82-3.88 3.03-6 4.29-.56.31-1.6-.2-3.76-.53zM80.49 815.37c0-1.13-.01-2.28 0-3.43.06-5.77.36-5.8 6.12-5.58 4.25.16 3.54 3.11 3.54 5.48 0 2.48-1.42 3.87-4.2 3.57-1.73-.2-3.5-.04-5.46-.04zM574.79 809.74c-2.61.45-4.86.86-7.13 1.22-.33.05-.96-.02-.99-.14-.43-1.99-1.18-4.04-1.01-5.99.1-1.09 1.68-2.8 2.74-2.92 5.08-.58 6.16.51 6.38 5.47.04.82.01 1.63.01 2.36zM274.04 757.98c3.09 1.83 7.75-1.17 7.51 4.65-1.09.23-2.33.48-3.48.72.78 1.25 2.26 3.14 2.06 3.34-1.78 1.75-3.86 3.2-6.09 4.93v-13.64zM346.99 781.95c2.5-.37 4.39.09 3.86 3.04-.34 1.89.69 4.55-3.2 4.67-3.66.12-4.66-1.47-4.67-4.47-.02-2.72 1.33-3.99 4.01-3.24zM22.12 675.52c-2.95-.34-4.91-2.69-4.77-6.5.11-3.04.61-6.11 1.41-9.04.23-.83 2.14-1.2 3.28-1.78.2.96.84 2.58.53 2.78-3.42 2.27-1.44 6.26-2.77 8.04 1.39 2.31 2.42 4.01 3.45 5.71-.37.26-.75.53-1.13.79zM335.29 801.14c-.82 1.64-1.21 3.76-2.41 4.44-1.52.87-5.01 1.29-5.37.64-.98-1.76-.82-4.18-.88-6.35-.01-.22 1.65-.81 2.42-.66 1.8.36 3.53 1.06 6.24 1.93zM312.84 800.62c.32 2.31-.9 3.31-3.29 3.21-2.7-.11-5.06-2.21-5.05-4.44.01-2.22 1.3-3.25 3.29-3.42 2.51-.21 5.07 2.14 5.05 4.65zM538.73 808.06c3.48-1.21 3.89 1.21 3.93 3.57.03 1.65.27 3.82-2.49 3.86-1.88.03-6.33-3.85-5.7-5.39.52-1.25 2.37-1.94 3.63-2.88.21.27.42.55.63.84zM527.45 791.37c.11.12 1.72 1.2 1.55 1.73-.58 1.84-1.78 3.48-2.74 5.2-1.56-1.16-4.15-2.09-4.48-3.53-.65-2.94 1.91-3.57 5.67-3.4zM113.4 814.24c-1.42-1.28-2.6-1.97-3.22-3-.8-1.34-1.15-2.95-1.69-4.44 1.95-.13 3.94-.53 5.81-.22.5.08.95 2.38.84 3.61-.1 1.17-.94 2.29-1.74 4.05zM629.22 827.94h-8.27c1.76-1.91-1.21-5.2 2.59-5.88 2.22-.39 5.08 2.7 5.68 5.88z"/><path class="st1" d="M97.07 737.21c1.99-.29 4.49-1.46 5.84-.67 1.78 1.04 4.16 3.04 1.96 6.97-2.65-2.15-5.24-4.25-7.83-6.36 0-.02.03.06.03.06zM150.72 767.33c1.63 2.78 3.11 5.3 4.85 8.26-1.84.09-2.88.14-3.86.18-3.45-6.57-3.45-6.57-.99-8.44zM120.22 795.67c-2.13-.25-3.4-.15-4.45-.58-1.07-.45-2.15-1.28-2.73-2.24-.21-.35.95-2.17 1.63-2.25 1.23-.16 2.89.1 3.77.87.9.78 1.07 2.4 1.78 4.2zM79.78 705.85h-4.84c.55-2.06.98-3.98 1.64-5.82.07-.2 2.06-.1 2.12.13.51 1.93.77 3.92 1.08 5.69zM162.06 759.08c-1.01-1.61-2.49-3.13-2.85-4.88-.19-.89 1.62-2.19 2.53-3.31l.9.54c.16 2.29.31 4.58.47 6.87l-1.05.78zM415.93 774.75c-1.12-1.06-2.24-2.13-3.37-3.19.59-.49 1.64-1.46 1.7-1.4 1.06 1.02 1.99 2.16 2.95 3.27-.42.44-.85.88-1.28 1.32z"/></g><g id="Flying_Bird_Right" class="st0"><path class="st1" d="M617.33 24.37c-.4.93-1.09 1.85-1.14 2.81-.15 2.82-.05 5.65-.05 8.47-.27.18-.55.36-.82.53-2.17-1.69-4.34-3.37-6.51-5.07-.45-.35-.83-1.04-1.29-1.08-1.44-.13-2.98-.28-2.34-2.16.26-.75 1.8-1.05 3.11-1.74.58 4.46 3.41 3.18 6.4 3.16v-12.3c.28-.04.56-.08.84-.11.34 1.76.68 3.52.95 4.9.23-1.12.54-2.66.85-4.2v6.79zM581.13 3.89c-1.23.42-2.68.56-3.65 1.32-2.01 1.57-4.14 3.32-1.9 6.32.34.45.59 1.28.41 1.75-1.54 4.09 1.47 7.42 1.79 11.19.06.67.45 1.41.92 1.92 2.06 2.26 2.49 4.16-.21 6.47-.64.54.35 2.99.59 4.56.41.13.81.27 1.22.4-.95.38-1.91.76-3.43 1.36 3.6 1.84 4.38 3.07 1.5 5.19-2.9 2.14-4.94 5.76-8.06 7.2-2.96 1.37-5.63 4.22-9.69 3.35-1.38-.3-3.18 1.33-4.78 2.55 3.9 1.3 5.92 5.5 10.75 5.2 2.79-.18 5.7 1.6 8.56 2.5 2.09.66 4.13 1.51 6.27 1.89 1.06.19 2.26-.59 3.43-.77 1.59-.25 3.31-.73 4.76-.34.68.18.88 2.18 1.28 3.36.19.57.21 1.25.54 1.71 2.38 3.36 4.92 6.57 6.49 10.48.56 1.4 2.51 2.2 3.34 3.57 1.38 2.28 2.07 5.01 3.59 7.17 1.58 2.23 3.87 3.95 5.71 6.02.72.8 1.42 1.93 1.45 2.92.01.59-1.29 1.25-2.04 1.82-2.28 1.74-4.49 3.5-2.78 6.95-2.05.63-3.73 1.15-5.44 1.67-.34-1.68-.24-3.18-.91-4.15-2.16-3.13-2.62-3.06-5.76-.37-.45.38-1.07.56-1.59.88-3.51 2.12-8.34 3.33-6.13 9.26-1.28.32-2.28.82-3.23.73-.73-.07-1.5-.76-2.05-1.36-1.25-1.35-2.22-2.99-3.59-4.18-1.46-1.27-1.69-2.95.03-3.97 1.03-.61 2.28-1.14 3.45-1.18 3.77-.13 6.45-2.21 9.45-4.18 2.29-1.5 4.67-2.63 6.38-4.91.23-.31 1.98.05 2.6.59 1.15 1.01 1.98 2.37 3 3.66 2.97-3.54 1.35-6.37-.76-9.3-.28.47-.53 1.17-1.01 1.62-.42.39-1.52.79-1.61.67-1.92-2.62-5.72-3.43-6.54-7.22-.37-1.68-1.55-3.73-2.97-4.48-1.55-.82-3.99-.9-5.7-.31-2.76.95-5.36 2.53-7.78 4.21-1.73 1.2-3.27 2.84-4.49 4.58-1.85 2.65-3.16 2.61-5.14.08-1.57-2.01-3.41-3.67-3.44-6.51-.02-2.49 1-3.22 3.39-2.84 3.9.62 7.71.79 11.04-2.14 1.21-1.06 3.11-1.31 4.4-2.31.57-.44.87-2.18.47-2.74-1.9-2.68-2.94-6.52-7.58-5.95-1.27.15-2.96-1.48-3.98-1.09-3.98 1.56-7.75 3.7-10.06 7.52-.58.95-.46 2.32-.66 3.53-2.88 1.07-5.96 1.98-5.3 6.22.05.31-1.09 1.21-1.43 1.1-.73-.24-1.58-.84-1.88-1.52-.87-1.97-1.5-4.05-2.09-5.71-7.1 3.06-6.17 8.96-5.34 14.98-2.04.11-3.63.19-5.42.29-.24-.56-.5-1.09-.7-1.64-.72-1.96-2.1-2.53-3.28-.77-1.31 1.96-2.38 4.25-2.89 6.55-.62 2.79-.53 5.74-.77 8.81-1.76.08-2.83.13-4.74.22.77-1.75 1.22-3.08 1.91-4.27.8-1.36-.21-6.22-1.64-7.2-1.97-1.36-2.46-4.75-.8-5.72.14.65.28 1.3.5 2.33 1.16-.87 2.08-1.56 3.22-2.42-.68-.74-1.3-1.24-1.68-1.89-.4-.68-.57-1.49-1.06-2.84-.82.87-1.71 1.4-1.95 2.14-.91 2.75-2.23 1.73-3.59.53-.68-.6-1.26-1.32-1.86-2.01-1.3-1.5-2.65-3.29-4.77-1.43-2.57 2.25-3.11 6.17-1.24 8.12 1.68 1.76 3.77 3.17 5.23 5.08 1.44 1.89 2.31 4.22 3.52 6.53-5.44 2.5-6.01-2.99-9.28-3.85-1.24 2.05-3.74 3.45-1.22 7.05 1.32 1.89.41 5.56-.05 8.33-.1.6-2.59.81-4.48 1.34.27-8.84.49-17-7.7-22.18-2.19 2.44-4.52 5.04-6.92 7.72 2.41 2.6 4.54 5.6 7.35 7.7 2.22 1.66 1.43 3.8 2.07 5.67.08.23-1.89 1.68-2.31 1.45-2.74-1.49-5.72-2.77-7.54-5.52-1.58-2.39-3.1-4.83-4.79-7.47-2.54 2.12-4.15 3.72-3.03 6.84.33.91-.55 2.89-1.46 3.46-1.28.8-2.27.05-3.1-1.68-.95-1.98-2.17-4.57-5.44-4.05-.45.07-1.09-.99-1.64-1.53 1.02-.99 2.12-2.9 3.06-2.82 3.27.27 5.11-1.68 7.26-3.47 2.22-1.84 4.73-3.32 6.97-5.12 4.37-3.5 8.31-7.65 13.04-10.53 4.41-2.68 7.51-7.05 12.52-8.89 1.64-.6 3.04-2.13 4.27-3.49.75-.83 1.15-2.11 1.4-3.26.43-1.99 1.22-3.17 3.29-4.2 3.02-1.51 5.97-2.93 7.91-6.67 2.57-4.97-.67-7.58-2.31-10.92-.8-1.64-2.28-3.72-3.77-4.01-1.25-.24-3.31 1.56-4.32 2.96-.92 1.26-.97 3.18-1.28 4.83-.21 1.1-.21 2.24-.34 3.67-1.93.21-3.82.42-5.6.62-1.84-2.11-2.58-5.32-6.21-4.71-.09-.17-.22-.34-.26-.52-.69-3.42.88-5 4.17-4.54 2.76.39 4.25-1.28 5.81-2.9 1.24-1.29 2.49-2.66 3.33-4.22.69-1.27 1.52-3.21 1.02-4.25-1.89-3.92-4.11-7.85-8.03-10.08-1.08-.61-3.5-.1-4.57.79-2.14 1.78-4.05 3.87-3.99 7.22.03 1.6-1.03 3.56-2.2 4.76-2.23 2.27-1.9 5.22-2.78 7.84-.75 2.23-1.83 3.38-4.3 1.93-.6-.36-1.74-.36-2.37-.02-2.19 1.18-3.49-.12-4.12-1.72-.59-1.51-.87-3.23 1.73-4.05 1.64-.51 3.18-2.14 4.19-3.65 2.41-3.6 4.63-7.35 6.56-11.22.41-.82-.46-2.63-1.22-3.6-.69-.88-2.03-1.24-3.09-1.83.19-.6.38-1.19.56-1.79 5.19 1.14 8.52-1.61 11.83-4.51.43-.38 1.66-.2 2.34.12 2.12.99 3.95 2.78 6.6 2.17.22 1.21.44 2.42.67 3.63l-.74.09c1.41 1.36 3 2.59 4.18 4.13.82 1.06.98 2.6 1.62 3.82.87 1.66 2.02 3.17 2.85 4.84 1.33 2.69 2.43 5.49 3.78 8.17.36.71 1.28 1.14 1.94 1.69.43-.73 1.07-1.42 1.25-2.21.42-1.94.58-3.93.94-5.88.19-1.03.48-2.07.91-3.02.08-.17 1.49-.06 1.59.18.38 1 .97 2.32.61 3.13-1.54 3.42-.91 6.85-.14 10.14 1.07 4.53 8.45 9.28 13.78 5.85 1.13-.73 1.84-2.11 2.55-2.95-1.62-1-2.74-1.76-3.92-2.39-1.28-.69-2.66-1.18-3.92-1.89-1.42-.81-2.5-1.85-1.2-3.62.66-.9 1.31-1.82 2.01-2.8-.22-.7-.57-2.04-1.07-3.3-.31-.78-.76-1.56-1.33-2.16-1.66-1.76-1.41-5.59.91-6.69.63 5.68 3.83 9.6 8.79 12.57 2.07-2.79 4.16-5.6 5.63-7.59-.29-2.88.07-5.18-.83-6.76-1.38-2.41-3.63-4.33-5.59-6.39-.05-.05-1.14.74-1.59 1.27-1.71 2.03-3.36 4.12-5.23 6.43-1.29-2.72-.4-4.55 2.13-6.42 1.91-1.41 3.41-3.7 5.51-4.46 2.17-.78 4.84-.17 7.23-.17 4.45 4.7 3.62 10.53 3.1 16.27-.62 6.89-7.24 8.25-11.37 11.81 1.25 2.34 2.41 4.5 4.03 7.51 1.41-.58 3.37-1.91 5.44-2.09 3.05-.27 4.56-2.29 6.51-4.05 3.05-2.75 3.63-6.1 3.37-9.95-.24-3.56.07-7.16-.17-10.73-.11-1.63-.96-3.2-1.47-4.8-.26.06-.53.11-.79.17.43-.69.87-1.37 1.26-1.99-1.39-3.35-2.75-6.61-3.97-9.53-2.79-.44-5.2-1.1-7.61-1.11-1.63 0-3.65-.46-4.83 1.79-.43.83-2.35 1.44-3.44 1.26-5.94-.99-9.34 2.98-13.07 6.34-.39.35-.73 1.14-.62 1.61.89 3.74-.6 6.92-2.53 10.08.56.35.93.52 1.2.78.51.47 1.24.95 1.35 1.52.09.51-.46 1.57-.87 1.65-.79.15-2.14.07-2.45-.43-.9-1.41-2.01-3.11-1.92-4.63.23-4.02.79-8.07 1.77-11.98.36-1.46 2-3.19 3.45-3.7 6.02-2.13 12.15-4.02 18.32-5.67 4.24-1.13 8.61-1.86 12.96-2.47 3.18-.44 6.42-.4 9.64-.57.02.33.02.73.03 1.12zM563.5 68c-2.58-1.34-4.92-2.32-7-3.68-3.68-2.42-5.14-2.15-7.67 2.1 2.09 1.78 3.96 4.32 6.42 5.2 2.91 1.03 5.5-1.21 8.25-3.62zm-22.68-5.6c-1.05 1.33-2.07 2.23-2.57 3.37-.34.79-.31 2.16.17 2.82 1.67 2.28 3.55 4.42 5.49 6.47.55.58 1.6.69 2.42 1.01.41-1.53 3.31-2.18 1.86-4.24-2.25-3.21-4.82-6.2-7.37-9.43zm-6.78 7.58c-1.77 2.51-3.5 4.87-5.11 7.31-.25.38-.17 1.26.11 1.66 1.01 1.46 2.38 2.7 3.23 4.24 1.5 2.72 2.47 2.11 4.3.14 1.38-1.48 1.02-2.01-.11-3.09-.61-.58-.95-1.46-1.39-2.22-1.44-2.49.58-3.9 1.99-5.38-1.13-1-2.03-1.79-3.02-2.66zM497.3 21.05c-2.25 0-4.5.09-6.75-.03-1.88-.1-2.88.49-4.14 2.16-2.66 3.52-4.63 7.28-6.4 11.26-1 2.23-2.69 4.15-3.9 6.31-.41.73-.24 1.76-.42 2.64-.3 1.5-.27 3.95-1.08 4.28-1.58.65-3.66.17-5.52.02-.55-.05-1.06-.85-1.58-.84-3.21.06-3.25-2.15-3.2-4.36.06-2.47 1.38-3.45 3.83-3.09.41.06 1.05-.29 1.33-.65 2.37-3.08 4.68-6.2 6.99-9.32.17-.22.08-.78.24-.84 1.4-.52 3.01-1.37 1.99-2.9-.84-1.27-2.63-2.22-4.18-2.63-2-.54-2.3-1.28-1.97-3.25.38-2.24-.82-4.78 1.91-6.43.39-.24-.06-1.87-.13-2.93 3.06-.37 5.4.21 6.73 3.73.49 1.3 1.71 3.06 4.61 2.71 3.38-.41 6.99 1.01 10.47 1.72.49.1.87.72 1.31 1.1-.05.45-.1.9-.14 1.34zM615.64 15.87c-2.12-1.11-3.86-1.75-3.38-4.21.07-.38-.26-.94-.57-1.27-1.93-2.05-3.99-3.97-5.82-6.1-1.2-1.4-2-1.28-3.23-.07-.72.71-1.81 1.33-2.79 1.43-1.75.17-3.64-.71-5.01 1.3-.2.29-1.74-.01-2.42-.43-2.29-1.4-3.94-4-7.18-3.54-.25.04-.6-.66-.91-1.02.58-.49 1.12-1.32 1.76-1.42 2.11-.33 4.26-.52 6.39-.53 3.78-.01 7.59-.1 11.34.33 4.27.49 11.29 8.19 11.81 12.49.09.86.01 1.75.01 3.04z"/><path class="st1" d="M580.56 41.88c1.38-1.32 2.76-2.63 4.27-4.07 1.49 1.17 2.96 3.29 4.54.26.13-.25.74-.42 1.09-.36 3.38.55 3.38-3.23 5.49-4.31.14-.07.02-1.32-.29-1.51-1.47-.93-2.99-1.88-4.63-2.42-.86-.28-1.98.26-3.32.48.5-2.58 1.63-3.45 3.7-3.36 2.66.11 5.33 0 7.99.12.81.04 1.83.3 2.3.85.27.31-.18 1.67-.69 2.12-2.14 1.88-2.97 4.04-2.74 6.93.18 2.23-3.17 4.96-5.57 4.86-1.91-.08-3.5-.12-5.36 1.14-1.47 1-4.05.37-6.14.46-.21-.4-.43-.79-.64-1.19z"/></g><g id="Flying_Bird_Left" class="st0"><path class="st1" d="M49.84 80.42c.24.56.65 1.11.68 1.69.09 1.69.03 3.39.03 5.09.16.11.33.21.49.32 1.3-1.01 2.61-2.02 3.91-3.04.27-.21.5-.62.78-.65.87-.08 1.79-.17 1.41-1.3-.15-.45-1.08-.63-1.87-1.05-.35 2.68-2.05 1.91-3.84 1.9v-7.39c-.17-.02-.34-.05-.51-.07-.2 1.06-.41 2.11-.57 2.94-.14-.68-.32-1.6-.51-2.52v4.08zM71.59 67.4c1.93.1 3.88.08 5.79.34 2.61.37 5.24.8 7.78 1.48 3.71.99 7.39 2.12 11.01 3.4.87.31 1.85 1.34 2.07 2.22.58 2.35.92 4.78 1.06 7.19.05.91-.62 1.94-1.15 2.78-.19.3-1 .35-1.47.26-.25-.05-.58-.68-.52-.99.06-.34.51-.63.81-.92.17-.16.39-.25.72-.47-1.16-1.9-2.05-3.81-1.52-6.05.07-.28-.14-.76-.37-.97-2.24-2.02-4.28-4.4-7.85-3.81-.66.11-1.81-.26-2.07-.76-.71-1.36-1.92-1.08-2.9-1.08-1.45 0-2.89.4-4.57.66-.73 1.75-1.55 3.71-2.38 5.72.24.37.5.78.75 1.2-.16-.03-.32-.07-.48-.1-.31.96-.82 1.91-.88 2.88-.14 2.14.04 4.3-.1 6.44-.15 2.32.2 4.33 2.03 5.98 1.17 1.06 2.08 2.27 3.91 2.43 1.24.11 2.42.91 3.27 1.26.97-1.81 1.67-3.11 2.42-4.51-2.48-2.14-6.45-2.96-6.83-7.09-.31-3.44-.81-6.95 1.86-9.77 1.43 0 3.04-.36 4.34.1 1.26.45 2.16 1.83 3.31 2.68 1.52 1.12 2.05 2.22 1.28 3.86-1.12-1.39-2.11-2.64-3.14-3.86-.27-.32-.92-.79-.95-.76-1.18 1.23-2.53 2.39-3.36 3.84-.54.95-.32 2.33-.5 4.06.89 1.19 2.14 2.88 3.38 4.56 2.98-1.79 4.9-4.14 5.28-7.55 1.4.66 1.55 2.96.55 4.02-.34.36-.61.83-.8 1.3-.3.76-.51 1.56-.64 1.98.42.59.81 1.14 1.21 1.68.78 1.06.13 1.69-.72 2.17-.76.43-1.59.72-2.36 1.14-.71.38-1.38.84-2.35 1.44.42.5.85 1.33 1.53 1.77 3.2 2.06 7.63-.8 8.28-3.51.47-1.98.84-4.04-.08-6.09-.22-.48.14-1.28.37-1.88.06-.15.91-.21.95-.11.26.57.43 1.19.55 1.81.21 1.17.31 2.37.56 3.53.1.47.49.89.75 1.33.4-.33.95-.59 1.17-1.02.81-1.61 1.47-3.29 2.27-4.9.5-1 1.19-1.91 1.71-2.91.38-.74.48-1.66.97-2.3.71-.92 1.66-1.66 2.51-2.48-.15-.02-.3-.03-.45-.05.13-.73.27-1.45.4-2.18 1.59.37 2.69-.71 3.96-1.3.41-.19 1.15-.3 1.41-.07 1.99 1.74 3.99 3.39 7.11 2.71.11.36.23.72.34 1.08-.63.35-1.44.57-1.86 1.1-.46.59-.98 1.67-.73 2.16 1.16 2.33 2.5 4.58 3.94 6.74.61.91 1.54 1.88 2.52 2.19 1.56.49 1.4 1.52 1.04 2.43-.38.96-1.16 1.74-2.47 1.03-.37-.2-1.06-.2-1.42.01-1.48.87-2.13.18-2.58-1.16-.53-1.57-.33-3.34-1.67-4.71-.71-.72-1.34-1.9-1.32-2.86.04-2.01-1.11-3.26-2.4-4.33-.64-.53-2.1-.84-2.74-.47-2.35 1.34-3.68 3.7-4.82 6.05-.3.62.2 1.79.62 2.55.51.93 1.25 1.76 2 2.53.94.97 1.83 1.98 3.49 1.74 1.98-.28 2.92.67 2.51 2.73-.02.11-.1.21-.15.31-2.18-.37-2.63 1.56-3.73 2.83-1.07-.12-2.21-.24-3.36-.37-.07-.86-.08-1.54-.2-2.2-.19-.99-.22-2.14-.77-2.9-.61-.84-1.85-1.92-2.6-1.78-.89.17-1.78 1.42-2.26 2.41-.99 2.01-2.93 3.58-1.39 6.56 1.16 2.25 2.93 3.1 4.75 4.01 1.24.62 1.72 1.32 1.97 2.52.15.69.39 1.46.84 1.96.74.82 1.58 1.73 2.57 2.09 3.01 1.1 4.87 3.73 7.52 5.34 2.84 1.73 5.21 4.22 7.83 6.33 1.35 1.08 2.86 1.97 4.19 3.08 1.29 1.07 2.4 2.24 4.36 2.08.56-.05 1.22 1.1 1.84 1.69-.33.32-.71.96-.99.92-1.96-.31-2.7 1.24-3.27 2.43-.5 1.04-1.09 1.49-1.86 1.01-.54-.34-1.07-1.53-.88-2.08.68-1.87-.3-2.83-1.82-4.11-1.02 1.59-1.93 3.05-2.88 4.49-1.09 1.65-2.88 2.42-4.53 3.31-.25.14-1.43-.74-1.39-.87.38-1.12-.09-2.41 1.24-3.41 1.69-1.26 2.97-3.06 4.41-4.62-1.44-1.61-2.84-3.17-4.15-4.64-4.92 3.11-4.79 8.01-4.63 13.32-1.14-.32-2.63-.44-2.69-.8-.28-1.66-.83-3.87-.03-5 1.51-2.17.02-3-.73-4.24-1.97.51-2.31 3.81-5.57 2.31.73-1.39 1.25-2.79 2.12-3.92.87-1.15 2.13-2 3.14-3.05 1.12-1.17.79-3.53-.75-4.87-1.28-1.12-2.09-.04-2.87.86-.36.42-.71.85-1.12 1.21-.82.72-1.61 1.34-2.16-.32-.15-.44-.68-.76-1.17-1.28-.29.81-.4 1.3-.64 1.71-.23.39-.6.69-1.01 1.14.69.51 1.24.93 1.94 1.45.13-.61.22-1.01.3-1.4.99.58.7 2.62-.48 3.44-.86.59-1.46 3.51-.98 4.33.42.71.69 1.52 1.15 2.56-1.15-.05-1.79-.08-2.85-.13-.14-1.84-.09-3.61-.46-5.29-.3-1.38-.94-2.75-1.73-3.93-.71-1.06-1.54-.72-1.97.46-.12.33-.28.65-.42.99-1.07-.06-2.03-.11-3.25-.17.5-3.62 1.05-7.16-3.21-9-.35 1-.73 2.25-1.25 3.43-.18.41-.69.77-1.13.91-.2.07-.89-.47-.86-.66.4-2.54-1.46-3.09-3.18-3.73-.12-.72-.05-1.55-.4-2.12-1.39-2.3-3.65-3.58-6.04-4.52-.61-.24-1.62.74-2.39.65-2.79-.34-3.41 1.97-4.55 3.58-.24.34-.06 1.38.28 1.65.77.6 1.92.75 2.64 1.39 2 1.76 4.29 1.66 6.63 1.29 1.44-.23 2.05.21 2.04 1.71-.01 1.71-1.12 2.7-2.06 3.91-1.19 1.52-1.98 1.54-3.09-.05-.73-1.04-1.66-2.03-2.7-2.75-1.45-1.01-3.02-1.95-4.67-2.53-1.03-.35-2.49-.31-3.42.19-.85.45-1.56 1.68-1.78 2.69-.5 2.28-2.78 2.76-3.93 4.34-.05.07-.71-.17-.97-.4-.29-.27-.44-.69-.61-.97-1.27 1.76-2.24 3.46-.46 5.59.61-.78 1.11-1.6 1.8-2.2.37-.33 1.42-.54 1.56-.36 1.02 1.37 2.45 2.05 3.83 2.95 1.81 1.18 3.41 2.43 5.68 2.51.7.03 1.46.34 2.07.71 1.03.61.89 1.62.02 2.39-.82.72-1.41 1.7-2.16 2.51-.33.36-.8.77-1.23.81-.57.05-1.17-.25-1.94-.44 1.33-3.56-1.57-4.28-3.68-5.56-.31-.19-.68-.29-.95-.53-1.89-1.62-2.16-1.66-3.46.22-.4.58-.34 1.49-.54 2.49-1.03-.32-2.04-.63-3.27-1.01 1.03-2.08-.3-3.13-1.67-4.18-.45-.34-1.23-.74-1.22-1.09.01-.6.44-1.27.87-1.75 1.11-1.24 2.48-2.27 3.43-3.61.92-1.29 1.33-2.93 2.16-4.3.5-.82 1.67-1.3 2-2.14.94-2.35 2.47-4.28 3.9-6.3.2-.28.21-.69.33-1.03.24-.71.36-1.91.77-2.02.87-.23 1.9.06 2.86.21.7.11 1.42.57 2.06.46 1.28-.23 2.51-.74 3.77-1.14 1.72-.54 3.47-1.61 5.14-1.5 2.9.18 4.11-2.34 6.45-3.12-.96-.73-2.04-1.71-2.87-1.53-2.43.52-4.04-1.19-5.82-2.01-1.88-.87-3.1-3.04-4.84-4.32-1.73-1.27-1.26-2.01.9-3.11-.91-.36-1.49-.59-2.06-.82.24-.08.49-.16.73-.24.14-.94.74-2.41.35-2.74-1.62-1.39-1.37-2.53-.13-3.88.28-.3.52-.75.55-1.15.19-2.26 2-4.26 1.08-6.72-.11-.29.04-.78.25-1.05 1.35-1.8.07-2.85-1.14-3.79-.58-.45-1.45-.54-2.19-.79-.06-.26-.05-.5-.05-.74zm15.53 41.39c1.48-.53 2.6-2.06 3.86-3.13-1.52-2.55-2.4-2.71-4.6-1.26-1.25.82-2.65 1.41-4.2 2.21 1.64 1.46 3.2 2.8 4.94 2.18zm4.24.13c-.87 1.24.88 1.63 1.12 2.55.49-.19 1.12-.26 1.45-.61 1.17-1.23 2.3-2.52 3.3-3.89.29-.4.31-1.22.1-1.69-.3-.68-.91-1.23-1.54-2.03-1.53 1.95-3.07 3.74-4.43 5.67zm6.68.49c.85.88 2.07 1.73 1.2 3.23-.26.46-.46.98-.83 1.33-.68.65-.89.96-.07 1.85 1.1 1.18 1.68 1.55 2.58-.08.51-.92 1.33-1.67 1.94-2.55.17-.24.22-.77.07-1-.97-1.46-2-2.88-3.07-4.39-.59.53-1.13 1.01-1.82 1.61zM121.93 78.42c1.35 0 2.71.05 4.05-.02 1.13-.06 1.73.3 2.49 1.3 1.6 2.11 2.78 4.37 3.85 6.76.6 1.34 1.62 2.49 2.34 3.79.25.44.14 1.06.25 1.59.18.9.16 2.37.65 2.57.95.39 2.2.1 3.31.01.33-.03.64-.51.95-.51 1.93.03 1.95-1.29 1.92-2.62-.04-1.48-.83-2.07-2.3-1.86-.25.04-.63-.17-.8-.39-1.42-1.85-2.81-3.72-4.2-5.6-.1-.13-.05-.47-.14-.51-.84-.31-1.81-.82-1.2-1.74.51-.76 1.58-1.33 2.51-1.58 1.2-.32 1.38-.77 1.18-1.95-.23-1.34.49-2.87-1.15-3.86-.23-.14.04-1.12.08-1.76-1.84-.22-3.24.12-4.04 2.24-.29.78-1.02 1.84-2.77 1.63-2.03-.24-4.2.61-6.29 1.04-.29.06-.52.43-.78.66.04.28.07.54.09.81zM50.85 75.31c1.27-.67 2.32-1.05 2.03-2.53-.04-.23.16-.57.34-.76 1.16-1.23 2.4-2.39 3.5-3.66.72-.84 1.2-.77 1.94-.04.43.43 1.09.8 1.68.86 1.05.1 2.19-.43 3.01.78.12.17 1.04-.01 1.45-.26 1.37-.84 2.37-2.4 4.31-2.12.15.02.36-.4.55-.61-.35-.3-.67-.79-1.06-.85-1.27-.2-2.56-.31-3.84-.32-2.27 0-4.56-.06-6.81.2-2.56.29-6.78 4.92-7.09 7.5-.06.5-.01 1.03-.01 1.81z"/><path class="st1" d="M71.92 90.93c-.83-.79-1.66-1.58-2.56-2.45-.9.7-1.78 1.97-2.73.15-.08-.15-.45-.25-.66-.22-2.03.33-2.03-1.94-3.3-2.59-.09-.04-.01-.79.17-.91.88-.56 1.8-1.13 2.78-1.45.51-.17 1.19.16 2 .29-.3-1.55-.98-2.07-2.22-2.02-1.6.07-3.2 0-4.8.07-.48.02-1.1.18-1.38.51-.16.19.11 1 .41 1.27 1.28 1.13 1.78 2.43 1.64 4.16-.11 1.34 1.9 2.98 3.35 2.92 1.15-.05 2.1-.07 3.22.69.88.6 2.44.22 3.69.28.14-.22.26-.46.39-.7z"/></g><g id="Bird" class="st0"><path class="st1" d="M327.27 183.71c-.57-1-1.36-2.26-2.03-3.58a158.6 158.6 0 0 1-3.41-7.08c-.22-.49-.25-1.41.06-1.74 2.25-2.39 3.12-4.94 2.2-8.27-.18-.67 1.73-2.12 2.89-2.91 2.45-1.66 3.75-5.51 7.73-4.37 2.56.73 5.06 1.61 8 2.56.62-.55 1.84-1.64 3.15-2.8-1.89-1.74-3.41-4.75-7.16-2.95-.32.15-1.66-.81-1.66-1.24.01-.93.34-2.21 1.01-2.67.77-.53 2.31-.8 3.06-.38 3.96 2.22 9.08 2.17 12.18 5.94 1.32 1.61 2.88 3.58 3.04 5.49.4 4.85 3.93 8.86 3.05 14.15-.46 2.78 1.23 5.85 1.49 8.83.13 1.5-.95 3.08-1.11 4.66-.14 1.35.26 2.75.35 3.57-.38 2.53-.86 4.6-.97 6.69-.15 3.02.05 6.06-.05 9.09-.03.85-.57 1.7-.92 2.53-.51 1.21-1.09 2.39-1.58 3.61-.34.85-.43 1.86-.93 2.59-.58.84-1.49 1.46-2.25 2.17 1.11.99 2.15 2.06 3.34 2.93.63.46 1.7.4 2.21.92.38.39.4 1.9.24 1.95-4.01 1.4-1.67 6.23-4.57 8.32-.99.71-1.93 2.54.65 3.08.32.07.86.34.86.52.1 3.61.65 7.32-.02 10.79-.41 2.16-2.69 3.97-4.26 6.13 2.72.65 3.52 2.2 2.94 4.97-.3 1.43.95 3.13.9 4.69-.15 4.05-.68 8.09-.96 12.15-.14 2.05.28 4.19-.21 6.12-.27 1.04-1.98 2.51-2.96 2.45-5.79-.35-11.55-1.09-17.33-1.68-.95-.1-1.93.03-2.87-.12-4.35-.71-8.69-1.46-13.02-2.28-.5-.09-1.08-.64-1.32-1.13-2.66-5.46-5.25-10.94-7.86-16.42-.1-.21-.2-.44-.23-.67-.51-4.68-1.36-9.35-1.45-14.04-.22-12.34-.27-24.69-.05-37.03.09-4.81.94-9.63 1.77-14.39.2-1.12 1.7-2.01 2.78-3.21-2.8-1.62-3.1-2.65-1.44-6.1 1.78-3.69 2.54-8.85.95-13.71-.69-2.11.52-4.89 1.06-7.33.16-.72 1.41-1.27 1.44-1.92.13-3.11-.82-6.55.19-9.28 1.45-3.9-.78-5.78-2.82-8.33 3.49-2.23 6.65-.31 9.81.5 3.53.9 7.06 1.84 10.52 2.98.77.25 1.55 1.33 1.75 2.16.1.46-1.11 1.79-1.57 1.71-5.31-.87-8.22 3.15-11.94 5.49.32.23.64.47.96.7-.81 1.44-1.86 2.8-2.38 4.34-.72 2.13-2.11 4.35.36 6.51 2.27 1.98 2.3 4.32-.05 6.34-1.72 1.48-1.94 2.89-.25 4.46 3.36 3.12 6.63 6.34 10.14 9.27 3.09 2.58 10.28.96 13.72-2.99 2.56-2.94 4.97-6.02 7.36-9.11 1.75-2.26-.47-3.52-1.58-4.84-.85-1.01-2.22-1.57-2.86-2-1.63 3.61-3.22 7.4-5.09 11.05-.35.68-1.73 1.06-2.68 1.18-3.57.41-7.17.68-10.32.98zm-11.44 13.42c-3.53 3.66-4.42 10.22-2.3 14.58.55 1.14.73 2.64.56 3.91-.31 2.4-1.35 4.73-1.44 7.12-.23 6.21-.38 12.45.03 18.65.14 2.2 1.99 4.29 3.06 6.43.93-.86 1.86-1.71 2.8-2.56.08-.07.22-.08.34-.11 3.9-.99 2.94-5.18 2.2-6.3-2.73-4.11-1.25-8.32-1.48-12.46-.19-3.62.81-7.33-1.73-10.7-.63-.84-.02-2.94.51-4.27 1.86-4.76 2.8-10.79-2.55-14.29zm25.08-31.8c-1.31-.91-2.29-1.91-3.47-2.33-1.16-.41-3.08-.8-3.7-.2-2.08 2.02-3.88 4.39-5.46 6.84-.48.75-.34 2.56.26 3.22 1.44 1.6 3.29 2.83 5.04 4.12.17.12.87-.27 1.17-.58 1.77-1.83 3.5-3.7 5.32-5.63-.87-.97-1.62-1.8-2.34-2.6.91-.83 1.68-1.52 3.18-2.84zm5.79 108.63c-.16.5-.32.99-.48 1.49 1.53.48 3.09 1.35 4.57 1.23.53-.04 1.65-3.13 1.18-3.67-2.45-2.81-.82-4.83.99-6.77-2.06-2.04-3.64-4.24-6.75-1.81-.89.7-2.79.11-4.23.11l-.03-.71c1.39-.29 2.79-.57 4.68-.96-.76-1.53-1.34-2.71-1.91-3.87-2.73 2-5.2 3.75-7.6 5.6-.73.57-1.92 1.75-1.76 2.05.69 1.33 1.69 2.59 2.85 3.52.29.23 1.78-.69 2.46-1.35 2.18-2.13 4.95-2.55 6.55-.52 1.58 2.01 2.74 4.34 4.31 6.89-1.91-.5-3.37-.86-4.83-1.23zm-8.66-52.7c2.07-1.01 3.68-1.55 5-2.5 1.73-1.24 4.82-3.53 4.56-4.09-1.22-2.63-3.37-4.83-5.24-7.14-.09-.11-.82.05-.95.27-1.87 3.01-4.01 5.92-5.35 9.16-.43 1.02 1.31 2.95 1.98 4.3zm.29 16.31c1.54-.83 2.64-1.42 3.63-1.96 1.05.99 1.94 1.84 2.91 2.76 3.38-6.91 3.46-9.53-.74-11.36s-5.26 3.25-7.59 5.17c-2.99 2.48 1.97 3.05 1.79 5.39zm-17.67 10.85c-7.35 4.52-7.8 10.26-1.35 14.27 2.65-3.27 2.65-3.27 1.35-14.27zm11.4-29.63c.87-2.76 2.37-5.02 1.96-6.86-.5-2.25-2.56-4.18-4.05-6.17-.26-.35-1.11-.55-1.57-.41-2.22.69-3.68 5.69-2.14 7.48 1.55 1.77 3.28 3.38 5.8 5.96zm5.37 32.1c2.97 1.36 5.1 6.54 8.76 1.7 1.37-1.82-1.13-8.18-3.55-8.36-4.17-.31-3.78 3.96-5.21 6.66zm-10.66-23.46c.17 1.12.67 2.31.36 2.6-2.76 2.49-.29 3.94 1.06 5.46 1.64 1.85 3.46 3.55 5.29 5.22.38.35 1.18.23 1.79.32-.09-.71-.02-1.48-.29-2.11-.39-.91-1.03-1.71-1.81-2.93h-2c1.96-5.2-2.12-7.83-4.49-11.97-1.38 1.85-2.44 3.28-3.5 4.71.26.22.53.43.79.65.83-.58 1.65-1.15 2.8-1.95zm4.56 26.65c1.76-4.4.5-9.37-3.7-10.76-.35 1.55-.34 3.32-1.13 4.62-1.42 2.32-1.13 3.93.97 5.51 1.17.89 2.06 2.2 3.29 2.95.57.34 1.67-.2 3.56-.51a329.05 329.05 0 0 1-2.99-1.81zm15.39-97.42c-.6.92-1.02 1.74-1.61 2.42-1.97 2.29-2.03 5.66.2 7.45.68.54 2.48.72 3.01.23 3.53-3.21 2.9-7.33-1.6-10.1zM329.95 270.2c-2.83-2.36-5.26-4.39-8.37-6.99.42 1.84.62 2.74.95 4.19-1.63-.47-2.76-.8-3.88-1.13-.16.21-.31.42-.47.62 2.95 2.76 5.91 5.52 8.86 8.28.36-.34.73-.68 1.09-1.02-.54-.83-1.08-1.66-1.63-2.5 1-.41 1.94-.81 3.45-1.45zm-.94 2.2c1.87 2.03 2.97 3.88 4.6 4.85 3.04 1.82 4.44-1.15 6.39-2.58-1.52-1.36-2.7-3.22-4.22-3.56-1.71-.37-3.71.63-6.77 1.29zm-4.15-10.61c2.5 1.64 4.45 5.27 7.15 1.55 2.23-3.08-2.62-3.33-2.85-6.12-1.59 1.69-2.78 2.95-4.3 4.57zM307.49 146.81c0 2.69.16 4.84-.04 6.95-.22 2.34-.68 4.68-1.19 6.98-.46 2.07-1.52 4.06-1.63 6.13-.11 2.2-.8 3.02-2.94 2.98-3.23-.05-6.47-.17-9.68.1-3.35.29-7.22-1.04-9.71 2.71-.29.44-1.57.23-2.62.35-.19.98-.38 2-.56 2.95-1.9.8-4.12-.75-3.82-2.94.33-2.39 1.33-4.68 1.94-7.03.32-1.23.26-2.57.67-3.75.95-2.75 1.5-5.95 3.31-8.01 1.9-2.15 4.91-3.81 7.73-4.57 5.25-1.4 10.3-4.12 16.03-3.19.92.16 1.85.25 2.51.34zM411.58 211.47c-.11 2.44-.17 3.8-.25 5.47-1.43 0-2.71.02-3.98-.01-.71-.02-1.79-.45-2.07-.13-2.6 2.89-6.41 2.52-9.57 3.82-5.11 2.1-10.01 4.74-14.96 7.23-1.43.72-3.26 1.4-3.96 2.64-1.44 2.56-3.67 2.31-5.84 2.33-1.11.01-2.22-.58-3.33-.9.78-1.11 1.3-2.69 2.37-3.27 6.24-3.36 12.59-6.5 18.93-9.67 1.14-.57 2.4-.93 3.64-1.3 3.39-1.03 6.81-1.96 10.17-3.05 2.8-.9 5.53-1.97 8.85-3.16zM249.92 184.06c3.99-.48 6.2-.01 8.71 2.34 4.41 4.12 9.77 7.22 14.68 10.81 3.89 2.85 7.76 5.73 11.49 8.78.33.27-.33 2.69-.74 2.76-1.31.2-3.05.22-4.03-.51-6.08-4.49-11.95-9.28-17.99-13.82-2.95-2.21-6.23-3.97-9.16-6.2-1.17-.89-1.81-2.49-2.96-4.16zM285.08 224.91c-6.07 1.2-10.7-1.42-15.3-4.21-.73-.45-1.73-.45-2.59-.69-2.69-.74-5.38-1.49-8.05-2.27-.44-.13-.86-.67-1.24-.62-5.71.76-8.5-5.09-13.52-6.03-.79-.15-1.22-2.2-1.82-3.38 1.18-.14 2.59-.76 3.5-.33 2.76 1.32 5.22 3.27 8 4.55 3.01 1.38 6.21 2.34 9.37 3.38 4.08 1.34 8.19 2.57 12.29 3.85 1.29.4 2.57.81 3.86 1.2 2.4.73 5.37.77 5.5 4.55zM287.34 253.77c-7.9 1.17-13.76-3.52-20.1-6.92a79.978 79.978 0 0 0-7.96-3.72c-3.61-1.45-7.33-2.64-10.97-4.03-.55-.21-.94-.87-1.4-1.32.55-.53 1.04-1.41 1.66-1.52 1.11-.2 2.45-.27 3.45.17 6.7 2.94 13.93 4.47 20.03 9.13 3.24 2.48 8 3.06 12.14 4.25 2.4.69 3.2 1.4 3.15 3.96zM406.94 272.93c-1.65-.16-3.3-.29-4.95-.49-2.88-.36-5.85-1.75-8.37 1.11-.34.39-1.38.1-2.06.27-1.72.44-3.4 1.03-5.12 1.44-1.48.36-3 .77-4.5.8-3.46.06-6.93 0-10.38-.24-.77-.05-1.47-1.03-2.21-1.58.69-.64 1.33-1.73 2.09-1.83 1.63-.21 3.32.18 4.99.19 3.62.01 7-.47 10.64-1.54 4.85-1.42 10.35-2.87 15.89-.57 1.79.74 4.6-1.04 6.96-1.59 1.29-.3 2.61-.57 3.93-.6.29-.01.98 1.43.85 1.57-.94.95-1.94 2.07-3.14 2.48-1.42.48-3.06.29-4.6.38 0 .06-.01.13-.02.2zM307.32 185.96c-3.26 2.94-5.12 2.96-9.84.75-1.84-.86-4.11-.58-4.36-3.48-.17-1.95-.84-3.86-1.28-5.79 1.64-.29 3.28-.62 4.93-.86.58-.08 1.19.07 1.79.07 6 .09 5.9.1 6.37 6 .08 1.07 1.42 2.03 2.39 3.31zM411 250.97c-4.37-.32-8.43-.6-12.48-.93-2.85-.23-5.79-.96-7.81 2.04-.21.32-.85.47-1.3.5-4.71.37-9.43.67-14.14 1.05-1.84.15-3.03-.56-2.36-2.38.35-.94 1.75-2.05 2.73-2.11 2.85-.16 5.74.1 8.59.35 2.99.26 5.93.9 8.22-2.02.49-.62 1.99-.59 3.02-.6 4.07-.03 8.13.07 12.2.07 2.53.01 3.85.97 3.33 4.03zM399.1 180.39c-1.86 1.19-3.74 2.11-5.26 3.43-3.25 2.83-6.2 6.01-9.51 8.78-1.67 1.39-3.75 2.5-5.83 3.09-.93.26-2.32-1.07-3.29-1.56 3.36-3.33 5.95-6.06 8.73-8.59 1.74-1.58 3.73-2.91 5.68-4.24 1.69-1.16 3.45-2.23 5.24-3.23 2.7-1.53 3.93-.38 4.24 2.32zM274.45 269.97c-1.42.27-2.86.81-4.27.76-4.61-.15-9.23-.81-13.83-.74-6.65.1-13.29.68-19.94 1.04-.83.05-1.77.25-2.48-.04-.74-.3-1.28-1.12-1.9-1.71.65-.56 1.31-1.62 1.95-1.61 7.04.12 14.07.44 21.11.61 1.34.03 2.69-.45 4.03-.48 4.31-.11 8.62-.19 12.93-.14.81.01 1.62.64 2.43.99l-.03 1.32z"/></g></svg>