<svg version="1.1" id="Layer_1" xmlns="http://www.w3.org/2000/svg" x="0" y="0" viewBox="0 0 657.72 972.67" style="enable-background:new 0 0 657.72 972.67" xml:space="preserve"><style>.st1{fill:#242222}.st3{fill:#fdc847}</style><path id="Body_Fill" d="M300.12 715.65c2.08-28.21-2.94-49.39-2.65-70.91.14-10.76-.96-21.88 1.02-32.22 4.43-23.23 1.7-46.44 2.04-69.63.17-11.88-1.97-23.8-2.97-35.71-.78-9.25-1.27-18.32.77-27.69 1.82-8.33.6-17.23 1.41-25.87 1.52-16.2.3-32.66 4.15-48.65 3.62-15.06 1.41-30.45 2.9-45.65 2.35-23.87.26-47.98 2.35-71.79 1.93-22 .95-43.92 1.71-65.86.74-21.28 2.6-42.53 2.7-63.8.07-15.15.26-30.07 2.91-45.11 2.39-13.55 1.51-27.39-.55-41.15-1.56-10.43 1.02-20.83 2.29-31.18.46-3.7 3.4-4.73 6.82-5.37 10.22-1.89 19.78.85 29.37 3.66 2.22.65 4.41 1.74 6.65 1.86 15.94.85 27.8 12.18 42.44 16.38 10.68 3.06 21.23 6.63 31.77 10.15 3.45 1.15 6.98 2.47 10.02 4.42 13.17 8.44 27.98 14.18 40.47 23.59 16.05 12.08 32.53 23.56 48.29 36.06 8.56 6.79 12.53 16.12 17.71 24.87 4.05 6.84 7.73 13.89 11.79 20.75 9.61 16.25 18.78 32.68 24.65 50.98 5.15 16.05 9.18 32.18 12.01 48.72.91 5.31.65 10.63.72 15.94.14 10.66 1.43 21.37 3.26 31.64 2.5 14.04 2.21 27.94 1.06 41.66-1.31 15.61-1.74 31.15-1.7 46.76.03 9.82.02 19.65.02 29.47 0 1.99.13 3.96-1.79 5.41-8.54 6.44-15.36 14.74-23.46 21.69-14.11 12.1-34.61 11.12-47.77-2.01-4.92-4.91-8.34-10.2-9.74-16.95-.69-3.3-1.72-6.86-5.84-7.13-4.47-.29-8.78.67-11.03 5.21-3.99 8.02-9.5 14.83-16.01 20.89-.73.68-1.38 1.48-2.21 2-11.1 6.98-29.89 3.8-38.42-5.97-4.48-5.14-8.08-10.5-9.61-17.2-.36-1.57-1.27-3.1-2.24-4.41-1.85-2.51-4.52-3.6-7.49-2.58-2.73.94-4 3.21-4.31 6.15-.81 7.65 3.92 13.18 7.2 19.26.87 1.6 2.16 2.98 2.98 4.6 4.07 8.03 10.13 12.47 19.21 14.95 11.27 3.08 22.15 3.7 33.49 2.02 5.88-.87 10.8-2.92 14.23-8.09 1.74-2.61 3.88-5.02 6.18-7.17 2.9-2.72 5.52-2.57 8.39.81 18.45 21.73 39.68 23.98 65.08 12.89 4.44-1.94 7.83-6.11 11.29-9.72 1.84-1.92 3.72-3.82 5.74-5.54 1.6-1.36 3.24-3.23 5.71-2.09 2.4 1.11 2.19 3.61 2.37 5.67.6 6.81-.13 13.5-1.06 20.32-1.22 9.01-2.93 18.07-3.2 27.13-.31 10.47-6.35 17.45-12.96 23.73-7.89 7.5-18.84 9.22-29.02 12.06-.76.21-1.81.25-2.46-.11-9.42-5.12-19.52-9.62-22.87-21.19-2.14-7.43-5.27-11.98-9.4-11.42-5.86.79-8.12 5.34-9.87 10.58-2.1 6.26-7.34 10.59-12.52 13.81-5.79 3.6-12.49 6.27-19.73 6.29-2.33.01-4.67 0-6.99.19-16.63 1.32-28.16-5.78-34.86-20.98-1-2.27-2.05-4.52-4-6.26-2.39-2.13-5.13-2.79-7.79-1.28-2.55 1.45-2.81 4.03-2.35 7 2.01 13.1 9.28 22.86 19.96 29.79 11.87 7.7 25.42 8.2 38.95 6.06 9.28-1.47 18.28-4.3 26.66-8.75 2.19-1.17 4.12-2.68 5.77-4.67 3.6-4.34 6.86-4.39 10.94-.46 2.76 2.65 5.49 5.34 8.13 8.11 8.66 9.06 19.04 11.39 30.53 6.96 8.95-3.46 18.35-5.94 26.64-11.04 1.9-1.17 3.73-1.08 3.84 1.69.39 9.92 1.02 19.88-1.33 29.67-.53 2.22-.12 4.24.11 6.39.71 6.69 1.95 13.44-1.15 19.94-2.15 4.51-5.28 7.6-10.6 7.86-2.69.13-5.11 1-7.43 2.55-9.1 6.09-19.02 5.64-27.47-1.03-4.55-3.59-9.49-6.7-10.95-13.06-.89-3.89-2.46-8.37-7.22-8.45-4.66-.08-8.01 3.25-9.68 7.54-2.48 6.38-7.14 10.66-13.2 12.85-6.77 2.45-13.15 5.62-19.54 8.78-3.2 1.58-6.3 1.9-9.66 1.53-.65-.07-1.4-.12-1.92-.47-10.83-7.28-24.48-10.58-31.88-22.76-2.25-3.7-7.03-5.09-9.96-3.09-3.32 2.26-3.74 5.8-2.63 9.38 2.19 7.04 7.35 11.86 13.16 15.83 5.98 4.1 11.5 9.18 19.02 10.59.31.06.65.23.89.44 9.61 8.59 19.49 6.2 29.55.88 9.38-4.96 20.22-6.75 28.82-13.48 2.3-1.8 5.1-1.24 7.39.67 2.69 2.23 5.43 4.42 7.95 6.83 9.11 8.75 19.58 10.49 31.36 6.56 7.41-2.47 14.92-4.61 22.36-7.01 2.89-.93 4.06.16 4.25 2.94.45 6.47.95 12.93 1.37 19.39.64 9.94 2.4 19.82 1.43 29.84-.1.99.19 2.24-.3 2.95-6.18 8.93-10.41 19.42-20.09 25.59-2.41 1.54-5.51 1.61-7.77.91-8.52-2.66-17.53-1.18-26.06-3.83-6.78-2.11-10.97-5.68-11.92-12.96-.59-4.51-2.83-8.72-7.69-9.27-4.76-.53-7.75 2.78-9.81 7.06-6.13 12.69-15.55 22.05-28.5 27.86-5.84 2.62-10.84 0-15.73-2.22-5.59-2.53-10.93-5.68-16.21-8.84-4.65-2.78-7.07-6.95-8.21-12.44-1.25-6.08-2.85-12.49-9.36-15.59-3.7-1.76-8.62.51-7.71 3.89 2.85 10.6 1.71 22.81 11.28 30.95 4.06 3.45 8.24 6.79 12.92 9.37 6.12 3.37 12.32 6.61 18.55 9.78 7.82 3.97 15.07-.08 22.14-2.34 9.22-2.96 16.15-9.86 22.85-16.51 3.57-3.54 5.92-3.75 9.57-.53 7.66 6.75 17.04 9.46 26.99 10.53 3.31.36 6.68.52 9.87 1.36 9.86 2.6 18.33-.79 26.46-5.73 4.31-2.62 5.99-2.01 6.36 3 .3 3.98.5 8.03.13 11.98-1.12 11.82-.43 23.61-.18 35.42.26 11.9.51 9.21-9.12 13.57-11 4.97-22.38 5.96-34.14 3.55-8.06-1.65-13.03-7.86-12.52-15.92.19-3-.03-5.73-2.9-7.41-2.87-1.68-5.74-1.27-8.51.35-.72.42-1.57.78-2.05 1.41-7.21 9.62-18.12 15.04-26.46 23.36-2.52 2.51-4.88 3.5-8.41 2.07-5.83-2.36-12.21-2.98-17.93-5.94-9.22-4.78-16.21-11.44-20.15-21.15-2.44-6.01-7.63-9.82-11.38-8.5-4.13 1.46-6.7 8.69-3.58 14.47 7.02 12.99 15.52 24.97 30.16 30.55 8.36 3.19 16.73 6.42 25.29 8.97 6.13 1.83 10.89-1.79 14.91-6 4.6-4.82 8.9-9.84 15.08-12.88 3.11-1.53 4.69-.76 6.66 1.74 5.55 7.06 12.25 12.12 21.98 11.17 1.26-.12 2.67.31 3.88.79 10.77 4.25 21.13 2.83 31.34-1.97 4.71-2.21 6.04-1.4 6.06 3.72.04 7.02 2.24 13.79 2.13 20.83-.02 1.37.79 2.89 1.57 4.11 4.15 6.52 3.56 14.9-1.77 20.45-1.97 2.05-4.27 3.72-7.5 3.01-.92-.2-2.04-.19-2.89.16-9.87 3.93-19.69 2.8-29.83.79-6.11-1.22-12.4-2.54-18.77-2.27-4.79.21-7.72-1.56-7.65-6.81.02-1.67-.03-3.86-2.1-3.92-2.19-.06-1.88 2.26-2.17 3.81-1 5.55-2.02 6.35-7.81 5.19-6.72-1.34-13.46-1.49-20.29-1.68-15.95-.45-30.95-4.58-44.59-13.29-5.02-3.2-10.45-5.82-15.9-8.25-4.66-2.08-9.07-4.54-12.11-8.54-7.94-10.45-16.35-20.58-22.24-32.46-3.82-7.7-5.05-16.16-7.6-24.24-4.36-13.83-5.01-28.32-7.17-42.52-2.68-17.57-4.26-35.3-3.23-53.15.29-5-.11-9.94-1.51-14.82-1.01-3.55-.67-7.27 0-10.9.36-1.96 1.41-4.03 1.07-5.86-2.11-11.26-.48-22.8-2.67-34.03-.51-2.6-1.51-5.17-1.59-7.78-.65-20.45-1.74-40.91-2.92-61.3-.82-14.13 1.92-28.08-.19-42.15-2.08-13.91 1.79-27.67 2.46-41.54.4-8.29.55-16.6 2.4-24.78 1.02-4.53-1.79-8.67-1.91-13.23-.3-11.71 3.06-22.93 4.15-34.46.63-6.74-.17-12.51-3.64-18.03-1.27-2.03-2.55-4.07-2.4-6.43.48-7.54-5.87-7.94-10.4-10.13-4.11-1.98-7.33.89-10.56 2.7-1.86 1.04-2.03 3.36-2.11 5.37-.16 3.83-.09 7.67-.33 11.49-.46 7.56 1.39 15.16-1.35 22.74-1.17 3.24-.87 7.43 0 10.88 1.27 5.06.03 9.76-.18 14.66-.32 7.27-1.9 13.65-6.4 19.38-.96 1.22-1.57 3.1-1.54 4.66.36 14.69-2.7 29.1-3.45 43.72-.5 9.83-.25 19.96-3.47 29.58-.85 2.54-.76 5.35-.12 7.93 4.56 18.45 5.29 37.23 4.4 56.04-1.04 21.88 2.86 43.45 3.18 65.23.22 15.36 1.37 30.72 2.2 46.07.33 6.13 2.14 12.05 3.16 18.03 1.32 7.74 3.9 15.36 3.68 23.36-.16 5.73 1.23 10.8 3.8 16.14 2.64 5.48 2.89 12.12 4.09 18.27 1.8 9.15 3.46 18.25 9.94 25.7 1.96 2.26 3.1 5.63 3.61 8.66 1.09 6.45 4.26 11.82 7.57 17.21 2.61 4.25 5.3 8.46 7.11 13.15 1.34 3.47 3.28 6.69 6.13 9.01 5.55 4.51 7.89 10.96 11.13 16.91.84 1.54.53 2.46-.73 3.37-2.21 1.59-1.95 3.69-1.09 5.81.42 1.04.9 2.3 2.38 2.16 1.19-.12 1.68-1.29 1.78-2.15.5-4.57 3.21-3.48 6.61-3.67 13.72-.78 22.67 8.13 32.39 15.2 7.7 5.59 15.37 9.75 25.25 7.81 2.71-.53 5.24.93 7.57 2.15 3.76 1.98 7.58 2.24 11.61 1.23 6.43-1.61 12.78-1.79 19.06.87 3.46 1.46 6.93 1.79 10.51-.27 3.63-2.08 7.53-.48 11.22.24 4.82.94 9.47.1 14.26-.15 13.54-.71 26.59-5.67 40.32-4.33 4.17.41 6.74 2.43 6.5 6.6-.4 6.79.84 13.61-.9 20.39-1.07 4.18-1.04 8.4.53 12.74 1.49 4.13-.76 8.18-2.33 11.97-.9 2.17-3.02 1.3-4.8.58-16.41-6.7-32.99-8.5-49.73-1.25-9.13 3.96-18.18 3.32-27.16-.22-3.81-1.5-7.65-2.21-11.7-1.9-12.71.99-24.86-3.72-37.59-3.48-5.84.11-11.57.89-17.36 1.12-8.29.33-16.59 1.55-23.9-4.14-1.99-1.55-4.85-1.61-7.19-.37-8.44 4.48-16.26.91-23.2-2.93-8.03-4.44-16.27-8.15-24.64-11.8-9.13-3.98-17.09-10.08-24.67-16.55-1.18-1.01-1.75-2.79-2.49-4.27-6.31-12.69-9.91-26.46-15.59-39.4-3-6.84-6.72-13.31-9.14-20.47-2.69-7.99-4.03-16.26-4.54-24.43-.54-8.8-2.52-17.37-2.89-26.2-.31-7.38-2.7-14.63-3.46-22.09-.31-3.09-1.16-6.16-1.18-9.34-.06-15.5-5.32-30.6-3.68-39.52zM414.27 96.11c-9.47-1.49-19.69.54-29.37 3.86-19.29 6.6-32.86 19.82-41.54 38.33-6.38 13.63-8.58 27.39-3.84 42 .95 2.93 1.55 6.31 1.11 9.31-1.1 7.54.57 14.48 3.41 21.27 1.85 4.43 3.96 8.75 5.93 13.12 3.68 8.19 12.3 11.61 18.94 16.91.54.43 1.62.17 2.45.23 8.47.62 16.24 3.78 23.48 7.73 7.13 3.89 13.88 8.58 21.62 11.19 12.47 4.22 24.87 6.87 35.23-4.92 1.05-1.2 2.67-2.02 4.17-2.7 16.91-7.66 28.06-20.85 35.77-37.28 2.1-4.48 5.35-8.41 6.16-13.55.98-6.22 2.92-12.24 3.6-18.56 1.26-11.72-1.04-23.16-2.17-34.7-.12-1.24-.97-2.48-1.7-3.58-6.36-9.5-12.77-18.86-20.75-27.25-9.73-10.24-20.22-18.57-34.15-22.05-2.22-.55-4.36-2.32-6.65-1.3-6.73 2.98-13.8 1.26-21.7 1.94z" style="fill:#50aa63"/><path id="Body_Outline" class="st1" d="M472.8 972.67c-.17-.79-.73-1.03-1.45-.98-17.32 1.16-34.41-2.66-51.76-2.15-11.6.34-23.05-3.05-33.29-8.66-15.87-8.69-31.66-17.61-46.86-27.41-9.63-6.21-19.39-12.2-28.96-18.51-3.58-2.36-5.73-5.99-8.6-8.98-7.74-8.1-14.62-16.9-20.57-26.4-2.61-4.16-3.49-8.97-4.78-13.64-2.12-7.63-4.68-15.13-7.65-22.48-5.49-13.57-9.66-27.68-11.56-42.08-1.35-10.27-2.41-20.72-1.72-31.35.8-12.17 1.39-24.54-.55-36.74-.29-1.82.9-3.05.9-4.74.02-7.26-.46-14.45-1.9-21.58-.29-1.44-.16-2.98-.16-4.47-.01-16.5-.06-32.99.01-49.49.08-18.5-3.01-36.77-3.43-55.3-.37-16.22.54-32.13 2.27-48.16 1.05-9.78 1.69-19.64.4-29.59-.91-7.05.55-14.41-.44-21.44-1.57-11.09.38-22.11 1.78-32.7 1.91-14.51.84-29.09 2.83-43.32 1.81-12.95.2-26.24 4.39-38.94 1.31-3.96.23-8.51.68-12.82.91-8.69 1.29-17.46 1.4-26.2.05-4.16-3.02-5.36-7.45-5.02-9.9.77-19.6 3.94-29.82 1.51-7.12-1.69-14.43 1.15-21.73.92-2.05-.06-4.32-.1-5.54-1.5-2.61-3.01-6.22-3.4-9.56-4.54-10.38-3.56-20.93-6.59-30.25-12.78-4.41-2.93-7.45-6.95-10.37-11.05-4.92-6.91-11.99-11.34-18.29-16.64-2.01-1.69-4.16-3-5.33-5.5-.82-1.75-1.63-3.74-3.03-4.94-7.77-6.71-10.61-16.17-14.36-25.12-1.89-4.51-6.03-5.84-10.88-5.18-15.31 2.07-27.71 9.83-39.25 19.26-6.87 5.62-13.05 11.9-17.57 19.84-5.17 9.08-12.75 15.22-23.51 17.34-3.06.6-5.29 1.75-8.48-.04-3.16-1.77-4.24-4.53-5.18-7.33-.92-2.74-.93-5.8-1.15-8.74-.19-2.54-.55-4.99-2.05-7.13v-36.99c1.86-2.04 1.94-4.56 2.06-7.14.34-7.52-.75-15.05 1.75-22.55 1.29-3.88 2.14-8.42.96-12.66-.61-2.17-.42-3.98-.07-6.15 1.26-7.78 1.35-15.55.75-23.52-.54-7.19-3.07-14.4-1.33-21.68.79-3.27.73-6.51.94-9.79.29-4.48-2.38-8.93-1.61-12.92 2.41-12.49 8.05-23.93 13.79-35.22 2.18-4.29 5.65-8.05 7.2-12.51 2.88-8.3 8.42-14.46 13.99-20.84 12.56-14.33 28.68-24.27 43.4-35.92 7.92-6.27 16.3-9.97 26.46-5.14 1.26.6 3.15.24 4.83-.37 5.08-1.85 10.44-2.4 15.8-2.47 8.16-.11 16.32-.21 24.47.04 5.44.16 10.25-1.39 13.4-5.58 4.61-6.14 10.63-7.21 17.51-6.46 1.92.21 3.84 1 5.73.92 9.39-.37 18.36 2.32 27.24 4.45 11.31 2.71 21.93 7.97 33.51 10.1 5.34.98 15.95-2.82 19.37-7.02 4.06-4.99 8.92-9.5 15.54-10.29 5.04-.59 10.09-1.14 15.01-2.24 7.47-1.65 15.21-2.4 22.17-5.95h18.99c.96 1.49 2.48 1.78 4.08 2.13 5.19 1.14 10.45 1.91 15.48 3.83 3.32 1.27 6.3 3.15 9.79 4.2 11.11 3.33 22.94 4.38 33.14 10.68 5.74 3.55 11.66 7.01 18.32 8.54 6.33 1.45 12.32 4.01 18.57 5.49 12.16 2.88 23.11 7.87 33.4 15.01 6.35 4.41 13.51 8.04 20.8 10.61 10.39 3.66 19.96 9 28.07 15.82 16.84 14.15 34.82 26.58 52.77 39.15 6.1 4.28 10.93 9.94 15.2 16.4 7.16 10.84 11.54 23.16 19.23 33.64 5.77 7.87 10.06 16.72 14.64 25.26 8.02 14.93 13.12 31.17 18.47 47.27 6.96 20.93 9.21 42.57 10.94 64.35.85 10.68 1.72 21.35 1.97 32.06.02.71.19 1.28.99 1.43v37.99c-1.48 1.58-1.95 3.51-2.02 5.61-.51 14.85.22 29.7-.68 44.59-.65 10.8.68 21.78.67 32.69-.01 5.97-.43 11.99.17 17.91.51 5.05-.07 10.29 1.86 15.17v1c-.28.15-.78.27-.8.45-2.24 18.86-3.34 37.83-5.78 56.7-1.5 11.61-3.33 23.4-2.7 35.45 1.79 33.78-1.72 67.65 1.9 101.5 1.08 10.1.92 20.65.85 31.03-.13 18.4-3.5 36.57-2.63 54.99.48 10.31.15 20.65.16 30.98 0 1.33.4 2.99-.23 3.93-4.45 6.68-3.12 14.46-3.46 21.57-.66 13.9-1.82 27.81-1.42 41.77.14 4.92-.54 9.87-.93 14.79-1.4 18.02-6.48 35.89-2.01 54.15.59 2.43.45 4.95.28 7.54-.24 3.62-2.41 7.38-1.05 10.69 1.7 4.13-.37 6.05-2.8 8.39-2.08 2-4.54 3.14-7.23 3.91-4.71 1.34-9.43 2.67-14.14 4h-11.99c-1.11-1.45-2.72-.99-4.15-.99-33.87-.01-67.74-.01-101.62.02-1.45 0-3.03-.39-4.19.97H472.8zM48.17 241.03l-.07.07c.33-.38.65-.76.98-1.14l-.04.06c3.5-1.75 7.4-2.83 10.04-6.02l-.06.05c.78-.16 1.7-.01 2.09-.99l-.04.02 1.01-1.1-.06.06c1.48.01 2.61-.5 3.06-2.05l-.04.04c2.48-.06 4.1-1.84 6.02-3.03l-.03.02c3.23-.28 6.24-1.18 8.88-3.12l.04-.01c4.96-1.36 10.06-2.01 15.1-2.94 6.65-1.24 13.62.39 20.01-2.7 4.11-1.99 8.59-2.44 13.15-2.28 10.14.35 20.28.82 30.43.81 7.3-.01 14.44-2.01 21.84-1.92 13.97.16 27.64.41 41.04 5.97 5.73 2.38 12.85 2.9 19.87 1.01 5.12-1.38 9.24-5.1 14.92-5.1 10.24-.01 10.24-.3 13.18-9.49 2.05 1.44 2.26 4 3.57 5.89.85 1.22 1.59 2.85 3.37 2.47 1.56-.34 1.51-1.98 1.68-3.3.69-5.45 1.16-10.91.64-16.4.01-2.14.09-4.27 0-6.4-.06-1.3-.2-2.73-1.91-3.04-1.27-.23-2.32.27-2.9 1.39-.83 1.59-1.91 2.63-3.84 2.38-2.78-5.85-1.92-12.16-.81-17.92 1.97-10.3 1.82-20.44.98-30.77-.39-4.75-1.58-9.52-.64-14.36 1.93-9.9 2.81-19.92 3.62-29.97 1.33-16.51-2.49-32.74-2.26-49.18.06-4.28-2.55-6.14-6.41-5.68-2.87.34-5.56.07-8.37-.26-5.1-.58-11.02-3.25-15.18-.66-6.91 4.29-12.77.71-19.16.21-6.6-.52-12.69-2.38-18.75-4.74-6.72-2.61-14.18-3.86-20.45-.72-8.05 4.04-15.98 3.73-24.27 3.07-5.38-.43-10.47-.33-15.19 3.23-4.09 3.08-9.03 4.84-13.99 6.26-19.46 5.55-34.24 18.54-49.35 31.01-5.4 4.61-11.77 8.22-15.29 14.77l.03.05c-1.51 1.21-2.94 2.49-3.79 4.28l.04-.04c-3.15 2.4-5.3 5.55-6.98 9.08l.03-.03c-1.38 1.46-2.5 3.07-3.08 5.02l.04-.05c-1.09.76-1.65 1.84-1.96 3.09l.03-.04c-5.56 6.85-10.69 13.92-12.11 22.95l.04-.03c-1.61 2.23-1.9 4.84-2.1 7.45-1.17 14.86-1.7 29.74-.83 44.64.13 2.3.86 4.54.25 6.9-2.85 11.1-1.77 22.43-1.99 33.69-.09 4.45.22 8.91-1.02 13.33-.5 1.79-2.14 4.43.85 5.65 2.87 1.17 5.56.76 7.06-2.49l-.04.04c1.36-.15 2.38-.82 3.06-2.01l-.04.04c1.93-1.03 3.67-2.3 5.01-4.06l-.05.04c.38-.33.76-.67 1.14-1zm251.95 474.62c-1.64 8.92 3.62 24.03 3.74 39.47.03 3.18.87 6.25 1.18 9.34.76 7.46 3.14 14.71 3.46 22.09.37 8.83 2.35 17.4 2.89 26.2.5 8.17 1.84 16.44 4.54 24.43 2.41 7.16 6.14 13.63 9.14 20.47 5.67 12.95 9.28 26.71 15.59 39.4.74 1.48 1.31 3.26 2.49 4.27 7.57 6.47 15.53 12.57 24.67 16.55 8.37 3.65 16.61 7.36 24.64 11.8 6.94 3.84 14.75 7.41 23.2 2.93 2.34-1.24 5.2-1.19 7.19.37 7.31 5.69 15.61 4.47 23.9 4.14 5.79-.23 11.52-1.01 17.36-1.12 12.73-.24 24.89 4.46 37.59 3.48 4.05-.31 7.88.4 11.7 1.9 8.98 3.54 18.02 4.18 27.16.22 16.74-7.25 33.32-5.45 49.73 1.25 1.78.73 3.91 1.6 4.8-.58 1.57-3.79 3.82-7.84 2.33-11.97-1.57-4.34-1.6-8.57-.53-12.74 1.74-6.78.51-13.6.9-20.39.24-4.17-2.33-6.19-6.5-6.6-13.73-1.34-26.78 3.61-40.32 4.33-4.79.25-9.44 1.09-14.26.15-3.69-.72-7.59-2.32-11.22-.24-3.59 2.06-7.06 1.74-10.51.27-6.29-2.67-12.63-2.48-19.06-.87-4.03 1.01-7.85.74-11.61-1.23-2.33-1.22-4.87-2.68-7.57-2.15-9.89 1.93-17.56-2.22-25.25-7.81-9.72-7.07-18.67-15.98-32.39-15.2-3.4.19-6.11-.9-6.61 3.67-.1.87-.58 2.04-1.78 2.15-1.48.14-1.95-1.12-2.38-2.16-.86-2.13-1.12-4.22 1.09-5.81 1.26-.91 1.57-1.83.73-3.37-3.24-5.95-5.58-12.4-11.13-16.91-2.85-2.31-4.79-5.54-6.13-9.01-1.81-4.69-4.5-8.9-7.11-13.15-3.31-5.4-6.48-10.76-7.57-17.21-.51-3.03-1.65-6.4-3.61-8.66-6.48-7.45-8.15-16.55-9.94-25.7-1.21-6.15-1.45-12.8-4.09-18.27-2.57-5.34-3.97-10.41-3.8-16.14.22-8-2.36-15.62-3.68-23.36-1.02-5.98-2.82-11.9-3.16-18.03-.84-15.35-1.98-30.7-2.2-46.07-.32-21.79-4.21-43.35-3.18-65.23.89-18.81.16-37.6-4.4-56.04-.64-2.58-.72-5.39.12-7.93 3.22-9.62 2.96-19.76 3.47-29.58.75-14.62 3.81-29.03 3.45-43.72-.04-1.56.58-3.44 1.54-4.66 4.5-5.74 6.08-12.11 6.4-19.38.21-4.9 1.45-9.6.18-14.66-.87-3.45-1.17-7.64 0-10.88 2.74-7.58.89-15.18 1.35-22.74.23-3.82.16-7.66.33-11.49.09-2.01.25-4.33 2.11-5.37 3.23-1.81 6.45-4.69 10.56-2.7 4.53 2.19 10.88 2.59 10.4 10.13-.15 2.36 1.13 4.4 2.4 6.43 3.47 5.52 4.27 11.29 3.64 18.03-1.09 11.53-4.45 22.75-4.15 34.46.12 4.56 2.93 8.71 1.91 13.23-1.85 8.18-2 16.5-2.4 24.78-.67 13.87-4.55 27.63-2.46 41.54 2.11 14.07-.63 28.02.19 42.15 1.18 20.39 2.28 40.85 2.92 61.3.08 2.61 1.09 5.18 1.59 7.78 2.19 11.23.56 22.77 2.67 34.03.34 1.82-.7 3.89-1.07 5.86-.67 3.63-1.01 7.36 0 10.9 1.4 4.89 1.8 9.82 1.51 14.82-1.03 17.85.56 35.58 3.23 53.15 2.16 14.2 2.81 28.69 7.17 42.52 2.54 8.07 3.78 16.53 7.6 24.24 5.89 11.88 14.3 22.01 22.24 32.46 3.04 4 7.45 6.46 12.11 8.54 5.44 2.44 10.88 5.05 15.9 8.25 13.64 8.71 28.64 12.85 44.59 13.29 6.83.19 13.57.34 20.29 1.68 5.8 1.16 6.81.36 7.81-5.19.28-1.55-.02-3.88 2.17-3.81 2.07.06 2.12 2.24 2.1 3.92-.06 5.25 2.86 7.02 7.65 6.81 6.37-.28 12.65 1.05 18.77 2.27 10.13 2.02 19.96 3.14 29.83-.79.86-.34 1.98-.36 2.89-.16 3.23.71 5.54-.97 7.5-3.01 5.33-5.55 5.92-13.93 1.77-20.45-.78-1.23-1.59-2.74-1.57-4.11.11-7.04-2.09-13.82-2.13-20.83-.03-5.12-1.36-5.94-6.06-3.72-10.21 4.8-20.57 6.22-31.34 1.97-1.22-.48-2.62-.91-3.88-.79-9.74.95-16.43-4.11-21.98-11.17-1.97-2.5-3.55-3.27-6.66-1.74-6.18 3.05-10.49 8.07-15.08 12.88-4.02 4.21-8.78 7.83-14.91 6-8.56-2.55-16.93-5.78-25.29-8.97-14.64-5.58-23.14-17.56-30.16-30.55-3.12-5.78-.56-13.01 3.58-14.47 3.75-1.33 8.94 2.49 11.38 8.5 3.94 9.72 10.93 16.37 20.15 21.15 5.72 2.97 12.1 3.58 17.93 5.94 3.53 1.43 5.89.45 8.41-2.07 8.34-8.32 19.25-13.74 26.46-23.36.47-.63 1.33-.99 2.05-1.41 2.77-1.62 5.64-2.04 8.51-.35 2.86 1.68 3.09 4.42 2.9 7.41-.52 8.06 4.46 14.27 12.52 15.92 11.76 2.41 23.15 1.42 34.14-3.55 9.63-4.36 9.38-1.66 9.12-13.57-.26-11.81-.94-23.61.18-35.42.37-3.96.17-8-.13-11.98-.38-5.01-2.06-5.62-6.36-3-8.13 4.94-16.61 8.33-26.46 5.73-3.19-.84-6.57-1-9.87-1.36-9.96-1.07-19.33-3.79-26.99-10.53-3.66-3.22-6-3.01-9.57.53-6.7 6.65-13.63 13.55-22.85 16.51-7.07 2.27-14.32 6.31-22.14 2.34-6.23-3.17-12.43-6.41-18.55-9.78-4.68-2.57-8.86-5.92-12.92-9.37-9.57-8.14-8.43-20.35-11.28-30.95-.91-3.38 4.02-5.65 7.71-3.89 6.51 3.1 8.11 9.51 9.36 15.59 1.13 5.49 3.56 9.67 8.21 12.44 5.28 3.16 10.62 6.3 16.21 8.84 4.9 2.22 9.9 4.84 15.73 2.22 12.95-5.82 22.37-15.18 28.5-27.86 2.07-4.28 5.06-7.59 9.81-7.06 4.86.55 7.1 4.75 7.69 9.27.95 7.28 5.14 10.86 11.92 12.96 8.53 2.65 17.55 1.17 26.06 3.83 2.26.71 5.36.63 7.77-.91 9.68-6.17 13.91-16.66 20.09-25.59.49-.71.21-1.96.3-2.95.96-10.01-.8-19.9-1.43-29.84-.41-6.47-.92-12.93-1.37-19.39-.19-2.78-1.36-3.87-4.25-2.94-7.43 2.4-14.95 4.54-22.36 7.01-11.78 3.92-22.25 2.18-31.36-6.56-2.52-2.42-5.26-4.6-7.95-6.83-2.29-1.9-5.09-2.47-7.39-.67-8.6 6.74-19.45 8.52-28.82 13.48-10.06 5.32-19.94 7.71-29.55-.88-.24-.21-.57-.39-.89-.44-7.51-1.41-13.04-6.49-19.02-10.59-5.8-3.98-10.96-8.79-13.16-15.83-1.11-3.57-.69-7.12 2.63-9.38 2.94-2 7.71-.61 9.96 3.09 7.4 12.18 21.04 15.48 31.88 22.76.51.35 1.27.4 1.92.47 3.35.37 6.46.05 9.66-1.53 6.39-3.16 12.78-6.33 19.54-8.78 6.06-2.19 10.72-6.47 13.2-12.85 1.67-4.28 5.02-7.61 9.68-7.54 4.76.08 6.33 4.56 7.22 8.45 1.45 6.35 6.4 9.47 10.95 13.06 8.45 6.67 18.37 7.12 27.47 1.03 2.32-1.55 4.74-2.42 7.43-2.55 5.32-.26 8.45-3.34 10.6-7.86 3.1-6.5 1.86-13.25 1.15-19.94-.23-2.15-.64-4.16-.11-6.39 2.35-9.79 1.72-19.75 1.33-29.67-.11-2.78-1.94-2.86-3.84-1.69-8.29 5.1-17.68 7.58-26.64 11.04-11.49 4.44-21.87 2.11-30.53-6.96-2.64-2.77-5.37-5.45-8.13-8.11-4.08-3.93-7.34-3.88-10.94.46-1.65 1.99-3.58 3.5-5.77 4.67-8.37 4.45-17.38 7.28-26.66 8.75-13.53 2.15-27.09 1.64-38.95-6.06-10.68-6.93-17.95-16.69-19.96-29.79-.46-2.97-.2-5.55 2.35-7 2.66-1.51 5.4-.85 7.79 1.28 1.95 1.74 3 3.99 4 6.26 6.7 15.2 18.22 22.3 34.86 20.98 2.32-.18 4.66-.18 6.99-.19 7.24-.03 13.94-2.69 19.73-6.29 5.18-3.22 10.43-7.56 12.52-13.81 1.76-5.24 4.02-9.79 9.87-10.58 4.13-.56 7.26 4 9.4 11.42 3.34 11.57 13.45 16.07 22.87 21.19.66.36 1.7.32 2.46.11 10.18-2.84 21.13-4.57 29.02-12.06 6.61-6.28 12.65-13.26 12.96-23.73.27-9.05 1.98-18.11 3.2-27.13.93-6.82 1.66-13.5 1.06-20.32-.18-2.05.03-4.56-2.37-5.67-2.47-1.14-4.11.73-5.71 2.09-2.02 1.72-3.89 3.62-5.74 5.54-3.47 3.61-6.85 7.78-11.29 9.72-25.4 11.09-46.62 8.84-65.08-12.89-2.87-3.38-5.48-3.52-8.39-.81-2.29 2.15-4.44 4.56-6.18 7.17-3.44 5.17-8.35 7.22-14.23 8.09-11.33 1.69-22.22 1.06-33.49-2.02-9.08-2.48-15.14-6.92-19.21-14.95-.82-1.62-2.12-3-2.98-4.6-3.28-6.08-8.01-11.6-7.2-19.26.31-2.94 1.58-5.21 4.31-6.15 2.98-1.02 5.64.07 7.49 2.58.97 1.31 1.89 2.84 2.24 4.41 1.53 6.7 5.12 12.06 9.61 17.2 8.53 9.77 27.32 12.95 38.42 5.97.83-.52 1.48-1.33 2.21-2 6.52-6.06 12.03-12.87 16.01-20.89 2.26-4.54 6.56-5.51 11.03-5.21 4.11.27 5.15 3.83 5.84 7.13 1.41 6.75 4.82 12.04 9.74 16.95 13.15 13.13 33.66 14.11 47.77 2.01 8.1-6.94 14.92-15.24 23.46-21.69 1.92-1.45 1.79-3.42 1.79-5.41 0-9.82.01-19.65-.02-29.47-.04-15.61.39-31.15 1.7-46.76 1.15-13.72 1.44-27.62-1.06-41.66-1.83-10.27-3.12-20.99-3.26-31.64-.07-5.31.19-10.63-.72-15.94-2.83-16.54-6.87-32.67-12.01-48.72-5.87-18.3-15.04-34.73-24.65-50.98-4.06-6.86-7.73-13.91-11.79-20.75-5.18-8.74-9.15-18.07-17.71-24.87-15.76-12.5-32.24-23.98-48.29-36.06-12.49-9.41-27.3-15.15-40.47-23.59-3.04-1.95-6.57-3.26-10.02-4.42-10.55-3.52-21.09-7.09-31.77-10.15-14.64-4.2-26.5-15.52-42.44-16.38-2.24-.12-4.44-1.21-6.65-1.86-9.59-2.8-19.15-5.54-29.37-3.66-3.42.63-6.36 1.66-6.82 5.37-1.28 10.36-3.85 20.76-2.29 31.18 2.05 13.75 2.93 27.6.55 41.15-2.65 15.04-2.84 29.96-2.91 45.11-.1 21.27-1.96 42.53-2.7 63.8-.76 21.94.22 43.86-1.71 65.86-2.09 23.82 0 47.92-2.35 71.79-1.49 15.2.72 30.59-2.9 45.65-3.84 15.99-2.63 32.44-4.15 48.65-.81 8.64.41 17.53-1.41 25.87-2.04 9.37-1.55 18.45-.77 27.69 1 11.91 3.14 23.82 2.97 35.71-.34 23.19 2.39 46.4-2.04 69.63-1.97 10.35-.87 21.46-1.02 32.22-.35 21.57 4.67 42.75 2.59 70.96zm-34.24-444.59h.81c0-4.66.34-9.34-.09-13.96-.48-5.11-3.82-7.1-8.79-5.86-.96.24-1.86.72-2.77 1.13-9.7 4.34-18.81 5.7-29.44.73-10.27-4.8-20.78-9.04-33.64-7.53-16.96 2-34.33 3.47-51.59 1.35-2.13-.26-4.33-.3-6.47-.11-3.86.33-5.32 2.64-4.08 6.23 2.14 6.14 4.69 12.31 9.07 17.06 7.81 8.45 14.12 18.33 24.17 24.75 5.01 3.2 9.53 7.5 15.33 8.85 4.19.97 8.44 1.62 12.44 3.27 6.22 2.58 12.61 3.95 19.41 3.61 4.81-.24 9.92-.93 14.42.31 13.07 3.6 24.87.57 36.52-5.04 2.81-1.35 4.68-3.14 4.69-6.37.02-9.48.01-18.95.01-28.42z"/><g id="Eye"><ellipse id="Eye_White" cx="421.82" cy="176.32" rx="68.25" ry="66.3" style="fill:#fff"/><path id="Pupil" class="st1" d="M452.94 176.73c-.45 4.59-1.82 10.26-6.86 14.38-2.58 2.1-5.03 4.35-7.65 6.4-9.22 7.19-16.93 7.82-26.5 2.25-7.39-4.3-12.01-14.55-10.77-23.91 1.66-12.58 13.49-25.16 25.97-27.6.64-.13 1.33-.27 1.96-.17 12.76 2.03 23.72 14.52 23.85 28.65zm-24.15 1.06c.1-2.34-.53-4.42-2.91-4.45-2.24-.03-4.05 1.46-4.1 4-.06 2.94 2.39 4.1 4.52 4.24 1.91.12 2.85-1.86 2.49-3.79z"/><path id="Eyeshadow" class="st1" d="M414.27 96.11c7.91-.68 14.97 1.04 21.7-1.95 2.29-1.02 4.43.75 6.65 1.3 13.93 3.48 24.42 11.81 34.15 22.05 7.98 8.4 14.39 17.75 20.75 27.25.73 1.09 1.58 2.34 1.7 3.58 1.13 11.54 3.43 22.98 2.17 34.7-.68 6.32-2.62 12.34-3.6 18.56-.81 5.14-4.05 9.07-6.16 13.55-7.71 16.44-18.86 29.63-35.77 37.28-1.5.68-3.11 1.5-4.17 2.7-10.36 11.78-22.76 9.13-35.23 4.92-7.74-2.62-14.48-7.3-21.62-11.19-7.24-3.95-15.01-7.11-23.48-7.73-.83-.06-1.92.2-2.45-.23-6.64-5.3-15.26-8.72-18.94-16.91-1.96-4.37-4.07-8.69-5.93-13.12-2.84-6.79-4.51-13.72-3.41-21.27.44-3-.16-6.37-1.11-9.31-4.75-14.6-2.55-28.37 3.84-42 8.67-18.51 22.25-31.73 41.54-38.33 9.68-3.31 19.9-5.35 29.37-3.85zm-46.92 75.72c.19 8.95 1.88 18.1 6.98 26.49 3.35 5.51 6.67 11.13 9.23 17.03 5.16 11.89 16.11 15.61 26.9 18.18 8.47 2.02 17.65 1.05 26.51 1.43 1.79.08 3.38-.53 4.48-1.79 3.58-4.09 8.3-6.61 12.81-9.36 7.07-4.31 11.85-10.79 15.62-17.72 7.12-13.11 9.18-27.9 12.29-42.29.13-.6.18-1.37-.07-1.89-2.99-6.07-5.22-12.66-10.85-17.03-15.77-12.23-32.21-22.56-53.21-23.3-14.72-.52-27.81 1.93-36.76 14.77-7.29 10.49-14.69 21.08-13.93 35.48z"/></g><g id="Beak"><path id="Beak_Top" class="st3" d="M278.74 195.9c.01-2.14.09-4.27 0-6.4-.06-1.3-.2-2.73-1.91-3.04-1.27-.23-2.32.27-2.9 1.39-.83 1.59-1.91 2.63-3.84 2.38-2.78-5.85-1.92-12.16-.81-17.92 1.97-10.3 1.82-20.44.98-30.77-.39-4.75-1.58-9.52-.64-14.36 1.93-9.9 2.81-19.92 3.62-29.97 1.33-16.51-2.49-32.74-2.26-49.18.06-4.28-2.55-6.14-6.41-5.68-2.87.34-5.56.07-8.37-.26-5.1-.58-11.02-3.25-15.18-.66-6.91 4.29-12.77.71-19.16.21-6.6-.52-12.69-2.38-18.75-4.74-6.72-2.61-14.18-3.86-20.45-.72-8.05 4.04-15.98 3.73-24.27 3.07-5.38-.43-10.47-.33-15.19 3.23-4.09 3.08-9.03 4.84-13.99 6.26-19.46 5.55-34.24 18.54-49.35 31.01-5.4 4.61-11.77 8.22-15.28 14.78l.02.05c-1.5 1.21-2.93 2.48-3.79 4.27-3.12 2.39-5.27 5.53-6.94 9.04-1.36 1.44-2.47 3.04-3.04 4.97-1.06.75-1.62 1.83-1.93 3.06-5.55 6.84-10.66 13.9-12.08 22.92h.02c-1.59 2.22-1.88 4.82-2.08 7.42-1.17 14.86-1.7 29.74-.83 44.64.13 2.3.86 4.54.25 6.9-2.85 11.1-1.77 22.43-1.99 33.69-.09 4.45.22 8.91-1.02 13.33-.5 1.79-2.14 4.43.85 5.65 2.85 1.16 5.54.77 7.04-2.45 1.34-.16 2.35-.81 3.02-1.99 1.92-1.03 3.66-2.29 4.99-4.05h-.01c.35-.31.7-.61 1.05-.92l.92-1.07c0 .01 0 .01-.01.02 3.48-1.74 7.37-2.82 10-5.98.77-.15 1.68-.02 2.07-.99h-.01c.31-.34.62-.67.93-1.01 1.47.01 2.59-.5 3.04-2.01 2.46-.07 4.07-1.82 5.96-3.01 3.23-.28 6.24-1.18 8.88-3.12l.04-.01c4.96-1.36 10.06-2.01 15.1-2.94 6.65-1.24 13.62.39 20.01-2.7 4.11-1.99 8.59-2.44 13.15-2.28 10.14.35 20.28.82 30.43.81 7.3-.01 14.44-2.01 21.84-1.92 13.97.16 27.64.41 41.04 5.97 5.73 2.38 12.85 2.9 19.87 1.01 5.12-1.38 9.24-5.1 14.92-5.1 10.24-.01 10.24-.3 13.19-9.48 2.05 1.43 2.25 3.99 3.56 5.88.85 1.22 1.59 2.85 3.37 2.47 1.56-.34 1.51-1.98 1.68-3.3.7-5.45 1.18-10.91.65-16.4z"/><path id="Beak_Bottom" class="st3" d="M265.88 271.06c0 9.47.02 18.94-.01 28.41-.01 3.23-1.88 5.02-4.69 6.37-11.65 5.62-23.45 8.64-36.52 5.04-4.5-1.24-9.61-.55-14.42-.31-6.8.34-13.18-1.03-19.41-3.61-4-1.66-8.25-2.3-12.44-3.27-5.8-1.35-10.32-5.65-15.33-8.85-10.06-6.42-16.36-16.3-24.17-24.75-4.38-4.75-6.94-10.91-9.07-17.06-1.25-3.59.22-5.9 4.08-6.23 2.14-.18 4.34-.15 6.47.11 17.26 2.12 34.64.65 51.59-1.35 12.86-1.51 23.37 2.73 33.64 7.53 10.63 4.97 19.73 3.61 29.44-.73.91-.41 1.81-.89 2.77-1.13 4.97-1.24 8.31.76 8.79 5.86.43 4.62.09 9.3.09 13.96-.27.02-.54.01-.81.01z"/></g></svg>