<svg version="1.1" id="Layer_1" xmlns="http://www.w3.org/2000/svg" x="0" y="0" viewBox="0 0 512 512" style="enable-background:new 0 0 512 512" xml:space="preserve"><style>.st2{fill:#4d272b}.st3{fill:#8acc9b}.st4{fill:#61be70}.st5{fill:#fff}.st6{fill:#ab82a7}.st7{fill:#7e5a7c}.st8,.st9{fill:none;stroke:#4d272b;stroke-width:16;stroke-miterlimit:10}.st9{stroke:#19bdc5;stroke-width:10}.st11{fill:#f3a240}.st16{fill:#f3e9b6}.st17{fill:#e08439}.st18{fill:#f8cd4c}.st19{fill:#f4eab8}.st20{fill:#e9b048}.st21{fill:#4d282c}.st22{fill:none;stroke:#1bbdc5;stroke-width:8;stroke-miterlimit:10}</style><circle cx="256" cy="256" r="256" style="fill:#1bbdc5" id="Layer_4"/><g id="Logo_00000065769096085050545930000009779596061507104175_"><g id="Sticks_00000087370569899420242190000002593105627320055208_"><path class="st2" d="M52.93 312.34v-14.61c1.12-.18 1.18-1.21 1.6-1.96 2.72-4.79 6.83-7.47 12.29-8.14 4.4-.54 8.64.1 12.86 1.4 28.34 8.71 56.72 17.33 85.04 26.11 5.44 1.69 10.58 1.37 15.73-.67 3.7-1.47 7.06-3.57 10.32-5.85 8.2-5.73 13.89-13.94 20.87-20.88 2.03-2.02 1.78-3.27.13-5.33-12.47-15.61-24.77-31.36-37.26-46.96-2.74-3.42-3.15-6.54-.42-9.99 4.92-1.98 6.66-1.54 9.92 2.53 1.2 1.5 2.37 3.01 3.56 4.51 10.76 13.64 21.56 27.24 32.22 40.95 1.74 2.24 2.75 2.26 4.5.12 3.06-3.75 6.35-7.31 9.55-10.95 3.9-4.22 7.74-8.5 11.74-12.61 1.59-1.64 1.57-2.73.02-4.43-21.2-23.4-42.34-46.86-63.48-70.31-1.06-1.17-2.09-2.11-3.87-2.05-4.59.16-9.19.16-13.79.23H141c1.43 1.84 2.42 3.12 3.42 4.39 6.88 8.72 13.8 17.42 20.64 26.18 2.76 3.54 2.56 6-.47 9.49-3.88 2.11-6.74.8-9.29-2.47-9.47-12.11-19.19-24.02-28.51-36.23-24.43-31.99-51.05-62.28-73.87-95.51V65.45c.27-.25.67-.45.78-.76 5.37-15.88 26.78-20.19 39.68-5.77 53.05 59.28 106.52 118.2 159.78 177.3 1.83 2.03 2.66 2.56 4.8.17 31.84-35.46 63.8-70.82 95.73-106.2 21.8-24.15 43.57-48.34 65.44-72.44 12.15-13.4 32.72-9.14 38.62 7.88.27.78.16 1.86 1.31 2.13v8.46c-2.41 4.01-3.53 8.63-6.53 12.42-34.33 43.38-68.58 86.82-102.81 130.28-2.6 3.31-5.5 4.4-9.34 2.46-3.16-4.05-3.15-6.01.14-10.18 8.88-11.28 17.78-22.54 26.67-33.81.91-1.15 1.78-2.33 3.04-3.97h-37.89c-1.95-.35-2.64 1.31-3.61 2.38-40.1 44.4-80.16 88.84-120.28 133.21-6.26 6.92-13.79 12.24-22.29 16.07-8.25 3.71-16.64 4.43-25.4 1.46-9.7-3.29-19.55-6.12-29.34-9.13-3.23-.99-6.49-1.91-10.66-3.13 5.29 13.75 10.24 26.6 15.18 39.44 1.85 5.29 3.72 10.58 5.55 15.88.47 1.37 1.45 1.94 2.77 2.33 10.05 2.99 19.98 6.42 30.28 8.52 13.79 2.8 26.49 1.36 37.13-8.94 5.25-5.08 10.42-10.23 14.95-15.96 31.26-39.58 62.49-79.19 93.74-118.78 3.36-4.25 5.04-4.68 9.85-2.73 2.88 4.31 2.87 5.92-.3 9.95-10.06 12.78-20.1 25.58-30.28 38.26-1.72 2.15-2.09 3.49.07 5.61 3.65 3.58 6.99 7.49 10.38 11.34 5.13 5.84 11.11 10.58 18.06 14.07 6.2 3.11 12.46 4 19.25 1.59 7.33-2.6 14.87-4.61 22.31-6.88 21.53-6.55 43.02-13.22 64.59-19.61 9.53-2.82 20.83-.24 23.91 11.09.07.25.56.39.86.58v8.46c-2.34 1.18-1.29 3.64-2 5.44-4.91 12.45-9.52 25.02-14.52 37.44-3.07 7.62-8.54 12.88-16.71 15.09-4.43 1.2-8.79 2.67-13.19 3.98-23.1 6.91-45.94 14.66-69.27 20.8-3.48.92-7.31.44-10.46 2.62h-4.62c-2.82-1.17-5.64-1.21-8.46 0h-4.62c.02-.82-.55-1.09-1.2-1.22-10.5-2.1-18.44-8.43-25.92-15.59-11.27-10.77-20.21-23.48-29.76-35.67-2.47-3.16-3.41-2.48-5.52.17-9.64 12.12-18.56 24.84-29.81 35.63-7.89 7.56-16.37 13.93-27.48 15.83-.54.09-.97.25-1.08.85h-3.08c-3.08-1.13-6.15-1.23-9.23 0h-5.38c-.15-1.51-1.42-1.19-2.33-1.39-3.36-.74-6.78-1.26-10.1-2.18-25.6-7.07-50.74-15.7-76.29-22.92-10.11-2.85-16.79-8.65-20.44-18.34-4.32-11.46-8.75-22.88-13.15-34.31-.32-.87-.19-2.1-1.51-2.39zm103.98-151.29c2.47.42 4.93.42 7.4 0 1.33.27 2.66.46 3.97-.11.19.31.46.29.47-.05.01-.25-.29-.51-.45-.77-4.59-5.16-9.18-10.31-13.75-15.48-.7-.79-1.41-1.41-2.58-1.41-11.01.04-22.02.03-33.03.07-.98 0-1.49.43-.53 1.32 3.91 5.04 7.83 10.08 11.73 15.13.75.98 1.59 1.53 2.89 1.5 6.64-.14 13.27-.21 19.91-.3.55.02 1.09.05 1.64.07l.28.2.28-.19c.59.01 1.18.02 1.77.02zm186.05-.15c1.31.66 2.65.4 3.99.15 10.44.07 20.89.12 31.33.22 1.31.01 2.14-.58 2.88-1.53 3.89-5.04 7.79-10.06 11.69-15.1 1.31-2.06-.65-1.3-1.25-1.31-10.51-.06-21.02-.05-31.53-.11-1.39-.01-2.43.36-3.36 1.42-4.56 5.19-9.16 10.34-13.75 15.51-.15.25-.43.5-.41.74.02.33.27.32.41.01zm92.92-98.84c-3.81-.06-6.41 2.08-8.79 4.72-16.27 18.06-32.57 36.1-48.85 54.14-2.57 2.85-5.17 5.67-7.68 8.57-.4.46-2.28 1.57.28 1.71 9.71.05 19.43.02 29.14.22 2.59.05 4.19-.83 5.75-2.83 12.05-15.41 24.22-30.73 36.34-46.1 1.74-2.21 3.36-4.47 4.13-7.28 2-7.3-2.55-13.16-10.32-13.15zm-359.09.26c-.73-.16-1.48-.49-2.19-.44-4.11.33-7.46 2.1-9.18 5.96-2.07 4.61-.6 8.88 2.28 12.56 12.85 16.44 25.82 32.79 38.72 49.18.83 1.05 1.66 1.83 3.15 1.78 6.77-.21 13.55.34 20.32-.31 3.85.58 7.68.26 11.92.26-.55-1.02-.68-1.4-.92-1.67-19.26-21.36-38.52-42.73-57.82-64.06-1.65-1.8-3.64-3.22-6.28-3.26zM436.11 334.7c3.78-8.63 7.32-17.37 9.96-26.41 2.16-7.38-.7-10.12-8.27-8.52-.5.11-1.01.18-1.5.33-9.75 3-19.49 6.03-29.26 8.97-1.32.4-2.28.82-2.79 2.22-4.29 11.85-8.63 23.68-12.95 35.52-2.48 6.36-4.95 12.73-7.42 19.08 1.5.7 2.4.08 3.34-.22 8.55-2.62 17.07-5.31 25.66-7.81 16.88-4.92 15.8-2.86 23.15-22.42.09-.21.06-.48.08-.74zm-316.17 12.1c-4.33-11.85-8.67-23.7-12.99-35.55-.37-1.02-.94-1.67-2.08-2.01-10.52-3.12-20.96-6.55-31.56-9.4-7.43-2-10.37 1.13-8.15 8.54 2.93 9.77 6.76 19.23 10.82 28.59.9 2.52 1.87 5.02 2.7 7.56 2.04 6.3 6.39 9.8 12.73 11.49 8.01 2.12 15.9 4.69 23.85 7.06 3.86 1.15 7.72 2.29 12.44 3.69-2.8-7.23-5.28-13.6-7.76-19.97zm155.22-33.03c-1.55 1.86-3.13 3.7-4.63 5.6-2.29 2.91-6.04 5.71-6.38 8.85-.38 3.46 3.89 6.22 6.23 9.18 9.13 11.52 17.74 23.48 28.6 33.56 7.99 7.42 17.06 11.42 28.16 10.65 14.1-.98 27.15-6.01 40.51-9.92 1.28-.37 1.79-1.3 2.2-2.43 2.01-5.64 4.05-11.28 6.08-16.92 4.74-12.43 9.47-24.86 14.47-37.97-1.79.45-2.53.6-3.24.82-12.97 3.97-25.94 7.93-38.9 11.94-4.62 1.43-9.27 1.74-14.02.77-12.56-2.56-22.4-9.75-31.17-18.6-3.96-3.99-7.6-8.32-11.3-12.57-1.31-1.51-2.16-1.74-3.49.03-4.3 5.73-8.74 11.35-13.12 17.01z"/><path class="st3" d="M135.93 353.72c-4.94-12.84-9.89-25.69-15.18-39.44 4.17 1.22 7.43 2.13 10.66 3.13 9.79 3.01 19.64 5.85 29.34 9.13 8.76 2.97 17.16 2.25 25.4-1.46 8.51-3.83 16.04-9.15 22.29-16.07 40.12-44.38 80.18-88.81 120.28-133.21.97-1.07 1.66-2.73 3.61-2.38 4.82 1.08 9.8-.15 15.14.78-3.74 5.59-7.9 10.24-11.75 15.12-19.44 24.71-38.65 49.62-58.33 74.14-21.59 26.91-41.94 54.84-64.79 80.73-5.49 6.22-11.74 11.74-19.54 15.18-10.81 4.77-21.8 3.4-32.73.9-8.19-1.89-16.26-4.35-24.4-6.55z"/><path class="st4" d="M135.93 353.72c8.14 2.2 16.21 4.66 24.42 6.54 10.93 2.5 21.92 3.87 32.73-.9 7.8-3.44 14.06-8.97 19.54-15.18 22.85-25.89 43.19-53.81 64.79-80.73 19.68-24.52 38.88-49.43 58.33-74.14 3.85-4.89 8.01-9.53 11.75-15.12-5.34-.93-10.32.3-15.14-.78h37.89c-1.25 1.64-2.13 2.82-3.04 3.97l-26.67 33.81c-3.29 4.18-3.3 6.13-.14 10.18-3.39 4.22-6.79 8.44-10.18 12.66-4.81-1.95-6.5-1.52-9.85 2.73-31.25 39.59-62.48 79.19-93.74 118.78-4.53 5.74-9.71 10.88-14.95 15.96-10.64 10.31-23.34 11.75-37.13 8.94-10.31-2.1-20.23-5.53-30.28-8.52-1.32-.39-2.3-.96-2.77-2.33-1.84-5.3-3.71-10.58-5.56-15.87z"/><path class="st3" d="M275.16 313.77c4.39-5.66 8.83-11.28 13.12-17 1.33-1.77 2.18-1.54 3.49-.03 3.69 4.25 7.33 8.58 11.3 12.57 8.78 8.84 18.61 16.03 31.17 18.6 4.75.97 9.4.66 14.02-.77 12.96-4.01 25.93-7.97 38.9-11.94.72-.22 1.45-.37 3.24-.82-4.99 13.11-9.73 25.54-14.47 37.97-11.76 3.31-23.33 7.27-35.58 8.75-9.61 1.16-18.59-.07-26.76-5.31-11.92-7.64-20.62-18.52-29.11-29.57-3.14-4.11-7.14-7.6-9.32-12.45z"/><path class="st4" d="M275.16 313.77c2.18 4.85 6.18 8.33 9.34 12.45 8.48 11.05 17.19 21.93 29.11 29.57 8.17 5.24 17.15 6.47 26.76 5.31 12.24-1.48 23.82-5.44 35.58-8.75-2.03 5.64-4.07 11.28-6.08 16.92-.4 1.13-.92 2.06-2.2 2.43-13.35 3.91-26.41 8.94-40.51 9.92-11.1.77-20.17-3.24-28.16-10.65-10.85-10.08-19.47-22.03-28.6-33.56-2.35-2.96-6.61-5.72-6.23-9.18.34-3.15 4.08-5.94 6.38-8.85 1.48-1.91 3.06-3.75 4.61-5.61zM174.1 225.46c-3.16-3.99-6.33-7.97-9.49-11.96 3.03-3.49 3.23-5.96.47-9.49-6.84-8.76-13.75-17.45-20.64-26.18-1-1.27-1.99-2.55-3.42-4.39h23.46c2.78 5.37 7.12 9.57 10.79 14.27 11.05 14.15 22.36 28.09 33.32 42.31 8.4 10.89 17.37 21.33 25.27 32.6-3.2 3.64-6.49 7.2-9.55 10.95-1.75 2.15-2.76 2.13-4.5-.12-10.66-13.71-21.47-27.31-32.22-40.95-1.19-1.5-2.36-3.02-3.56-4.51-3.27-4.07-5.02-4.51-9.93-2.53z"/><path class="st3" d="M233.85 262.61c-7.9-11.27-16.88-21.71-25.27-32.6-10.96-14.22-22.27-28.16-33.32-42.31-3.67-4.7-8-8.9-10.79-14.27 4.6-.07 9.2-.07 13.79-.23 1.78-.06 2.81.88 3.87 2.05 21.14 23.45 42.28 46.91 63.48 70.31 1.54 1.7 1.57 2.79-.02 4.43-4 4.13-7.84 8.41-11.74 12.62z"/><path class="st4" d="M129.88 131.06c-6.77.65-13.55.1-20.32.31-1.49.05-2.33-.73-3.15-1.78C93.5 113.2 80.53 96.85 67.68 80.41c-2.88-3.69-4.34-7.95-2.28-12.56 1.73-3.86 5.07-5.62 9.18-5.96.72-.06 1.46.28 2.19.44 2.43 4.64 6.13 8.34 9.31 12.42 10 12.86 20.3 25.49 30.21 38.41 4.57 5.94 9.83 11.36 13.59 17.9zM435.88 62.06c7.78-.01 12.32 5.85 10.32 13.16-.77 2.81-2.38 5.07-4.13 7.28-12.12 15.36-24.29 30.68-36.34 46.1-1.57 2-3.16 2.89-5.75 2.83-9.71-.2-19.43-.17-29.15-.22 2.25-.75 4.58-.42 6.84-.29 3.11.17 5.1-.89 7.07-3.44 10.94-14.13 22.21-28.01 33.17-42.13 6.01-7.74 12.53-15.1 17.97-23.29z"/><path class="st5" d="M437.81 299.78c-.5.11-1.01.18-1.5.33-9.75 3-19.49 6.03-29.26 8.97-1.32.4-2.28.82-2.79 2.22-4.29 11.85-8.63 23.68-12.95 35.52-2.48 6.36-4.95 12.73-7.42 19.08 1.5.7 2.4.08 3.34-.22 8.55-2.62 17.07-5.31 25.66-7.81 16.88-4.92 15.8-2.86 23.15-22.42.09-.23.06-.5.08-.76 3.78-8.63 7.32-17.37 9.96-26.41 2.15-7.37-.7-10.11-8.27-8.5zM119.94 346.8c-4.33-11.85-8.67-23.7-12.99-35.55-.37-1.02-.94-1.67-2.08-2.01-10.52-3.12-20.96-6.55-31.56-9.4-7.43-2-10.37 1.13-8.15 8.54 2.93 9.77 6.76 19.23 10.82 28.58.9 2.52 1.87 5.02 2.7 7.56 2.04 6.3 6.39 9.8 12.73 11.49 8.01 2.12 15.9 4.69 23.85 7.06 3.86 1.15 7.72 2.29 12.44 3.69-2.8-7.22-5.28-13.59-7.76-19.96z"/><path class="st3" d="M435.88 62.06c-5.44 8.19-11.96 15.55-17.97 23.29-10.96 14.12-22.23 27.99-33.17 42.13-1.97 2.54-3.95 3.61-7.07 3.44-2.26-.13-4.59-.46-6.84.29-2.56-.14-.68-1.25-.28-1.71 2.52-2.9 5.11-5.72 7.68-8.57 16.29-18.04 32.58-36.08 48.85-54.14 2.39-2.65 4.99-4.79 8.8-4.73zM129.88 131.06c-3.76-6.54-9.02-11.96-13.58-17.91-9.91-12.92-20.21-25.55-30.21-38.41-3.17-4.08-6.88-7.78-9.31-12.42 2.64.03 4.63 1.46 6.28 3.28 19.3 21.33 38.56 42.69 57.82 64.06.24.27.36.65.92 1.67-4.24-.01-8.06.31-11.92-.27z"/><path class="st5" d="M391.6 143.34c-10.51-.06-21.02-.05-31.53-.11-1.39-.01-2.43.36-3.36 1.42-4.56 5.19-9.16 10.34-13.75 15.51-.15.25-.43.5-.41.74.03.32.27.32.42 0 1.31.66 2.65.4 3.99.15 10.44.07 20.89.12 31.33.22 1.31.01 2.14-.58 2.88-1.53 3.89-5.04 7.79-10.06 11.69-15.1 1.3-2.06-.66-1.3-1.26-1.3zM168.29 160.12c-4.59-5.16-9.18-10.31-13.75-15.48-.7-.79-1.41-1.41-2.58-1.41-11.01.04-22.02.03-33.03.07-.98 0-1.49.43-.53 1.32 3.91 5.04 7.83 10.08 11.73 15.13.75.98 1.59 1.53 2.89 1.5 6.64-.14 13.27-.21 19.91-.3.55.02 1.09.05 1.64.07l.28.2.28-.19h1.77c2.47.42 4.93.42 7.4 0 1.33.27 2.66.46 3.97-.11.19.31.46.29.47-.05.01-.23-.29-.49-.45-.75z"/></g><g id="Puck_00000034771974082076122460000009736096489414423715_"><path class="st2" d="M267.38 48.52c4.28 2.09 9.1 1.71 13.58 2.98 8.05 2.29 15.83 5.03 22.25 10.67 4.99 4.38 7.62 9.68 7.41 16.52-.27 9.09-.37 18.2.02 27.28.37 8.65-3.56 14.68-10.21 19.41-7.78 5.53-16.68 8.29-25.96 9.72-17.82 2.75-35.44 2.19-52.54-4.26-4.21-1.59-8.14-3.71-11.69-6.49-5.89-4.63-9.12-10.43-8.88-18.19.28-8.96.29-17.94 0-26.9-.28-8.43 3.49-14.47 10.05-19.13 8.33-5.92 17.89-8.53 27.8-10.19 1.25-.21 2.91.39 3.56-1.41h6.15c4.62 1.24 9.23 1.2 13.85 0 1.53-.01 3.07-.01 4.61-.01zm-2.36 55.6c-12.45.85-24.75-.02-36.81-3.38-5.01-1.4-9.73-3.53-14.69-6.18 0 3.56.31 6.53-.06 9.41-.85 6.46 2.19 10.46 7.62 13.18 13.95 6.98 28.74 8.49 44.03 6.84 10.1-.59 19.71-2.85 28.31-8.43 2.49-1.62 4.82-3.53 4.89-6.88.08-3.71 0-7.41.05-11.12.03-1.93-.48-2.61-2.45-1.57-9.67 5.07-20.15 7.13-30.89 8.13zm16.19-15.64c5.58-1.13 10.63-3.4 14.75-7.37 3.3-3.17 3.29-6.05.03-9.21-3.72-3.6-8.21-5.9-13.28-7.06-1.31-.49-2.59-1.12-3.94-1.45-15.18-3.66-30.39-3.71-45.55.02-5.48 1.35-10.76 3.34-15.34 6.79-5.72 4.31-5.72 8.27-.03 12.52 2.47 1.85 5.2 3.22 8.06 4.37 9.15 3.67 18.75 5.04 28.51 5.11 9.09.08 18.16-.36 26.79-3.72z"/><path class="st6" d="M281.21 88.48c-8.63 3.36-17.7 3.8-26.78 3.73-9.76-.07-19.35-1.45-28.51-5.11-2.86-1.15-5.59-2.52-8.06-4.37-5.68-4.25-5.69-8.22.03-12.52 4.58-3.45 9.86-5.44 15.34-6.79 15.16-3.73 30.37-3.68 45.55-.02 1.35.33 2.63.96 3.94 1.45.12.62.08 1.34.4 1.83 4.32 6.75 3.64 13.16-1.21 19.31-.6.75-.72 1.59-.7 2.49zM265.1 123.99c-15.29 1.65-30.09.13-44.03-6.84-5.43-2.71-8.47-6.72-7.62-13.18.38-2.88.06-5.85.06-9.41 4.96 2.66 9.69 4.79 14.69 6.18 12.07 3.37 24.36 4.23 36.81 3.38l.09 19.87z"/><path class="st7" d="M265.1 123.99c-.03-6.62-.05-13.24-.08-19.87 10.75-1.01 21.22-3.06 30.89-8.14 1.96-1.03 2.47-.36 2.45 1.57-.05 3.71.03 7.42-.05 11.12-.07 3.36-2.4 5.26-4.89 6.88-8.61 5.59-18.23 7.85-28.32 8.44zM281.21 88.48c-.02-.9.1-1.74.7-2.5 4.85-6.15 5.53-12.56 1.21-19.31-.32-.49-.27-1.21-.4-1.83 5.06 1.16 9.55 3.46 13.28 7.06 3.26 3.16 3.26 6.05-.03 9.21-4.13 3.97-9.18 6.23-14.76 7.37z"/></g><g id="Mug_Shadow_00000093879810112209059380000000639771863469709502_"><path class="st8" d="M443.71 169.89c-1.91-6.48-3.28-13.16-6.07-19.34-3.72-8.25-9.08-14.84-18.84-16.1-4.32-.56-8.32.91-12.34 2.17-3.04.95-6.18 1.68-9.1 2.93-2.59 1.1-3.3.22-3.86-2.18-.75-3.22-1.89-6.35-2.87-9.52-.61-1.98-1.26-4.01-3.52-4.66-1.42-.41-1.16-1.35-1.22-2.38-.77-13.35-10.53-21.49-24.01-20.05-1.15.12-2.14.25-3.06-.9-10.02-12.55-23.32-13.5-37.57-10.19-8.86 2.06-16.31 6.76-21.56 14.3-1.77 2.55-3.82 3.4-6.61 3.6-7.75.55-14.21 3.85-19.62 9.34-4.02 4.09-6.14 9.03-6.68 14.69-.09.99.11 2-1.07 2.63-3.7 1.97-6.32 5.07-8.59 8.74-2.26-3.77-5.01-6.74-8.82-8.59-1.01-.49-1.5-1.16-1.54-2.35-.46-13.75-13.72-23.08-23.93-24.13-4.43-.45-7.54-1.96-10.51-5.55-11.9-14.44-38.96-18.57-52.45-6.82-1.53 1.33-12.63 5.93-14.77 6.25-10.66 1.62-17.89 9.85-17.97 20.52-.01.77.35 1.77-.44 2.08-4.95 1.99-4.89 6.81-6.16 10.81-2.11 6.62-2 6.56-8.65 4.54-5.7-1.74-11.21-4.3-17.47-3.69-10.11.99-15.95 7.48-19.14 16.07-5.57 15.06-10.28 30.44-15.35 45.69-.19.58-.07 1.31-.87 1.53v12.31c1.25.61 1.02 1.97 1.38 2.97 2.24 6.18 6.41 10.35 12.66 12.39 4.24 1.39 8.48 2.81 12.79 3.98 2.58.7 3.78 1.69 2.31 4.39-.48.89-.78 1.89-1.06 2.87-1.26 4.46-3.2 7.73-7.94 10.11-8.4 4.22-12.1 12-10.85 21.44 1.35 10.23 7.87 16.3 17.34 19.41 21.45 7.03 42.94 13.95 64.42 20.91 14.68 4.76 29.37 9.5 44.04 14.28.66.21 1.61.09 1.83 1.09h6.15c2.64-1.39 5.66-1.71 8.3-3.24 11.02-6.39 14.59-20.59 7.55-31.19-1.3-1.96-1.34-3.51-.65-5.65 12.02-37.39 23.96-74.8 35.92-112.2.86-2.68 1.91-5.27.78-8.18-.55-1.43.83-2.22 1.63-3.2 1.22 1.04 2.32 1.84 1.4 3.84-.97 2.11.19 4.26.86 6.31 12.32 37.82 24.66 75.64 36.97 113.47.53 1.63 1.11 3.04-.13 4.96-8.76 13.48-3.22 28.55 12.12 33.67 1.24.41 2.8.17 3.72 1.44h5.38c8.89-3.7 18.19-6.21 27.33-9.2 27.75-9.09 55.56-18.04 83.32-27.09 12.89-4.2 19.38-14.48 17-26.99-1.31-6.89-5.47-11.85-11.79-14.59-3.12-1.35-5.04-3.1-5.73-6.34-.65-3.08-3.72-6.46-2.3-8.83 1.2-1.99 5.4-2.27 8.32-3.13 6.85-2.01 13.41-4.46 17.35-10.99 1.28-2.13 2.29-4.44 3.42-6.66v-10c-3.03-10.63-6.05-21.23-9.18-31.8zm-329.94-14.42c-6.6 20.5-13.16 41.01-19.63 61.56-.64 2.05-1.5 2.16-3.24 1.54-3.85-1.35-7.75-2.52-11.63-3.8-5.18-1.7-6.39-3.44-6.31-8.99-.14-3.26.93-6.3 1.86-9.34 3.95-12.92 8-25.8 11.96-38.72.89-2.9 2.52-5.27 4.6-7.4 1.85-1.9 4.01-2.67 6.58-1.94 4.9 1.41 9.76 2.91 14.66 4.31 1.66.48 1.61 1.32 1.15 2.78zm319.2 59.01c-3.59 1.33-7.22 2.55-10.78 3.94-1.88.73-2.76.57-3.46-1.67-6.42-20.58-12.97-41.11-19.53-61.64-.57-1.78-.24-2.75 1.68-3.3 3.92-1.12 7.79-2.45 11.69-3.63 6.29-1.9 10.13-.24 13.05 7.7 5.02 13.63 9.02 27.63 13.42 41.49.7 2.21.91 4.51.84 6.49.13 6.71-1.03 8.45-6.91 10.62z"/><path class="st8" d="M248.3 86.66c0 1.79-.07 3.58.67 5.29 1.27 2.94 3.64 4.39 6.68 4.17 3-.22 5.38-1.7 5.89-5.05.21-1.38.42-2.79.43-4.18.03-15.75-.03-31.51.05-47.26.02-4.24-1.05-7.68-5.24-9.51h-3.85c-3.87 2.28-4.73 5.76-4.69 10.05.16 15.5.06 31 .06 46.49zM222.32 91.56c1.38 2.59 2.73 5.2 4.3 7.67 1.84 2.88 4.69 3.44 7.73 2.4 2.82-.97 4.2-3.18 4.09-6.49.38-2.17-1.46-3.72-2.42-5.6-8.19-15.87-16.43-31.71-24.66-47.57-1.2-2.31-2.49-4.55-5.36-5.02-2.89-.47-5.29.4-7.06 2.83-1.81 2.48-1.58 4.9-.18 7.52 7.88 14.73 15.7 29.51 23.56 44.26zM278.52 101.78c2.48.17 4.11-1.62 5.37-4.04 8.76-16.86 17.55-33.72 26.3-50.58.77-1.48 1.43-3.06 1.06-4.78-.61-2.82-2-4.93-5.12-5.48-3.17-.56-5.53.53-7 3.36-8.83 16.97-17.65 33.95-26.45 50.94-.4.78-.72 1.65-.88 2.51-.73 3.97 2.37 7.96 6.72 8.07z"/></g><g id="Mug_Shadow_00000078046293659411757480000000348203620436244907_"><path class="st9" d="M443.71 169.89c-1.91-6.48-3.28-13.16-6.07-19.34-3.72-8.25-9.08-14.84-18.84-16.1-4.32-.56-8.32.91-12.34 2.17-3.04.95-6.18 1.68-9.1 2.93-2.59 1.1-3.3.22-3.86-2.18-.75-3.22-1.89-6.35-2.87-9.52-.61-1.98-1.26-4.01-3.52-4.66-1.42-.41-1.16-1.35-1.22-2.38-.77-13.35-10.53-21.49-24.01-20.05-1.15.12-2.14.25-3.06-.9-10.02-12.55-23.32-13.5-37.57-10.19-8.86 2.06-16.31 6.76-21.56 14.3-1.77 2.55-3.82 3.4-6.61 3.6-7.75.55-14.21 3.85-19.62 9.34-4.02 4.09-6.14 9.03-6.68 14.69-.09.99.11 2-1.07 2.63-3.7 1.97-6.32 5.07-8.59 8.74-2.26-3.77-5.01-6.74-8.82-8.59-1.01-.49-1.5-1.16-1.54-2.35-.46-13.75-13.72-23.08-23.93-24.13-4.43-.45-7.54-1.96-10.51-5.55-11.9-14.44-38.96-18.57-52.45-6.82-1.53 1.33-12.63 5.93-14.77 6.25-10.66 1.62-17.89 9.85-17.97 20.52-.01.77.35 1.77-.44 2.08-4.95 1.99-4.89 6.81-6.16 10.81-2.11 6.62-2 6.56-8.65 4.54-5.7-1.74-11.21-4.3-17.47-3.69-10.11.99-15.95 7.48-19.14 16.07-5.57 15.06-10.28 30.44-15.35 45.69-.19.58-.07 1.31-.87 1.53v12.31c1.25.61 1.02 1.97 1.38 2.97 2.24 6.18 6.41 10.35 12.66 12.39 4.24 1.39 8.48 2.81 12.79 3.98 2.58.7 3.78 1.69 2.31 4.39-.48.89-.78 1.89-1.06 2.87-1.26 4.46-3.2 7.73-7.94 10.11-8.4 4.22-12.1 12-10.85 21.44 1.35 10.23 7.87 16.3 17.34 19.41 21.45 7.03 42.94 13.95 64.42 20.91 14.68 4.76 29.37 9.5 44.04 14.28.66.21 1.61.09 1.83 1.09h6.15c2.64-1.39 5.66-1.71 8.3-3.24 11.02-6.39 14.59-20.59 7.55-31.19-1.3-1.96-1.34-3.51-.65-5.65 12.02-37.39 23.96-74.8 35.92-112.2.86-2.68 1.91-5.27.78-8.18-.55-1.43.83-2.22 1.63-3.2 1.22 1.04 2.32 1.84 1.4 3.84-.97 2.11.19 4.26.86 6.31 12.32 37.82 24.66 75.64 36.97 113.47.53 1.63 1.11 3.04-.13 4.96-8.76 13.48-3.22 28.55 12.12 33.67 1.24.41 2.8.17 3.72 1.44h5.38c8.89-3.7 18.19-6.21 27.33-9.2 27.75-9.09 55.56-18.04 83.32-27.09 12.89-4.2 19.38-14.48 17-26.99-1.31-6.89-5.47-11.85-11.79-14.59-3.12-1.35-5.04-3.1-5.73-6.34-.65-3.08-3.72-6.46-2.3-8.83 1.2-1.99 5.4-2.27 8.32-3.13 6.85-2.01 13.41-4.46 17.35-10.99 1.28-2.13 2.29-4.44 3.42-6.66v-10c-3.03-10.63-6.05-21.23-9.18-31.8zm-329.94-14.42c-6.6 20.5-13.16 41.01-19.63 61.56-.64 2.05-1.5 2.16-3.24 1.54-3.85-1.35-7.75-2.52-11.63-3.8-5.18-1.7-6.39-3.44-6.31-8.99-.14-3.26.93-6.3 1.86-9.34 3.95-12.92 8-25.8 11.96-38.72.89-2.9 2.52-5.27 4.6-7.4 1.85-1.9 4.01-2.67 6.58-1.94 4.9 1.41 9.76 2.91 14.66 4.31 1.66.48 1.61 1.32 1.15 2.78zm319.2 59.01c-3.59 1.33-7.22 2.55-10.78 3.94-1.88.73-2.76.57-3.46-1.67-6.42-20.58-12.97-41.11-19.53-61.64-.57-1.78-.24-2.75 1.68-3.3 3.92-1.12 7.79-2.45 11.69-3.63 6.29-1.9 10.13-.24 13.05 7.7 5.02 13.63 9.02 27.63 13.42 41.49.7 2.21.91 4.51.84 6.49.13 6.71-1.03 8.45-6.91 10.62z"/><path class="st9" d="M248.3 86.66c0 1.79-.07 3.58.67 5.29 1.27 2.94 3.64 4.39 6.68 4.17 3-.22 5.38-1.7 5.89-5.05.21-1.38.42-2.79.43-4.18.03-15.75-.03-31.51.05-47.26.02-4.24-1.05-7.68-5.24-9.51h-3.85c-3.87 2.28-4.73 5.76-4.69 10.05.16 15.5.06 31 .06 46.49zM222.32 91.56c1.38 2.59 2.73 5.2 4.3 7.67 1.84 2.88 4.69 3.44 7.73 2.4 2.82-.97 4.2-3.18 4.09-6.49.38-2.17-1.46-3.72-2.42-5.6-8.19-15.87-16.43-31.71-24.66-47.57-1.2-2.31-2.49-4.55-5.36-5.02-2.89-.47-5.29.4-7.06 2.83-1.81 2.48-1.58 4.9-.18 7.52 7.88 14.73 15.7 29.51 23.56 44.26zM278.52 101.78c2.48.17 4.11-1.62 5.37-4.04 8.76-16.86 17.55-33.72 26.3-50.58.77-1.48 1.43-3.06 1.06-4.78-.61-2.82-2-4.93-5.12-5.48-3.17-.56-5.53.53-7 3.36-8.83 16.97-17.65 33.95-26.45 50.94-.4.78-.72 1.65-.88 2.51-.73 3.97 2.37 7.96 6.72 8.07z"/></g><g id="Mugs_00000106114093232778965000000005989021846650753925_"><path class="st2" d="M316 325.48h-5.38c-.92-1.27-2.48-1.03-3.72-1.44-15.34-5.12-20.88-20.19-12.12-33.67 1.24-1.91.67-3.32.13-4.96-12.32-37.82-24.66-75.64-36.97-113.47-.67-2.05-1.83-4.2-.86-6.31.92-2-.18-2.8-1.4-3.84-.8.98-2.18 1.78-1.63 3.2 1.13 2.91.08 5.51-.78 8.18-11.96 37.41-23.9 74.82-35.92 112.21-.69 2.14-.65 3.69.65 5.65 7.04 10.61 3.47 24.81-7.55 31.19-2.64 1.53-5.66 1.85-8.3 3.24H196c-.23-1-1.18-.87-1.83-1.09-14.68-4.78-29.36-9.53-44.04-14.28-21.48-6.96-42.97-13.88-64.42-20.91-9.46-3.1-15.99-9.17-17.34-19.41-1.25-9.44 2.45-17.23 10.85-21.44 4.74-2.38 6.68-5.65 7.94-10.11.28-.98.57-1.98 1.06-2.87 1.47-2.69.27-3.69-2.31-4.39-4.31-1.17-8.54-2.59-12.79-3.98-6.25-2.04-10.42-6.21-12.66-12.39-.36-1-.13-2.36-1.38-2.97v-12.31c.8-.22.68-.95.87-1.53 5.06-15.25 9.77-30.63 15.35-45.69 3.18-8.59 9.02-15.08 19.14-16.07 6.26-.61 11.77 1.95 17.47 3.69 6.65 2.03 6.54 2.08 8.65-4.54 1.27-4 1.21-8.83 6.16-10.81.79-.32.44-1.31.44-2.08.08-10.67 7.31-18.9 17.97-20.52 2.14-.33 13.24-4.92 14.77-6.25 13.49-11.75 40.54-7.62 52.45 6.82 2.96 3.6 6.08 5.1 10.51 5.55 10.21 1.05 23.47 10.37 23.93 24.13.04 1.2.53 1.86 1.54 2.35 3.8 1.85 6.55 4.83 8.82 8.59 2.27-3.67 4.89-6.77 8.59-8.74 1.18-.63.97-1.63 1.07-2.63.53-5.66 2.66-10.61 6.68-14.69 5.4-5.5 11.87-8.79 19.62-9.34 2.79-.2 4.84-1.05 6.61-3.6 5.24-7.54 12.7-12.24 21.56-14.3 14.25-3.31 27.55-2.36 37.57 10.19.92 1.15 1.91 1.02 3.06.9 13.48-1.44 23.24 6.69 24.01 20.05.06 1.03-.19 1.97 1.22 2.38 2.27.65 2.91 2.68 3.52 4.66.98 3.17 2.12 6.3 2.87 9.52.56 2.39 1.27 3.28 3.86 2.18 2.92-1.24 6.06-1.97 9.1-2.93 4.02-1.26 8.02-2.73 12.34-2.17 9.76 1.27 15.12 7.85 18.84 16.1 2.78 6.18 4.15 12.86 6.07 19.34 3.12 10.57 6.14 21.17 9.2 31.76v10c-1.13 2.23-2.14 4.53-3.42 6.66-3.93 6.53-10.5 8.98-17.35 10.99-2.92.86-7.12 1.13-8.32 3.13-1.43 2.37 1.64 5.75 2.3 8.83.69 3.24 2.61 4.99 5.73 6.34 6.32 2.74 10.48 7.7 11.79 14.59 2.38 12.51-4.11 22.78-17 26.99-27.77 9.06-55.57 18-83.32 27.09-9.16 3.02-18.46 5.53-27.35 9.23zM200.57 174.93c4.08 1.41 8.18 2.79 12.25 4.25 1.82.66 2.53-.2 3.01-1.77 1.04-3.42 2.07-6.84 3.26-10.2.59-1.68.31-2.56-1.47-3.07-4.4-1.26-8.78-2.64-13.16-3.97-14.19-4.65-28.38-9.32-42.58-13.94-7.4-2.41-7.41-2.38-9.69 4.88-2.4 7.64-2.41 7.68 5.31 10.15 14.34 4.58 28.71 9.12 43.07 13.67zm148.49-11.81c4-1.24 7.98-2.54 12.01-3.68 1.6-.45 2.03-1.12 1.48-2.73-1.25-3.6-2.4-7.24-3.47-10.91-.48-1.66-1.23-1.88-2.78-1.3-3.68 1.38-7.42 2.58-11.13 3.85-16.66 5.29-33.32 10.59-49.99 15.85-1.62.51-1.86 1.39-1.36 2.86 1.19 3.5 2.4 7.01 3.4 10.57.53 1.91 1.51 2.01 3.1 1.49 16.25-5.35 32.5-10.67 48.74-16zm-54.6-42.16c-5.73.62-10.51 2.73-13.08 8.32-1.8 2.07-1.43 4.49-1.14 6.92.55 4.72-.78 6.86-5.27 8.34-1.83.6-3.61 1.22-5.07 2.56-1.8 1.65-3.43 3.65-2.03 5.98 1.44 2.37 4.07 3.02 6.77 1.98 11.8-4.51 23.98-7.86 35.96-11.81 17.42-5.74 34.89-11.32 52.34-16.97 2.96-.26 4.78-2.2 6.42-4.37 2.45-3.24 1.8-6.01-1.85-7.74-3.09-1.46-6.18-1.16-9.3.01-4.39 1.65-6.6.88-8.98-3.08-1.26-2.1-2.64-4.04-4.65-5.52-9.38-6.92-25.34-4.34-33.07 5.39-1.24.78-1.89 2.04-2.54 3.27-2.46 4.66-5.65 7.83-11.54 6.21-.88-.25-1.97.32-2.97.51zm-115.3-19.91c-6.76-.23-11.95 2.63-15.23 8.44-3.41 6.04-4.57 6.76-11.61 5.49-2.8-.5-5.61-.68-8.25.69-3.79 1.97-4.23 5.44-1.08 8.36 2.27 2.11 4.86 3.63 7.88 4.56 7.68 2.36 15.3 4.89 22.95 7.32 19.67 6.24 39.35 12.45 59.02 18.68 1.99 1.15 4.16 1.12 6.35.94 2.21-.18 3.97-1.21 4.79-3.29.88-2.24-.44-3.95-1.89-5.44-1.55-1.6-3.56-2.38-5.71-2.94-3.71-.96-5.7-4.28-4.46-7.91 1.18-3.45.29-6.39-1.78-8.92-4.45-5.43-10.23-7.9-17.32-6.84-3.83.36-6.4-1.63-8.45-4.57-4.95-10.81-14.14-14.31-25.21-14.57zM409.54 281.2c4.87-1.52 9.8-2.87 14.59-4.59 4.54-1.63 6.94-5.89 6.48-10.61-.39-3.96-2.95-6.17-6.52-6.36-5.36-.29-7.41-3.34-8.87-7.92-11.69-36.85-23.51-73.65-35.32-110.46-.49-1.52-.17-4.38-3.35-2.71-2.19 1.15-5.93.5-4.23 5.37 4.34 12.4 8.16 24.98 12.19 37.48 6.35 19.67 12.45 39.42 19.2 58.95 2.69 7.79 3 14.86-1.4 21.92-2.26 3.02-4.91 5.75-8.52 6.93-18.56 6.03-37.08 12.22-55.81 17.71-11.25 3.3-20.99-2.66-24.57-13.77-10.68-33.15-21.47-66.26-31.94-99.47-1.48-4.69-3.9-2.31-6.32-2-3.56.45-1.79 2.7-1.31 4.21 11.82 37.07 23.63 74.14 35.65 111.15 1.47 4.52.96 7.74-2.62 10.9-3.73 3.28-3.45 8.09.24 11.38 3.33 2.97 7.09 3.08 11.13 1.77 13.83-4.5 27.69-8.91 41.51-13.43 16.62-5.45 33.2-10.97 49.79-16.45zm-223.5 5.19c-4.2 1.13-8.34.83-12.44-.54-2.78-.93-5.59-1.77-8.39-2.67-14.34-4.6-28.74-9-42.99-13.87-11.95-4.09-17.52-15.27-13.9-26.44 10.79-33.25 21.41-66.56 32.36-99.76 1.7-5.15-2.32-4.15-4.41-5.29-3.23-1.76-2.83 1.43-3.29 2.81-12.05 36.73-24.08 73.47-35.94 110.26-1.48 4.59-3.43 7.6-8.69 8.15-3.94.41-6.28 3.4-6.76 7.33-.49 3.99 1.42 6.88 5 8.63 1.14.56 2.35.98 3.56 1.37 19.65 6.41 39.3 12.83 58.97 19.17 10.43 3.36 20.71 7.19 31.34 9.91 5.11 2.35 10.59 3.63 15.89 5.43 4.17 1.41 7.86.23 10.11-3.07 1.91-2.8 1.73-7.45-1.12-10.3-3.73-3.74-3.76-7.64-2.21-12.3 12.27-36.69 24.44-73.41 36.58-110.13.47-1.41 2.16-3.57-1.07-4.02-2.35-.33-4.99-2.91-6.5 1.86-10.27 32.51-20.93 64.89-31.15 97.41-2.5 8.01-7.09 13.38-14.95 16.06zm9.9-98.46c-15.5-5.21-31.04-10.31-46.48-15.7-3.11-1.08-4.11-.46-5.06 2.56-5.8 18.54-11.79 37.01-17.72 55.51-1.71 5.36-3.58 10.67-5.05 16.09-1.47 5.41-.38 7.93 4.32 9.46 13.47 4.42 27.03 8.59 40.55 12.86 3.01 1.03 6.02 2.09 9.04 3.07 6.44 2.09 9.34.9 11.46-5.53 7.81-23.68 15.4-47.44 23.18-71.13.71-2.15-.16-2.71-1.83-3.24-4.15-1.28-8.28-2.63-12.41-3.95zm182.38 70.67c2.8-.86 5.66-1.58 8.4-2.6 4.77-1.78 6.04-3.83 4.66-8.89-2.02-7.39-4.48-14.65-6.83-21.95-5.4-16.79-10.9-33.54-16.2-50.36-.82-2.6-1.87-3.18-4.27-2.14-3.15 1.37-6.64 1.79-9.67 3.51-1.36.32-2.75.55-4.08.98-14.84 4.79-29.65 9.71-44.54 14.33-3 .93-3.7 1.87-2.69 4.93 5.31 16.01 10.4 32.1 15.58 48.16 2.43 7.54 4.76 15.12 7.35 22.61 1.9 5.49 4.75 7.38 9.45 5.85 14.32-4.65 28.56-9.6 42.84-14.43zm61.57-54.75c.07-1.97-.14-4.28-.84-6.49-4.4-13.85-8.4-27.86-13.42-41.49-2.92-7.94-6.76-9.6-13.05-7.7-3.91 1.18-7.77 2.51-11.69 3.63-1.92.55-2.24 1.52-1.68 3.3 6.55 20.53 13.11 41.06 19.53 61.64.7 2.24 1.58 2.4 3.46 1.67 3.57-1.38 7.19-2.61 10.78-3.94 5.87-2.16 7.03-3.9 6.91-10.62zm-366.93 1.93c-.08 5.54 1.13 7.28 6.31 8.99 3.87 1.27 7.78 2.45 11.63 3.8 1.75.61 2.6.5 3.24-1.54 6.46-20.54 13.03-41.06 19.63-61.56.47-1.46.52-2.29-1.15-2.77-4.9-1.4-9.76-2.91-14.66-4.31-2.56-.74-4.73.04-6.58 1.94-2.08 2.14-3.71 4.5-4.6 7.4-3.96 12.92-8.01 25.8-11.96 38.72-.93 3.03-2 6.07-1.86 9.33z"/><path d="M256.77 30.13c4.19 1.83 5.26 5.27 5.24 9.51-.07 15.75-.02 31.51-.05 47.26 0 1.39-.21 2.8-.43 4.18-.51 3.35-2.89 4.83-5.89 5.05-3.04.22-5.41-1.23-6.68-4.17-.73-1.7-.67-3.5-.67-5.29.01-15.5.1-31-.06-46.49-.05-4.28.82-7.77 4.69-10.05h3.85z" style="fill:#4e292d"/><path class="st11" d="M378.32 258.6c-14.28 4.83-28.52 9.78-42.85 14.43-4.7 1.53-7.54-.36-9.45-5.85-2.6-7.49-4.92-15.07-7.35-22.61-5.18-16.06-10.27-32.15-15.58-48.16-1.01-3.06-.31-4 2.69-4.93 14.9-4.62 29.7-9.54 44.54-14.33 1.33-.43 2.72-.66 4.08-.98.25 1.37.36 2.79.78 4.1 6.99 21.87 13.98 43.74 21.08 65.58 1.36 4.19 2.4 8.34 2.06 12.75zM166.49 268.72c-13.52-4.27-27.07-8.44-40.55-12.86-4.69-1.54-5.78-4.05-4.32-9.46 1.47-5.42 3.34-10.74 5.05-16.09 5.92-18.5 11.92-36.97 17.72-55.51.95-3.02 1.95-3.64 5.06-2.56 15.44 5.39 30.98 10.49 46.48 15.7-.48 1.59-.95 3.18-1.45 4.76-7.25 22.78-14.44 45.57-21.82 68.31-1.03 3.16-2.15 6.71-6.17 7.71z"/><path d="M180.45 305.45c-10.63-2.73-20.91-6.55-31.34-9.91-19.67-6.34-39.32-12.77-58.97-19.17-1.21-.39-2.42-.82-3.56-1.37-3.58-1.75-5.48-4.64-5-8.63.48-3.93 2.82-6.92 6.76-7.33 5.27-.55 7.22-3.56 8.69-8.15 11.86-36.79 23.89-73.53 35.94-110.26.45-1.38.05-4.57 3.29-2.81 2.09 1.14 6.11.14 4.41 5.29-10.95 33.2-21.57 66.51-32.36 99.76-3.62 11.17 1.95 22.36 13.9 26.44 14.24 4.87 28.65 9.27 42.99 13.87 2.79.9 5.61 1.74 8.39 2.67 4.1 1.37 8.24 1.67 12.44.54-.34 1.36-.64 2.72-1.03 4.07-1.46 5.01-3.76 9.77-4.55 14.99z" style="fill:#f9f8f8"/><path d="M409.54 281.2c-16.59 5.48-33.17 11-49.77 16.44-13.82 4.52-27.68 8.93-41.51 13.43-4.05 1.32-7.81 1.2-11.13-1.77-3.69-3.29-3.96-8.1-.24-11.38 3.58-3.16 4.09-6.38 2.62-10.9-12.02-37.01-23.83-74.08-35.65-111.15-.48-1.51-2.25-3.76 1.31-4.21 2.42-.31 4.84-2.69 6.32 2 10.48 33.21 21.27 66.32 31.94 99.47 3.58 11.1 13.32 17.07 24.57 13.77 18.73-5.49 37.25-11.68 55.81-17.71 3.61-1.17 6.26-3.9 8.52-6.92 2.01 3.15 2.48 6.86 3.81 10.25 1.13 2.9 1.02 6.28 3.4 8.68z" style="fill:#faf8f8"/><path d="M232.85 154.6c-19.67-6.22-39.35-12.44-59.02-18.68-7.65-2.43-15.28-4.96-22.95-7.32-3.01-.93-5.6-2.45-7.88-4.56-3.15-2.92-2.7-6.39 1.08-8.36 2.63-1.37 5.44-1.2 8.25-.69 7.04 1.27 8.2.55 11.61-5.49 3.28-5.81 8.46-8.67 15.23-8.44 4.61 3.08 8.72 6.67 11.54 11.53.76 1.31 1.82 2.16 3.41 2.05 3.48-.24 6.84.73 10.27 1 2.05 2.94 4.61 4.93 8.45 4.57 4.23 4.86 8.2 9.8 7.05 16.93-.37 2.3 1.47 2.9 3.13 3.68 5.83 2.74 9.43 7.13 9.83 13.78z" style="fill:#fcfcfb"/><path d="M362.95 126.27c-17.45 5.65-34.92 11.23-52.34 16.97-11.98 3.95-24.16 7.3-35.96 11.81-2.7 1.03-5.34.39-6.77-1.98-1.41-2.32.23-4.33 2.03-5.98 1.46-1.34 3.24-1.95 5.07-2.56 4.49-1.48 5.82-3.62 5.27-8.34-.28-2.43-.65-4.85 1.14-6.92 5.06-.11 9.65-1.01 11.68-6.56.24-.67.92-1.17 1.4-1.76.99-.19 2.09-.77 2.96-.52 5.9 1.63 9.09-1.55 11.54-6.21.65-1.23 1.3-2.49 2.54-3.27.88-.13 1.76-.25 2.64-.38 12.17-1.76 20.57-.24 28.24 10.92 1.36 1.97 2.76 1.53 4.6 1.3 5.69-.7 11.5-1.6 15.96 3.48z" style="fill:#fbfafa"/><path class="st16" d="M409.54 281.2c-2.39-2.4-2.27-5.78-3.41-8.67-1.33-3.4-1.81-7.11-3.81-10.25 4.4-7.06 4.09-14.14 1.4-21.93-6.75-19.53-12.85-39.29-19.2-58.95-4.04-12.5-7.85-25.09-12.19-37.48-1.7-4.87 2.04-4.22 4.23-5.37 3.18-1.67 2.86 1.19 3.35 2.71 11.81 36.81 23.62 73.61 35.32 110.46 1.45 4.58 3.51 7.63 8.87 7.92 3.57.19 6.12 2.4 6.52 6.36.47 4.72-1.94 8.98-6.48 10.61-4.8 1.72-9.73 3.07-14.6 4.59zM180.45 305.45c.78-5.22 3.09-9.98 4.55-15 .39-1.34.69-2.71 1.03-4.07 7.87-2.68 12.45-8.05 14.97-16.07 10.21-32.52 20.88-64.9 31.15-97.41 1.51-4.77 4.15-2.19 6.5-1.86 3.23.45 1.54 2.61 1.07 4.02-12.15 36.73-24.31 73.45-36.58 110.13-1.56 4.65-1.53 8.55 2.21 12.3 2.84 2.85 3.03 7.5 1.12 10.3-2.25 3.3-5.95 4.49-10.11 3.07-5.32-1.77-10.79-3.06-15.91-5.41z"/><path class="st17" d="M166.49 268.72c4.02-1 5.14-4.55 6.17-7.73 7.38-22.74 14.57-45.53 21.82-68.31.5-1.58.97-3.17 1.45-4.76 4.14 1.32 8.27 2.66 12.41 3.96 1.67.52 2.53 1.09 1.83 3.24-7.78 23.69-15.37 47.45-23.18 71.13-2.12 6.43-5.02 7.62-11.46 5.53-3.02-.97-6.02-2.03-9.04-3.06zM378.32 258.6c.33-4.41-.71-8.57-2.06-12.74-7.09-21.84-14.09-43.71-21.08-65.58-.42-1.32-.53-2.73-.78-4.1 3.03-1.72 6.52-2.14 9.67-3.51 2.4-1.04 3.45-.47 4.27 2.14 5.3 16.82 10.81 33.57 16.2 50.36 2.35 7.29 4.81 14.56 6.83 21.95 1.39 5.06.12 7.11-4.66 8.89-2.73 1.01-5.59 1.73-8.39 2.59z"/><path class="st18" d="M349.06 163.12c-16.25 5.33-32.5 10.64-48.74 15.99-1.59.52-2.57.42-3.1-1.49-1-3.56-2.21-7.06-3.4-10.57-.5-1.47-.26-2.35 1.36-2.86 16.67-5.26 33.33-10.56 49.99-15.85 1.3 4.94 2.6 9.86 3.89 14.78zM200.57 174.93c-14.36-4.56-28.72-9.09-43.07-13.68-7.72-2.47-7.71-2.51-5.31-10.15 2.28-7.25 2.29-7.29 9.69-4.88 14.2 4.62 28.39 9.29 42.58 13.94-.44 5.16-3.22 9.69-3.89 14.77z"/><path class="st19" d="M362.95 126.27c-4.46-5.08-10.27-4.18-15.95-3.46-1.84.23-3.24.68-4.6-1.3-7.67-11.16-16.07-12.69-28.24-10.92-.88.13-1.76.25-2.64.38 7.72-9.73 23.68-12.31 33.07-5.39 2.01 1.48 3.39 3.42 4.65 5.52 2.38 3.96 4.58 4.73 8.98 3.08 3.13-1.17 6.22-1.48 9.3-.01 3.65 1.73 4.3 4.49 1.85 7.74-1.64 2.16-3.47 4.1-6.42 4.36zM232.85 154.6c-.4-6.65-4-11.04-9.83-13.79-1.66-.78-3.5-1.38-3.13-3.68 1.15-7.13-2.82-12.07-7.05-16.93 7.09-1.06 12.87 1.42 17.32 6.84 2.07 2.52 2.95 5.47 1.78 8.92-1.24 3.62.75 6.94 4.46 7.91 2.15.56 4.15 1.33 5.71 2.94 1.45 1.5 2.78 3.2 1.89 5.44-.82 2.08-2.58 3.11-4.79 3.29-2.2.18-4.37.21-6.36-.94z"/><path class="st20" d="M200.57 174.93c.67-5.08 3.45-9.61 3.89-14.76 4.39 1.33 8.76 2.71 13.16 3.97 1.78.51 2.06 1.39 1.47 3.07-1.19 3.36-2.22 6.79-3.26 10.2-.48 1.57-1.19 2.43-3.01 1.77-4.07-1.46-8.17-2.84-12.25-4.25zM349.06 163.12c-1.3-4.92-2.59-9.84-3.89-14.77 3.71-1.27 7.46-2.48 11.13-3.85 1.55-.58 2.3-.35 2.78 1.3 1.06 3.66 2.22 7.3 3.47 10.91.56 1.61.13 2.27-1.48 2.73-4.02 1.14-8.01 2.45-12.01 3.68z"/><path class="st19" d="M204.38 115.63c-3.43-.26-6.79-1.24-10.27-1-1.59.11-2.65-.73-3.41-2.05-2.82-4.87-6.93-8.46-11.54-11.53 11.07.26 20.26 3.76 25.22 14.58z"/><path class="st16" d="M294.46 120.96c-.48.58-1.15 1.09-1.4 1.76-2.03 5.56-6.62 6.45-11.68 6.56 2.57-5.59 7.36-7.7 13.08-8.32z"/><path class="st21" d="M238.44 95.14c.12 3.31-1.26 5.52-4.09 6.49-3.04 1.04-5.89.48-7.73-2.4-1.58-2.47-2.92-5.08-4.3-7.67-7.86-14.75-15.68-29.52-23.57-44.25-1.4-2.62-1.63-5.04.18-7.52 1.78-2.43 4.17-3.3 7.06-2.83 2.87.47 4.16 2.71 5.36 5.02 8.23 15.85 16.47 31.69 24.66 47.57.97 1.87 2.8 3.42 2.43 5.59zM278.52 101.78c-4.36-.11-7.45-4.1-6.72-8.08.16-.86.48-1.73.88-2.51 8.8-16.99 17.61-33.97 26.45-50.94 1.47-2.83 3.83-3.91 7-3.36 3.12.55 4.51 2.66 5.12 5.48.37 1.72-.29 3.3-1.06 4.78-8.76 16.87-17.54 33.72-26.3 50.58-1.26 2.43-2.89 4.22-5.37 4.05z"/></g></g><g id="DUSTER_00000036213225882116930820000016061990043945043375_"><g id="DUSTER_Shadow"><path class="st22" d="M64.09 349.85h33.13v16.91H80.77v49.91h16.45V433H64.09zM97.22 366.76h16.45v49.92H97.22zM130.57 349.85h16.68v66.71h16.91v-66.71h16.44v83.39h-50.03zM197.51 349.85h50.04v16.67h-33.13v16.8h33.13v49.92h-50.04v-16.68h33.59v-16.8h-33.59zM263.99 349.62h49.8v16.67h-16.44v66.95H280.9v-66.95h-16.91zM330.7 349.85h50.03v16.67h-33.35v17.03h16.68v16.68h-16.68v16.79h33.35v16.45H330.7zM397.64 349.62h50.27v16.67h-33.59v16.68h16.91v16.68h16.68v33.59h-16.68v-33.59h-16.91v33.59h-16.68z"/><path class="st22" d="M431.23 366.29h16.68v16.68h-16.68z"/></g><g id="DUSTER"><path class="st2" d="M64.09 349.85h33.13v16.91H80.77v49.91h16.45V433H64.09zM97.22 366.76h16.45v49.92H97.22zM130.57 349.85h16.68v66.71h16.91v-66.71h16.44v83.39h-50.03zM197.51 349.85h50.04v16.67h-33.13v16.8h33.13v49.92h-50.04v-16.68h33.59v-16.8h-33.59zM263.99 349.62h49.8v16.67h-16.44v66.95H280.9v-66.95h-16.91zM330.7 349.85h50.03v16.67h-33.35v17.03h16.68v16.68h-16.68v16.79h33.35v16.45H330.7zM397.64 349.62h50.27v16.67h-33.59v16.68h16.91v16.68h16.68v33.59h-16.68v-33.59h-16.91v33.59h-16.68z"/><path class="st2" d="M431.23 366.29h16.68v16.68h-16.68z"/></g></g><g id="Underline"><path class="st2" d="M64.09 448.86h175v18h-175zM272.91 448.86h175v18h-175zM247 448.86h18v18h-18z"/></g></svg>