<svg version="1.1" id="Layer_1" xmlns="http://www.w3.org/2000/svg" x="0" y="0" viewBox="0 0 3862.44 513.34" style="enable-background:new 0 0 3862.44 513.34" xml:space="preserve"><style>.st2{fill:#4d272b}.st3{fill:#8acc9b}.st4{fill:#61be70}.st5{fill:#fff}.st6{fill:#ab82a7}.st7{fill:#7e5a7c}.st8,.st9{fill:none;stroke:#4d272b;stroke-width:16;stroke-miterlimit:10}.st9{stroke:#19bdc5;stroke-width:10}.st11{fill:#f3a240}.st16{fill:#f3e9b6}.st17{fill:#e08439}.st18{fill:#f8cd4c}.st19{fill:#f4eab8}.st20{fill:#e9b048}.st21{fill:#4d282c}.st22,.st23{fill:none;stroke:#1bbdc5;stroke-width:20;stroke-miterlimit:10}.st23{fill:#4d272b;stroke-width:10}</style><circle cx="256.52" cy="257.34" r="256" style="fill:#1bbdc5" id="Layer_4"/><g id="Logo_00000134240909764689983930000002795631210143884724_"><g id="Sticks_00000091716322505008238850000011514986989970887348_"><path class="st2" d="M15.81 376.28v-17.32c1.32-.21 1.4-1.43 1.9-2.32 3.23-5.68 8.1-8.85 14.57-9.65 5.22-.64 10.24.12 15.24 1.66 33.6 10.33 67.23 20.54 100.79 30.95 6.44 2 12.54 1.62 18.65-.8 4.39-1.74 8.37-4.23 12.23-6.93 9.72-6.8 16.47-16.53 24.73-24.75 2.4-2.39 2.11-3.87.15-6.32-14.78-18.5-29.36-37.17-44.16-55.66-3.25-4.06-3.74-7.75-.5-11.85 5.83-2.35 7.89-1.83 11.76 3 1.42 1.77 2.81 3.56 4.22 5.35 12.75 16.16 25.56 32.28 38.19 48.54 2.07 2.66 3.26 2.68 5.34.14 3.62-4.45 7.53-8.66 11.32-12.98 4.62-5 9.17-10.07 13.91-14.95 1.89-1.95 1.86-3.23.03-5.25-25.13-27.74-50.19-55.54-75.25-83.34-1.25-1.39-2.48-2.5-4.59-2.43-5.45.19-10.9.19-16.35.27h-27.8c1.7 2.18 2.87 3.7 4.06 5.2 8.16 10.34 16.36 20.65 24.46 31.03 3.27 4.19 3.04 7.11-.55 11.25-4.6 2.5-7.99.95-11.02-2.92-11.22-14.35-22.74-28.47-33.8-42.95-28.96-37.91-60.5-73.82-87.56-113.21V83.63c.32-.3.8-.54.92-.9 6.36-18.83 31.74-23.93 47.04-6.84 62.89 70.27 126.26 140.1 189.39 210.15 2.16 2.4 3.15 3.03 5.69.2 37.74-42.03 75.62-83.94 113.47-125.88 25.84-28.63 51.65-57.3 77.56-85.86 14.41-15.88 38.78-10.84 45.78 9.33.32.93.19 2.21 1.55 2.53v10.03c-2.86 4.75-4.18 10.23-7.74 14.72-40.7 51.41-81.29 102.91-121.86 154.42-3.08 3.92-6.52 5.22-11.07 2.92-3.74-4.8-3.73-7.12.17-12.07 10.53-13.37 21.07-26.72 31.61-40.08 1.08-1.37 2.11-2.76 3.6-4.71h-44.91c-2.31-.41-3.13 1.55-4.28 2.83-47.53 52.63-95.01 105.3-142.57 157.9-7.42 8.2-16.34 14.51-26.43 19.05-9.77 4.4-19.73 5.25-30.11 1.73-11.5-3.89-23.17-7.26-34.78-10.83-3.83-1.18-7.69-2.26-12.63-3.71 6.27 16.3 12.13 31.52 17.99 46.75 2.2 6.27 4.41 12.54 6.58 18.82.56 1.62 1.72 2.3 3.29 2.77 11.92 3.54 23.68 7.61 35.9 10.1 16.34 3.32 31.4 1.61 44.01-10.6 6.22-6.02 12.35-12.12 17.72-18.92 37.05-46.92 74.07-93.86 111.11-140.79 3.98-5.04 5.97-5.55 11.68-3.24 3.41 5.11 3.4 7.01-.36 11.79-11.92 15.15-23.82 30.32-35.89 45.36-2.04 2.55-2.47 4.14.08 6.65 4.33 4.25 8.29 8.88 12.3 13.44 6.08 6.93 13.17 12.54 21.41 16.67 7.35 3.69 14.77 4.74 22.82 1.89 8.69-3.08 17.62-5.46 26.45-8.15 25.51-7.77 50.99-15.67 76.56-23.24 11.3-3.35 24.7-.29 28.35 13.15.08.3.67.46 1.02.69v10.03c-2.77 1.39-1.53 4.31-2.38 6.45-5.83 14.76-11.29 29.66-17.21 44.38-3.64 9.03-10.12 15.27-19.8 17.88-5.25 1.42-10.42 3.16-15.63 4.72-27.37 8.2-54.45 17.38-82.11 24.66-4.12 1.09-8.67.52-12.4 3.11h-5.47c-3.34-1.39-6.69-1.44-10.03 0h-5.47c.02-.97-.65-1.29-1.42-1.45-12.45-2.49-21.85-9.99-30.73-18.48-13.35-12.77-23.95-27.84-35.27-42.28-2.93-3.74-4.04-2.94-6.54.2-11.43 14.36-21.99 29.45-35.34 42.23-9.35 8.96-19.4 16.52-32.57 18.76-.64.11-1.15.3-1.28 1.01h-3.65c-3.65-1.34-7.29-1.46-10.94 0h-6.38c-.17-1.79-1.69-1.41-2.76-1.64-3.99-.88-8.04-1.5-11.97-2.58-30.35-8.38-60.14-18.61-90.43-27.16-11.98-3.38-19.9-10.26-24.23-21.74-5.12-13.58-10.37-27.12-15.59-40.66-.38-1.06-.22-2.52-1.79-2.86zm123.26-179.33c2.92.5 5.85.5 8.77 0 1.58.32 3.15.55 4.7-.13.23.36.54.35.55-.06.01-.3-.34-.61-.53-.91-5.44-6.11-10.88-12.22-16.3-18.34-.83-.93-1.67-1.67-3.05-1.67-13.05.04-26.1.04-39.15.09-1.16 0-1.77.51-.62 1.57 4.64 5.98 9.29 11.94 13.9 17.94.89 1.16 1.88 1.81 3.43 1.78 7.86-.16 15.73-.25 23.6-.36.65.03 1.29.06 1.94.08l.33.24.34-.23h2.09zm220.52-.18c1.55.78 3.14.48 4.73.18 12.38.08 24.76.14 37.14.26 1.56.02 2.54-.68 3.41-1.81 4.61-5.97 9.24-11.93 13.86-17.89 1.55-2.44-.77-1.55-1.49-1.55-12.46-.08-24.92-.05-37.37-.12-1.65-.01-2.88.43-3.98 1.68-5.4 6.16-10.86 12.26-16.3 18.38-.17.29-.51.6-.48.87.02.39.31.37.48 0zM469.73 79.62c-4.52-.07-7.6 2.46-10.42 5.6-19.29 21.41-38.6 42.78-57.9 64.17-3.05 3.38-6.13 6.73-9.11 10.16-.47.54-2.7 1.87.34 2.03 11.52.06 23.03.02 34.54.26 3.07.06 4.96-.99 6.82-3.36 14.29-18.27 28.71-36.43 43.07-54.64 2.06-2.62 3.98-5.3 4.89-8.62 2.37-8.67-3.02-15.61-12.23-15.6zm-425.64.31c-.87-.18-1.75-.58-2.6-.52-4.87.4-8.84 2.49-10.89 7.06-2.45 5.46-.72 10.52 2.7 14.89 15.23 19.49 30.6 38.86 45.9 58.3.98 1.25 1.97 2.17 3.74 2.12 8.03-.25 16.07.4 24.09-.37 4.57.68 9.1.31 14.13.31-.66-1.21-.8-1.66-1.09-1.98-22.83-25.32-45.66-50.65-68.53-75.93-1.96-2.15-4.31-3.84-7.45-3.88zm425.92 322.86c4.48-10.23 8.68-20.59 11.81-31.3 2.56-8.75-.83-12-9.8-10.09-.59.13-1.2.21-1.77.39-11.56 3.55-23.1 7.15-34.68 10.63-1.56.47-2.71.97-3.31 2.64-5.08 14.05-10.23 28.07-15.35 42.1-2.93 7.54-5.87 15.08-8.8 22.62 1.78.83 2.84.09 3.96-.26 10.13-3.1 20.24-6.3 30.41-9.26 20-5.83 18.73-3.39 27.44-26.57.1-.28.06-.6.09-.9zM95.25 417.12c-5.13-14.05-10.27-28.09-15.4-42.14-.44-1.21-1.12-1.98-2.46-2.38-12.47-3.7-24.85-7.76-37.41-11.14-8.81-2.37-12.3 1.33-9.66 10.12 3.47 11.58 8.02 22.79 12.82 33.88 1.07 2.99 2.22 5.94 3.2 8.96 2.42 7.47 7.57 11.62 15.09 13.61 9.5 2.52 18.85 5.56 28.27 8.37 4.57 1.36 9.15 2.71 14.75 4.37-3.33-8.55-6.27-16.1-9.2-23.65zm183.97-39.15c-1.83 2.21-3.71 4.38-5.48 6.63-2.72 3.45-7.15 6.76-7.56 10.49-.45 4.1 4.61 7.37 7.39 10.88 10.82 13.66 21.03 27.83 33.9 39.77 9.47 8.79 20.22 13.54 33.38 12.63 16.71-1.16 32.19-7.12 48.02-11.75 1.51-.44 2.12-1.54 2.6-2.88 2.39-6.69 4.8-13.37 7.21-20.06 5.61-14.73 11.23-29.47 17.15-45-2.12.53-2.99.71-3.84.97-15.37 4.71-30.75 9.4-46.11 14.15-5.48 1.7-10.99 2.06-16.62.91-14.89-3.04-26.55-11.56-36.95-22.04-4.7-4.73-9.01-9.86-13.39-14.9-1.55-1.79-2.56-2.06-4.14.04-5.1 6.8-10.36 13.46-15.56 20.16z"/><path class="st3" d="M114.2 425.32c-5.86-15.22-11.72-30.45-17.99-46.75 4.94 1.45 8.8 2.53 12.63 3.71 11.61 3.57 23.28 6.93 34.78 10.83 10.38 3.52 20.34 2.67 30.11-1.73 10.08-4.54 19.01-10.85 26.43-19.05 47.56-52.6 95.04-105.27 142.57-157.9 1.15-1.27 1.97-3.24 4.28-2.83 5.71 1.28 11.62-.18 17.95.93-4.43 6.63-9.37 12.13-13.93 17.93-23.05 29.29-45.81 58.81-69.14 87.88-25.6 31.9-49.71 65-76.79 95.69-6.5 7.37-13.92 13.92-23.17 18-12.81 5.65-25.84 4.03-38.79 1.06-9.73-2.24-19.3-5.16-28.94-7.77z"/><path class="st4" d="M114.2 425.32c9.64 2.61 19.22 5.52 28.95 7.75 12.95 2.97 25.98 4.59 38.79-1.06 9.25-4.08 16.66-10.63 23.17-18 27.08-30.69 51.2-63.79 76.79-95.69 23.32-29.07 46.09-58.59 69.14-87.88 4.56-5.79 9.49-11.3 13.93-17.93-6.33-1.11-12.24.36-17.95-.93h44.91c-1.48 1.95-2.52 3.34-3.6 4.71-10.53 13.36-21.08 26.71-31.61 40.08-3.9 4.95-3.91 7.27-.17 12.07-4.02 5-8.05 10-12.07 15.01-5.71-2.32-7.7-1.8-11.68 3.24-37.04 46.93-74.06 93.87-111.11 140.79-5.37 6.8-11.5 12.9-17.72 18.92-12.61 12.21-27.67 13.93-44.01 10.6-12.22-2.49-23.98-6.56-35.9-10.1-1.57-.47-2.73-1.14-3.29-2.77-2.16-6.27-4.37-12.54-6.57-18.81z"/><path class="st3" d="M279.22 377.97c5.2-6.71 10.46-13.37 15.56-20.15 1.58-2.1 2.58-1.83 4.14-.04 4.38 5.04 8.69 10.16 13.39 14.9 10.4 10.48 22.06 19 36.95 22.04 5.62 1.15 11.14.78 16.62-.91 15.36-4.75 30.74-9.45 46.11-14.15.85-.26 1.72-.44 3.84-.97-5.92 15.53-11.53 30.27-17.15 45-13.94 3.93-27.65 8.62-42.17 10.37-11.39 1.38-22.03-.08-31.71-6.29-14.13-9.05-24.44-21.95-34.5-35.04-3.75-4.88-8.49-9.01-11.08-14.76z"/><path class="st4" d="M279.22 377.97c2.58 5.75 7.33 9.88 11.07 14.75 10.06 13.1 20.37 25.99 34.5 35.04 9.68 6.21 20.33 7.67 31.71 6.29 14.51-1.75 28.23-6.44 42.17-10.37-2.41 6.68-4.82 13.37-7.21 20.06-.48 1.34-1.09 2.44-2.6 2.88-15.83 4.63-31.31 10.59-48.02 11.75-13.16.91-23.91-3.84-33.38-12.63-12.87-11.94-23.07-26.12-33.9-39.77-2.78-3.51-7.84-6.78-7.39-10.88.4-3.73 4.84-7.04 7.56-10.49 1.78-2.25 3.66-4.42 5.49-6.63zM159.43 273.3c-3.75-4.73-7.5-9.45-11.25-14.18 3.59-4.14 3.83-7.06.55-11.25-8.1-10.38-16.3-20.69-24.46-31.03-1.19-1.51-2.36-3.02-4.06-5.2h27.81c3.3 6.36 8.44 11.34 12.78 16.91 13.1 16.77 26.51 33.3 39.5 50.15 9.95 12.91 20.59 25.28 29.96 38.64-3.79 4.31-7.69 8.53-11.32 12.98-2.07 2.55-3.27 2.52-5.34-.14-12.64-16.25-25.44-32.37-38.19-48.54-1.41-1.78-2.8-3.57-4.22-5.35-3.86-4.82-5.93-5.34-11.76-2.99z"/><path class="st3" d="M230.26 317.34c-9.37-13.36-20.01-25.73-29.96-38.64-12.99-16.85-26.4-33.38-39.5-50.15-4.35-5.57-9.48-10.55-12.78-16.91 5.45-.08 10.9-.08 16.35-.27 2.11-.07 3.33 1.04 4.59 2.43 25.06 27.8 50.12 55.61 75.25 83.34 1.83 2.02 1.86 3.31-.03 5.25-4.75 4.88-9.3 9.95-13.92 14.95z"/><path class="st4" d="M107.03 161.41c-8.02.77-16.06.11-24.09.37-1.77.06-2.76-.87-3.74-2.12-15.3-19.43-30.67-38.81-45.9-58.3-3.42-4.37-5.15-9.43-2.7-14.89 2.05-4.57 6.01-6.67 10.89-7.06.85-.07 1.73.33 2.6.52 2.88 5.5 7.27 9.89 11.03 14.73 11.86 15.24 24.06 30.21 35.81 45.53 5.4 7.04 11.64 13.46 16.1 21.22zM469.73 79.62c9.22-.01 14.6 6.93 12.23 15.6-.91 3.33-2.83 6.01-4.89 8.62-14.36 18.21-28.79 36.37-43.07 54.64-1.86 2.37-3.75 3.42-6.82 3.36-11.51-.24-23.03-.2-34.55-.26 2.66-.89 5.43-.5 8.11-.35 3.69.21 6.04-1.06 8.38-4.08 12.96-16.75 26.32-33.2 39.32-49.93 7.11-9.17 14.84-17.89 21.29-27.6z"/><path class="st5" d="M472.01 361.39c-.59.13-1.2.21-1.77.39-11.56 3.55-23.1 7.15-34.68 10.63-1.56.47-2.71.97-3.31 2.64-5.08 14.05-10.23 28.07-15.35 42.1-2.93 7.54-5.87 15.08-8.8 22.62 1.78.83 2.84.09 3.96-.26 10.13-3.1 20.24-6.3 30.41-9.26 20-5.83 18.73-3.39 27.44-26.57.1-.27.07-.6.09-.9 4.48-10.23 8.68-20.59 11.81-31.3 2.56-8.75-.82-12-9.8-10.09zM95.25 417.12c-5.13-14.05-10.27-28.09-15.4-42.14-.44-1.21-1.12-1.98-2.46-2.38-12.47-3.7-24.85-7.76-37.41-11.14-8.81-2.37-12.3 1.33-9.66 10.12 3.47 11.58 8.02 22.79 12.82 33.88 1.07 2.99 2.22 5.94 3.2 8.96 2.42 7.47 7.57 11.62 15.09 13.61 9.5 2.52 18.85 5.56 28.27 8.37 4.57 1.36 9.15 2.71 14.75 4.37-3.33-8.55-6.27-16.1-9.2-23.65z"/><path class="st3" d="M469.73 79.62c-6.45 9.7-14.17 18.43-21.3 27.61-12.99 16.73-26.35 33.18-39.32 49.93-2.33 3.02-4.69 4.28-8.38 4.08-2.68-.15-5.45-.55-8.11.35-3.03-.16-.8-1.49-.33-2.03 2.98-3.43 6.06-6.78 9.11-10.16 19.3-21.39 38.62-42.77 57.9-64.17 2.83-3.15 5.91-5.68 10.43-5.61zM107.03 161.41c-4.46-7.76-10.69-14.18-16.09-21.22-11.75-15.32-23.95-30.29-35.81-45.53-3.76-4.84-8.16-9.22-11.03-14.73 3.13.04 5.49 1.73 7.44 3.88 22.88 25.28 45.7 50.6 68.53 75.93.29.32.43.77 1.09 1.98-5.03 0-9.56.37-14.13-.31z"/><path class="st5" d="M417.24 175.96c-12.46-.08-24.92-.05-37.37-.12-1.65-.01-2.88.43-3.98 1.68-5.4 6.16-10.86 12.26-16.3 18.38-.17.29-.51.6-.48.87.03.38.32.37.5 0 1.55.78 3.14.48 4.73.18 12.38.08 24.76.14 37.14.26 1.56.02 2.54-.68 3.41-1.81 4.61-5.97 9.24-11.93 13.86-17.89 1.53-2.44-.79-1.55-1.51-1.55zM152.56 195.85c-5.44-6.11-10.88-12.22-16.3-18.34-.83-.93-1.67-1.67-3.05-1.67-13.05.04-26.1.04-39.15.09-1.16 0-1.77.51-.62 1.57 4.64 5.98 9.29 11.94 13.9 17.94.89 1.16 1.88 1.81 3.43 1.78 7.86-.16 15.73-.25 23.6-.36.65.03 1.29.06 1.94.08l.33.24.34-.23h2.1c2.92.5 5.85.5 8.77 0 1.58.32 3.15.55 4.7-.13.23.36.54.35.55-.06-.01-.3-.35-.6-.54-.91z"/></g><g id="Puck_00000042734715228614706160000000456470667023485859_"><path class="st2" d="M270 63.57c5.07 2.48 10.78 2.02 16.09 3.53 9.54 2.72 18.76 5.96 26.37 12.65 5.92 5.2 9.03 11.47 8.78 19.58-.32 10.77-.44 21.57.03 32.33.44 10.26-4.21 17.4-12.1 23.01-9.22 6.55-19.77 9.82-30.78 11.52-21.12 3.25-42 2.6-62.27-5.05-4.99-1.88-9.65-4.39-13.85-7.7-6.98-5.48-10.81-12.36-10.52-21.56.33-10.62.35-21.26 0-31.88-.33-9.99 4.13-17.15 11.91-22.68 9.87-7.02 21.2-10.11 32.95-12.08 1.48-.25 3.45.46 4.22-1.67h7.29c5.47 1.47 10.94 1.42 16.41 0H270zm-2.8 65.91c-14.76 1-29.33-.02-43.63-4.01-5.93-1.66-11.53-4.18-17.42-7.33 0 4.22.37 7.74-.08 11.16-1 7.66 2.6 12.4 9.03 15.62 16.53 8.27 34.07 10.06 52.19 8.11 11.97-.7 23.37-3.37 33.56-9.99 2.96-1.92 5.72-4.18 5.8-8.16.09-4.39 0-8.79.06-13.18.03-2.29-.57-3.09-2.9-1.86-11.45 6.01-23.87 8.45-36.61 9.64zm19.2-18.55c6.61-1.34 12.6-4.03 17.49-8.73 3.91-3.75 3.91-7.18.04-10.92-4.41-4.27-9.74-7-15.74-8.37-1.55-.58-3.07-1.33-4.67-1.71-17.99-4.34-36.02-4.4-53.99.03-6.49 1.6-12.75 3.96-18.18 8.05-6.78 5.11-6.78 9.81-.04 14.85 2.93 2.19 6.17 3.82 9.56 5.18 10.85 4.34 22.22 5.98 33.79 6.06 10.75.07 21.51-.45 31.74-4.44z"/><path class="st6" d="M286.4 110.93c-10.23 3.99-20.98 4.5-31.74 4.42-11.57-.09-22.94-1.72-33.79-6.06-3.39-1.36-6.63-2.99-9.56-5.18-6.74-5.04-6.74-9.74.04-14.85 5.43-4.09 11.69-6.45 18.18-8.05 17.97-4.42 36-4.36 53.99-.03 1.6.39 3.11 1.13 4.67 1.71.15.73.09 1.59.47 2.17 5.12 8 4.32 15.6-1.43 22.89-.72.92-.85 1.91-.83 2.98zM267.3 153.03c-18.12 1.95-35.66.16-52.19-8.11-6.43-3.22-10.03-7.96-9.03-15.62.45-3.41.08-6.94.08-11.16 5.88 3.15 11.48 5.67 17.42 7.33 14.3 3.99 28.87 5.01 43.63 4.01l.09 23.55z"/><path class="st7" d="M267.3 153.03c-.03-7.85-.06-15.7-.1-23.55 12.74-1.19 25.15-3.63 36.61-9.65 2.33-1.22 2.93-.42 2.9 1.86-.06 4.39.03 8.79-.06 13.18-.08 3.98-2.84 6.24-5.8 8.16-10.18 6.62-21.58 9.3-33.55 10zM286.4 110.93c-.02-1.07.12-2.06.83-2.96 5.75-7.29 6.56-14.89 1.43-22.89-.37-.58-.32-1.44-.47-2.17 6 1.37 11.32 4.1 15.74 8.37 3.87 3.74 3.87 7.17-.04 10.92-4.9 4.7-10.88 7.39-17.49 8.73z"/></g><g id="Mug_Shadow_00000164494558746247008440000006579531833715460258_"><path class="st8" d="M479.02 207.43c-2.27-7.68-3.89-15.6-7.19-22.92-4.4-9.78-10.76-17.59-22.33-19.09-5.12-.66-9.86 1.08-14.63 2.57-3.61 1.13-7.33 2-10.79 3.47-3.07 1.3-3.91.26-4.57-2.58-.89-3.82-2.24-7.53-3.4-11.29-.73-2.34-1.49-4.75-4.18-5.52-1.68-.48-1.38-1.6-1.45-2.82-.92-15.83-12.49-25.47-28.46-23.76-1.36.15-2.54.3-3.63-1.07-11.87-14.87-27.64-16-44.53-12.08-10.5 2.44-19.34 8.01-25.55 16.95-2.1 3.02-4.53 4.04-7.83 4.27-9.18.65-16.85 4.56-23.25 11.08-4.76 4.84-7.28 10.7-7.91 17.41-.11 1.18.13 2.37-1.26 3.12-4.38 2.34-7.49 6.01-10.18 10.36-2.68-4.47-5.94-7.99-10.45-10.19-1.2-.59-1.78-1.37-1.83-2.79-.55-16.3-16.26-27.36-28.37-28.6-5.25-.54-8.94-2.32-12.45-6.58-14.11-17.12-46.17-22.01-62.16-8.08-1.81 1.58-14.97 7.03-17.51 7.41-12.64 1.92-21.21 11.68-21.3 24.33-.01.91.41 2.09-.52 2.47-5.87 2.35-5.79 8.07-7.3 12.82-2.5 7.85-2.37 7.78-10.25 5.38-6.76-2.06-13.29-5.1-20.71-4.37-11.99 1.17-18.91 8.86-22.68 19.05-6.61 17.85-12.19 36.08-18.19 54.16-.23.68-.09 1.55-1.03 1.81v14.59c1.48.73 1.2 2.33 1.63 3.52 2.66 7.33 7.6 12.27 15.01 14.69 5.03 1.64 10.05 3.33 15.16 4.72 3.06.83 4.48 2.01 2.74 5.2-.57 1.05-.92 2.24-1.25 3.4-1.5 5.29-3.79 9.17-9.42 11.99-9.96 5-14.34 14.23-12.86 25.42 1.6 12.13 9.33 19.33 20.55 23 25.43 8.33 50.9 16.53 76.36 24.78 17.4 5.64 34.81 11.26 52.21 16.93.78.25 1.9.1 2.17 1.29h7.29c3.13-1.65 6.71-2.03 9.84-3.84 13.06-7.57 17.3-24.4 8.95-36.97-1.54-2.33-1.59-4.16-.77-6.7 14.25-44.31 28.4-88.66 42.58-133 1.01-3.17 2.26-6.25.92-9.7-.65-1.69.98-2.64 1.93-3.8 1.45 1.23 2.75 2.19 1.66 4.55-1.15 2.5.23 5.05 1.02 7.48 14.6 44.83 29.22 89.66 43.82 134.49.63 1.93 1.31 3.61-.16 5.88-10.38 15.98-3.82 33.84 14.36 39.91 1.47.49 3.31.2 4.41 1.71h6.38c10.54-4.39 21.57-7.36 32.39-10.91 32.9-10.78 65.85-21.38 98.77-32.12 15.28-4.98 22.97-17.16 20.15-31.99-1.56-8.17-6.48-14.05-13.98-17.3-3.69-1.6-5.98-3.68-6.79-7.52-.77-3.65-4.41-7.66-2.72-10.47 1.42-2.36 6.4-2.69 9.86-3.71 8.12-2.39 15.9-5.28 20.56-13.03 1.52-2.53 2.71-5.26 4.06-7.9v-11.85c-3.66-12.57-7.24-25.13-10.94-37.66zm-391.09-17.1c-7.82 24.3-15.6 48.61-23.26 72.96-.76 2.43-1.77 2.56-3.84 1.83-4.56-1.6-9.19-2.99-13.78-4.5-6.14-2.02-7.57-4.08-7.47-10.65-.17-3.87 1.11-7.47 2.21-11.07 4.68-15.31 9.49-30.59 14.18-45.9 1.05-3.44 2.98-6.24 5.45-8.78 2.19-2.25 4.76-3.17 7.79-2.3 5.8 1.67 11.57 3.45 17.37 5.11 1.96.58 1.9 1.58 1.35 3.3zm378.36 69.95c-4.25 1.57-8.55 3.03-12.78 4.67-2.23.86-3.27.67-4.1-1.98-7.6-24.39-15.38-48.72-23.15-73.06-.67-2.11-.29-3.26 1.99-3.91 4.65-1.32 9.23-2.9 13.86-4.3 7.46-2.26 12.01-.28 15.47 9.13 5.95 16.15 10.7 32.75 15.91 49.17.83 2.62 1.08 5.35.99 7.69.15 7.95-1.23 10.02-8.19 12.59z"/><path class="st8" d="M247.39 108.78c0 2.13-.08 4.25.79 6.27 1.5 3.49 4.31 5.2 7.92 4.94 3.55-.26 6.38-2.01 6.98-5.98.25-1.64.5-3.3.51-4.95.04-18.67-.03-37.35.06-56.02.02-5.02-1.24-9.11-6.21-11.27h-4.56c-4.58 2.7-5.61 6.83-5.56 11.91.19 18.36.08 36.73.07 55.1zM216.59 114.58c1.63 3.07 3.23 6.17 5.1 9.09 2.18 3.41 5.56 4.08 9.16 2.84 3.35-1.15 4.98-3.77 4.84-7.69.44-2.57-1.73-4.41-2.87-6.64-9.7-18.81-19.48-37.59-29.23-56.38-1.42-2.74-2.95-5.39-6.36-5.95-3.43-.56-6.27.47-8.37 3.35-2.15 2.94-1.88 5.81-.21 8.91 9.36 17.48 18.63 34.99 27.94 52.47zM283.21 126.7c2.93.2 4.87-1.92 6.36-4.79 10.39-19.99 20.8-39.96 31.18-59.96.91-1.75 1.69-3.63 1.25-5.66-.72-3.34-2.38-5.84-6.07-6.49-3.76-.66-6.55.63-8.3 3.98-10.47 20.12-20.92 40.24-31.35 60.38-.48.93-.86 1.95-1.04 2.97-.86 4.71 2.81 9.44 7.97 9.57z"/></g><g id="Mug_Shadow_00000131360830838935791230000005396752662313670818_"><path class="st9" d="M479.02 207.43c-2.27-7.68-3.89-15.6-7.19-22.92-4.4-9.78-10.76-17.59-22.33-19.09-5.12-.66-9.86 1.08-14.63 2.57-3.61 1.13-7.33 2-10.79 3.47-3.07 1.3-3.91.26-4.57-2.58-.89-3.82-2.24-7.53-3.4-11.29-.73-2.34-1.49-4.75-4.18-5.52-1.68-.48-1.38-1.6-1.45-2.82-.92-15.83-12.49-25.47-28.46-23.76-1.36.15-2.54.3-3.63-1.07-11.87-14.87-27.64-16-44.53-12.08-10.5 2.44-19.34 8.01-25.55 16.95-2.1 3.02-4.53 4.04-7.83 4.27-9.18.65-16.85 4.56-23.25 11.08-4.76 4.84-7.28 10.7-7.91 17.41-.11 1.18.13 2.37-1.26 3.12-4.38 2.34-7.49 6.01-10.18 10.36-2.68-4.47-5.94-7.99-10.45-10.19-1.2-.59-1.78-1.37-1.83-2.79-.55-16.3-16.26-27.36-28.37-28.6-5.25-.54-8.94-2.32-12.45-6.58-14.11-17.12-46.17-22.01-62.16-8.08-1.81 1.58-14.97 7.03-17.51 7.41-12.64 1.92-21.21 11.68-21.3 24.33-.01.91.41 2.09-.52 2.47-5.87 2.35-5.79 8.07-7.3 12.82-2.5 7.85-2.37 7.78-10.25 5.38-6.76-2.06-13.29-5.1-20.71-4.37-11.99 1.17-18.91 8.86-22.68 19.05-6.61 17.85-12.19 36.08-18.19 54.16-.23.68-.09 1.55-1.03 1.81v14.59c1.48.73 1.2 2.33 1.63 3.52 2.66 7.33 7.6 12.27 15.01 14.69 5.03 1.64 10.05 3.33 15.16 4.72 3.06.83 4.48 2.01 2.74 5.2-.57 1.05-.92 2.24-1.25 3.4-1.5 5.29-3.79 9.17-9.42 11.99-9.96 5-14.34 14.23-12.86 25.42 1.6 12.13 9.33 19.33 20.55 23 25.43 8.33 50.9 16.53 76.36 24.78 17.4 5.64 34.81 11.26 52.21 16.93.78.25 1.9.1 2.17 1.29h7.29c3.13-1.65 6.71-2.03 9.84-3.84 13.06-7.57 17.3-24.4 8.95-36.97-1.54-2.33-1.59-4.16-.77-6.7 14.25-44.31 28.4-88.66 42.58-133 1.01-3.17 2.26-6.25.92-9.7-.65-1.69.98-2.64 1.93-3.8 1.45 1.23 2.75 2.19 1.66 4.55-1.15 2.5.23 5.05 1.02 7.48 14.6 44.83 29.22 89.66 43.82 134.49.63 1.93 1.31 3.61-.16 5.88-10.38 15.98-3.82 33.84 14.36 39.91 1.47.49 3.31.2 4.41 1.71h6.38c10.54-4.39 21.57-7.36 32.39-10.91 32.9-10.78 65.85-21.38 98.77-32.12 15.28-4.98 22.97-17.16 20.15-31.99-1.56-8.17-6.48-14.05-13.98-17.3-3.69-1.6-5.98-3.68-6.79-7.52-.77-3.65-4.41-7.66-2.72-10.47 1.42-2.36 6.4-2.69 9.86-3.71 8.12-2.39 15.9-5.28 20.56-13.03 1.52-2.53 2.71-5.26 4.06-7.9v-11.85c-3.66-12.57-7.24-25.13-10.94-37.66zm-391.09-17.1c-7.82 24.3-15.6 48.61-23.26 72.96-.76 2.43-1.77 2.56-3.84 1.83-4.56-1.6-9.19-2.99-13.78-4.5-6.14-2.02-7.57-4.08-7.47-10.65-.17-3.87 1.11-7.47 2.21-11.07 4.68-15.31 9.49-30.59 14.18-45.9 1.05-3.44 2.98-6.24 5.45-8.78 2.19-2.25 4.76-3.17 7.79-2.3 5.8 1.67 11.57 3.45 17.37 5.11 1.96.58 1.9 1.58 1.35 3.3zm378.36 69.95c-4.25 1.57-8.55 3.03-12.78 4.67-2.23.86-3.27.67-4.1-1.98-7.6-24.39-15.38-48.72-23.15-73.06-.67-2.11-.29-3.26 1.99-3.91 4.65-1.32 9.23-2.9 13.86-4.3 7.46-2.26 12.01-.28 15.47 9.13 5.95 16.15 10.7 32.75 15.91 49.17.83 2.62 1.08 5.35.99 7.69.15 7.95-1.23 10.02-8.19 12.59z"/><path class="st9" d="M247.39 108.78c0 2.13-.08 4.25.79 6.27 1.5 3.49 4.31 5.2 7.92 4.94 3.55-.26 6.38-2.01 6.98-5.98.25-1.64.5-3.3.51-4.95.04-18.67-.03-37.35.06-56.02.02-5.02-1.24-9.11-6.21-11.27h-4.56c-4.58 2.7-5.61 6.83-5.56 11.91.19 18.36.08 36.73.07 55.1zM216.59 114.58c1.63 3.07 3.23 6.17 5.1 9.09 2.18 3.41 5.56 4.08 9.16 2.84 3.35-1.15 4.98-3.77 4.84-7.69.44-2.57-1.73-4.41-2.87-6.64-9.7-18.81-19.48-37.59-29.23-56.38-1.42-2.74-2.95-5.39-6.36-5.95-3.43-.56-6.27.47-8.37 3.35-2.15 2.94-1.88 5.81-.21 8.91 9.36 17.48 18.63 34.99 27.94 52.47zM283.21 126.7c2.93.2 4.87-1.92 6.36-4.79 10.39-19.99 20.8-39.96 31.18-59.96.91-1.75 1.69-3.63 1.25-5.66-.72-3.34-2.38-5.84-6.07-6.49-3.76-.66-6.55.63-8.3 3.98-10.47 20.12-20.92 40.24-31.35 60.38-.48.93-.86 1.95-1.04 2.97-.86 4.71 2.81 9.44 7.97 9.57z"/></g><g id="Mugs_00000112591294978717315980000007375395683681143449_"><path class="st2" d="M327.63 391.85h-6.38c-1.09-1.51-2.94-1.22-4.41-1.71-18.18-6.07-24.74-23.93-14.36-39.91 1.47-2.27.79-3.94.16-5.88-14.6-44.83-29.23-89.66-43.82-134.49-.79-2.43-2.17-4.98-1.02-7.48 1.09-2.37-.21-3.32-1.66-4.55-.94 1.16-2.58 2.1-1.93 3.8 1.34 3.45.09 6.53-.92 9.7-14.18 44.34-28.33 88.68-42.58 133-.82 2.54-.77 4.37.77 6.7 8.35 12.57 4.11 29.4-8.95 36.97-3.12 1.81-6.71 2.19-9.84 3.84h-7.29c-.27-1.18-1.39-1.03-2.17-1.29-17.39-5.67-34.8-11.29-52.21-16.93-25.46-8.25-50.93-16.45-76.36-24.78-11.22-3.68-18.95-10.87-20.55-23-1.48-11.19 2.9-20.42 12.86-25.42 5.62-2.82 7.92-6.7 9.42-11.99.33-1.16.68-2.35 1.25-3.4 1.74-3.19.32-4.37-2.74-5.2-5.1-1.38-10.13-3.07-15.16-4.72-7.4-2.42-12.35-7.36-15.01-14.69-.43-1.19-.16-2.79-1.63-3.52v-14.59c.94-.26.81-1.13 1.03-1.81 6-18.08 11.59-36.31 18.19-54.16 3.77-10.19 10.69-17.88 22.68-19.05 7.42-.73 13.95 2.31 20.71 4.37 7.89 2.4 7.75 2.47 10.25-5.38 1.51-4.74 1.43-10.46 7.3-12.82.93-.37.52-1.56.52-2.47.09-12.65 8.66-22.4 21.3-24.33 2.54-.39 15.69-5.83 17.51-7.41 15.99-13.92 48.06-9.04 62.16 8.08 3.51 4.26 7.2 6.04 12.45 6.58 12.11 1.24 27.82 12.3 28.37 28.6.05 1.42.63 2.2 1.83 2.79 4.51 2.2 7.77 5.72 10.45 10.19 2.69-4.35 5.8-8.02 10.18-10.36 1.39-.74 1.15-1.94 1.26-3.12.63-6.71 3.16-12.57 7.91-17.41 6.41-6.52 14.07-10.42 23.25-11.08 3.3-.23 5.73-1.25 7.83-4.27 6.21-8.94 15.05-14.51 25.55-16.95 16.89-3.93 32.66-2.8 44.53 12.08 1.09 1.36 2.27 1.21 3.63 1.07 15.97-1.71 27.55 7.93 28.46 23.76.07 1.23-.23 2.34 1.45 2.82 2.69.77 3.45 3.18 4.18 5.52 1.16 3.75 2.51 7.47 3.4 11.29.66 2.84 1.51 3.88 4.57 2.58 3.46-1.47 7.18-2.34 10.79-3.47 4.76-1.49 9.51-3.24 14.63-2.57 11.57 1.5 17.93 9.3 22.33 19.09 3.3 7.32 4.92 15.24 7.19 22.92 3.7 12.53 7.28 25.09 10.91 37.64v11.85c-1.34 2.64-2.53 5.37-4.06 7.9-4.66 7.75-12.45 10.64-20.56 13.03-3.46 1.02-8.44 1.34-9.86 3.71-1.69 2.81 1.95 6.82 2.72 10.47.81 3.84 3.1 5.92 6.79 7.52 7.5 3.25 12.42 9.12 13.98 17.3 2.82 14.82-4.87 27-20.15 31.99-32.91 10.73-65.87 21.34-98.77 32.12-10.79 3.57-21.81 6.55-32.36 10.93zM190.81 213.41c4.84 1.67 9.7 3.3 14.52 5.04 2.16.78 3-.24 3.57-2.1 1.23-4.05 2.45-8.11 3.86-12.09.7-1.99.36-3.03-1.74-3.64-5.22-1.5-10.4-3.13-15.6-4.7-16.82-5.51-33.64-11.04-50.47-16.52-8.77-2.86-8.78-2.82-11.48 5.78-2.85 9.06-2.86 9.1 6.29 12.03 17.01 5.42 34.03 10.8 51.05 16.2zm176.02-14c4.74-1.47 9.46-3.01 14.24-4.36 1.9-.54 2.41-1.32 1.75-3.23-1.48-4.27-2.85-8.59-4.11-12.93-.57-1.96-1.46-2.23-3.29-1.54-4.36 1.63-8.79 3.06-13.19 4.57-19.75 6.27-39.49 12.55-59.26 18.78-1.91.6-2.2 1.64-1.61 3.39 1.41 4.15 2.85 8.3 4.03 12.52.63 2.26 1.79 2.38 3.68 1.76 19.24-6.34 38.5-12.65 57.76-18.96zm-64.72-49.97c-6.79.73-12.46 3.23-15.5 9.86-2.13 2.46-1.69 5.33-1.36 8.2.66 5.59-.92 8.14-6.24 9.89-2.17.71-4.28 1.44-6.01 3.03-2.13 1.95-4.07 4.33-2.4 7.08 1.7 2.81 4.83 3.57 8.03 2.35 13.99-5.34 28.42-9.32 42.62-14 20.65-6.81 41.36-13.42 62.04-20.12 3.5-.3 5.67-2.61 7.61-5.18 2.91-3.85 2.13-7.12-2.19-9.17-3.66-1.73-7.32-1.37-11.03.02-5.21 1.95-7.82 1.04-10.64-3.65-1.5-2.49-3.13-4.79-5.51-6.55-11.12-8.2-30.04-5.14-39.19 6.39-1.47.93-2.24 2.41-3.01 3.88-2.92 5.52-6.69 9.28-13.68 7.36-1.06-.3-2.36.38-3.54.61zm-136.67-23.6c-8.02-.27-14.16 3.12-18.05 10.01-4.04 7.16-5.42 8.01-13.76 6.51-3.32-.6-6.65-.8-9.77.82-4.49 2.34-5.02 6.45-1.28 9.91 2.7 2.5 5.76 4.3 9.34 5.4 9.1 2.8 18.13 5.8 27.2 8.68 23.32 7.39 46.64 14.76 69.96 22.14 2.36 1.37 4.94 1.32 7.52 1.11 2.62-.22 4.7-1.44 5.67-3.9 1.05-2.66-.52-4.68-2.24-6.45-1.84-1.9-4.22-2.82-6.77-3.48-4.4-1.14-6.75-5.08-5.28-9.37 1.4-4.08.35-7.58-2.1-10.57-5.27-6.43-12.12-9.36-20.53-8.11-4.55.43-7.58-1.93-10.01-5.41-5.89-12.84-16.78-16.99-29.9-17.29zm273.07 213.53c5.77-1.8 11.61-3.4 17.29-5.44 5.38-1.93 8.23-6.99 7.68-12.57-.47-4.7-3.5-7.32-7.73-7.54-6.35-.34-8.79-3.96-10.51-9.39-13.86-43.67-27.86-87.3-41.86-130.93-.58-1.8-.2-5.19-3.97-3.21-2.59 1.36-7.03.59-5.01 6.36 5.15 14.7 9.67 29.61 14.45 44.43 7.53 23.31 14.76 46.73 22.76 69.88 3.19 9.23 3.56 17.61-1.66 25.99-2.68 3.58-5.82 6.82-10.1 8.21-22 7.15-43.96 14.49-66.15 20.99-13.34 3.91-24.88-3.16-29.12-16.32-12.65-39.29-25.45-78.54-37.86-117.9-1.76-5.56-4.62-2.74-7.49-2.38-4.22.54-2.12 3.2-1.55 4.99 14.01 43.94 28.01 87.88 42.26 131.75 1.74 5.36 1.14 9.18-3.11 12.92-4.42 3.89-4.09 9.59.28 13.49 3.94 3.52 8.4 3.65 13.2 2.09 16.39-5.33 32.82-10.56 49.2-15.92 19.69-6.46 39.34-13 59-19.5zm-264.92 6.15c-4.98 1.33-9.88.98-14.75-.64-3.3-1.1-6.63-2.1-9.94-3.16-16.99-5.45-34.07-10.66-50.95-16.44-14.16-4.84-20.77-18.1-16.47-31.34 12.79-39.42 25.37-78.9 38.35-118.25 2.01-6.1-2.75-4.92-5.23-6.27-3.83-2.09-3.36 1.69-3.89 3.33-14.28 43.54-28.54 87.08-42.6 130.69-1.75 5.44-4.06 9.01-10.3 9.66-4.68.49-7.45 4.03-8.02 8.69-.58 4.73 1.68 8.16 5.92 10.23 1.35.66 2.79 1.16 4.22 1.63 23.29 7.59 46.58 15.21 69.9 22.73 12.36 3.98 24.55 8.52 37.15 11.75 6.06 2.78 12.55 4.31 18.83 6.44 4.94 1.68 9.32.27 11.99-3.64 2.26-3.32 2.05-8.83-1.33-12.21-4.43-4.44-4.46-9.06-2.61-14.57 14.54-43.48 28.97-87.01 43.36-130.54.55-1.67 2.56-4.23-1.27-4.76-2.79-.39-5.92-3.45-7.7 2.2-12.17 38.53-24.81 76.91-36.92 115.46-2.98 9.46-8.42 15.83-17.74 19.01zm11.73-116.71c-18.38-6.17-36.79-12.22-55.09-18.61-3.68-1.28-4.87-.55-5.99 3.03-6.87 21.97-13.98 43.87-21 65.8-2.03 6.35-4.25 12.65-5.99 19.07-1.74 6.42-.44 9.4 5.12 11.22 15.97 5.24 32.03 10.18 48.06 15.25 3.57 1.22 7.13 2.48 10.72 3.64 7.63 2.48 11.07 1.06 13.58-6.56 9.26-28.07 18.26-56.23 27.48-84.32.84-2.55-.19-3.22-2.17-3.83-4.92-1.53-9.81-3.12-14.72-4.69zm216.19 83.77c3.32-1.02 6.7-1.87 9.95-3.08 5.66-2.11 7.16-4.54 5.52-10.53-2.4-8.75-5.31-17.37-8.1-26.02-6.4-19.9-12.92-39.76-19.21-59.69-.97-3.09-2.21-3.77-5.06-2.53-3.73 1.62-7.87 2.12-11.46 4.16-1.61.38-3.26.65-4.84 1.16-17.6 5.67-35.14 11.5-52.8 16.98-3.56 1.1-4.39 2.22-3.19 5.84 6.3 18.98 12.33 38.05 18.47 57.09 2.88 8.94 5.64 17.93 8.72 26.8 2.26 6.51 5.63 8.74 11.2 6.93 16.99-5.52 33.87-11.38 50.8-17.11zm72.98-64.89c.09-2.34-.16-5.07-.99-7.69-5.22-16.42-9.96-33.02-15.91-49.17-3.47-9.41-8.01-11.38-15.47-9.13-4.63 1.4-9.21 2.98-13.86 4.3-2.28.65-2.66 1.81-1.99 3.91 7.77 24.34 15.54 48.67 23.15 73.06.83 2.66 1.87 2.85 4.1 1.98 4.23-1.64 8.53-3.09 12.78-4.67 6.95-2.57 8.33-4.64 8.19-12.59zm-434.93 2.28c-.1 6.57 1.34 8.63 7.47 10.65 4.59 1.51 9.23 2.9 13.78 4.5 2.07.73 3.08.6 3.84-1.83 7.66-24.35 15.44-48.66 23.26-72.96.56-1.73.61-2.72-1.37-3.29-5.8-1.66-11.57-3.45-17.37-5.11-3.04-.87-5.61.05-7.79 2.3-2.46 2.53-4.39 5.33-5.45 8.78-4.69 15.31-9.49 30.59-14.18 45.9-1.09 3.6-2.36 7.2-2.19 11.06z"/><path d="M257.43 41.77c4.96 2.17 6.23 6.25 6.21 11.27-.09 18.67-.02 37.35-.06 56.02 0 1.65-.25 3.31-.51 4.95-.61 3.97-3.43 5.72-6.98 5.98-3.6.26-6.41-1.46-7.92-4.94-.87-2.02-.79-4.14-.79-6.27.01-18.37.12-36.74-.07-55.11-.05-5.08.97-9.21 5.56-11.91 1.52.01 3.04.01 4.56.01z" style="fill:#4e292d"/><path class="st11" d="M401.51 312.58c-16.92 5.73-33.8 11.59-50.79 17.1-5.57 1.81-8.94-.42-11.2-6.93-3.08-8.87-5.84-17.86-8.72-26.8-6.13-19.04-12.17-38.11-18.47-57.09-1.2-3.63-.37-4.74 3.19-5.84 17.66-5.48 35.2-11.31 52.8-16.98 1.57-.51 3.22-.78 4.84-1.16.3 1.62.43 3.3.93 4.87 8.29 25.92 16.57 51.85 24.98 77.74 1.6 4.94 2.83 9.86 2.44 15.09zM150.43 324.58c-16.03-5.06-32.09-10.01-48.06-15.25-5.56-1.82-6.85-4.8-5.12-11.22 1.74-6.43 3.96-12.73 5.99-19.07 7.02-21.93 14.13-43.83 21-65.8 1.12-3.58 2.31-4.32 5.99-3.03 18.3 6.39 36.72 12.44 55.09 18.61-.57 1.88-1.12 3.76-1.72 5.64-8.59 27-17.12 54.02-25.86 80.97-1.22 3.76-2.55 7.97-7.31 9.15z"/><path d="M166.97 368.12c-12.6-3.24-24.79-7.77-37.15-11.75-23.32-7.52-46.6-15.14-69.9-22.73-1.43-.47-2.87-.97-4.22-1.63-4.24-2.07-6.5-5.5-5.92-10.23.57-4.66 3.34-8.2 8.02-8.69 6.24-.65 8.55-4.22 10.3-9.66 14.05-43.61 28.31-87.16 42.6-130.69.54-1.64.06-5.42 3.89-3.33 2.48 1.35 7.24.17 5.23 6.27-12.98 39.35-25.57 78.83-38.35 118.25-4.3 13.24 2.31 26.5 16.47 31.34 16.88 5.78 33.96 10.99 50.95 16.44 3.31 1.06 6.65 2.06 9.94 3.16 4.86 1.63 9.77 1.98 14.75.64-.4 1.61-.76 3.23-1.22 4.82-1.73 5.95-4.46 11.59-5.39 17.79z" style="fill:#f9f8f8"/><path d="M438.51 339.37c-19.66 6.5-39.31 13.04-59 19.48-16.38 5.36-32.81 10.59-49.2 15.92-4.8 1.56-9.26 1.43-13.2-2.09-4.37-3.9-4.7-9.6-.28-13.49 4.25-3.74 4.85-7.56 3.11-12.92-14.25-43.86-28.25-87.81-42.26-131.75-.57-1.79-2.67-4.45 1.55-4.99 2.87-.36 5.73-3.19 7.49 2.38 12.42 39.37 25.21 78.61 37.86 117.9 4.24 13.16 15.78 20.23 29.12 16.32 22.2-6.5 44.15-13.84 66.15-20.99 4.28-1.39 7.42-4.63 10.09-8.21 2.38 3.73 2.94 8.13 4.52 12.15 1.36 3.44 1.22 7.45 4.05 10.29z" style="fill:#faf8f8"/><path d="M229.07 189.31c-23.32-7.38-46.64-14.74-69.96-22.14-9.07-2.88-18.11-5.88-27.2-8.68-3.57-1.1-6.64-2.9-9.34-5.4-3.73-3.47-3.21-7.57 1.28-9.91 3.12-1.63 6.45-1.42 9.77-.82 8.34 1.5 9.72.65 13.76-6.51 3.89-6.89 10.03-10.28 18.05-10.01 5.47 3.65 10.33 7.9 13.68 13.67.9 1.56 2.16 2.56 4.04 2.43 4.13-.28 8.11.87 12.17 1.18 2.43 3.49 5.47 5.84 10.02 5.41 5.01 5.76 9.72 11.62 8.36 20.07-.44 2.73 1.75 3.43 3.71 4.36 6.93 3.26 11.19 8.47 11.66 16.35z" style="fill:#fcfcfb"/><path d="M383.28 155.73c-20.68 6.7-41.39 13.31-62.04 20.12-14.2 4.68-28.63 8.66-42.62 14-3.2 1.22-6.33.46-8.03-2.35-1.67-2.75.27-5.13 2.4-7.08 1.73-1.59 3.84-2.32 6.01-3.03 5.32-1.75 6.9-4.29 6.24-9.89-.34-2.88-.77-5.74 1.36-8.2 5.99-.13 11.44-1.19 13.84-7.78.29-.79 1.09-1.39 1.66-2.08 1.18-.23 2.48-.91 3.51-.62 6.99 1.93 10.77-1.83 13.68-7.36.77-1.46 1.54-2.95 3.01-3.88 1.04-.15 2.09-.29 3.13-.44 14.42-2.09 24.38-.28 33.47 12.95 1.61 2.34 3.27 1.81 5.45 1.54 6.76-.86 13.65-1.93 18.93 4.1z" style="fill:#fbfafa"/><path class="st16" d="M438.51 339.37c-2.83-2.84-2.7-6.85-4.04-10.27-1.58-4.02-2.14-8.43-4.52-12.15 5.22-8.37 4.85-16.76 1.66-25.99-8-23.15-15.23-46.57-22.76-69.88-4.79-14.82-9.31-29.73-14.45-44.43-2.02-5.77 2.42-5 5.01-6.36 3.77-1.98 3.39 1.41 3.97 3.21 14 43.63 28 87.26 41.86 130.93 1.72 5.43 4.16 9.05 10.51 9.39 4.23.23 7.26 2.85 7.73 7.54.55 5.59-2.3 10.64-7.68 12.57-5.68 2.03-11.52 3.64-17.29 5.44zM166.97 368.12c.93-6.19 3.66-11.83 5.39-17.78.46-1.59.82-3.21 1.22-4.82 9.33-3.17 14.76-9.54 17.74-19.04 12.11-38.55 24.75-76.93 36.92-115.46 1.79-5.65 4.91-2.59 7.7-2.2 3.83.54 1.82 3.09 1.27 4.76-14.4 43.53-28.82 87.06-43.36 130.54-1.85 5.52-1.81 10.14 2.61 14.57 3.37 3.38 3.59 8.89 1.33 12.21-2.67 3.91-7.05 5.32-11.99 3.64-6.28-2.12-12.77-3.64-18.83-6.42z"/><path class="st17" d="M150.43 324.58c4.76-1.18 6.09-5.39 7.31-9.16 8.75-26.95 17.27-53.97 25.86-80.97.6-1.87 1.15-3.76 1.72-5.64 4.9 1.57 9.8 3.16 14.71 4.69 1.97.62 3 1.29 2.17 3.83-9.22 28.08-18.22 56.24-27.48 84.32-2.51 7.62-5.95 9.04-13.58 6.56-3.58-1.15-7.14-2.42-10.71-3.63zM401.51 312.58c.4-5.23-.84-10.15-2.44-15.1-8.41-25.89-16.7-51.81-24.98-77.74-.5-1.56-.63-3.24-.93-4.87 3.59-2.03 7.73-2.54 11.46-4.16 2.85-1.24 4.09-.55 5.06 2.53 6.28 19.93 12.81 39.79 19.21 59.69 2.78 8.65 5.7 17.26 8.1 26.02 1.64 6 .14 8.43-5.52 10.53-3.26 1.23-6.64 2.09-9.96 3.1z"/><path class="st18" d="M366.83 199.41c-19.26 6.31-38.52 12.62-57.77 18.95-1.89.62-3.04.5-3.68-1.76-1.18-4.22-2.62-8.37-4.03-12.52-.59-1.74-.3-2.78 1.61-3.39 19.76-6.23 39.51-12.51 59.26-18.78 1.53 5.83 3.07 11.67 4.61 17.5zM190.81 213.41c-17.02-5.4-34.05-10.78-51.05-16.21-9.15-2.93-9.14-2.97-6.29-12.03 2.7-8.6 2.71-8.64 11.48-5.78 16.83 5.48 33.65 11.01 50.47 16.52-.51 6.1-3.81 11.47-4.61 17.5z"/><path class="st19" d="M383.28 155.73c-5.28-6.02-12.17-4.96-18.91-4.1-2.18.28-3.85.8-5.45-1.54-9.09-13.23-19.04-15.04-33.47-12.95-1.04.15-2.09.3-3.13.44 9.15-11.53 28.07-14.6 39.19-6.39 2.38 1.76 4.02 4.06 5.51 6.55 2.82 4.7 5.43 5.61 10.64 3.65 3.71-1.39 7.37-1.75 11.03-.02 4.32 2.05 5.1 5.33 2.19 9.17-1.93 2.58-4.1 4.88-7.6 5.19zM229.07 189.31c-.47-7.88-4.74-13.09-11.65-16.35-1.97-.93-4.15-1.63-3.71-4.36 1.37-8.45-3.34-14.31-8.36-20.07 8.4-1.25 15.25 1.68 20.52 8.11 2.45 2.99 3.5 6.49 2.1 10.57-1.47 4.3.88 8.23 5.28 9.37 2.55.66 4.92 1.58 6.77 3.48 1.72 1.78 3.29 3.79 2.24 6.45-.97 2.47-3.05 3.68-5.67 3.9-2.58.22-5.16.26-7.52-1.1z"/><path class="st20" d="M190.81 213.41c.8-6.03 4.09-11.39 4.61-17.5 5.2 1.58 10.38 3.21 15.6 4.7 2.11.6 2.45 1.65 1.74 3.64-1.41 3.99-2.63 8.05-3.86 12.09-.57 1.86-1.41 2.88-3.57 2.1-4.82-1.73-9.68-3.36-14.52-5.03zM366.83 199.41c-1.54-5.83-3.07-11.67-4.61-17.5 4.4-1.51 8.84-2.94 13.19-4.57 1.83-.69 2.72-.42 3.29 1.54 1.26 4.34 2.63 8.65 4.11 12.93.66 1.91.15 2.69-1.75 3.23-4.77 1.36-9.49 2.9-14.23 4.37z"/><path class="st19" d="M195.34 143.12c-4.07-.31-8.05-1.46-12.17-1.18-1.88.13-3.14-.87-4.04-2.43-3.35-5.77-8.21-10.02-13.68-13.67 13.11.3 24 4.45 29.89 17.28z"/><path class="st16" d="M302.11 149.44c-.56.69-1.37 1.29-1.66 2.08-2.4 6.59-7.85 7.64-13.84 7.78 3.04-6.63 8.71-9.13 15.5-9.86z"/><path class="st21" d="M235.7 118.83c.14 3.92-1.5 6.54-4.84 7.69-3.6 1.24-6.98.57-9.16-2.84-1.87-2.92-3.47-6.03-5.1-9.09-9.32-17.48-18.58-34.99-27.94-52.46-1.66-3.1-1.94-5.97.21-8.91 2.1-2.88 4.95-3.91 8.37-3.35 3.4.56 4.94 3.21 6.36 5.95 9.75 18.79 19.53 37.57 29.23 56.38 1.15 2.22 3.32 4.06 2.87 6.63zM283.21 126.7c-5.17-.13-8.83-4.86-7.97-9.57.19-1.02.57-2.05 1.04-2.97 10.43-20.14 20.87-40.27 31.35-60.38 1.74-3.35 4.54-4.64 8.3-3.98 3.7.65 5.35 3.16 6.07 6.49.44 2.04-.34 3.91-1.25 5.66-10.38 19.99-20.79 39.97-31.18 59.96-1.48 2.87-3.42 4.99-6.36 4.79z"/></g></g><g id="Text"><g id="DUSTER_00000036213225882116930820000016061990043945043375_"><g id="DUSTER_Shadow"><path class="st22" d="M548.33 90.25h105.69v53.95h-52.47v159.27h52.47v52.11H548.33zM654.02 144.2h52.48v159.28h-52.48zM760.45 90.25h53.21V303.1h53.96V90.25h52.47v266.07H760.45zM974.04 90.25h159.65v53.21H1028v53.59h105.69v159.27H974.04V303.1h107.17v-53.58H974.04zM1186.16 89.51h158.9v53.21h-52.47v213.6h-52.48v-213.6h-53.95zM1399.01 90.25h159.65v53.21h-106.43v54.32h53.21V251h-53.21v53.58h106.43v52.48h-159.65zM1612.6 89.51h160.39v53.21h-107.17v53.21h53.95v53.22h53.22v107.17h-53.22V249.15h-53.95v107.17h-53.22z"/><path class="st22" d="M1719.77 142.72h53.21v53.21h-53.21z"/></g><g id="DUSTER"><path class="st2" d="M548.33 90.25h105.69v53.95h-52.47v159.27h52.47v52.11H548.33zM654.02 144.2h52.48v159.28h-52.48zM760.45 90.25h53.21V303.1h53.96V90.25h52.47v266.07H760.45zM974.04 90.25h159.65v53.21H1028v53.59h105.69v159.27H974.04V303.1h107.17v-53.58H974.04zM1186.16 89.51h158.9v53.21h-52.47v213.6h-52.48v-213.6h-53.95zM1399.01 90.25h159.65v53.21h-106.43v54.32h53.21V251h-53.21v53.58h106.43v52.48h-159.65zM1612.6 89.51h160.39v53.21h-107.17v53.21h53.95v53.22h53.22v107.17h-53.22V249.15h-53.95v107.17h-53.22z"/><path class="st2" d="M1719.77 142.72h53.21v53.21h-53.21z"/></g></g><g id="DASHBOARD_00000073703096156120780130000008781489267832615858_"><g id="DASHBOARD_Shadow_00000060029202857385966080000005133814718654508683_"><path class="st22" d="M1940.88 90.25h105.54v53.88h-52.4v159.05h52.4v52.03h-105.54V90.25zm105.54 53.87h52.4v159.05h-52.4V144.12zM2152.7 90.25h159.42v265.71h-53.88V144.12h-53.14v211.83h-52.4V90.25zm52.4 106.65h53.14v52.4h-53.14v-52.4zM2366 90.25h159.42v53.14h-105.54v53.51h105.54v159.05H2366v-53.14h107.02V249.3H2366V90.25zM2577.82 90.25h52.4v105.91h53.88V90.25h53.14v265.71h-53.14V250.04h-53.88v105.91h-52.4V90.25zM2790.01 91.35h158.32v53.14h-105.91v54.25h159.79v52.4h-159.79v53.14h159.79v52.77h-212.2V91.35zm106.28 53.14h52.03v54.25h-52.03v-54.25zm52.04 106.66h53.88v53.14h-53.88v-53.14zM3056.08 90.25h53.14v264.97h-53.14V90.25zm53.14 0h106.28v264.97h-106.28v-52.03h53.88v-159.8h-53.88V90.25zM3268.64 90.25h159.42v265.71h-53.88V144.12h-53.14v211.83h-52.4V90.25zm52.4 106.65h53.14v52.4h-53.14v-52.4zM3481.94 89.51h160.16v53.14h-107.02v53.14h53.88v53.14h53.14v107.02h-53.14V248.93h-53.88v107.02h-53.14V89.51zm107.02 53.14h53.14v53.14h-53.14v-53.14zM3694.5 90.25h105.54v53.88h-52.4v159.05h52.4v52.03H3694.5V90.25zm105.54 53.87h52.4v159.05h-52.4V144.12z"/></g><g id="DASHBOARD_00000081611090709517396690000009696434729618598298_"><path class="st2" d="M1940.88 90.25h105.54v53.88h-52.4v159.05h52.4v52.03h-105.54V90.25zm105.54 53.87h52.4v159.05h-52.4V144.12zM2152.7 90.25h159.42v265.71h-53.88V144.12h-53.14v211.83h-52.4V90.25zm52.4 106.65h53.14v52.4h-53.14v-52.4zM2366 90.25h159.42v53.14h-105.54v53.51h105.54v159.05H2366v-53.14h107.02V249.3H2366V90.25zM2577.82 90.25h52.4v105.91h53.88V90.25h53.14v265.71h-53.14V250.04h-53.88v105.91h-52.4V90.25zM2790.01 91.35h158.32v53.14h-105.91v54.25h159.79v52.4h-159.79v53.14h159.79v52.77h-212.2V91.35zm106.28 53.14h52.03v54.25h-52.03v-54.25zm52.04 106.66h53.88v53.14h-53.88v-53.14zM3056.08 90.25h53.14v264.97h-53.14V90.25zm53.14 0h106.28v264.97h-106.28v-52.03h53.88v-159.8h-53.88V90.25zM3268.64 90.25h159.42v265.71h-53.88V144.12h-53.14v211.83h-52.4V90.25zm52.4 106.65h53.14v52.4h-53.14v-52.4zM3481.94 89.51h160.16v53.14h-107.02v53.14h53.88v53.14h53.14v107.02h-53.14V248.93h-53.88v107.02h-53.14V89.51zm107.02 53.14h53.14v53.14h-53.14v-53.14zM3694.5 90.25h105.54v53.88h-52.4v159.05h52.4v52.03H3694.5V90.25zm105.54 53.87h52.4v159.05h-52.4V144.12z"/></g></g></g><g id="Underline"><path class="st23" d="M543.39 427.56h1266.4v40H543.39zM1896.19 427.56h1961.6v40h-1961.6zM1832.63 427.56h40v40h-40z"/></g></svg>