<svg version="1.1" id="Layer_1" xmlns="http://www.w3.org/2000/svg" x="0" y="0" viewBox="0 0 562.48 533.62" style="enable-background:new 0 0 562.48 533.62" xml:space="preserve"><style>.st1{fill:#024945}.st2{fill:#fff}</style><linearGradient id="SVGID_1_" gradientUnits="userSpaceOnUse" x1="281.122" y1="0" x2="281.122" y2="259.164"><stop offset="0" style="stop-color:#e8e84c"/><stop offset=".25" style="stop-color:#e8e84c"/><stop offset=".25" style="stop-color:#e6e74b"/><stop offset=".25" style="stop-color:#c8d830"/><stop offset=".5" style="stop-color:#c8d830"/><stop offset=".5" style="stop-color:#8cc341"/><stop offset=".75" style="stop-color:#8cc341"/><stop offset=".75" style="stop-color:#1eb990"/><stop offset="1" style="stop-color:#1eb990"/></linearGradient><path d="M281.12 0C137.99 0 21.96 116.03 21.96 259.16h518.33C540.29 116.03 424.25 0 281.12 0z" style="fill:url(#SVGID_1_)"/><path class="st1" d="M540.29 259.16H21.96c0 143.13 116.03 259.16 259.16 259.16S540.29 402.3 540.29 259.16z"/><g><path class="st1" d="M53.65 7.42c3.59 2.25 6.86 4.64 8.76 8.76 3.54 7.68 3.55 8.47-2.87 14.41-9.72 8.99-11.55 17.38-5.88 27.05 1.92 3.27 4.71 5.35 8.14 7.13 10.38 5.37 21.81 6.17 32.92 8.54 11.37 2.43 21.43 7.59 30.7 14.94 12.6 10 15.66 23.4 16.01 38.2.09 4.09-.85 7.89-2.71 11.65-4.88 9.85-1.87 19.71 7.34 25.65 9.06 5.84 19.21 8.5 29.67 10.13 3.11.49 6.49.69 9.32-.89 6.23-3.49 13.18-4.77 19.77-7.13 16.86-6.01 33.98-11.24 50.88-17.08 17.05-5.89 34.43-6.82 51.24-1.75 11.65 3.51 23.58 8.35 32.37 17.9 6 6.52 13.42 7.61 21.21 4.5 8.02-3.21 15.39-3.89 23.04 1.07 4.78 3.1 10.34 3.07 15.79 1.27 2.5-.83 4.99-1.69 7.52-2.44 13.36-3.93 18.37-12.28 15.17-26.03-2.06-8.87-2.34-17.77-.72-26.61 3.38-18.48 15.06-29.62 32.13-36.4 13.53-5.38 27.97-6.56 41.81-10.42 9.25-2.58 13.04-9.64 14.71-18.14 1.54-7.82-5.14-11.4-9.44-15.94-2.45-2.59-4.06-5.16-4.27-8.67-.63-10.53 9.4-18.73 19.97-17.18 20.62 3.03 32.48 15.97 41.07 33.72 8.77 18.13 5.65 35.17-3.6 51.68-3.42 6.09-8.8 10.96-15.13 14.29-9.64 5.07-19.39 9.93-29.15 14.75-14.06 6.94-17.92 17.09-11.17 31.58 2.93 6.28 5.22 12.55 6.07 19.45.49 3.99.05 7.68-1.22 11.37-4.51 13.08-11.69 24.17-23.01 32.55-5.9 4.37-11.15 9.65-16.63 14.57-4.19 3.76-6.44 8.61-5.74 14.13 3.1 24.69-.26 49.45 1.13 74.13.67 11.94.92 23.86.98 35.81.01 2.64.23 5.3-.05 7.9-.96 8.99-3.09 16.23-13.26 20.43-12.73 5.26-25.27 11.23-37.8 17.1-7.23 3.39-12.53 8.29-15.63 15.58-2.05 4.83-5.01 8.6-9.83 11.18-4.59 2.46-7.25 7.06-7.52 12.1-.86 16.38-9.6 28.45-20.16 39.94-9.02 9.82-17.61 20.07-25.88 30.52-12.86 16.24-29.93 22.07-49.81 20.69-14.18-.99-27.61-3.91-37.99-15.37-16.8-18.55-34.23-36.53-51.37-54.77-.83-.88-1.79-1.88-2.09-2.98-3.22-11.78-8.44-23.04-8.31-35.69.12-11.6-8.44-20.7-20.1-20.48-10.81.2-15.86-5.78-19.36-14.43-1.72-4.24-4.42-7.46-8.07-10.13-10.77-7.89-20.75-16.78-31.24-24.99-7.63-5.97-7.65-13.14-5.79-20.69 5.97-24.25 9.11-49.01 13.75-73.49 1.47-7.74-1.01-14.23-6.07-20.4-10.06-12.25-21.85-22.67-33.17-33.64-10.27-9.95-18.08-29.61-10.83-47.07 3.17-7.62 4.51-15.86 5.18-24.14.19-2.32-.64-4.07-2.22-5.65-3.49-3.51-7.22-6.55-11.88-8.55-11.66-5.01-22.74-11.29-32.84-18.85C5.26 92.95.52 79.23.04 64.66-.61 45.3 7.13 29.05 22.58 17.07c6.3-4.88 14.59-5.95 21.57-9.65h9.5z"/><path class="st2" d="M331.72 432.95c.44-2.25-1.15-3.92.48-5.21.96-.75 1.95-.19 2.92.31 6.27 3.22 11.6 13.13 10.7 19.95-.16 1.24-.27 2.54-1.6 3.09-1.42.59-3.25.46-3.82-.81-3.25-7.26-7.27-4.12-11.5-1.19-1.11.77-2.59 1.12-3.95 1.4-9.25 1.9-18.79 2.4-27.64-.48-12.67-4.13-24.6-1.64-36.63 1.63-4.38 1.19-8.64 3.15-11.74 6.74-3.14 3.62-2.11 7.29 2.58 8.25 5.04 1.04 10.35 1.09 14.75-2.01 6.08-4.28 13.05-4.84 20-5.66 1.79-.21 3.67.25 4.4 2.16.81 2.13-.86 3.19-2.34 4.17-5.26 3.5-10.52 6.99-15.81 10.43-1.95 1.27-3.7 2.58-4.4 4.99-3.56 12.12 5.69 26.26 18.15 27.7 1.04.12 2.07.36 3.08.65 1.75.49 3.48 1.21 3.47 3.37 0 2.17-1.69 2.92-3.49 3.31-3.27.71-6.55 1.27-9.93.71-2.94-.49-5.91-.89-8.87-1.22-1.48-.17-2.9.25-3.36 1.88-.5 1.79.83 2.54 2.2 3.03.98.35 2.03.59 3.07.66 20.62 1.54 38.84-2.28 52.26-20.26 6.02-8.06 13-15.55 20.06-22.89 7.92-8.23 14.74-17.66 17.02-29.18 1.23-6.2 2.27-12.5 2.06-19.06-.48-15.09 3.43-29.26 12.29-41.67 9.84-13.8 10.83-28.51 5.31-44.03-1.18-3.33-3.57-5.96-7.44-5.6-3.54.33-5.27 3.01-6.17 6.35-1.24 4.57-2.69 9.09-4.05 13.63-2.01 6.75-4.61 8.88-11.74 9-7.55.13-15.11-.06-22.67-.03-3.24.01-6.22-.99-9.22-2.02-2.27-.78-4.18-1.89-4.23-4.71-.05-2.7 1.9-3.5 3.91-4.29 7.16-2.84 14.34-5.46 21.24-9.09 11.84-6.23 22.29-15.11 36.3-17.41 7.89-1.3 10.83-7.29 10.41-15.42-.35-6.62-4.01-12.26-5.78-18.47-.51-1.8-2.47-2.75-4.52-3.24-15.25-3.64-28.71-19.44-28.63-36.68.01-1.78.15-3.71 2.15-4.41 2.54-.88 3.25 1.3 4.28 2.9 3.42 5.32 6.67 10.76 10.38 15.87 4.97 6.84 11.32 9.28 17.71 7.35 5.54-1.67 7.45-7.02 3.89-11.58-2.26-2.89-4.83-5.6-7.56-8.06-15.45-13.93-18.48-31.46-14.91-50.91.48-2.62 1.86-4.89 3.79-6.81 3.69-3.66 5.39-8.6 8.01-12.95 1.31-2.17.55-4.43-1.36-6.17-1.91-1.74-4.04-2.04-6.32-.86-1.9.98-3.35 2.45-4.7 4.13-4.32 5.32-7.35 5.31-12.91 1.26-10.61-7.73-21.24-15.59-32.95-21.51-15.2-7.69-31.78-8.34-48.32-6.1-8.43 1.14-17.18 1.41-25.1 5.3-2.96 1.45-6.52 3.77-5.44 6.72 1.35 3.7 5.17 1.04 7.86.32 9.49-2.53 19.08-4.81 28.93-3.85 2.85.28 8.42-.19 7.73 4.94-.64 4.7-5.42 2.47-8.42 2.69-9.07.69-18.01 2.37-24.99 8.36-6.87 5.89-13.46 12.34-17.14 21.01-.79 1.85-1.92 3.48-4.26 3.3-2.54-.19-3.05-2.27-3.17-4.19-.77-12.49-8.56-19.04-19.34-23.06-2.03-.76-4.18-2.49-6.41-.72-2.57 2.03-2.66 5.05-1.82 7.75 2 6.43 2.59 13.03 3.38 19.66 1.52 12.75.73 25.32-3.32 37.41-2.04 6.09-6.28 11.35-12.2 14.57-5.68 3.08-11.63 5.67-17.32 8.74-5.67 3.06-5.89 4.97-.99 9.33 5.83 5.18 7.06 11.44 5.09 18.64-.97 3.56-2.19 7.06-3 10.65-.82 3.6.17 6.79 3.71 8.43 7.95 3.69 15.62 8.14 24.45 9.6 12.76 2.12 22.87 9.24 32.85 16.86 9.44 7.2 18.61 15.3 31.69 14.99 1.42-.03 2.92.07 3.35 1.85.47 1.95-.81 2.89-2.28 3.67-2.48 1.31-5.31 2.2-7.39 3.97-8.62 7.39-18.38 9.19-29.44 7.77-8.19-1.05-12.86-6.61-17.97-11.78-1.42-1.43-1.33-3.83-.93-6.04.95-5.26.71-10.46-1.58-15.44-.94-2.04-2.01-3.84-4.56-3.61-2.36.21-3.88 1.84-4.45 3.96-.69 2.56-1.41 5.04-2.81 7.34-1.17 1.92-1.83 4.62-4.81 3.91-3.39-.81-2.37-3.83-2.46-6.14-.13-3.3 1.65-6.51.37-9.89-.71-1.87-1.37-4.06-3.68-3.83-2.58.25-1.61 2.75-1.66 4.28-.32 10.33-2.6 20.1-7.28 29.39-2.67 5.31-2.87 11.17-2.21 17.02.38 3.35 2.46 5.17 5.61 6.24 10.02 3.4 13.05 7.55 13.28 18.23.14 6.5-.02 13.01.09 19.51.22 13.78 5.22 25.4 15 35.31 4.91 4.97 10.17 9.59 14.71 15 5.15 6.14 9.39 13.23 16.36 17.7 1.59 1.02 3.37 2.47 5.16.52 1.49-1.64 1.15-3.54.03-5.36-5.75-9.33-12.67-17.61-20.85-24.96-4.66-4.19-10.61-6.7-14.24-12.3-6.57-10.14-7.25-21.25-5.63-32.48 2.32-16.12.17-31.09-8.66-44.93-1.97-3.09-2.63-6.5-2.05-10.11.33-2.04 1.58-3.59 3.5-4.27 2.01-.72 3.51.65 4.42 2.11 3.01 4.8 7.16 8.63 10.65 13.01 11.03 13.8 30.52 14.64 42.95 1.9 4.03-4.13 8.67-7.67 13.2-11.27 1.56-1.24 3.86-2.75 5.65-.74 1.69 1.89.42 4.04-1.13 5.6-2.42 2.44-3.26 5.69-4.85 8.49-3.38 5.93-6.8 12.44-14.77 13.78-3.5.59-6.86 1.67-9.19 4.65-.97 1.24-2.3 2.59-1.16 4.21 1.28 1.81 3.21 1.28 4.73.32 10.31-6.5 20.66-4.73 31.05-.32 3.23 1.37 6.44 2.8 9.62 4.29 1.68.78 3.27 1.24 4.96.05 6.81-4.79 14.73-7.41 22.1-11.08 4.56-2.27 4.95-5.04 2.49-8.75-2.82-4.24-6.06-8.19-8.87-12.43-4.18-6.31-9.17-13.04-8.12-20.61 1.07-7.68-3.25-13.36-4.29-20.11-.42-2.72-2.73-3.91-5.6-3.63-3.08.3-4.19 2.42-4.43 5.02-.23 2.61 0 5.27-.06 7.9-.07 3.14-1.58 4.85-4.89 4.89-3.55.04-3.94-2.2-3.78-4.92.32-5.29-1.15-10.05-4.19-14.38-5.77-8.23-12.72-15.38-19.76-22.51-9.29-9.4-20.48-17.37-24.65-30.9-.4-1.31-1.21-2.76-2.91-2.61-2.04.18-2.17 2.11-2.58 3.55-2.54 8.86 3.19 22.22 11.81 29.3 9.08 7.46 19.14 13.66 27.69 21.79 3.11 2.96 5.84 6.09 6.89 10.36 1.87 7.58-2.04 12.08-9.82 11.11-5-.62-9.2-3.11-13.26-6.03-16.31-11.75-31.78-24.7-52.66-28.52-11.26-2.06-14.05-8.32-11.7-19.6.75-3.61 1.57-7.21 2.48-10.78.72-2.83.8-5.72-.53-8.24-2.72-5.14-.15-7.42 4.29-8.97 4.72-1.65 8.68-4.21 11.99-8.16 10.63-12.68 10.85-27.64 9.92-42.9-.16-2.61-1.07-5.18-1.22-7.8-.2-3.46 1.18-5.05 4.82-3.25 3.42 1.69 6.04 3.89 7.56 7.62 2.04 5.03 4.56 9.88 6.96 14.77 3.84 7.82 7.87 9.92 16.4 8.92 8.05-.94 13.32-5.3 15.55-12.95 1.56-5.37 4.33-10.37 4.86-16.07.11-1.12.37-2.57 1.8-2.98 1.3-.37 2.01.6 2.33 1.6 1.92 6.01 6.61 6.6 11.86 6.2 4.72-.36 9.45-1.07 14.16-.97 8.43.18 11.54 3.93 9.77 11.95-3.07 13.92-5.57 27.85-2.16 42.03 1.89 7.87-1.4 15.25-1.56 22.93-.19 8.79 5.62 14 13.91 12.16 6.58-1.46 10.82-4.87 13.93-10.79 2.5-4.75 4.39-9.48 5.19-14.77.68-4.5 1.71-8.96 2.76-13.39.4-1.69 1.13-3.56 3.45-3.24 2.09.29 2.86 2.03 3.04 3.82.8 8.09 1.13 16.31-1.91 23.93-4.7 11.79-11.64 22.44-19.86 32.03-10.41 12.14-16.44 25.44-12.53 41.5 3.21 13.19 11.62 24.68 27.22 23.47 4.52-.35 8.98-1.54 13.48-2.25 5.39-.85 7.28 1.12 6.04 6.46-2 8.6-2.93 17.28-2.67 26.12.15 5.27-.01 10.54-.12 15.81-.04 1.94-.18 4.15-2.76 4.37-2.16.19-3.64-1.17-4.44-3.1-.54-1.29-1.1-2.65-1.23-4.01-.87-9-8.15-14.08-12.88-20.59-2.87-3.95-6.34-2.83-8.28 1.65-2.59 5.99-8.18 9.51-11.92 14.57-1.69 2.28-4.77 1.15-6.73-.3-2.01-1.48-1.44-3.75-.19-5.68.66-1.03 1.49-1.96 2.14-3 .68-1.07 1.14-2.3.16-3.4-1.01-1.13-2.23-.64-3.38-.09-3.42 1.63-5.95 4.33-8.41 7.09-3.34 3.74-6.45 4.46-10.83.96-4.27-3.43-9.7-4.94-15.29-4.89-4.52.04-4.47 4.95-7.03 7.13-.27.23-.53.47-.77.72-3.2 3.43-2.91 4.61 1.51 6.02 1.17.37 2.36.82 3.56.94 6.31.59 10.78 2.8 10.21 10.3-.12 1.63 1.06 2.96 2.94 3.17 2.05.23 3.41-.69 4.01-2.61.36-1.16.55-2.39.73-3.6.39-2.65-.39-6.65 3.28-6.67 3.39-.02 2.5 4.11 3.07 6.45 1.58 6.52 8.01 10.74 15.6 9.86 5.61-.65 6.95-2.86 6.89-11.31 0-.53-.02-1.05-.02-1.58.01-6.1 2.66-7.86 8.28-5.29 4.14 1.92 7.7 4.77 11.43 8.25z"/><path class="st2" d="M69.44 174.12c.55 5.34 2.26 9.79 4.76 13.81 10.04 16.17 24.92 27.36 39.96 38.35 13.33 9.74 27.75 17.74 41.74 26.44 5.3 3.3 11.21 5.03 17.44 5.23 1.92.06 4.67-.2 5.02-2.83.32-2.44-1.79-3.59-3.84-4.38-15.4-5.96-30.06-13.37-44.21-21.91-11.61-7.01-22.61-14.8-32.52-23.96-5.74-5.31-11.71-10.67-15.61-17.72-1.34-2.41-2.64-5.06.29-6.98 2.63-1.73 4.15.84 5.59 2.48 4.16 4.76 7.94 9.88 12.82 13.93 19.85 16.48 41.65 28.92 67.47 33.67 5.5 1.01 9.94 1.33 14.93-1.6 6.71-3.94 8.97-9.5 5.83-16.66-1.67-3.81-4.7-6.53-7.11-9.74-1.15-1.53-2.17-3.4-1.03-5.36.93-1.62 2.67-1.45 4.26-1.25 2.02.26 4.04.51 4.3-2.34.22-2.51-1.52-3.33-3.54-3.78-1.37-.31-2.76-.49-4.14-.78-15.89-3.25-31.24-7.85-44.97-16.92-11.68-7.72-16.97-19.9-12.26-31.09 4.55-10.81 5.17-20.87-.18-31.82-3.87-7.92-8.73-13.83-16.87-16.98-11.8-4.57-23.8-8.01-36.48-9.7-17.98-2.39-31.04-13.49-33.78-32.35-.91-6.24-.61-13 6.16-17.25 2.74-1.72 4.83-4.58 7.02-7.08 1.82-2.08 1.66-3.77-1.45-4.48-2.58-.59-5.08-1.22-7.74-.25-8.58 3.14-14.91 9.15-20.02 16.36-8.54 12.04-9.1 25.53-5.72 39.34 1.47 5.99 4.57 10.89 9.58 15.22 10.22 8.83 23.04 12.59 34.22 19.42 7.58 4.63 15.86 9.08 17.29 19.11.99 6.94.94 13.99-1.02 20.9-2.23 7.76-4.22 15.58-6.19 22.95zM548.01 65.41c.18-19.29-12.57-37-29-41.43-2.69-.72-6.14-1.98-7.82.61-2.07 3.19 1.77 4.78 3.57 6.66 3.77 3.94 8.19 7.56 9.18 13.2 3.02 17.2-8.74 35.26-25.83 38.13-11.24 1.89-22.01 5.87-33.27 7.84-8.52 1.49-15.66 5.63-21.69 12.04-3.79 4.03-5.31 9.04-7.54 13.75-3.5 7.38-3.6 15.27-.31 22.5 8.89 19.53-.22 30.87-18.08 40.53-9.32 5.04-19.7 8.29-30.43 9.73-2.7.36-5.7 1.62-5.42 4.71.29 3.14 3.39 1.14 5.21 1.47 1.57.29 3.27.2 4.06 1.9.82 1.76.4 3.42-.82 4.9-2.01 2.43-4.39 4.65-5.92 7.35-2.92 5.15-4.16 11.28-.37 15.93 3.55 4.35 8.91 6.71 15.39 5.74 13.3-1.98 25.86-5.44 37.55-12.54 8.01-4.86 15.55-10.12 22.54-16.28 5.83-5.14 10.26-11.54 15.6-17.12 1.18-1.23 2.36-3.13 4.35-2.09 2.2 1.16 1.41 3.43.91 5.22-.95 3.42-2.64 6.48-5.2 9.03-5.45 5.44-10.49 11.27-16.28 16.39-9.64 8.52-20.2 15.89-31.45 21.83-9.68 5.12-19 11.2-29.69 14.41-2.71.81-5.55 3.12-4.27 6.24 1.32 3.23 4.87 2.92 7.84 1.97 1.65-.53 3.13-1.59 4.73-2.31 5-2.24 8.99-6.04 13.77-8.72 14.54-8.14 28.43-17.3 41.25-28.05 7.27-6.1 13.87-12.8 20.48-19.59 8.17-8.38 11.96-17.53 9.17-29.06-1.28-5.29-2.65-10.57-3.88-15.87-1.82-7.88-3.88-15.72-.81-23.82 3.68-9.73 12.32-14.04 20.48-18.68 7.31-4.16 15.16-7.37 22.51-11.47 6.8-3.8 12.79-8.92 16.06-16.11 2.84-6.26 2.99-13.28 3.43-18.94zM392.25 342.15c.14 2.73-.63 5.96 2.68 7.35 3.38 1.42 5.04-1.54 7.01-3.42 2.66-2.54 5.43-5.01 7.28-8.27 5.64-9.94 11.85-19.44 19.8-27.75 1.81-1.89 3.43-4.14 6.03-1.98 2.42 2 1.35 4.5-.5 6.44-3.14 3.3-5.18 7.25-5.67 11.65-.98 8.74-3.15 17.19-5 25.75-3.2 14.8-9.62 26.65-25.49 30.86-2.61.69-4.77 2.1-6.64 4.07-6.99 7.32-10.35 17-16.29 25.03-1.81 2.45-2.45 6.57 1.5 8.1 3.51 1.36 4.47-2.14 5.78-4.64 4.07-7.76 8.22-15.47 16.77-19.41 10.83-4.98 21.5-10.32 32.46-15.01 13.75-5.89 19.23-13.13 17.82-27.43-1.29-13.1-1.73-26.19-2.29-39.31-.52-12.15.73-24.14 1.17-36.2.2-5.6 1.01-11.18 1.24-16.78.12-2.85.8-6.63-2.95-7.58-3.99-1.01-4.57 2.94-5.83 5.48-.85 1.72-1.22 3.69-2.14 5.37-12.83 23.5-24.64 47.67-43.12 67.57-2.69 2.89-3.75 6.25-3.62 10.11zM105.24 337.54c.03 2.78.52 5.04 3.04 6.9 8.74 6.44 17.67 12.72 25.86 19.82 7.85 6.81 16.46 13.12 19.82 23.97 1.51 4.89 6.34 6.18 11.17 6.11 5.03-.08 5.75-1.48 3.08-5.64-1.61-2.51-3.75-4.85-4.27-7.81-1.17-6.75-5.63-11-10.36-15.34-10.27-9.4-18.16-20.52-21.65-34.17-2.34-9.15-2.78-18.72-5.72-27.78-.82-2.54.49-4.48 2.82-5.56 2.38-1.11 3.98.26 5.4 2 5.97 7.33 11.57 15.02 18.06 21.86 4.71 4.97 8.19 10.95 13.36 15.46 1.92 1.68 4 4.34 6.76 2.21 2.59-2 3.91-5.08 2.36-8.47-2.19-4.81-4.71-9.48-8.69-13.07-6.51-5.87-12.9-11.67-17.19-19.62-7.89-14.64-16-29.14-20.33-45.35-.52-1.93-1.01-3.94-3.55-3.82-2.61.12-3.64 1.98-3.73 4.29-.36 8.81-2.36 17.29-4.43 25.83-3.97 16.34-5.03 33.29-10.2 49.4-.9 2.81-1.09 5.85-1.61 8.78zM288.57 217.41c-3.16-.13-6.1.32-9 1.13-4.12 1.16-5.66 4.2-5.02 8.06.65 3.95 3.58 6.13 7.5 6.02 2.93-.08 5.93-.8 8.71-1.76 4.21-1.45 6.83-4.23 5.88-9.18-.94-4.94-4.7-4.35-8.07-4.27zM285.33 251.98c6.77.02 8.8-1.44 8.72-6.01-.08-4.67-2.76-6.49-7.14-6.5-5.36-.01-9.69 3.43-9.43 7.8.34 5.65 4.76 4.48 7.85 4.71zM286.78 259.62c-.7.17-2.1.35-3.39.83-4.02 1.5-6.53 5.58-5.11 8.36 2.19 4.27 5.42 2.61 8.51 1.28 1.11-.48 2.18-1.07 3.23-1.69 2.15-1.27 4.44-2.71 3.47-5.67-.91-2.76-3.5-3.06-6.71-3.11zM247.26 431.14c-5.8 1.94-6.19 6.49-6.31 10.51-.09 3.06 2.7 5.12 5.34 6.65 2.41 1.4 4.45.33 6.16-1.36 1.97-1.95.62-3.6-.93-4.87-3.28-2.7-4.1-6.38-4.26-10.93zM294.01 282.1c-.19-2.57-1.53-4.63-4.81-4.38-4.13.32-6.28 2.95-6.32 6.91-.04 2.94 1.81 4.89 4.85 5.08 2.91.18 6.35-3.89 6.28-7.61z"/></g></svg>