<svg xmlns="http://www.w3.org/2000/svg" viewBox="0 0 421.51 420.7" style="enable-background:new 0 0 421.51 420.7" xml:space="preserve"><path d="M402.25 194.88a1094.91 1094.91 0 0 0-71.18-86.19c-.9-.98-1.83-1.94-2.66-2.98-.88-1.1-.58-2.13.36-3.09 1.29-1.31 2.03-.29 2.79.62 1.92 2.3 3.75 4.68 5.74 6.91 28.22 31.71 56.01 63.78 81.89 97.47.52.68.9 1.91 2.32 1.23-.25-5.46-.18-10.99-.83-16.43-.67-5.64-.59-11.25-4.63-16.4-12.37-15.76-25.73-30.54-40.41-44.16-11.97-11.11-24.55-21.47-37.67-31.18-.83-.61-2.89-.94-1.63-2.75 1.19-1.71 2.29-.2 3.33.39.86.49 1.69 1.06 2.5 1.65 22.71 16.45 43.82 34.73 63.02 55.18 3.84 4.1 7.47 8.4 11.56 13.01 0-1.22.12-1.87-.02-2.45-3.78-16.54-9.57-32.33-16.5-47.83-4.46-9.98-11.29-16.72-20.7-21.76-9.95-5.33-20.47-9.45-30.41-14.78-1.82-.98-4.02-1.55-3.99-4.81 13.93 5.32 27.31 11.11 40.66 17.08C341.69 31.79 282.29-.86 205.7.02 129.39.89 65 45.9 35.09 95.29c18.6-8.35 36.8-16.26 54.71-24.77 3.49-1.66 5.13-2.76 6.71 1.53.5 1.36 1.8 2.67 3.81 2.54-.93-2.82-3.74-4.84-2.91-8.18 2.57.42 1.92 3.92 4.63 4.38-.07-.89-.02-1.7-.21-2.44-1.62-6.41.47-11.91 5.93-15.46 3.54-2.3 8.98-2.26 9.96.32 1.59 4.21-2.03 5.34-4.66 6.95-4.4 2.68-5.3 5.81-2.87 10.39 2.23 4.21 6.07 5.92 10.55 6.56 1.46.21 2.57.39 2.29-1.87-.48-3.87 3.16-4.73 5.35-4.77 2.4-.05 1.85 3.01 1.71 4.91-.29 3.86-2.31 6.5-6.04 7.69-3.56 1.13-5.92 3.6-7.66 6.74-10.9 19.76-13.26 40.42-6.54 62.06 4.53 14.6 12.97 26.73 24.31 37.97-5.11-.37-9.45 4.23-13.68-1.98-15.99-23.48-22.9-48.77-16.93-76.99 1.09-5.18 2.06-10.38 3.09-15.57-3.63 2.68-5.14 6.33-6.58 9.96-13.19 33.27-19.26 67.97-19.75 103.61-.09 6.56-2.43 9.58-8.25 11.63.35-12.51 1.38-24.72 2.98-36.9 4.03-30.61 11.3-60.28 25.73-87.84.46-.88.95-1.75 1.34-2.66.5-1.16.52-2.47-.71-3-1.34-.57-1.5.98-1.91 1.74-1.92 3.49-3.62 7.09-5.61 10.54-27.16 47.22-45.44 97.9-58.28 150.64-4.41 18.11-7.71 36.44-6.59 55.27.4 6.73 2.08 12.75 5.99 18.52 16.47 24.31 36.82 44.57 61.38 60.62 1.4.92 2.7 2.28 4.6 2.36.51-1.69-.43-2.79-.86-3.99-7.87-22.23-14.65-44.74-17.86-68.21-.59-4.34 1.24-6.66 4.88-6.99 3.79-.34 2.51 3.41 2.87 5.46 4.71 27.23 11.65 53.78 23.85 78.74.71 1.46 1.03 3.26 2.66 4.07 5.51 2.74 11 5.56 16.94 7.42-2.54-22.54-6.49-44.37-13.23-65.64-2.84-8.96-2.05-18.2-.86-27.2.8-6.01 2.71-12.1 6.39-18.03.33 7.02 2.9 8.6 8.67 5.79 5.76-2.81 10.46-7.02 14.53-11.94 2.69-3.25 5.72-3.42 9.26-1.38 3.29 1.91 4.77 4.9 5.76 8.35 3.59 12.45 4.47 25.17 4.02 38.04-.09 2.7-1.04 5.23-2.33 7.56-3.59 6.49-11.11 7.26-16.19 1.8-1.28-1.38-1.98-3.4-5.52-4.41 6.47 11.92 15.09 21.94 14.04 35.69-.97 12.8 2.23 25.99-4.17 38.38 6.79 2.02 13.36 3.65 20.08 4.53 1.24.16 2.94 1.82 3.9-.33.65-1.46.02-2.99-.86-4.24-.66-.93-1.43-2.14-2.4-2.45-7.27-2.3-6.93-8.38-7.26-14.15-.25-4.47 2.21-7.03 6.69-7.24 1.65-.08 4.09 1.73 4.76-.64.56-1.98-1.75-3.38-3.38-4.49-1.22-.83-2.57-1.68-3.98-1.99-2.46-.55-3.38-2.14-3.16-4.3.79-7.75-2.77-16.34 4.48-22.93 1.09-.99 1.42-2.98 1.76-4.58 1.78-8.32 2.78-16.73 2.32-25.24-.44-8.13-1.22-16.25-1.56-24.39-.14-3.25-1.35-8.08 2.8-8.9 4.28-.85 6.32 3.63 7.79 7.18 4.54 11.03 6.41 22.65 7.17 34.47 1.05 16.28 1.93 32.57 2.99 48.85.27 4.2 2.71 6.88 6.98 8.32 0-1.96.03-3.57-.01-5.17-.05-1.66-.25-3.33-.24-4.99.01-2.51.23-4.99 2.19-6.92 4.17-4.12 4.47-6.25.09-10.26-4.75-4.33-4.69-9.14-2.94-14.52.83-2.55 2.21-4.81 3.89-6.9 2.71-3.38 2.91-6.73.47-10.51-3.11-4.82-1.81-8.27 3.45-10.75 5.95-2.81 11.87-1.88 17.28.93 10.47 5.45 22.35 4.45 33.22 7.92.85.27 1.94-.29 2.93-.38 6.12-.56 12.21-1.9 18.39-1.09 1.57.21 3.61.4 4.11 2.28.43 1.62-1.17 2.58-2.14 3.69-3.61 4.13-7.76 7.93-10.63 12.52-5.33 8.53-12.09 15.43-20.48 20.76-2.5 1.59-3.87 3.72-4.28 6.36-.61 3.94-1.29 7.98-1.03 11.91.42 6.45 4.32 11.68 7.31 17.17.31.57 1.42.75 2.19 1.01 21.2 7.32 22.92 7.22 43.27-2.36.75-.35 1.46-.83 2.24-1.08 2.48-.8 3.18-2.41 2.86-4.94-.48-3.85.32-7.68 1.26-11.36 1.18-4.64 2.01-8.7-1.96-12.75-1.92-1.97-2.68-5.3-3.42-8.16-3.54-13.63-5-27.46-3.57-41.53.59-5.78.86-11.63 2.7-17.2.5-1.5.85-3.46 2.92-3.64 2.06-.18 2.79 1.65 3.5 3.07 1.63 3.26 3.05 6.63 4.62 10.1 1.2-2.17 1.99-4.02 3.14-5.62 5.01-7.02 11.62-6.89 16.41.3 2.97 4.45 5.03 9.29 6.44 14.47.4 1.47.04 3.71 2.34 4.46 1.91-13.54-5.69-48.15-11.89-52.39 0 3.52.18 6.68-.04 9.81-.37 5.2-3.35 8.56-8.16 10.25-4.8 1.69-8.77.06-12.18-3.42-3.4-3.47-3.91-7.95-4.25-12.44-.86-11.13-2.38-22.16-6.25-32.67-1.28-3.49-2.18-6.48.47-9.62.88-1.04 1.35-2.43.04-3.55-1.29-1.1-2.09.23-2.97.82-4 2.71-8.4 2-12.75 2.03 2.78-2.41 7.51-2.68 8.49-5.81 1.06-3.4-3.31-5.6-5.05-8.48-.17-.28-.43-.53-.55-.83-1.16-2.75-3.14-5.7 1.93-6.73 1.28-.26 1.76-1.31 1.5-2.71-.82-4.58 1.54-3.55 3.76-1.94 6.06 4.39 12.16 8.75 17.2 14.38.98 1.1 1.77 2.34 3.5 2.55 8.1 1.01 13.45 6.11 17.79 12.44 9.39 13.71 11.37 29.13 10 45.22-.24 2.84-.14 5.44.62 8.27 3.78 13.98 5.4 28.07.67 42.22-.39 1.16-.47 2.24-.06 3.4 3.35 9.42 4.68 19 2.51 28.91-.21.95-.04 1.99-.03 2.99.04 2.45.87 3.1 2.86 1.28 3.2-2.91 6.23-6.06 9.69-8.63 9.9-7.35 12.67-17.36 12.75-29.2.13-20.54-1.6-40.91-4.41-61.19-6.76-48.56-19.86-95.37-39.96-140.14-1.38-3.07-1.27-5.38.8-7.92 32.02 66.94 50.46 137.15 53.92 211.3 1.86-.64 2.43-2.33 3.33-3.6 9.16-12.91 16.67-26.73 22.88-41.28 1.36-3.18 1.56-6.16.76-9.61-4.81-20.77-12.73-40.41-21.06-59.94-14.25-33.4-33.51-64.04-51.88-95.17-2.42-4.1-4.95-8.07-4.98-13.14 16.88 24.63 32.77 49.88 46.81 76.19 14.01 26.25 27.13 52.98 37.4 81.43 3.54-11.69 6.04-23.34 7.19-35.25.39-4.02 2.17-8.05-.16-12.17-5.5-9.65-10.8-19.42-17.46-28.38zM127.31 66.85c-.73.52-1.46 1.63-2.56.72-1.16-.96-.09-1.77.35-2.55 1.91-3.44 4.01-6.8 2.54-11.11-.9 2.25-1.68 4.55-2.72 6.73-1.52 3.21-3.95 5.31-7.7 5.43-1.1.04-2.54.73-3.14-.61-.74-1.63.69-2.26 1.88-2.93 3.23-1.83 6.25-3.9 7.06-7.88.94-4.64-.52-8.49-3.92-11.72-.99-.94-3.01-1.72-1.61-3.51.98-1.25 2.64-1.13 4.17-.68 3.11.92 5.74 2.59 7.88 5.01 5.11 5.79 3.87 18.77-2.23 23.1zm157.3-11.36c.39-1.56 2.02-2.06 3.48-2.43 8.96-2.26 13.9 2.1 12.76 11.39-.22 1.77-1.05 3.46-1.61 5.18-.46 1.41-2.5 3.27.04 4.07 2.09.66 2.03-1.94 2.73-3.32 1.34-2.62.28-5.92 2.27-8.46 3.38 2.43-.46 5.4.9 7.87 3.73-2.77 13.71-2.23 17.5.87.86.7 1.42 1.46 1.04 2.53-.42 1.15-1.46 1.08-2.48 1.03-2.38-.13-4.55-2.16-7.15-.78.03 2.46 2.32 3.1 3.53 4.55.73.88 1.84 1.77.86 2.98-.97 1.19-2.15.4-3.13-.2-.7-.43-1.25-1.09-1.89-1.62-.89-.74-2.02-1.84-3.04-1.07-1.38 1.06.06 1.98.77 2.81.66.78 1.46 1.82.52 2.58-1.81 1.47-2.56-1.69-4.55-1.17.09 2.56-1.08 3.36-3.96 3.89-5.55 1.02-8.33 10.64-5.34 16.31.93 1.77 3.28 3.14 1.9 5.85-5.97-6.98-16.76-11.84-8.5-24.74-7.8 1.33-14.71 3.12-18.39-4.84-1.76-3.82-1.32-6.27 1.42-9.44 5.17 4.5 10.92 5.21 14.68 1.81 3.72-3.37 3.69-7.26-.08-10.56-.75-.65-1.57-1.22-2.34-1.86-1.02-.84-2.29-1.83-1.94-3.23zm-6.13-15.74c1.08-.48 2.15-1.19 3.15-.18.82.83.15 1.84-.13 2.78-1.17 4-1.9 7.98-.81 12.21.74 2.85 1.85 5.25 4.2 7.06 1.27.97 3.34 2.18 2 3.83-1.34 1.65-2.9-.37-4.28-1.1-3.77-1.98-5.99-5.07-6.8-9.24-.21-1.09-.36-2.64-1.87-2.38-1.47.25-1.07 1.85-1.19 2.93-.39 3.34 1.94 6.35 1.12 10.25-6.93-7.01-4.01-22.36 4.61-26.16zm-104.74 19.4c.95-1.07 2.17-2.87 3.62-2.03 1.73 1 .13 2.61-.36 3.91-2.22 5.8 1.14 13.07 7.94 16.89 2.6 1.46 5.39 2.57 7.98 4.04 6.31 3.57 8.15 7.92 5.53 14.58-3.2 8.11-4.38 11.02 6.93 16.62 4.44 2.2 9.06 4.12 13.76 5.69 5.76 1.93 2.31 6.84 3.27 10.17.58 2.01-2.71 4.06-5.86 4.01-2.73-.04-5.3-.55-7.71-1.7-7.36-3.52-14.05-8.17-20.69-12.85-2.76-1.94-4.55-4.81-4.6-8.56-2.88 3.76-.69 6.57 1.8 8.89 8.83 8.21 18.89 14.56 29.96 19.37 1.61.7 5.18.63 4.34 2.95-.95 2.62-3.91 1.24-6.05.29-10.53-4.69-19.88-11.35-29.19-18-5.72-4.08-8.36-11.14-5.34-17.19 4.65-9.31 2-15.82-5.12-22.27-9.3-8.48-5.69-18.62-.21-24.81zm29.57 100.89c.93 8.24 4.11 15.25 10.83 20.45 2.61 2.02 1.42 6.19 4.83 8.01-2.34.89-4.31 1.17-5.32-.79-3.35-6.55-9.47-10.02-15.12-14.02-1.75-1.24-2.94-2.53-2.53-4.88 1.57-8.97 3.06-17.95 4.61-26.91.13-.73.52-1.41 1.02-2.7 1.79 3.67 3.39 6.64 4.7 9.73 2.39 5.61 6.14 10.16 10.45 14.35 1.05 1.02 1.9 2.27 2.68 3.52.73 1.17.2 2.31-.73 3.1-1.19 1.02-2.15.18-2.96-.7-3.24-3.56-6.44-7.15-9.68-10.71-.63-.7-1.16-1.94-2.31-1.46-1.49.63-.59 1.94-.47 3.01zm21.25 136.64c-1.09 2.87-3.64.73-5.61.35-7.33-1.42-14.67-2.77-21.99-4.19-1.62-.31-3.34-.55-4.78-1.28-1.2-.6-2.18-1.82-.06-2.87 3.19-1.58 5.21-3.64 2.7-7.36-.24-.36-.39-1.08-.19-1.39 3.99-6.14-3.33-7.13-4.9-10.72-.12-.27-1.03-.5-1.36-.33-6.79 3.41-12.11-1.24-17.7-3.47-4.97-1.98-9.22-2.19-14.67-.72-24.9 6.7-50.16 10.15-75.8 3.87-1.93-.47-3.85-.98-5.44-2.34-3.56-3.06-3.53-6.73.17-9.64 3.21-2.53 7.05-3.62 10.92-4.61.77-.2 1.82-.04 2.02-1.07.26-1.34-.93-1.59-1.81-1.91-1.56-.57-3.16-.99-4.73-1.52-5.64-1.9-6.06-3.54-2.35-8.45 2.93-3.87 7.18-5.67 12.67-7.69-4.6-1.04-7.61.4-10.28 1.87-12.5 6.89-22.04 16.05-22.39 31.59-.03 1.49-.82 2.43-1.5 3.56-2.96 4.96-1.79 8.73 3.83 10.37 11.37 3.33 23.03 5.57 34.9 4.55 20.19-1.74 40.17-4.91 59.78-10.29 8.83-2.43 16.76 2.44 25.06 4.2 1.32.28 2.38 1.67 2.34 4.22-6.38-3.06-12.8-3.81-19.47-3.7-10.09.17-19.5 3.77-29.34 5.13-2.39.33-1.9 2.06-1.85 3.36.08 1.89-.84 4.15.98 5.57 1.01.79 1.81-.54 2.27-1.31 1.31-2.19 2.45-4.48 3.82-7.03 1.7 5.08-2.8 12.18-7.37 12.57-2.37.2-2.1-1.16-2.21-2.79-.69-9.85-1.41-10.17-11.33-8.4-6.09 1.09-10.92 2.77-9.4 10.3 2.13-.69 2.13-.69 7.62-7.35.85 3.42-.86 5.57-2.82 7.44-1.79 1.7-3.83 3.18-5.86 4.6-1.15.8-2.5 2.24-3.95.9-1.26-1.16.24-2.42.58-3.62.27-.95.78-1.83 1.1-2.77 1.62-4.72-.72-8.04-5.7-7.59-4.94.45-9.83 1.42-14.76 2.08-1.81.24-2.58 1.17-2.69 2.94-.19 2.96-.48 5.9-.76 9.16 4.04-.93 5.34-4.02 6.75-6.96.52-1.09 1.03-2.42 2.42-1.88 1.46.56.71 2.05.46 3.06-.88 3.59-7.98 9.39-11.85 9.88-2.22.28-3.14-.35-2.47-2.77 1.17-4.17 3.21-9.14 1.07-12.58-2.21-3.55-7.85-2-11.9-3.09-3.68-.99-7.4-1.82-11.08-2.78-6.91-1.8-10.19-6.01-7.24-12.4 6.76-14.62 12.67-29.67 26.39-40.28 12.55-9.71 26.18-16.79 40.66-22.67 2.05-.83 3.69-1.93 5.18-3.64 7.34-8.47 17.02-10.46 27.57-9.14 2.68.34 4.74.28 6.9-1.39 2.36-1.82 4.96-3.33 7.44-5 13.57-9.1 27.15-8.32 40.63.11 4.11 2.57 8.02 5.4 13.25 4.82 1.65-.18 2.7.85 2.64 2.3-.07 2.03-1.91 1.32-3.1 1.42-2.81.23-5.02-1.49-7.47-2.43-2.37-.9-4.46-2.84-7.31-2.26.02 1.37.9 1.93 1.69 2.52 5.77 4.24 6.42 6.28 3.91 12.9-1.32 3.49-3.62 6.34-6.36 8.82-2.72 2.47-5.79 4.47-9.06 6.12-17.35 8.74-16.06 4.84-23.03-6.23-3.95-6.29-13.05-10.47-20.18-9.16-1.16.21-2.75.07-3.18 2.01.95 1.24 2.41.81 3.54.68 5.04-.59 8.34 1.73 10.33 6.08 2.13 4.64 1.54 9.08-1.7 13.05-5.7 6.98-17.1 10.45-25.76 7.78-7.12-2.2-14.24-4.48-20.85-7.99-2.45-1.3-5.61-2.53-5.29-5.92.31-3.28 3.57-3.98 6.12-5.14 4.34-1.97 9.48-1.58 13.85-4.64-1.61-2.06-3.7-2.61-5.72-2.05-8.51 2.37-16.66 5.59-23.46 11.49-2.92 2.54-2.23 4.92 1.05 5.95 21.67 6.77 42.49 15.98 64.34 22.16 3.66 1.03 7.46 1.62 11.23 2.2 5.34.82 9.91-.62 13.15-5.18 1.63-2.3 3.44-4.56 4.61-7.09 3.46-7.47 10.02-9.02 17.22-9.58 1.65-.13 3.09.52 3.88 1.79 1.09 1.75-.97 2.13-1.79 2.95-2.19 2.22-4.18 4.74-7.69 5.53 7.1.72 12.53 5.64 19.34 6.68 2.95.45 3.66 2.68 3.47 5.19-.22 2.93-2.47 1.09-3.59 1.55-4 1.65-7.65 1.18-11.63.4-2.82-.55-3.51 2.33-5.44 4.92 5.63-1.35 10.44-1.14 15.23-1.29 2.24-.07 4.33.11 4.57 3.21.23 2.98-1.38 4.37-3.9 4.83-2.77.5-5.61.68-8.42.93-3.02.27-4.81 1.83-5.58 5.45 3.79-1.41 7-3.37 10.82-3.52 2.6-.1 4.86.21 5.86 2.65 1.11 2.72-1.53 3.7-3.16 4.92-3.85 2.86-8.87 3.73-12.58 7.19 2.62 2.34 5.81 3.27 8.81 4.56 1.67.72 3.47 1.24 5 2.18 1.76 1.05 4.61 2.22 3.72 4.56zm50.43 10.8c-.1 2.39-1.88 3.51-3.87 3.66-2.27.17-.84-1.93-1.44-2.69.66-2.25 1.02-5.03 3.21-5.2 1.92-.15 2.18 2.43 2.1 4.23zm-26.43-52.17c3.94 3.01 2.52 7.25 2.36 10.99-.38 9.04 1.27 17.88 2.07 26.81.37 4.18 4.47 4.93 9.63 1.93-5.34-2.56-5.53-2.54-6.02-9.58-1-14.46-.86-28.94-.07-43.42.15-2.71.6-5.19 4.47-3.45 2.4 1.08 4.49.07 6.3-1.71 2.1-2.07 4.9-2.62 7.37-1.58 2.42 1.02 1.36 3.84 1.37 5.86.08 19.3.05 38.6.05 57.9-5.46-.62-7.53 1.36-8.28 7.42-.24 1.96 1.16 4.96-1.73 5.62-3.34.76-6.9.7-10.36.77-1.03.02-1.02-1.3-.72-2 .83-1.9 1.05-4.26 3.6-4.99 1.86-.53 3.5.19 5.4.87.46-2.99.24-5.69-2.78-6.72-2.88-.99-4.53 1.42-6.09 3.36-.61.76-1.42 1.8-1.33 2.61.97 8.14-4.47 7.28-9.57 6.97-.66-.04-1.33.01-2 .02-12.13.16-14.14-1.84-14.26-14.09-.02-2.16.41-4.51-.28-6.44-1.06-2.96-1.33-7.96-7-4.29-1.42.92-3.25-.99-4.71-1.94-.93-.61-1.13-1.5-.27-2.51 1.32-1.55 2.93-2 4.89-1.81 2.19.21 4.04 3.57 6.21 1.41 1.99-1.97 1.06-5.1.99-7.7-.27-9.93.3-19.91-1.54-29.77-.14-.75.18-1.61.36-2.4.29-1.28 1-2.92-.73-3.38-1.61-.43-3.47-.8-4.83 1.27-1.99 3.02-6.04 3.17-8.63.69-1.97-1.88-.46-3.16.89-3.89 3.9-2.1 8.2-2.55 12.58-2.27.33.02.7.03.97.19 1.26.71 5.46 12.72 4.62 13.98-1.45 2.16-1.24 4.43-1.11 6.74.9 15.45-.08 30.96 1.37 46.41.4 4.26 1.68 6.95 6.06 7.62 0-3.31.02-6.61 0-9.92-.01-1.39-.05-2.84 1.78-2.98 1.43-.11 3.15-.67 4.2.72.99 1.3-.11 2.48-.81 3.59-1.65 2.63-4.11 4.98-2.83 8.57 2.79-1.6 4.28-5.55 8.79-4.14 1.86.58 2.47-1.33 1.34-2.97-1.73-2.52-1.57-4.94-1.5-8.04.26-11.37-.77-22.77-1.35-34.95-5.21 4.7-7.35 9.78-6.95 15.89.11 1.67.83 3.88-1.48 3.92-2.14.03-1.85-2.24-1.67-3.88.72-6.32.27-12.48-.98-18.79-1.2-6.04.74-12.59-3.07-18.33-.99-1.49-1.53-3.19-3.17-4.27-1.51-.99-3.25-2.34-2.7-4.36.65-2.42 2.99-2.88 5.2-3.03 10.78-.76 21.51-2.38 32.36-1.99 2.49.09 4.99.03 7.49.13 1.77.07 3.47.74 3.87 2.55.49 2.26-1.8 3.07-3.11 3.07-5.05-.01-8.57 5.04-14.22 3.62-2.5-.63-4.44 2.4-5.24 5.15-1.29 4.4-1.58 9.2-5.16 12.69-.62.59-.76 1.7-.04 2.25zm35.32-14.36c14.5 9.86 14.99 24.46 14.81 38.78-.18 14.51-3.8 27.88-18.94 35.71 8.6-24.79 3.67-49.38 4.13-74.49zm3.35-56.9c-3.44 4.68-4.15 10.12-4.21 15.6-.08 6.22-3.05 10.72-6.61 15.59-5.19 7.11-11.74 8.12-19.57 7.6-3.11-.21-4.59-1.88-5.57-4.1-1.09-2.49.72-3.81 2.8-5 1.78-1.02 3.24-2.59 5.33-4.32-4.37-1.34-7.43 1.35-10.83 1.87-1.6.25-3.61 1.33-4.37-.72-.79-2.11 1.51-2.85 2.91-3.32 4.53-1.53 9.02-3.21 14.03-1.46 3.5 1.23 7.37 1.64 10.46-1.01 2.53-2.17 3.15 1.12 5.02 1.42 1.46-8.26-6.35-6.63-9.71-9.53-2.32-.03-1.9 1.59-2.02 3.09-.12 1.54 1.4 4.09-1.74 4.17-2.21.05-4.21-.85-5.04-3.25-.29-.83.37-2-.86-2.52-2.28.75-.34 3.67-2.84 4.66-1.4-2.78-2.88-5.96-7.26-4.94 1.41-4.64 4.16-6.04 7.84-3.68 4.05 2.6 5.29-2.2 7.36-2.59 2.76.36-2.96 7.15 3.65 3.48 1.54-1.73 2.28-5.37 4.3-5.16 2.97.31 4.37 3.67 5.68 6.36.49 1.02.6 2.25 2.2 2.96 1.86-5.27-.23-10.84 1.5-16.08.57-1.74-1.97-1.26-3.04-.98-4.52 1.2-8.92 1.42-11.35-3.31-2.55-4.94-2.84-10.14.52-15.09 2.42-3.57 4.98-7.08 6.99-10.88 1.78-3.35 2.94-7.05.87-11.14-2.06 2.27-1.84 5.05-2.65 7.46-.7 2.09-1.47 4.07-3.22 5.49-1.5 1.21-3.36 1.83-5.14 1.18-1.81-.66-2.06-2.61-1.89-4.26.73-7.27-1.41-14.54.35-21.87 1.05-4.37-2.74-3.69-5.17-3.3-3.05.49-5.94 1.37-7.33-3.08-2.03 4.65-.84 10.4-6.91 11.37-7.76 1.24-7.24-6.94-11.74-10.39 0 2.92.04 5.6-.01 8.27-.09 5.45-1.6 10.23-6.86 12.87-1.71.86-2.08 1.66-1.33 3.45.41.97.32 2.4-.06 3.42-2.16 5.67-1.61 7.63 5.54 9.3 5.86 1.37 10.29 5.2 15.18 8.28 2.33 1.47 5.2 4.04 7.35 1.18 2.17-2.88-1.02-5.05-3.14-6.88-3.02-2.6-6.74-4.31-9.41-7.36-2.51-2.87-3.97-5.98-1.75-10.12 2.21 7.14 8.28 10.58 13.29 15.01 2.36 2.08 3.63 4.66 3.64 7.88 0 1.01-.16 2.71 1.68 2.31 1.11-.24 1.98-1.17 1.66-2.62-.33-1.47-.83-3.13 1.47-3.41 2.43-.29 2.54 1.54 2.77 3.24.79 5.82 2.66 11.14 6.82 15.51.4.42 1.18 1.16.62 2.15-.87 1.52-10.88 4.82-12.55 3.85-3.83-2.23-7.69-2.44-12.11-.92 4.11-3.01 7.43-6.48 9.25-12.26-5.34 1.87-7.73 7.85-13.56 7.79-6.17-.07-8.12-5.6-12.2-8.62-.93 2.4-.63 4.44.52 6.35 2.52 4.19 3 8.69 2.42 13.46-.7 5.87.8 10.79 6.22 14.12 3 1.84 5.14 4.7 7.15 7.58.58.83.99 1.94-.07 2.65-.71.47-1.71.11-2.25-.56-6.19-7.6-16.23-12.82-14.77-25.12.44-3.69-.32-7.4-5.03-9.22-3.47-1.34-1.6-4.96-1-7.45.89-3.68 2.64-7.15 2.6-11.14 1.91.6 1.41 2.06 1.37 3.28-.03.94-.59 2.13.86 2.41 1.36.27 1.47-.93 1.83-1.84.42-1.04.73-2.61 2.16-2.28 1.41.33 1.84 1.91 1.87 3.24.08 3.43 1.33 5.38 4.74 7.08 6.37 3.18 10.3.01 14.88-4-2.83-.31-5.26-.69-7.26-2.14-6.49-4.72-13.39-8.48-21.36-10.19-3.28-.7-5.18-2.55-3.3-6.47 1.06-2.22 1.36-5.03-.81-6.98-2.77-2.48-.97-3.42 1.13-4.61 8.56-4.85 11.65-12.97 8.68-22.58-.62-2.01-3.31-4.72-.18-5.9 2.45-.92 6.25.93 6.99 3.48 2.37 8.1 4.17 3.44 6.66.19 2.89-3.75 4.86-4.46 14.51-6.59-5.74-4.16-10.87.84-16.41.49 1.29-2.9 3.73-3.52 6.02-4.14 9.21-2.48 17.98-2.07 26.28 3.39 3.59 2.36 6.78 6.89 12.25 3.87.68-.38 1.55.34 1.95 1.18.59 1.26-.03 2.13-.76 3.13-5.83 7.95-5.31 15.54.58 22.96 4.02 5.06 4.66 11.53 5.02 17.84.12 2.03-1.48 2.9-3.17 3.3-7.58 1.79-12.87 7.98-21.06 10.04 3.45 3.49 7.05 2.14 10.26 2.62 4.64.69 5.96-1.91 6.79-5.76.33-1.52.85-4.1 3.01-3.9 1.96.19 2.3 2.56 2.92 4.28 1.51 3.98 1.28 7.82-1.27 11.29zm-43.48 21.72c-1.59-1.61-.99-3.24.72-5.12.94 1.84 2.58 2.93 1.46 4.77-.51.83-1.64.9-2.18.35zm23.06-6.78c2.76 1.09 3.99 2.26 3.43 4.36-.22.84-1.26 1.13-2.03.77-2.33-1.07-.93-3.02-1.4-5.13zm-10.43-56.53c.83-.08 1.71.37 1.77 1.5.08 1.74-1.31 2.01-2.65 2.16-.87.1-1.69-.05-1.79-1.1-.16-1.68 1.03-2.18 2.67-2.56zm-3.5-3.99c.09-1.87 1.33-2.41 2.88-2.55 1.51.12 2.78.8 2.76 2.26-.03 2.09-1.86 1.84-3.28 1.85-1.09.02-2.44.26-2.36-1.56zm3.66 10.51c1.22-.2 1.7.69 2.14 1.65-.23 1.2-.8 2.12-2.16 2.23-.97.08-1.6-.53-1.72-1.39-.18-1.27.36-2.26 1.74-2.49zm-.93-15c-2 .18-3.7.24-3.55-1.93.13-1.86 1.83-2.1 3.33-2.22 1.51-.13 3.27-.17 3.35 1.87.08 2.38-2 2.12-3.13 2.28zm49.31 48.29c-3.54 1.34-6.83 3.34-10.22 5.09-1.74.9-3.7 1.53-3.98 4.01-.1.93-.78 2.09-2 1.68-1.63-.55-.99-2.12-.51-2.93 1.57-2.63 2.12-6.22 5.54-7.31 5.25-1.68 7.59-5.54 8.58-10.6.94-4.77.85-9.77 3.48-14.23-4.05 2.07-5.67 5.88-7.92 9.22-1.39 2.07-3.1 6.01-5.53 4.31-2.39-1.67-.24-5.17 1.68-7.4 5.71-6.61 9.16-14.54 13.09-22.2.61-1.19.75-3.45 2.76-2.88 1.97.56.96 2.59.83 3.87-1.01 9.47-1.14 18.92.28 28.36.79 5.24-.74 8.99-6.08 11.01zm24.65 40.83c-.05.79-.22 1.58-.38 2.67-5.05-1.65-5.94-4.4-5.69-9.16 1.35-25.68-.29-51.14-7.56-76-.48-1.64-1.72-3.58.98-4.49 2.23-.75 1.91 1.25 2.21 2.34 7.4 27.73 12.36 55.76 10.44 84.64zm-8.79-113.42c3.04 7.45 1.16 13-4.51 18.16-6.92 6.31-14.47 11.65-22.63 16.19-1.29.72-3.07 1.91-3.9.18-.97-2.02 1.49-1.97 2.61-2.52 8.55-4.21 16.59-9.14 22.96-16.39 1.45-1.65 3.31-3.17 3.42-5.86-2.25-.57-2.63 1.27-3.44 2.25-5.66 6.9-12.73 11.5-21.42 13.71-2.79.71-5.48 1.02-7.29-1.41-1.85-2.49-.88-5.12 1.08-7.22 3.59-3.83-2.07-2.01-2.18-3.61 1.1-1.84 3.04-1.81 4.78-2.16 4.59-.91 9.1-2.12 12.8-5.13 3.56-2.9 4.85-6.44 2.66-10.96-4.39-9.03-1.85-14.29 8-16.94 3.67-.99 7.49-1.58 11.02-2.93 7.7-2.95 9.22-9.25 4.1-15.57-.75-.92-2.4-1.87-1.33-3.27.89-1.17 2.51-.68 3.74-.21 5.05 1.96 8.2 5.85 9.17 10.97.96 5.09 0 10.11-4.66 13.33-3.11 2.16-6.61 3.75-9.89 5.69-6.08 3.62-7.75 7.17-5.09 13.7z"/><path d="M96.4 89.59c.57-.99 2.31-2.19.83-3.32-1.57-1.2-2.23.75-2.94 1.72-19.7 26.96-40.66 53.02-58.87 81.05-13.39 20.61-25.38 41.98-32.61 65.69-.55 1.8-.94 3.53-.67 5.36 3 20.09 8.42 39.46 17.59 59.09 1.4-11.71 2.86-22.2 4.93-32.61 5.57-28.05 15.36-54.8 24.91-81.63 11.97-33.6 29.19-64.57 46.83-95.35zM85.42 86c-9.63 7.66-19.22 15.39-28.74 23.19-18.07 14.8-35.34 30.37-48.51 49.95-2 2.97-3.3 6.08-3.96 9.51C2.23 178.95.95 189.34.33 199.8c-.34 5.79-.57 11.62.2 18.11 25.94-49.12 58.98-92.37 92.8-135.21-3.59-.21-5.78 1.61-7.91 3.3zM191.89 383.17c-1.23-15.55-2.17-31.13-2.86-46.72-.2-4.49-1.4-8.46-3.43-12.26-.97-1.82-1.96-4.69-4.39-4.08-2.81.7-1.25 3.67-1.25 5.57.01 9.3 1.01 18.92-3 27.48-3.22 6.89-5.1 13.66-5.48 21.19-.16 3.33.25 5.13 3.27 6.69 4.02 2.08 7.64 4.84 8.22 9.89.3 2.62-.04 4.08-3.47 2.89-6.59-2.3-8.49-.76-8.5 6.9-.89 3.09 1.13 5.3 4.27 6.79 3.43 1.63 6.51 4.19 7.92 7.32 2.42 5.39 6.75 5.48 11.3 5.83 5.24.4 8.1-2.07 8.55-7.3.32-3.77-.44-7.14-2.83-10.27-4.5-5.87-7.73-12.5-8.32-19.92zM86.32 80.78c.93-.66 2.95-1.13 2.24-2.74-.96-2.18-2.63-.52-3.8-.01-17.3 7.51-34.56 15.09-51.85 22.62-1.24.54-2.49 1-3.21 2.2-8.22 13.79-14.86 28.27-19.93 44.78 3.28-3.62 5.7-6.35 8.17-9.03 20.42-22.08 43.97-40.45 68.38-57.82zM335.72 363.19c-3.74 9.07-15.02 8.94-19.8 1-2.15-3.57-4.03-7.2-5.09-11.26-1.4-5.34-1.76-10.78-2.16-16.26-.17-2.41-1.02-5.56-4.02-5.46-2.75.09-2.29 3.31-2.52 5.24-1.46 12.55.04 24.55 7.72 35.06 2.47 3.37 2.6 6.53.94 10.18-2.11 4.64-1.96 9.58-1.73 15.03 9.33-4.63 17.67-9.96 25.6-15.9 2.03-1.52 4.95-2.27 5.52-5.31.69-3.69-1.1-11.72-3.24-14.5-.43.78-.91 1.45-1.22 2.18zM141 367.25c.17-1.94-.44-3.59-1.18-5.25-6.38-14.22-9.89-28.88-6.79-44.54.46-2.31-.29-4.31-1.34-6.19-.89-1.6-2.06-3.21-4.27-2.76-2.11.43-2.96 2.15-3.12 4.05-.73 8.28-1.56 16.62.59 24.8 5.89 22.47 12.82 44.72 13.21 68.25.06 3.84 2.97 3.77 5.62 4.41 0-1.09.12-2.07-.02-3.02-1.93-13.19-3.86-26.37-2.7-39.75zM250 404.01c-4.57-9.53-8.1-19.23-5.72-30.1.9-4.09 2.74-7.27 6.55-9.45 5.82-3.33 10.73-7.85 14.95-13.06 1.24-1.53 2.33-3.23 3.18-4.99.69-1.41.59-3.09-.94-4-2.03-1.22-4.2-1.87-6.58-.62-1.81.95-1.39 2.17-1.09 3.76 1.11 5.84-2.19 9.82-6.22 13.25-3.59 3.05-7.91 4.79-12.43 6.05-1.37.38-2.86.53-2.45 2.86 1.55 8.6 1.34 17.21-1.37 25.55-1.4 4.3-2.53 7.74 3.91 8.1.89.05 2.18 1.34 2.47 2.3 2.18 7.13 7.56 7.8 13.75 7.23 1.09-.1 2.24.63 3.38.72 3.25.27 6.39 2.13 10.94.39-6.18-2.97-11.86-3.85-17.4-5.18-1.93-.49-3.93-.73-4.93-2.81zM252.72 346.32c-.08-.63-.33-1.59-.76-1.77-4.35-1.83-7.95-5.36-13-5.85 1.95 2.97 4.27 5.46 6.42 8.08 3.28 4.01-2.24 6.29-2.12 9.73 3.94-.2 9.88-6.63 9.46-10.19zM248.58 233.37c-2.82-1.58-6.18-.56-9.25-.24-2.16.22-1.81 2.71-1.56 4.13.94 5.27 2.21 10.49 3.36 15.73.44-.01.87-.02 1.31-.04 1.34-5.29 5.24-9.46 6.16-14.95.27-1.6 1.28-3.9-.02-4.63z"/></svg>